<?xml version="1.0" encoding="utf-8"?>
<!-- Generator: Adobe Illustrator 16.0.0, SVG Export Plug-In . SVG Version: 6.00 Build 0)  -->
<!DOCTYPE svg PUBLIC "-//W3C//DTD SVG 1.1//EN" "http://www.w3.org/Graphics/SVG/1.1/DTD/svg11.dtd">
<svg version="1.1" xmlns="http://www.w3.org/2000/svg" xmlns:xlink="http://www.w3.org/1999/xlink" x="0px" y="0px" width="75.04px"
	 height="66.464px" viewBox="0 0 75.04 66.464" enable-background="new 0 0 75.04 66.464" xml:space="preserve">
<g id="Layer_2">
</g>
<g id="Layer_1">
	<g>
		<polygon points="65.887,18.84 64.713,2.056 43.77,22.181 		"/>
		<polygon points="65.275,20.955 42.203,24.44 52.239,49.603 		"/>
		<polygon points="60.259,0.724 30.967,0 32.436,10.875 		"/>
		<polygon points="40.901,22.163 61.448,2.418 33.267,12.7 		"/>
		<polygon points="1.007,42.371 25.22,41.221 37.981,25.53 18.424,31.385 		"/>
		<polygon points="31.642,13.871 20.618,28.64 39.094,23.108 		"/>
		<polygon points="40.51,25.592 27.366,41.751 50.411,50.418 		"/>
		<polygon points="30.564,11.97 29.113,1.224 10.947,21.074 17.937,28.888 		"/>
		<polygon points="9.796,22.786 0,40.642 16.473,30.251 		"/>
		<polygon points="53.856,50.878 75.04,47.597 66.797,22.439 		"/>
		<path d="M52.213,53.147c-0.007,0-0.014,0.002-0.021,0.002c-0.005,0-0.01,0.001-0.015,0.001
			c-0.113,0-0.223-0.023-0.327-0.061c-0.008-0.003-0.016-0.001-0.023-0.004l-19.273-7.247L57.327,63.47l15.728-13.542l-20.723,3.211
			C52.292,53.145,52.252,53.146,52.213,53.147z"/>
		<polygon points="0.096,44.417 29.608,66.464 54.631,64.005 25.416,43.214 		"/>
	</g>
</g>
<g id="Layer_3">
</g>
<g id="Layer_4">
</g>
<g id="Layer_5">
</g>
<g id="programme">
</g>
<g id="billeterie" display="none">
</g>
<g id="home">
</g>
</svg>
