<?xml version="1.0" encoding="utf-8"?>
<!-- Generator: Adobe Illustrator 16.0.0, SVG Export Plug-In . SVG Version: 6.00 Build 0)  -->
<!DOCTYPE svg PUBLIC "-//W3C//DTD SVG 1.1//EN" "http://www.w3.org/Graphics/SVG/1.1/DTD/svg11.dtd">
<svg version="1.1" xmlns="http://www.w3.org/2000/svg" xmlns:xlink="http://www.w3.org/1999/xlink" x="0px" y="0px"
	 width="68.147px" height="58.549px" viewBox="0 0 68.147 58.549" enable-background="new 0 0 68.147 58.549" xml:space="preserve">
<g id="Layer_2">
</g>
<g id="Layer_1">
	<g>
		<path d="M24.855,40.531c0.005-0.012,0.011-0.024,0.017-0.036l10.311-21.246l-19.82,5.934l3.438,30.538
			l6.036-15.146C24.843,40.561,24.849,40.546,24.855,40.531z"/>
		<polygon points="19.827,58.549 40.176,55.489 26.161,42.654 		"/>
		<polygon points="68.147,43.412 66.357,24.088 50.601,44.955 		"/>
		<path d="M48.52,47.146c-0.007,0-0.014,0-0.021,0c-0.018,0.002-0.036,0.003-0.053,0.003
			c-0.034,0-0.065-0.012-0.1-0.015c-0.042-0.005-0.083-0.001-0.124-0.011L29.24,42.762l13.35,12.226l20.713-9.142l-14.769,1.299
			C48.529,47.146,48.524,47.145,48.52,47.146z"/>
		<polygon points="0.256,35.622 16.871,56.459 13.47,26.26 		"/>
		<path d="M53.756,1.121L34.089,2.264c-0.045,0.003-0.095,0.003-0.143-0.002L7.306,0l16.69,8.183L53.756,1.121z"/>
		<polygon points="22.438,9.646 2.949,0.092 0,33.351 13.535,23.762 		"/>
		<polygon points="16.544,22.74 34.692,17.307 24.188,10.621 		"/>
		<polygon points="37.07,16.449 59.688,1.769 26.411,9.665 		"/>
		<polygon points="66.004,20.276 64.237,1.2 39.913,16.987 		"/>
		<polygon points="65.276,22.201 38.632,18.842 48.718,44.13 		"/>
		<polygon points="27.217,40.245 46.811,44.746 36.986,20.113 		"/>
	</g>
</g>
<g id="Layer_3">
</g>
<g id="Layer_4">
</g>
<g id="Layer_5">
</g>
<g id="programme">
</g>
<g id="billeterie" display="none">
</g>
<g id="home">
</g>
</svg>
