<?xml version="1.0" encoding="utf-8"?>
<!-- Generator: Adobe Illustrator 16.0.0, SVG Export Plug-In . SVG Version: 6.00 Build 0)  -->
<!DOCTYPE svg PUBLIC "-//W3C//DTD SVG 1.1//EN" "http://www.w3.org/Graphics/SVG/1.1/DTD/svg11.dtd">
<svg version="1.1" xmlns="http://www.w3.org/2000/svg" xmlns:xlink="http://www.w3.org/1999/xlink" x="0px" y="0px"
	 width="72.353px" height="64.524px" viewBox="0 0 72.353 64.524" enable-background="new 0 0 72.353 64.524" xml:space="preserve">
<g id="Layer_2">
</g>
<g id="Layer_1">
	<g>
		<polygon fill="#333333" points="25.23,46.23 44.824,50.731 34.999,26.098 		"/>
		<polygon fill="#333333" points="24.385,12.57 20.869,10.751 0.43,25.721 11.909,29.284 		"/>
		<polygon fill="#333333" points="11.124,31.135 0,27.682 7.948,46.405 		"/>
		<polygon fill="#333333" points="13.146,31.236 9.559,48.489 23.104,46.03 33.196,25.233 		"/>
		<polygon fill="#333333" points="71.263,25.983 36.587,24.68 46.827,50.355 		"/>
		<polygon fill="#333333" points="27.726,12.904 35.334,22.335 63.572,6.345 		"/>
		<polygon fill="#333333" points="10.381,50.373 23.67,63.154 22.846,48.11 		"/>
		<polygon fill="#333333" points="63.706,4.287 40.609,0 22.917,9.56 26.048,11.179 		"/>
		<polygon fill="#333333" points="52.828,61.219 69.526,52.25 72.282,27.792 47.709,52.301 		"/>
		<polygon fill="#333333" points="24.854,48.196 25.747,64.524 50.818,61.734 45.811,53.011 		"/>
		<polygon fill="#333333" points="72.353,24.023 68.525,5.838 38.649,22.757 		"/>
		<polygon fill="#333333" points="14.899,28.623 33.376,23.092 25.923,13.854 		"/>
	</g>
</g>
<g id="Layer_3">
</g>
<g id="Layer_4">
</g>
<g id="Layer_5">
</g>
<g id="programme">
</g>
<g id="billeterie" display="none">
</g>
<g id="home">
</g>
</svg>
