<?xml version="1.0" encoding="utf-8"?>
<!-- Generator: Adobe Illustrator 16.0.0, SVG Export Plug-In . SVG Version: 6.00 Build 0)  -->
<!DOCTYPE svg PUBLIC "-//W3C//DTD SVG 1.1//EN" "http://www.w3.org/Graphics/SVG/1.1/DTD/svg11.dtd">
<svg version="1.1" xmlns="http://www.w3.org/2000/svg" xmlns:xlink="http://www.w3.org/1999/xlink" x="0px" y="0px"
	 width="74.261px" height="62.656px" viewBox="0 0 74.261 62.656" enable-background="new 0 0 74.261 62.656" xml:space="preserve">
<g id="Layer_2">
</g>
<g id="Layer_1">
	<g>
		<path d="M33.208,11.386l6.185-8.637l-13.387,8.838c-0.031,0.02-0.063,0.039-0.097,0.055L0.883,24.401L20,29.081
			L33.208,11.386z"/>
		<polygon points="0,26.245 10.799,45.933 18.913,30.874 		"/>
		<polygon points="68.876,3.042 43.821,-0.001 36.356,10.425 		"/>
		<polygon points="22.383,29.233 56.134,29.649 34.215,13.382 		"/>
		<polygon points="55.6,31.644 21,31.218 12.542,46.913 31.6,45.7 		"/>
		<polygon points="72.751,4.214 36.353,12.478 58.89,29.204 		"/>
		<polygon points="55.81,50.942 70.894,51.55 59.658,33.321 		"/>
		<polygon points="13.025,48.886 25.688,62.024 30.479,47.776 		"/>
		<polygon points="56.109,57.847 67.787,53.427 55.675,52.938 		"/>
		<polygon points="32.56,47.862 27.586,62.655 54.151,58.409 53.646,52.706 		"/>
		<polygon points="34.58,46.274 53.817,50.694 57.746,32.704 		"/>
		<polygon points="60.368,30.661 71.993,49.522 74.261,23.122 73.809,6.429 		"/>
	</g>
</g>
<g id="Layer_3">
</g>
<g id="Layer_4">
</g>
<g id="Layer_5">
</g>
<g id="programme">
</g>
<g id="billeterie" display="none">
</g>
<g id="home">
</g>
</svg>
