<?xml version="1.0" encoding="utf-8"?>
<!-- Generator: Adobe Illustrator 16.0.0, SVG Export Plug-In . SVG Version: 6.00 Build 0)  -->
<!DOCTYPE svg PUBLIC "-//W3C//DTD SVG 1.1//EN" "http://www.w3.org/Graphics/SVG/1.1/DTD/svg11.dtd">
<svg version="1.1" xmlns="http://www.w3.org/2000/svg" xmlns:xlink="http://www.w3.org/1999/xlink" x="0px" y="0px"
	 width="72.623px" height="65.76px" viewBox="0 0 72.623 65.76" enable-background="new 0 0 72.623 65.76" xml:space="preserve">
<g id="Layer_2">
</g>
<g id="Layer_1">
	<g>
		<polygon points="26.229,1.351 8.774,19.882 27.538,29.032 		"/>
		<polygon points="55.198,63.221 71.403,48.518 50.44,47.615 		"/>
		<polygon points="59.306,0.526 29.937,0 57.981,23.407 		"/>
		<path d="M72.622,46.568l-5.889-26.965L61.087,4.369l-1.225,21.136c0,0.007-0.004,0.014-0.004,0.021
			c-0.006,0.063-0.025,0.124-0.043,0.187c-0.014,0.046-0.02,0.094-0.039,0.138c-0.002,0.006-0.002,0.013-0.004,0.019l-9.164,19.753
			L72.622,46.568z"/>
		<polygon points="57.153,26.757 31.021,31.271 48.694,44.995 		"/>
		<polygon points="29.329,51.458 27.743,32.236 17.163,37.615 		"/>
		<polygon points="28.144,65.76 50.563,64.291 31.202,55.759 		"/>
		<polygon points="29.802,32.856 31.524,53.715 53.108,63.227 48.208,47.15 		"/>
		<polygon points="56.563,24.829 28.224,1.175 29.563,29.492 		"/>
		<polygon points="7.282,22.782 1.583,39.386 14.101,36.607 		"/>
		<polygon points="29.456,54.63 15.2,38.412 0.821,41.604 -0.001,43.997 26.241,65.146 		"/>
		<polygon points="16.011,35.957 26.374,30.688 9.306,22.366 		"/>
	</g>
</g>
<g id="Layer_3">
</g>
<g id="Layer_4">
</g>
<g id="Layer_5">
</g>
<g id="programme">
</g>
<g id="billeterie" display="none">
</g>
<g id="home">
</g>
</svg>
