<?xml version="1.0" encoding="utf-8"?>
<!-- Generator: Adobe Illustrator 16.0.0, SVG Export Plug-In . SVG Version: 6.00 Build 0)  -->
<!DOCTYPE svg PUBLIC "-//W3C//DTD SVG 1.1//EN" "http://www.w3.org/Graphics/SVG/1.1/DTD/svg11.dtd">
<svg version="1.1" xmlns="http://www.w3.org/2000/svg" xmlns:xlink="http://www.w3.org/1999/xlink" x="0px" y="0px"
	 width="86.285px" height="100px" viewBox="0 0 86.285 100" enable-background="new 0 0 86.285 100" xml:space="preserve">
<g id="Layer_1">
</g>
<g id="Layer_2">
	<g>
		<path d="M60.724,72.964c-2.174,0-4.145,0.794-5.718,2.062c-1.079-3.856-4.586-6.707-8.78-6.707
			c-0.701,0.001-1.269,0.565-1.269,1.265c0,0.697,0.567,1.266,1.267,1.266c3.653,0,6.63,2.971,6.63,6.627
			c0,0.011,0.01,0.018,0.01,0.025c-0.803,1.361-1.297,2.928-1.297,4.621c0,0.696,0.565,1.263,1.264,1.263s1.265-0.565,1.265-1.263
			c0-3.659,2.973-6.63,6.629-6.63c0.698,0,1.266-0.567,1.266-1.265C61.989,73.53,61.422,72.964,60.724,72.964z"/>
		<path d="M48.846,61.429c0.248,0.248,0.569,0.372,0.892,0.372s0.649-0.125,0.895-0.372
			c0.492-0.493,0.492-1.292,0-1.784c-2.587-2.585-2.587-6.792,0-9.377c0.006-0.003,0.004-0.012,0.007-0.016
			c1.567-0.403,3.014-1.186,4.186-2.358c0.496-0.493,0.496-1.293,0-1.788c-0.493-0.492-1.293-0.492-1.786,0
			c-1.253,1.253-2.919,1.943-4.688,1.943c-1.771,0-3.435-0.689-4.685-1.939c-0.493-0.493-1.293-0.493-1.786,0
			c-0.494,0.494-0.494,1.293,0,1.786c1.494,1.496,3.423,2.368,5.497,2.588C45.416,53.97,45.882,58.466,48.846,61.429z"/>
		<path d="M70.144,58.765c-2.114,0-4.094,0.75-5.715,2.061c-0.416-1.502-1.176-2.891-2.307-4.022
			c-1.729-1.728-4.028-2.679-6.475-2.679c-0.698,0-1.265,0.562-1.265,1.262c0,0.697,0.566,1.266,1.265,1.266
			c1.772,0,3.436,0.689,4.687,1.939c1.253,1.252,1.944,2.917,1.944,4.688c0,0.005,0.006,0.009,0.006,0.015
			c-0.822,1.392-1.292,2.967-1.292,4.631c0,0.695,0.564,1.263,1.264,1.263c0.698,0,1.265-0.567,1.265-1.263
			c0-1.771,0.688-3.437,1.943-4.688c1.246-1.252,2.912-1.941,4.682-1.941c0.695-0.002,1.263-0.568,1.263-1.266
			C71.408,59.331,70.841,58.765,70.144,58.765z"/>
		<path d="M84.695,42.681c-0.953-0.667-3.623-0.477-4.958,1.145c-0.096-1.43-0.286-2.766-0.668-3.814
			c0.572-0.095,0.954-0.19,0.954-0.19c4.577-1.621,7.533-5.436,5.721-11.348c0,0-7.438,0.764-8.01,8.392
			c-1.049-2.956-2.765-4.577-7.438-4.195c0,0,0.572,5.53,6.484,7.056c0.778,1.138,1.067,3.479,1.058,5.676
			c-1.559-1.114-3.401-1.855-5.397-2.089c-0.531-1.933-1.548-3.68-2.994-5.13c-2.194-2.198-5.113-3.407-8.219-3.407
			c-1.294,0-2.575,0.218-3.789,0.635c-2.195-2.519-5.411-4.021-8.788-4.021c-2.644,0-5.164,0.887-7.191,2.487
			c-0.555-0.438-1.146-0.819-1.767-1.146c0.018-0.181,0.036-0.359,0.056-0.533c3.755,1.231,5.297-2.083,5.297-2.083
			c-0.826-0.82-3.489-1.088-5.081,0.281c-0.107-1.757-0.375-2.294-0.007-3.872c0.58,0.004,0.972-0.025,0.972-0.025
			c4.787-0.815,8.334-3.976,7.652-10.094c0,0-6.018-0.462-8.591,4.899c0.096-2.79,0.494-6.205,2.376-8.686
			c6.069-0.4,7.593-5.847,7.593-5.847c-4.555-1.079-6.522,0.226-8.045,2.865C42.764,1.943,35.455,0,35.455,0
			c-2.7,5.532-0.532,9.779,3.701,12.157c0,0,0.453,0.176,0.906,0.351c-0.555,0.969-0.971,2.252-1.309,3.645
			c-1.038-1.825-3.62-2.562-4.69-1.974c0,0,0.244,3.623,4.287,3.743c-0.081,0.47-0.15,1.425-0.235,2.475
			c-0.932-1.322-2.525-2.179-5.471-2.496c0,0-0.396,5.642,5.107,7.949c-0.097,2.053-0.161,4.059-0.2,6.01
			c-1.054-0.309-2.158-0.471-3.285-0.471c-3.661,0-7,1.661-9.174,4.456c-1.519-0.705-3.176-1.071-4.895-1.071
			c-1.137,0-2.234,0.163-3.274,0.463c-0.061-0.781-0.131-1.572-0.21-2.371c-0.095-0.286-0.095-0.857-0.286-1.621
			c3.528,0.286,4.387-2.956,4.387-2.956c-0.954-0.763-3.624-0.571-4.959,1.049c-0.763-2.288-2.098-4.862-4.386-5.816
			c-0.191-0.096-0.477-0.096-0.763-0.19c-1.526-0.286-2.67,0.763-4.577,2.384L5.938,25.81c0,0.095-0.572,0.477-0.572,0.571
			c-0.953,1.526-0.953,3.242,0,4.101c0.572,0.572,1.431,0.763,2.289,0.572c0.953-0.19,2.002-0.763,2.86-1.717
			c0.954-1.049,1.526-2.288,1.526-3.337c1.144,1.145,1.812,2.956,2.288,4.673v0.095c0,0.19,0.096,0.286,0.096,0.382
			c0.095,0.095,0.095,0.095,0.095,0.19c0.096,0.096,0.096,0.19,0.096,0.286c0.096,0.096,0.096,0.19,0.096,0.286c0,0,0,0.096,0,0.19
			c0.095,0.096,0.095,0.191,0.095,0.286c0,0.096,0,0.096,0,0.19c0.096,0.191,0.096,0.382,0.096,0.478
			c0.082,0.929,0.15,1.893,0.208,2.872c-3.056,1.473-5.366,4.24-6.209,7.649c-5.128,1.267-8.808,5.85-8.808,11.299
			c0,2.074,0.559,4.111,1.598,5.884C0.593,62.57,0,64.662,0,66.804c0,6.421,5.224,11.645,11.645,11.645
			c0.652,0,1.3-0.054,1.938-0.161c1.907,3.964,5.948,6.581,10.485,6.581c2.381,0,4.657-0.712,6.579-2.032
			c2.349,1.563,5.241,2.254,8.039,1.918c1.263,2.09,3.159,3.739,5.407,4.699C44.647,95.36,49.635,100,55.687,100
			c5.354,0,9.882-3.565,11.234-8.564c5.7-0.749,10.115-5.638,10.115-11.538c0-0.238-0.008-0.477-0.023-0.712
			c4.264-1.781,7.092-5.938,7.092-10.731c0-2.878-1.086-5.63-2.962-7.737c1.024-1.759,1.581-3.772,1.581-5.84
			c0-2.967-1.115-5.677-2.948-7.735c0.037-0.49,0.058-0.997,0.058-1.505C83.742,46.209,84.695,42.681,84.695,42.681z M73.999,75.395
			l-2.299,0.5l0.584,2.279c0.143,0.561,0.217,1.14,0.217,1.723c0,3.916-3.19,7.104-7.106,7.104c-0.094,0-0.187-0.002-0.278-0.007
			l-2.149-0.092l-0.205,2.141c-0.346,3.6-3.453,6.42-7.074,6.42c-3.92,0-7.108-3.189-7.108-7.107c0-0.134,0.006-0.267,0.014-0.396
			l0.113-1.869l-1.813-0.465c-2.2-0.562-4.013-2.16-4.845-4.271l-0.766-1.941l-1.998,0.601c-2.452,0.738-5.23,0.06-7.08-1.726
			l-1.589-1.533l-1.575,1.548c-1.332,1.309-3.098,2.029-4.971,2.029c-3.246,0-6.074-2.193-6.879-5.332l-0.631-2.462l-2.375,0.906
			c-0.814,0.312-1.668,0.468-2.538,0.468c-3.92,0-7.108-3.188-7.108-7.107c0-1.694,0.573-3.271,1.657-4.559l1.211-1.438
			l-1.188-1.456c-1.039-1.275-1.588-2.823-1.588-4.475c0-3.633,2.829-6.741,6.442-7.075l1.875-0.174l0.175-1.876
			c0.162-1.756,0.981-3.325,2.196-4.476c0.12,5.342-0.001,10.347-0.087,12.487c-0.208,0.055-0.405,0.163-0.569,0.327
			c-0.493,0.491-0.493,1.292,0,1.785c2.587,2.586,2.587,6.793,0,9.378c-0.493,0.493-0.493,1.293,0,1.785
			c0.247,0.246,0.571,0.371,0.895,0.371c0.322,0,0.646-0.125,0.894-0.371c1.536-1.536,2.37-3.49,2.584-5.499
			c1.356,0.769,2.876,1.214,4.477,1.214c2.444,0,4.743-0.952,6.473-2.681c0.495-0.495,0.495-1.294,0-1.788
			c-0.491-0.494-1.291-0.494-1.786,0c-1.251,1.253-2.917,1.941-4.687,1.941s-3.437-0.689-4.687-1.943
			c-0.006-0.006-0.017-0.003-0.024-0.009c-0.33-1.283-0.917-2.513-1.802-3.581c0.089-1.105,0.513-7.06,0.205-14.707
			c0.916-0.432,1.933-0.675,2.994-0.675c1.56,0,3.036,0.491,4.271,1.424l2.201,1.663l1.205-2.483c1.196-2.462,3.646-3.99,6.392-3.99
			c1.146,0,2.251,0.274,3.238,0.782c0.002,2.637,0.047,5.146,0.12,7.5c-0.061-0.168-0.157-0.326-0.291-0.461
			c-0.491-0.49-1.291-0.489-1.787-0.001c-1.494,1.494-2.365,3.426-2.586,5.499c-1.356-0.769-2.876-1.213-4.477-1.213
			c-2.445,0-4.745,0.952-6.474,2.684c-0.492,0.493-0.492,1.291,0,1.784c0.494,0.494,1.294,0.494,1.787,0
			c1.253-1.251,2.918-1.94,4.687-1.94c1.772,0,3.437,0.689,4.686,1.94c0.007,0.006,0.014,0.003,0.019,0.009
			c0.404,1.564,1.185,3.014,2.358,4.187c0.248,0.246,0.571,0.371,0.894,0.371c0.323,0,0.647-0.125,0.895-0.371
			c0.492-0.493,0.492-1.293,0-1.783c-1.254-1.256-1.943-2.92-1.943-4.692c-0.001-1.771,0.689-3.436,1.942-4.684
			c0.153-0.154,0.26-0.34,0.316-0.535c0.339,9.94,1.154,16.986,1.214,19.011c-0.268,0.559-0.479,1.143-0.634,1.744
			c-0.004,0.005-0.012,0.002-0.017,0.007c-1.25,1.252-2.917,1.94-4.688,1.94s-3.437-0.688-4.687-1.94
			c-0.492-0.495-1.291-0.495-1.786,0c-0.496,0.493-0.496,1.293,0,1.785c1.728,1.728,4.027,2.683,6.473,2.683
			c1.6,0,3.12-0.446,4.476-1.212c0.22,2.073,1.09,4.003,2.584,5.496c0.248,0.248,0.572,0.371,0.894,0.371
			c0.324,0,0.648-0.124,0.896-0.371c0.491-0.493,0.491-1.292,0-1.784c-1.252-1.253-1.94-2.918-1.94-4.688s0.689-3.435,1.941-4.685
			c0.492-0.494,0.492-1.294,0-1.788c-0.462-0.463-1.195-0.491-1.692-0.087c-0.374-5.462-1.276-15.438-1.23-23.3
			c0.089,0.096,0.177,0.195,0.261,0.297l1.745,2.104l1.745-2.104c1.348-1.623,3.334-2.554,5.448-2.554
			c2.474,0,4.81,1.327,6.094,3.461l1.131,1.879l1.914-1.066c1.061-0.589,2.218-0.888,3.438-0.888c1.893,0,3.672,0.737,5.009,2.076
			c1.181,1.181,1.891,2.688,2.058,4.356l0.216,2.178l2.185-0.14c0.131-0.007,0.261-0.013,0.386-0.013
			c3.919,0,7.106,3.188,7.106,7.106c0,2.004-0.859,3.926-2.361,5.274l-1.461,1.295l1.681,0.881c2.171,1.28,3.522,3.628,3.522,6.13
			C79.569,71.829,77.278,74.684,73.999,75.395z"/>
	</g>
</g>
</svg>
