<?xml version="1.0" encoding="utf-8"?>
<!-- Generator: Adobe Illustrator 16.0.0, SVG Export Plug-In . SVG Version: 6.00 Build 0)  -->
<!DOCTYPE svg PUBLIC "-//W3C//DTD SVG 1.1//EN" "http://www.w3.org/Graphics/SVG/1.1/DTD/svg11.dtd">
<svg version="1.1" xmlns="http://www.w3.org/2000/svg" xmlns:xlink="http://www.w3.org/1999/xlink" x="0px" y="0px"
	 width="105.472px" height="100.001px" viewBox="0 0 105.472 100.001" enable-background="new 0 0 105.472 100.001"
	 xml:space="preserve">
<g id="Layer_1">
</g>
<g id="Layer_2">
	<g>
		<path d="M38.063,45.384h11.303c0.567,0,1.027-0.461,1.027-1.027c0-0.567-0.46-1.028-1.027-1.028H38.063
			c-0.568,0-1.027,0.461-1.027,1.028C37.036,44.923,37.495,45.384,38.063,45.384z"/>
		<path d="M38.063,49.494h11.303c0.567,0,1.027-0.46,1.027-1.028c0-0.566-0.46-1.027-1.027-1.027H38.063
			c-0.568,0-1.027,0.461-1.027,1.027C37.036,49.034,37.495,49.494,38.063,49.494z"/>
		<path d="M38.063,53.604h11.303c0.567,0,1.027-0.46,1.027-1.026c0-0.568-0.46-1.028-1.027-1.028H38.063
			c-0.568,0-1.027,0.46-1.027,1.028C37.036,53.144,37.495,53.604,38.063,53.604z"/>
		<path d="M38.063,57.715h11.303c0.567,0,1.027-0.46,1.027-1.029c0-0.566-0.46-1.026-1.027-1.026H38.063
			c-0.568,0-1.027,0.46-1.027,1.026C37.036,57.255,37.495,57.715,38.063,57.715z"/>
		<path d="M38.063,61.825h11.303c0.567,0,1.027-0.461,1.027-1.028s-0.46-1.028-1.027-1.028H38.063
			c-0.568,0-1.027,0.461-1.027,1.028S37.495,61.825,38.063,61.825z"/>
		<path d="M38.063,65.935h11.303c0.567,0,1.027-0.46,1.027-1.027c0-0.568-0.46-1.028-1.027-1.028H38.063
			c-0.568,0-1.027,0.46-1.027,1.028C37.036,65.475,37.495,65.935,38.063,65.935z"/>
		<path d="M38.063,70.045h11.303c0.567,0,1.027-0.46,1.027-1.027s-0.46-1.028-1.027-1.028H38.063
			c-0.568,0-1.027,0.461-1.027,1.028S37.495,70.045,38.063,70.045z"/>
		<path d="M38.063,74.154h11.303c0.567,0,1.027-0.46,1.027-1.026c0-0.568-0.46-1.028-1.027-1.028H38.063
			c-0.568,0-1.027,0.46-1.027,1.028C37.036,73.694,37.495,74.154,38.063,74.154z"/>
		<path d="M22.65,33.052h11.303c0.567,0,1.027-0.459,1.027-1.026s-0.46-1.027-1.027-1.027H22.65
			c-0.567,0-1.028,0.46-1.028,1.027S22.083,33.052,22.65,33.052z"/>
		<path d="M22.65,37.163h11.303c0.567,0,1.027-0.46,1.027-1.028c0-0.566-0.46-1.026-1.027-1.026H22.65
			c-0.567,0-1.028,0.46-1.028,1.026C21.622,36.703,22.083,37.163,22.65,37.163z"/>
		<path d="M22.65,41.273h11.303c0.567,0,1.027-0.461,1.027-1.027c0-0.567-0.46-1.028-1.027-1.028H22.65
			c-0.567,0-1.028,0.461-1.028,1.028C21.622,40.812,22.083,41.273,22.65,41.273z"/>
		<path d="M22.65,45.384h11.303c0.567,0,1.027-0.461,1.027-1.027c0-0.567-0.46-1.028-1.027-1.028H22.65
			c-0.567,0-1.028,0.461-1.028,1.028C21.622,44.923,22.083,45.384,22.65,45.384z"/>
		<path d="M22.65,49.494h11.303c0.567,0,1.027-0.46,1.027-1.028c0-0.566-0.46-1.027-1.027-1.027H22.65
			c-0.567,0-1.028,0.461-1.028,1.027C21.622,49.034,22.083,49.494,22.65,49.494z"/>
		<path d="M22.65,53.604h11.303c0.567,0,1.027-0.46,1.027-1.026c0-0.568-0.46-1.028-1.027-1.028H22.65
			c-0.567,0-1.028,0.46-1.028,1.028C21.622,53.144,22.083,53.604,22.65,53.604z"/>
		<path d="M22.65,57.715h11.303c0.567,0,1.027-0.46,1.027-1.029c0-0.566-0.46-1.026-1.027-1.026H22.65
			c-0.567,0-1.028,0.46-1.028,1.026C21.622,57.255,22.083,57.715,22.65,57.715z"/>
		<path d="M22.65,61.825h11.303c0.567,0,1.027-0.461,1.027-1.028s-0.46-1.028-1.027-1.028H22.65
			c-0.567,0-1.028,0.461-1.028,1.028S22.083,61.825,22.65,61.825z"/>
		<path d="M22.65,65.935h11.303c0.567,0,1.027-0.46,1.027-1.027c0-0.568-0.46-1.028-1.027-1.028H22.65
			c-0.567,0-1.028,0.46-1.028,1.028C21.622,65.475,22.083,65.935,22.65,65.935z"/>
		<path d="M22.65,70.045h11.303c0.567,0,1.027-0.46,1.027-1.027s-0.46-1.028-1.027-1.028H22.65
			c-0.567,0-1.028,0.461-1.028,1.028S22.083,70.045,22.65,70.045z"/>
		<path d="M22.65,74.154h11.303c0.567,0,1.027-0.46,1.027-1.026c0-0.568-0.46-1.028-1.027-1.028H22.65
			c-0.567,0-1.028,0.46-1.028,1.028C21.622,73.694,22.083,74.154,22.65,74.154z"/>
		<path d="M22.65,78.266h11.303c0.567,0,1.027-0.46,1.027-1.028c0-0.567-0.46-1.027-1.027-1.027H22.65
			c-0.567,0-1.028,0.46-1.028,1.027C21.622,77.806,22.083,78.266,22.65,78.266z"/>
		<path d="M22.65,82.376h11.303c0.567,0,1.027-0.461,1.027-1.027c0-0.568-0.46-1.028-1.027-1.028H22.65
			c-0.567,0-1.028,0.46-1.028,1.028C21.622,81.915,22.083,82.376,22.65,82.376z"/>
		<path d="M22.65,86.485h11.303c0.567,0,1.027-0.459,1.027-1.027c0-0.567-0.46-1.027-1.027-1.027H22.65
			c-0.567,0-1.028,0.46-1.028,1.027C21.622,86.026,22.083,86.485,22.65,86.485z"/>
		<path d="M22.65,90.596h11.303c0.567,0,1.027-0.46,1.027-1.027s-0.46-1.027-1.027-1.027H22.65
			c-0.567,0-1.028,0.46-1.028,1.027S22.083,90.596,22.65,90.596z"/>
		<path d="M7.237,33.052H18.54c0.567,0,1.027-0.459,1.027-1.026s-0.46-1.027-1.027-1.027H7.237
			c-0.568,0-1.028,0.46-1.028,1.027S6.669,33.052,7.237,33.052z"/>
		<path d="M7.237,37.163H18.54c0.567,0,1.027-0.46,1.027-1.028c0-0.566-0.46-1.026-1.027-1.026H7.237
			c-0.568,0-1.028,0.46-1.028,1.026C6.209,36.703,6.669,37.163,7.237,37.163z"/>
		<path d="M7.237,41.273H18.54c0.567,0,1.027-0.461,1.027-1.027c0-0.567-0.46-1.028-1.027-1.028H7.237
			c-0.568,0-1.028,0.461-1.028,1.028C6.209,40.812,6.669,41.273,7.237,41.273z"/>
		<path d="M7.237,45.384H18.54c0.567,0,1.027-0.461,1.027-1.027c0-0.567-0.46-1.028-1.027-1.028H7.237
			c-0.568,0-1.028,0.461-1.028,1.028C6.209,44.923,6.669,45.384,7.237,45.384z"/>
		<path d="M7.237,49.494H18.54c0.567,0,1.027-0.46,1.027-1.028c0-0.566-0.46-1.027-1.027-1.027H7.237
			c-0.568,0-1.028,0.461-1.028,1.027C6.209,49.034,6.669,49.494,7.237,49.494z"/>
		<path d="M7.237,53.604H18.54c0.567,0,1.027-0.46,1.027-1.026c0-0.568-0.46-1.028-1.027-1.028H7.237
			c-0.568,0-1.028,0.46-1.028,1.028C6.209,53.144,6.669,53.604,7.237,53.604z"/>
		<path d="M7.237,57.715H18.54c0.567,0,1.027-0.46,1.027-1.029c0-0.566-0.46-1.026-1.027-1.026H7.237
			c-0.568,0-1.028,0.46-1.028,1.026C6.209,57.255,6.669,57.715,7.237,57.715z"/>
		<path d="M7.237,61.825H18.54c0.567,0,1.027-0.461,1.027-1.028s-0.46-1.028-1.027-1.028H7.237
			c-0.568,0-1.028,0.461-1.028,1.028S6.669,61.825,7.237,61.825z"/>
		<path d="M7.237,65.935H18.54c0.567,0,1.027-0.46,1.027-1.027c0-0.568-0.46-1.028-1.027-1.028H7.237
			c-0.568,0-1.028,0.46-1.028,1.028C6.209,65.475,6.669,65.935,7.237,65.935z"/>
		<path d="M7.237,70.045H18.54c0.567,0,1.027-0.46,1.027-1.027s-0.46-1.028-1.027-1.028H7.237
			c-0.568,0-1.028,0.461-1.028,1.028S6.669,70.045,7.237,70.045z"/>
		<path d="M7.237,74.154H18.54c0.567,0,1.027-0.46,1.027-1.026c0-0.568-0.46-1.028-1.027-1.028H7.237
			c-0.568,0-1.028,0.46-1.028,1.028C6.209,73.694,6.669,74.154,7.237,74.154z"/>
		<path d="M7.237,78.266H18.54c0.567,0,1.027-0.46,1.027-1.028c0-0.567-0.46-1.027-1.027-1.027H7.237
			c-0.568,0-1.028,0.46-1.028,1.027C6.209,77.806,6.669,78.266,7.237,78.266z"/>
		<path d="M7.237,82.376H18.54c0.567,0,1.027-0.461,1.027-1.027c0-0.568-0.46-1.028-1.027-1.028H7.237
			c-0.568,0-1.028,0.46-1.028,1.028C6.209,81.915,6.669,82.376,7.237,82.376z"/>
		<path d="M7.237,86.485H18.54c0.567,0,1.027-0.459,1.027-1.027c0-0.567-0.46-1.027-1.027-1.027H7.237
			c-0.568,0-1.028,0.46-1.028,1.027C6.209,86.026,6.669,86.485,7.237,86.485z"/>
		<path d="M19.567,89.568c0-0.567-0.46-1.027-1.027-1.027H7.237c-0.568,0-1.028,0.46-1.028,1.027
			s0.46,1.027,1.028,1.027H18.54C19.107,90.596,19.567,90.136,19.567,89.568z"/>
		<path d="M76.712,0C62.49,0,50.653,10.381,48.361,23.962H9.033v0.001C4.063,23.963,0,27.884,0,32.762v54.385
			c0,3.428,2.009,6.365,4.925,7.81c1.449,2.979,4.572,5.021,8.171,5.021h32.132c0.129,0.03,0.225,0.03,0.355,0
			c0.097,0,0.162-0.032,0.258-0.065c0.032-0.03,0.065-0.03,0.065-0.063c0.065-0.031,0.097-0.064,0.162-0.095L62.07,83.206
			c0.063-0.03,0.096-0.095,0.128-0.127c0.032-0.063,0.064-0.126,0.064-0.19c0.033-0.032,0.033-0.032,0.033-0.063
			c0.031-0.064,0.031-0.129,0.031-0.192v-0.031v-0.032V53.646c4.234,2.457,9.146,3.873,14.385,3.873
			c15.858,0,28.76-12.901,28.76-28.76C105.472,12.902,92.57,0,76.712,0z M58.265,33.001h1.093c0.731,1.1,1.162,2.408,1.162,3.823
			v9.72c-0.805-0.732-1.557-1.521-2.255-2.354V33.001z M56.456,41.723c-2.399-3.742-3.797-8.188-3.797-12.964
			c0-0.718,0.037-1.426,0.1-2.127c0.722,0.39,1.371,0.891,1.911,1.49c0.574,0.637,1.032,1.376,1.341,2.188
			c0.287,0.762,0.445,1.588,0.445,2.451V41.723z M6.302,93.622c-0.807-0.312-1.539-0.759-2.166-1.315
			c-1.438-1.271-2.33-3.104-2.33-5.159V32.761c0-3.888,3.194-7.013,7.228-7.013h39.079c-0.104,0.99-0.158,1.994-0.158,3.011
			c0,0.755,0.038,1.5,0.095,2.239h-9.985c-0.568,0-1.027,0.46-1.027,1.027s0.459,1.026,1.027,1.026h10.212
			c0.104,0.695,0.239,1.379,0.394,2.057H38.063c-0.568,0-1.027,0.46-1.027,1.026c0,0.568,0.459,1.028,1.027,1.028h11.146
			c0.24,0.783,0.517,1.55,0.82,2.304c-0.18-0.153-0.409-0.249-0.663-0.249H38.063c-0.568,0-1.027,0.461-1.027,1.028
			c0,0.566,0.459,1.027,1.027,1.027h11.303c0.543,0,0.983-0.423,1.021-0.956c1.463,3.318,3.53,6.312,6.069,8.835v28.463h-6.135
			c0.047-0.116,0.072-0.243,0.072-0.378c0-0.567-0.46-1.027-1.027-1.027H38.063c-0.568,0-1.027,0.46-1.027,1.027
			c0,0.568,0.459,1.028,1.027,1.028h7.961c-1.177,0.469-2.229,1.173-3.095,2.055h-4.866c-0.568,0-1.027,0.46-1.027,1.028
			c0,0.566,0.459,1.027,1.027,1.027h3.361c-0.34,0.642-0.6,1.331-0.771,2.055h-2.591c-0.568,0-1.027,0.46-1.027,1.027
			c0,0.568,0.459,1.027,1.027,1.027h2.359v2.056h-2.359c-0.568,0-1.027,0.46-1.027,1.027s0.459,1.027,1.027,1.027h2.359v3.533H9.033
			C8.063,94.129,7.143,93.949,6.302,93.622z M44.485,98.192h-31.39c-2.196,0-4.143-0.919-5.461-2.383
			c0.456,0.068,0.923,0.105,1.398,0.105h32.132c0.129,0.03,0.225,0.03,0.355,0c0.097,0,0.162-0.032,0.258-0.066
			c0.032-0.03,0.065-0.03,0.065-0.063c0.065-0.03,0.097-0.063,0.162-0.095l2.479-2.564V98.192z M44.485,90.502l-0.091,0.094
			l-0.521,0.536l-1.612,1.689v-2.226v-2.055v-2.056v-0.071c0-0.691,0.102-1.355,0.288-1.983c0.222-0.746,0.565-1.438,1.011-2.055
			c0.609-0.846,1.406-1.549,2.337-2.056c1.037-0.565,2.238-0.888,3.526-0.888h5.808l-2.19,2.258l-2.235,2.301l-0.716,0.737
			l-1.705,1.757L46.7,88.222l-0.311,0.319L44.485,90.502z M47.938,95.194l-1.613,1.69v-5.66l0.608-0.629l1.987-2.055l4.88-5.045
			h5.494L47.938,95.194z M60.52,81.678h-4.963l2.45-2.534c0.064-0.03,0.097-0.094,0.129-0.127c0.031-0.063,0.064-0.127,0.064-0.19
			c0.032-0.032,0.032-0.032,0.032-0.063c0.032-0.064,0.032-0.129,0.032-0.193v-0.03v-0.032V50.8
			c0.723,0.605,1.475,1.177,2.255,1.711V81.678z M76.712,52.812c-5.394,0-10.373-1.775-14.385-4.773V36.822
			c0-1.373-0.324-2.667-0.895-3.821h2.041v7.102h5.221v-7.102h6.41v-4.799h-6.41v-7.102h-5.221v7.102h-6.41v0.162
			c-0.934-1.582-2.355-2.852-4.065-3.612C54.907,13.376,64.794,4.707,76.712,4.707c13.285,0,24.053,10.768,24.053,24.052
			S89.997,52.812,76.712,52.812z"/>
		<path d="M86.563,17.128c-0.705,0.525-1.44,1.024-2.208,1.497c-0.768,0.475-1.555,0.909-2.36,1.305
			c-0.807,0.397-1.581,0.749-2.322,1.056l1.727,4.415c0.896-0.308,1.817-0.672,2.764-1.095c0.947-0.422,1.805-0.888,2.572-1.4
			v19.155h5.72V15.458h-3.992C87.899,16.047,87.267,16.604,86.563,17.128z"/>
	</g>
</g>
</svg>
