<?xml version="1.0" encoding="utf-8"?>
<!-- Generator: Adobe Illustrator 16.0.0, SVG Export Plug-In . SVG Version: 6.00 Build 0)  -->
<!DOCTYPE svg PUBLIC "-//W3C//DTD SVG 1.1//EN" "http://www.w3.org/Graphics/SVG/1.1/DTD/svg11.dtd">
<svg version="1.1" id="Layer_1" xmlns="http://www.w3.org/2000/svg" xmlns:xlink="http://www.w3.org/1999/xlink" x="0px" y="0px"
	 width="68.556px" height="65px" viewBox="18.092 16.775 68.556 65" enable-background="new 18.092 16.775 68.556 65"
	 xml:space="preserve">
<g id="Layer_1_1_">
</g>
<g>
	<path d="M42.833,46.275h7.347c0.368,0,0.667-0.3,0.667-0.668c0-0.369-0.299-0.669-0.667-0.669h-7.347
		c-0.37,0-0.668,0.3-0.668,0.669C42.165,45.976,42.463,46.275,42.833,46.275z"/>
	<path d="M42.833,48.947h7.347c0.368,0,0.667-0.3,0.667-0.669c0-0.368-0.299-0.668-0.667-0.668h-7.347
		c-0.37,0-0.668,0.3-0.668,0.668C42.165,48.647,42.463,48.947,42.833,48.947z"/>
	<path d="M42.833,51.618h7.347c0.368,0,0.667-0.299,0.667-0.668s-0.299-0.667-0.667-0.667h-7.347c-0.37,0-0.668,0.298-0.668,0.667
		S42.463,51.618,42.833,51.618z"/>
	<path d="M42.833,54.29h7.347c0.368,0,0.667-0.299,0.667-0.668s-0.299-0.668-0.667-0.668h-7.347c-0.37,0-0.668,0.299-0.668,0.668
		S42.463,54.29,42.833,54.29z"/>
	<path d="M42.833,56.961h7.347c0.368,0,0.667-0.299,0.667-0.668s-0.299-0.668-0.667-0.668h-7.347c-0.37,0-0.668,0.299-0.668,0.668
		S42.463,56.961,42.833,56.961z"/>
	<path d="M42.833,59.633h7.347c0.368,0,0.667-0.299,0.667-0.668s-0.299-0.668-0.667-0.668h-7.347c-0.37,0-0.668,0.299-0.668,0.668
		S42.463,59.633,42.833,59.633z"/>
	<path d="M42.833,62.305h7.347c0.368,0,0.667-0.299,0.667-0.668s-0.299-0.668-0.667-0.668h-7.347c-0.37,0-0.668,0.299-0.668,0.668
		S42.463,62.305,42.833,62.305z"/>
	<path d="M42.833,64.975h7.347c0.368,0,0.667-0.299,0.667-0.666c0-0.369-0.299-0.668-0.667-0.668h-7.347
		c-0.37,0-0.668,0.299-0.668,0.668C42.165,64.676,42.463,64.975,42.833,64.975z"/>
	<path d="M32.814,38.26h7.347c0.369,0,0.667-0.299,0.667-0.668c0-0.368-0.298-0.668-0.667-0.668h-7.347
		c-0.369,0-0.669,0.3-0.669,0.668C32.145,37.961,32.445,38.26,32.814,38.26z"/>
	<path d="M32.814,40.932h7.347c0.369,0,0.667-0.299,0.667-0.668c0-0.368-0.298-0.668-0.667-0.668h-7.347
		c-0.369,0-0.669,0.3-0.669,0.668C32.145,40.633,32.445,40.932,32.814,40.932z"/>
	<path d="M32.814,43.604h7.347c0.369,0,0.667-0.3,0.667-0.668c0-0.369-0.298-0.668-0.667-0.668h-7.347
		c-0.369,0-0.669,0.299-0.669,0.668C32.145,43.304,32.445,43.604,32.814,43.604z"/>
	<path d="M32.814,46.275h7.347c0.369,0,0.667-0.3,0.667-0.668c0-0.369-0.298-0.669-0.667-0.669h-7.347
		c-0.369,0-0.669,0.3-0.669,0.669C32.145,45.976,32.445,46.275,32.814,46.275z"/>
	<path d="M32.814,48.947h7.347c0.369,0,0.667-0.3,0.667-0.669c0-0.368-0.298-0.668-0.667-0.668h-7.347
		c-0.369,0-0.669,0.3-0.669,0.668C32.145,48.647,32.445,48.947,32.814,48.947z"/>
	<path d="M32.814,51.618h7.347c0.369,0,0.667-0.299,0.667-0.668s-0.298-0.667-0.667-0.667h-7.347c-0.369,0-0.669,0.298-0.669,0.667
		S32.445,51.618,32.814,51.618z"/>
	<path d="M32.814,54.29h7.347c0.369,0,0.667-0.299,0.667-0.668s-0.298-0.668-0.667-0.668h-7.347c-0.369,0-0.669,0.299-0.669,0.668
		S32.445,54.29,32.814,54.29z"/>
	<path d="M32.814,56.961h7.347c0.369,0,0.667-0.299,0.667-0.668s-0.298-0.668-0.667-0.668h-7.347c-0.369,0-0.669,0.299-0.669,0.668
		S32.445,56.961,32.814,56.961z"/>
	<path d="M32.814,59.633h7.347c0.369,0,0.667-0.299,0.667-0.668s-0.298-0.668-0.667-0.668h-7.347c-0.369,0-0.669,0.299-0.669,0.668
		S32.445,59.633,32.814,59.633z"/>
	<path d="M32.814,62.305h7.347c0.369,0,0.667-0.299,0.667-0.668s-0.298-0.668-0.667-0.668h-7.347c-0.369,0-0.669,0.299-0.669,0.668
		S32.445,62.305,32.814,62.305z"/>
	<path d="M32.814,64.975h7.347c0.369,0,0.667-0.299,0.667-0.666c0-0.369-0.298-0.668-0.667-0.668h-7.347
		c-0.369,0-0.669,0.299-0.669,0.668C32.145,64.676,32.445,64.975,32.814,64.975z"/>
	<path d="M32.814,67.647h7.347c0.369,0,0.667-0.297,0.667-0.666s-0.298-0.67-0.667-0.67h-7.347c-0.369,0-0.669,0.301-0.669,0.67
		S32.445,67.647,32.814,67.647z"/>
	<path d="M32.814,70.319h7.347c0.369,0,0.667-0.299,0.667-0.666c0-0.369-0.298-0.67-0.667-0.67h-7.347
		c-0.369,0-0.669,0.301-0.669,0.67C32.145,70.02,32.445,70.319,32.814,70.319z"/>
	<path d="M32.814,72.991h7.347c0.369,0,0.667-0.297,0.667-0.668c0-0.367-0.298-0.668-0.667-0.668h-7.347
		c-0.369,0-0.669,0.301-0.669,0.668C32.145,72.694,32.445,72.991,32.814,72.991z"/>
	<path d="M32.814,75.663h7.347c0.369,0,0.667-0.299,0.667-0.668s-0.298-0.668-0.667-0.668h-7.347c-0.369,0-0.669,0.299-0.669,0.668
		S32.445,75.663,32.814,75.663z"/>
	<path d="M22.796,38.26h7.347c0.368,0,0.668-0.299,0.668-0.668c0-0.368-0.3-0.668-0.668-0.668h-7.347c-0.37,0-0.669,0.3-0.669,0.668
		C22.127,37.961,22.426,38.26,22.796,38.26z"/>
	<path d="M22.796,40.932h7.347c0.368,0,0.668-0.299,0.668-0.668c0-0.368-0.3-0.668-0.668-0.668h-7.347
		c-0.37,0-0.669,0.3-0.669,0.668C22.127,40.633,22.426,40.932,22.796,40.932z"/>
	<path d="M22.796,43.604h7.347c0.368,0,0.668-0.3,0.668-0.668c0-0.369-0.3-0.668-0.668-0.668h-7.347
		c-0.37,0-0.669,0.299-0.669,0.668C22.127,43.304,22.426,43.604,22.796,43.604z"/>
	<path d="M22.796,46.275h7.347c0.368,0,0.668-0.3,0.668-0.668c0-0.369-0.3-0.669-0.668-0.669h-7.347c-0.37,0-0.669,0.3-0.669,0.669
		C22.127,45.976,22.426,46.275,22.796,46.275z"/>
	<path d="M22.796,48.947h7.347c0.368,0,0.668-0.3,0.668-0.669c0-0.368-0.3-0.668-0.668-0.668h-7.347c-0.37,0-0.669,0.3-0.669,0.668
		C22.127,48.647,22.426,48.947,22.796,48.947z"/>
	<path d="M22.796,51.618h7.347c0.368,0,0.668-0.299,0.668-0.668s-0.3-0.667-0.668-0.667h-7.347c-0.37,0-0.669,0.298-0.669,0.667
		S22.426,51.618,22.796,51.618z"/>
	<path d="M22.796,54.29h7.347c0.368,0,0.668-0.299,0.668-0.668s-0.3-0.668-0.668-0.668h-7.347c-0.37,0-0.669,0.299-0.669,0.668
		S22.426,54.29,22.796,54.29z"/>
	<path d="M22.796,56.961h7.347c0.368,0,0.668-0.299,0.668-0.668s-0.3-0.668-0.668-0.668h-7.347c-0.37,0-0.669,0.299-0.669,0.668
		S22.426,56.961,22.796,56.961z"/>
	<path d="M22.796,59.633h7.347c0.368,0,0.668-0.299,0.668-0.668s-0.3-0.668-0.668-0.668h-7.347c-0.37,0-0.669,0.299-0.669,0.668
		S22.426,59.633,22.796,59.633z"/>
	<path d="M22.796,62.305h7.347c0.368,0,0.668-0.299,0.668-0.668s-0.3-0.668-0.668-0.668h-7.347c-0.37,0-0.669,0.299-0.669,0.668
		S22.426,62.305,22.796,62.305z"/>
	<path d="M22.796,64.975h7.347c0.368,0,0.668-0.299,0.668-0.666c0-0.369-0.3-0.668-0.668-0.668h-7.347
		c-0.37,0-0.669,0.299-0.669,0.668C22.127,64.676,22.426,64.975,22.796,64.975z"/>
	<path d="M22.796,67.647h7.347c0.368,0,0.668-0.297,0.668-0.666s-0.3-0.67-0.668-0.67h-7.347c-0.37,0-0.669,0.301-0.669,0.67
		S22.426,67.647,22.796,67.647z"/>
	<path d="M22.796,70.319h7.347c0.368,0,0.668-0.299,0.668-0.666c0-0.369-0.3-0.67-0.668-0.67h-7.347c-0.37,0-0.669,0.301-0.669,0.67
		C22.127,70.02,22.426,70.319,22.796,70.319z"/>
	<path d="M22.796,72.991h7.347c0.368,0,0.668-0.297,0.668-0.668c0-0.367-0.3-0.668-0.668-0.668h-7.347
		c-0.37,0-0.669,0.301-0.669,0.668C22.127,72.694,22.426,72.991,22.796,72.991z"/>
	<path d="M30.81,74.995c0-0.369-0.3-0.668-0.668-0.668h-7.347c-0.37,0-0.669,0.299-0.669,0.668s0.299,0.668,0.669,0.668h7.347
		C30.51,75.663,30.81,75.364,30.81,74.995z"/>
	<path d="M67.954,16.775c-9.244,0-16.938,6.748-18.428,15.575H23.963v0.001c-3.229,0-5.871,2.549-5.871,5.72V73.42
		c0,2.229,1.306,4.139,3.2,5.076c0.942,1.938,2.973,3.264,5.312,3.264h20.886c0.084,0.02,0.146,0.02,0.231,0
		c0.062,0,0.104-0.021,0.167-0.041c0.021-0.021,0.042-0.021,0.042-0.043c0.043-0.02,0.063-0.041,0.106-0.061L58.437,70.86
		c0.041-0.02,0.062-0.062,0.083-0.082c0.021-0.043,0.041-0.084,0.041-0.125c0.022-0.021,0.022-0.021,0.022-0.041
		c0.021-0.041,0.021-0.084,0.021-0.125v-0.02v-0.021V51.645c2.752,1.598,5.944,2.518,9.35,2.518
		c10.308,0,18.693-8.386,18.693-18.694C86.647,25.162,78.261,16.775,67.954,16.775z M55.964,38.227h0.71
		c0.475,0.715,0.756,1.565,0.756,2.485v6.317c-0.523-0.477-1.013-0.989-1.466-1.53V38.227z M54.788,43.896
		c-1.561-2.433-2.468-5.323-2.468-8.427c0-0.467,0.023-0.927,0.064-1.382c0.469,0.252,0.891,0.578,1.242,0.968
		c0.373,0.414,0.671,0.895,0.871,1.423c0.187,0.495,0.29,1.032,0.29,1.594V43.896z M22.187,77.629c-0.524-0.203-1-0.492-1.407-0.855
		c-0.935-0.826-1.515-2.018-1.515-3.354V38.07c0-2.527,2.075-4.559,4.697-4.559h25.401c-0.067,0.645-0.103,1.297-0.103,1.957
		c0,0.491,0.024,0.976,0.062,1.455h-6.49c-0.37,0-0.668,0.3-0.668,0.668c0,0.369,0.298,0.668,0.668,0.668h6.637
		c0.068,0.451,0.156,0.896,0.257,1.336h-6.894c-0.37,0-0.668,0.3-0.668,0.668c0,0.369,0.298,0.668,0.668,0.668h7.244
		c0.156,0.509,0.336,1.007,0.533,1.497c-0.116-0.1-0.266-0.161-0.431-0.161h-7.347c-0.37,0-0.668,0.299-0.668,0.668
		c0,0.368,0.298,0.668,0.668,0.668h7.347c0.353,0,0.639-0.275,0.663-0.621c0.95,2.156,2.295,4.103,3.945,5.742v18.5H50.8
		c0.031-0.074,0.047-0.158,0.047-0.244c0-0.369-0.299-0.67-0.667-0.67h-7.347c-0.37,0-0.668,0.301-0.668,0.67
		s0.298,0.666,0.668,0.666h5.174c-0.765,0.307-1.448,0.764-2.011,1.336h-3.163c-0.37,0-0.668,0.301-0.668,0.67
		c0,0.367,0.298,0.666,0.668,0.666h2.185c-0.222,0.418-0.39,0.865-0.501,1.336h-1.684c-0.37,0-0.668,0.301-0.668,0.668
		c0,0.371,0.298,0.668,0.668,0.668h1.533v1.336h-1.533c-0.37,0-0.668,0.299-0.668,0.668s0.298,0.668,0.668,0.668h1.533v2.297H23.963
		C23.333,77.959,22.734,77.842,22.187,77.629z M47.007,80.6H26.603c-1.427,0-2.692-0.598-3.55-1.549
		c0.297,0.045,0.601,0.068,0.909,0.068h20.886c0.084,0.02,0.146,0.02,0.23,0c0.063,0,0.106-0.02,0.168-0.043
		c0.021-0.02,0.043-0.02,0.043-0.041c0.042-0.02,0.062-0.041,0.105-0.061l1.611-1.668V80.6z M47.007,75.602l-0.059,0.061
		l-0.339,0.35l-1.048,1.098v-1.447v-1.336v-1.336v-0.047c0-0.449,0.065-0.881,0.187-1.289c0.145-0.484,0.368-0.934,0.657-1.336
		c0.396-0.549,0.915-1.006,1.52-1.336c0.674-0.367,1.455-0.576,2.292-0.576h3.774l-1.423,1.467l-1.453,1.496l-0.466,0.479
		l-1.107,1.143l-1.096,1.129l-0.202,0.207L47.007,75.602z M49.251,78.651l-1.049,1.1v-3.68l0.396-0.408l1.291-1.336l3.173-3.279
		h3.57L49.251,78.651z M57.429,69.866h-3.227l1.593-1.646c0.042-0.02,0.062-0.061,0.083-0.084c0.021-0.041,0.043-0.082,0.043-0.123
		c0.021-0.021,0.021-0.021,0.021-0.041c0.021-0.041,0.021-0.084,0.021-0.125v-0.02v-0.021V49.796
		c0.469,0.393,0.958,0.765,1.466,1.111V69.866z M67.954,51.102c-3.506,0-6.743-1.153-9.35-3.101V40.71
		c0-0.893-0.211-1.733-0.582-2.483h1.327v4.616h3.393v-4.616h4.167v-3.12h-4.167V30.49h-3.393v4.616h-4.167v0.106
		c-0.606-1.028-1.531-1.854-2.643-2.349c1.241-7.394,7.667-13.029,15.414-13.029c8.635,0,15.634,6.999,15.634,15.634
		S76.589,51.102,67.954,51.102z"/>
	<path d="M74.357,27.909c-0.459,0.341-0.937,0.665-1.436,0.973c-0.499,0.309-1.01,0.591-1.534,0.849
		c-0.523,0.259-1.027,0.486-1.509,0.686l1.122,2.87c0.582-0.2,1.181-0.437,1.797-0.712c0.615-0.274,1.172-0.576,1.671-0.91v12.45
		h3.719V26.823h-2.596C75.225,27.206,74.814,27.568,74.357,27.909z"/>
</g>
</svg>
