<?xml version="1.0" encoding="utf-8"?>
<!-- Generator: Adobe Illustrator 16.0.0, SVG Export Plug-In . SVG Version: 6.00 Build 0)  -->
<!DOCTYPE svg PUBLIC "-//W3C//DTD SVG 1.1//EN" "http://www.w3.org/Graphics/SVG/1.1/DTD/svg11.dtd">
<svg version="1.1" xmlns="http://www.w3.org/2000/svg" xmlns:xlink="http://www.w3.org/1999/xlink" x="0px" y="0px"
	 width="81.967px" height="100px" viewBox="0 0 81.967 100" enable-background="new 0 0 81.967 100" xml:space="preserve">
<g id="Layer_1">
</g>
<g id="Layer_2">
	<g>
		<path d="M50.057,11.957h14.865c0.746,0,1.352-0.605,1.352-1.352s-0.605-1.352-1.352-1.352H50.057
			c-0.746,0-1.352,0.605-1.352,1.352S49.311,11.957,50.057,11.957z"/>
		<path d="M50.057,17.361h14.865c0.746,0,1.352-0.605,1.352-1.35c0-0.748-0.605-1.352-1.352-1.352H50.057
			c-0.746,0-1.352,0.604-1.352,1.352C48.706,16.756,49.311,17.361,50.057,17.361z"/>
		<path d="M50.057,22.768h14.865c0.746,0,1.352-0.605,1.352-1.352s-0.605-1.352-1.352-1.352H50.057
			c-0.746,0-1.352,0.605-1.352,1.352S49.311,22.768,50.057,22.768z"/>
		<path d="M50.057,28.174h14.865c0.746,0,1.352-0.605,1.352-1.352s-0.605-1.352-1.352-1.352H50.057
			c-0.746,0-1.352,0.605-1.352,1.352S49.311,28.174,50.057,28.174z"/>
		<path d="M50.057,33.578h14.865c0.746,0,1.352-0.605,1.352-1.352s-0.605-1.352-1.352-1.352H50.057
			c-0.746,0-1.352,0.605-1.352,1.352S49.311,33.578,50.057,33.578z"/>
		<path d="M50.057,38.984h14.865c0.746,0,1.352-0.605,1.352-1.352s-0.605-1.352-1.352-1.352H50.057
			c-0.746,0-1.352,0.605-1.352,1.352S49.311,38.984,50.057,38.984z"/>
		<path d="M50.057,44.389h14.865c0.746,0,1.352-0.604,1.352-1.352c0-0.746-0.605-1.35-1.352-1.35H50.057
			c-0.746,0-1.352,0.604-1.352,1.35C48.706,43.785,49.311,44.389,50.057,44.389z"/>
		<path d="M50.057,49.795h14.865c0.746,0,1.352-0.605,1.352-1.352s-0.605-1.352-1.352-1.352H50.057
			c-0.746,0-1.352,0.605-1.352,1.352S49.311,49.795,50.057,49.795z"/>
		<path d="M50.057,55.199h14.865c0.746,0,1.352-0.604,1.352-1.35c0-0.748-0.605-1.354-1.352-1.354H50.057
			c-0.746,0-1.352,0.605-1.352,1.354C48.706,54.596,49.311,55.199,50.057,55.199z"/>
		<path d="M50.057,60.605h14.865c0.746,0,1.352-0.605,1.352-1.352s-0.605-1.352-1.352-1.352H50.057
			c-0.746,0-1.352,0.605-1.352,1.352S49.311,60.605,50.057,60.605z"/>
		<path d="M50.057,66.012h14.865c0.746,0,1.352-0.605,1.352-1.352s-0.605-1.352-1.352-1.352H50.057
			c-0.746,0-1.352,0.605-1.352,1.352S49.311,66.012,50.057,66.012z"/>
		<path d="M29.787,11.957h14.865c0.746,0,1.351-0.605,1.351-1.352s-0.605-1.352-1.351-1.352H29.787
			c-0.747,0-1.352,0.605-1.352,1.352S29.04,11.957,29.787,11.957z"/>
		<path d="M29.787,17.361h14.865c0.746,0,1.351-0.605,1.351-1.35c0-0.748-0.605-1.352-1.351-1.352H29.787
			c-0.747,0-1.352,0.604-1.352,1.352C28.435,16.756,29.04,17.361,29.787,17.361z"/>
		<path d="M29.787,22.768h14.865c0.746,0,1.351-0.605,1.351-1.352s-0.605-1.352-1.351-1.352H29.787
			c-0.747,0-1.352,0.605-1.352,1.352S29.04,22.768,29.787,22.768z"/>
		<path d="M29.787,28.174h14.865c0.746,0,1.351-0.605,1.351-1.352s-0.605-1.352-1.351-1.352H29.787
			c-0.747,0-1.352,0.605-1.352,1.352S29.04,28.174,29.787,28.174z"/>
		<path d="M29.787,33.578h14.865c0.746,0,1.351-0.605,1.351-1.352s-0.605-1.352-1.351-1.352H29.787
			c-0.747,0-1.352,0.605-1.352,1.352S29.04,33.578,29.787,33.578z"/>
		<path d="M29.787,38.984h14.865c0.746,0,1.351-0.605,1.351-1.352s-0.605-1.352-1.351-1.352H29.787
			c-0.747,0-1.352,0.605-1.352,1.352S29.04,38.984,29.787,38.984z"/>
		<path d="M29.787,44.389h14.865c0.746,0,1.351-0.604,1.351-1.352c0-0.746-0.605-1.35-1.351-1.35H29.787
			c-0.747,0-1.352,0.604-1.352,1.35C28.435,43.785,29.04,44.389,29.787,44.389z"/>
		<path d="M29.787,49.795h14.865c0.746,0,1.351-0.605,1.351-1.352s-0.605-1.352-1.351-1.352H29.787
			c-0.747,0-1.352,0.605-1.352,1.352S29.04,49.795,29.787,49.795z"/>
		<path d="M29.787,55.199h14.865c0.746,0,1.351-0.604,1.351-1.35c0-0.748-0.605-1.354-1.351-1.354H29.787
			c-0.747,0-1.352,0.605-1.352,1.354C28.435,54.596,29.04,55.199,29.787,55.199z"/>
		<path d="M29.787,60.605h14.865c0.746,0,1.351-0.605,1.351-1.352s-0.605-1.352-1.351-1.352H29.787
			c-0.747,0-1.352,0.605-1.352,1.352S29.04,60.605,29.787,60.605z"/>
		<path d="M29.787,66.012h14.865c0.746,0,1.351-0.605,1.351-1.352s-0.605-1.352-1.351-1.352H29.787
			c-0.747,0-1.352,0.605-1.352,1.352S29.04,66.012,29.787,66.012z"/>
		<path d="M29.787,71.416h14.865c0.746,0,1.351-0.605,1.351-1.352s-0.605-1.352-1.351-1.352H29.787
			c-0.747,0-1.352,0.605-1.352,1.352S29.04,71.416,29.787,71.416z"/>
		<path d="M29.787,76.822h14.865c0.746,0,1.351-0.605,1.351-1.352s-0.605-1.352-1.351-1.352H29.787
			c-0.747,0-1.352,0.605-1.352,1.352S29.04,76.822,29.787,76.822z"/>
		<path d="M29.787,82.227h14.865c0.746,0,1.351-0.604,1.351-1.352c0-0.746-0.605-1.35-1.351-1.35H29.787
			c-0.747,0-1.352,0.604-1.352,1.35C28.435,81.623,29.04,82.227,29.787,82.227z"/>
		<path d="M29.787,87.633h14.865c0.746,0,1.351-0.605,1.351-1.352s-0.605-1.352-1.351-1.352H29.787
			c-0.747,0-1.352,0.605-1.352,1.352S29.04,87.633,29.787,87.633z"/>
		<path d="M9.517,11.957h14.865c0.746,0,1.352-0.605,1.352-1.352s-0.605-1.352-1.352-1.352H9.517
			c-0.747,0-1.352,0.605-1.352,1.352S8.77,11.957,9.517,11.957z"/>
		<path d="M9.517,17.361h14.865c0.746,0,1.352-0.604,1.352-1.35c0-0.748-0.605-1.352-1.352-1.352H9.517
			c-0.747,0-1.352,0.604-1.352,1.352C8.165,16.758,8.77,17.361,9.517,17.361z"/>
		<path d="M9.517,22.768h14.865c0.746,0,1.352-0.605,1.352-1.352s-0.605-1.352-1.352-1.352H9.517
			c-0.747,0-1.352,0.605-1.352,1.352S8.77,22.768,9.517,22.768z"/>
		<path d="M9.517,28.174h14.865c0.746,0,1.352-0.605,1.352-1.352s-0.605-1.352-1.352-1.352H9.517
			c-0.747,0-1.352,0.605-1.352,1.352S8.77,28.174,9.517,28.174z"/>
		<path d="M9.517,33.578h14.865c0.746,0,1.352-0.605,1.352-1.352s-0.605-1.352-1.352-1.352H9.517
			c-0.747,0-1.352,0.605-1.352,1.352S8.77,33.578,9.517,33.578z"/>
		<path d="M9.517,38.984h14.865c0.746,0,1.352-0.605,1.352-1.352s-0.605-1.352-1.352-1.352H9.517
			c-0.747,0-1.352,0.605-1.352,1.352S8.77,38.984,9.517,38.984z"/>
		<path d="M9.517,44.389h14.865c0.746,0,1.352-0.604,1.352-1.352c0-0.746-0.605-1.35-1.352-1.35H9.517
			c-0.747,0-1.352,0.604-1.352,1.35C8.165,43.785,8.77,44.389,9.517,44.389z"/>
		<path d="M9.517,49.795h14.865c0.746,0,1.352-0.605,1.352-1.352s-0.605-1.352-1.352-1.352H9.517
			c-0.747,0-1.352,0.605-1.352,1.352S8.77,49.795,9.517,49.795z"/>
		<path d="M9.517,55.199h14.865c0.746,0,1.352-0.604,1.352-1.35c0-0.748-0.605-1.354-1.352-1.354H9.517
			c-0.747,0-1.352,0.605-1.352,1.354C8.165,54.596,8.77,55.199,9.517,55.199z"/>
		<path d="M9.517,60.605h14.865c0.746,0,1.352-0.605,1.352-1.352s-0.605-1.352-1.352-1.352H9.517
			c-0.747,0-1.352,0.605-1.352,1.352S8.77,60.605,9.517,60.605z"/>
		<path d="M9.517,66.012h14.865c0.746,0,1.352-0.605,1.352-1.352s-0.605-1.352-1.352-1.352H9.517
			c-0.747,0-1.352,0.605-1.352,1.352S8.77,66.012,9.517,66.012z"/>
		<path d="M9.517,71.416h14.865c0.746,0,1.352-0.605,1.352-1.352s-0.605-1.352-1.352-1.352H9.517
			c-0.747,0-1.352,0.605-1.352,1.352S8.77,71.416,9.517,71.416z"/>
		<path d="M9.517,76.822h14.865c0.746,0,1.352-0.605,1.352-1.352s-0.605-1.352-1.352-1.352H9.517
			c-0.747,0-1.352,0.605-1.352,1.352S8.77,76.822,9.517,76.822z"/>
		<path d="M9.517,82.227h14.865c0.746,0,1.352-0.604,1.352-1.352c0-0.746-0.605-1.35-1.352-1.35H9.517
			c-0.747,0-1.352,0.604-1.352,1.35C8.165,81.623,8.77,82.227,9.517,82.227z"/>
		<path d="M25.733,86.281c0-0.746-0.605-1.352-1.352-1.352H9.517c-0.747,0-1.352,0.605-1.352,1.352
			s0.605,1.352,1.352,1.352h14.865C25.127,87.633,25.733,87.027,25.733,86.281z"/>
		<path d="M75.476,6.588C73.573,2.686,69.5,0,64.787,0H11.879v0.002C5.344,0.002,0,5.158,0,11.574v71.523
			c0,4.506,2.641,8.369,6.476,10.27c1.905,3.918,6.013,6.604,10.746,6.604h42.257c0.169,0.039,0.296,0.039,0.467,0
			c0.128,0,0.214-0.043,0.34-0.086c0.042-0.041,0.086-0.041,0.086-0.084c0.085-0.041,0.128-0.084,0.213-0.125l21.045-21.762
			c0.084-0.041,0.126-0.125,0.168-0.166c0.042-0.084,0.086-0.166,0.086-0.25c0.042-0.043,0.042-0.043,0.042-0.086
			c0.042-0.084,0.042-0.168,0.042-0.252v-0.041v-0.041V16.914C81.967,12.389,79.326,8.492,75.476,6.588z M8.287,91.613
			c-1.061-0.41-2.024-1-2.849-1.73c-1.89-1.672-3.063-4.082-3.063-6.785V11.572c0-5.113,4.201-9.223,9.505-9.223h52.906
			c2.848,0,5.383,1.207,7.111,3.123c0.755,0.836,1.357,1.809,1.762,2.879c0.379,1.002,0.587,2.086,0.587,3.223v58.988h-8.069
			c0.062-0.154,0.096-0.322,0.096-0.498c0-0.746-0.605-1.352-1.352-1.352H50.057c-0.746,0-1.352,0.605-1.352,1.352
			s0.605,1.352,1.352,1.352h10.47c-1.548,0.617-2.931,1.543-4.07,2.703h-6.4c-0.746,0-1.352,0.605-1.352,1.352
			s0.605,1.352,1.352,1.352h4.421c-0.447,0.846-0.79,1.75-1.013,2.703h-3.408c-0.746,0-1.352,0.604-1.352,1.35
			c0,0.748,0.605,1.352,1.352,1.352h3.104v2.703h-3.104c-0.746,0-1.352,0.605-1.352,1.352s0.605,1.352,1.352,1.352h3.104v4.646
			H11.879C10.603,92.279,9.392,92.043,8.287,91.613z M58.503,97.623H17.222c-2.889,0-5.448-1.209-7.182-3.133
			c0.599,0.09,1.213,0.137,1.839,0.137h42.257c0.169,0.041,0.295,0.041,0.467,0c0.127,0,0.213-0.041,0.339-0.086
			c0.042-0.039,0.086-0.039,0.086-0.084c0.085-0.041,0.127-0.084,0.213-0.125l3.262-3.371V97.623z M58.503,87.51l-0.12,0.123
			l-0.684,0.705l-2.121,2.223v-2.928V84.93v-2.703v-0.094c0-0.908,0.134-1.783,0.379-2.607c0.292-0.982,0.744-1.893,1.329-2.703
			c0.801-1.111,1.85-2.035,3.073-2.703c1.364-0.742,2.943-1.168,4.638-1.168h7.638l-2.88,2.969l-2.939,3.027l-0.942,0.971
			l-2.243,2.309l-2.217,2.283l-0.407,0.42L58.503,87.51z M63.042,93.68l-2.121,2.225v-7.445l0.8-0.826l2.614-2.703l6.416-6.635
			h7.227L63.042,93.68z M79.589,75.904h-6.527l3.224-3.332c0.084-0.041,0.126-0.125,0.168-0.168c0.042-0.084,0.085-0.166,0.085-0.25
			c0.042-0.043,0.042-0.043,0.042-0.084c0.042-0.084,0.042-0.168,0.042-0.252v-0.041v-0.043V11.572c0-0.5-0.036-0.988-0.098-1.469
			c1.886,1.682,3.062,4.107,3.062,6.812V75.904z"/>
	</g>
</g>
</svg>
