<?xml version="1.0" encoding="utf-8"?>
<!-- Generator: Adobe Illustrator 16.0.0, SVG Export Plug-In . SVG Version: 6.00 Build 0)  -->
<!DOCTYPE svg PUBLIC "-//W3C//DTD SVG 1.1//EN" "http://www.w3.org/Graphics/SVG/1.1/DTD/svg11.dtd">
<svg version="1.1" id="Layer_1" xmlns="http://www.w3.org/2000/svg" xmlns:xlink="http://www.w3.org/1999/xlink" x="0px" y="0px"
	 width="44.263px" height="54px" viewBox="18.143 22.275 44.263 54" enable-background="new 18.143 22.275 44.263 54"
	 xml:space="preserve">
<g id="Layer_1_1_">
</g>
<g>
	<path d="M45.174,28.732H53.2c0.403,0,0.73-0.327,0.73-0.73c0-0.402-0.327-0.729-0.73-0.729h-8.026
		c-0.403,0-0.729,0.327-0.729,0.729C44.444,28.405,44.771,28.732,45.174,28.732z"/>
	<path d="M45.174,31.65H53.2c0.403,0,0.73-0.327,0.73-0.729c0-0.404-0.327-0.73-0.73-0.73h-8.026c-0.403,0-0.729,0.326-0.729,0.73
		C44.444,31.323,44.771,31.65,45.174,31.65z"/>
	<path d="M45.174,34.569H53.2c0.403,0,0.73-0.326,0.73-0.729s-0.327-0.729-0.73-0.729h-8.026c-0.403,0-0.729,0.326-0.729,0.729
		S44.771,34.569,45.174,34.569z"/>
	<path d="M45.174,37.489H53.2c0.403,0,0.73-0.327,0.73-0.73c0-0.402-0.327-0.729-0.73-0.729h-8.026
		c-0.403,0-0.729,0.327-0.729,0.729C44.444,37.162,44.771,37.489,45.174,37.489z"/>
	<path d="M45.174,40.407H53.2c0.403,0,0.73-0.327,0.73-0.729c0-0.403-0.327-0.73-0.73-0.73h-8.026c-0.403,0-0.729,0.327-0.729,0.73
		C44.444,40.08,44.771,40.407,45.174,40.407z"/>
	<path d="M45.174,43.327H53.2c0.403,0,0.73-0.327,0.73-0.73c0-0.402-0.327-0.729-0.73-0.729h-8.026
		c-0.403,0-0.729,0.327-0.729,0.729C44.444,43,44.771,43.327,45.174,43.327z"/>
	<path d="M45.174,46.245H53.2c0.403,0,0.73-0.326,0.73-0.729s-0.327-0.729-0.73-0.729h-8.026c-0.403,0-0.729,0.326-0.729,0.729
		S44.771,46.245,45.174,46.245z"/>
	<path d="M45.174,49.164H53.2c0.403,0,0.73-0.326,0.73-0.729c0-0.402-0.327-0.729-0.73-0.729h-8.026
		c-0.403,0-0.729,0.327-0.729,0.729C44.444,48.838,44.771,49.164,45.174,49.164z"/>
	<path d="M45.174,52.083H53.2c0.403,0,0.73-0.326,0.73-0.729c0-0.404-0.327-0.731-0.73-0.731h-8.026
		c-0.403,0-0.729,0.327-0.729,0.731C44.444,51.757,44.771,52.083,45.174,52.083z"/>
	<path d="M45.174,55.002H53.2c0.403,0,0.73-0.326,0.73-0.729s-0.327-0.729-0.73-0.729h-8.026c-0.403,0-0.729,0.326-0.729,0.729
		S44.771,55.002,45.174,55.002z"/>
	<path d="M45.174,57.922H53.2c0.403,0,0.73-0.327,0.73-0.73c0-0.402-0.327-0.729-0.73-0.729h-8.026
		c-0.403,0-0.729,0.327-0.729,0.729C44.444,57.595,44.771,57.922,45.174,57.922z"/>
	<path d="M34.228,28.732h8.027c0.403,0,0.729-0.327,0.729-0.73c0-0.402-0.326-0.729-0.729-0.729h-8.027
		c-0.402,0-0.729,0.327-0.729,0.729C33.498,28.405,33.825,28.732,34.228,28.732z"/>
	<path d="M34.228,31.65h8.027c0.403,0,0.729-0.327,0.729-0.729c0-0.404-0.326-0.73-0.729-0.73h-8.027
		c-0.402,0-0.729,0.326-0.729,0.73C33.498,31.323,33.825,31.65,34.228,31.65z"/>
	<path d="M34.228,34.569h8.027c0.403,0,0.729-0.326,0.729-0.729s-0.326-0.729-0.729-0.729h-8.027c-0.402,0-0.729,0.326-0.729,0.729
		S33.825,34.569,34.228,34.569z"/>
	<path d="M34.228,37.489h8.027c0.403,0,0.729-0.327,0.729-0.73c0-0.402-0.326-0.729-0.729-0.729h-8.027
		c-0.402,0-0.729,0.327-0.729,0.729C33.498,37.162,33.825,37.489,34.228,37.489z"/>
	<path d="M34.228,40.407h8.027c0.403,0,0.729-0.327,0.729-0.729c0-0.403-0.326-0.73-0.729-0.73h-8.027
		c-0.402,0-0.729,0.327-0.729,0.73C33.498,40.08,33.825,40.407,34.228,40.407z"/>
	<path d="M34.228,43.327h8.027c0.403,0,0.729-0.327,0.729-0.73c0-0.402-0.326-0.729-0.729-0.729h-8.027
		c-0.402,0-0.729,0.327-0.729,0.729C33.498,43,33.825,43.327,34.228,43.327z"/>
	<path d="M34.228,46.245h8.027c0.403,0,0.729-0.326,0.729-0.729s-0.326-0.729-0.729-0.729h-8.027c-0.402,0-0.729,0.326-0.729,0.729
		S33.825,46.245,34.228,46.245z"/>
	<path d="M34.228,49.164h8.027c0.403,0,0.729-0.326,0.729-0.729c0-0.402-0.326-0.729-0.729-0.729h-8.027
		c-0.402,0-0.729,0.327-0.729,0.729C33.498,48.838,33.825,49.164,34.228,49.164z"/>
	<path d="M34.228,52.083h8.027c0.403,0,0.729-0.326,0.729-0.729c0-0.404-0.326-0.731-0.729-0.731h-8.027
		c-0.402,0-0.729,0.327-0.729,0.731C33.498,51.757,33.825,52.083,34.228,52.083z"/>
	<path d="M34.228,55.002h8.027c0.403,0,0.729-0.326,0.729-0.729s-0.326-0.729-0.729-0.729h-8.027c-0.402,0-0.729,0.326-0.729,0.729
		S33.825,55.002,34.228,55.002z"/>
	<path d="M34.228,57.922h8.027c0.403,0,0.729-0.327,0.729-0.73c0-0.402-0.326-0.729-0.729-0.729h-8.027
		c-0.402,0-0.729,0.327-0.729,0.729C33.498,57.595,33.825,57.922,34.228,57.922z"/>
	<path d="M34.228,60.84h8.027c0.403,0,0.729-0.327,0.729-0.729c0-0.403-0.326-0.73-0.729-0.73h-8.027
		c-0.402,0-0.729,0.327-0.729,0.73C33.498,60.513,33.825,60.84,34.228,60.84z"/>
	<path d="M34.228,63.76h8.027c0.403,0,0.729-0.327,0.729-0.73c0-0.402-0.326-0.729-0.729-0.729h-8.027
		c-0.402,0-0.729,0.327-0.729,0.729C33.498,63.433,33.825,63.76,34.228,63.76z"/>
	<path d="M34.228,66.678h8.027c0.403,0,0.729-0.326,0.729-0.729s-0.326-0.729-0.729-0.729h-8.027c-0.402,0-0.729,0.326-0.729,0.729
		S33.825,66.678,34.228,66.678z"/>
	<path d="M34.228,69.597h8.027c0.403,0,0.729-0.326,0.729-0.729c0-0.402-0.326-0.729-0.729-0.729h-8.027
		c-0.402,0-0.729,0.327-0.729,0.729C33.498,69.271,33.825,69.597,34.228,69.597z"/>
	<path d="M23.282,28.732h8.026c0.403,0,0.73-0.327,0.73-0.73c0-0.402-0.327-0.729-0.73-0.729h-8.026c-0.403,0-0.73,0.327-0.73,0.729
		C22.552,28.405,22.879,28.732,23.282,28.732z"/>
	<path d="M23.282,31.65h8.026c0.403,0,0.73-0.326,0.73-0.729c0-0.404-0.327-0.73-0.73-0.73h-8.026c-0.403,0-0.73,0.326-0.73,0.73
		C22.552,31.324,22.879,31.65,23.282,31.65z"/>
	<path d="M23.282,34.569h8.026c0.403,0,0.73-0.326,0.73-0.729s-0.327-0.729-0.73-0.729h-8.026c-0.403,0-0.73,0.326-0.73,0.729
		S22.879,34.569,23.282,34.569z"/>
	<path d="M23.282,37.489h8.026c0.403,0,0.73-0.327,0.73-0.73c0-0.402-0.327-0.729-0.73-0.729h-8.026c-0.403,0-0.73,0.327-0.73,0.729
		C22.552,37.162,22.879,37.489,23.282,37.489z"/>
	<path d="M23.282,40.407h8.026c0.403,0,0.73-0.327,0.73-0.729c0-0.403-0.327-0.73-0.73-0.73h-8.026c-0.403,0-0.73,0.327-0.73,0.73
		C22.552,40.08,22.879,40.407,23.282,40.407z"/>
	<path d="M23.282,43.327h8.026c0.403,0,0.73-0.327,0.73-0.73c0-0.402-0.327-0.729-0.73-0.729h-8.026c-0.403,0-0.73,0.327-0.73,0.729
		C22.552,43,22.879,43.327,23.282,43.327z"/>
	<path d="M23.282,46.245h8.026c0.403,0,0.73-0.326,0.73-0.729s-0.327-0.729-0.73-0.729h-8.026c-0.403,0-0.73,0.326-0.73,0.729
		S22.879,46.245,23.282,46.245z"/>
	<path d="M23.282,49.164h8.026c0.403,0,0.73-0.326,0.73-0.729c0-0.402-0.327-0.729-0.73-0.729h-8.026
		c-0.403,0-0.73,0.327-0.73,0.729C22.552,48.838,22.879,49.164,23.282,49.164z"/>
	<path d="M23.282,52.083h8.026c0.403,0,0.73-0.326,0.73-0.729c0-0.404-0.327-0.731-0.73-0.731h-8.026
		c-0.403,0-0.73,0.327-0.73,0.731C22.552,51.757,22.879,52.083,23.282,52.083z"/>
	<path d="M23.282,55.002h8.026c0.403,0,0.73-0.326,0.73-0.729s-0.327-0.729-0.73-0.729h-8.026c-0.403,0-0.73,0.326-0.73,0.729
		S22.879,55.002,23.282,55.002z"/>
	<path d="M23.282,57.922h8.026c0.403,0,0.73-0.327,0.73-0.73c0-0.402-0.327-0.729-0.73-0.729h-8.026c-0.403,0-0.73,0.327-0.73,0.729
		C22.552,57.595,22.879,57.922,23.282,57.922z"/>
	<path d="M23.282,60.84h8.026c0.403,0,0.73-0.327,0.73-0.729c0-0.403-0.327-0.73-0.73-0.73h-8.026c-0.403,0-0.73,0.327-0.73,0.73
		C22.552,60.513,22.879,60.84,23.282,60.84z"/>
	<path d="M23.282,63.76h8.026c0.403,0,0.73-0.327,0.73-0.73c0-0.402-0.327-0.729-0.73-0.729h-8.026c-0.403,0-0.73,0.327-0.73,0.729
		C22.552,63.433,22.879,63.76,23.282,63.76z"/>
	<path d="M23.282,66.678h8.026c0.403,0,0.73-0.326,0.73-0.729s-0.327-0.729-0.73-0.729h-8.026c-0.403,0-0.73,0.326-0.73,0.729
		S22.879,66.678,23.282,66.678z"/>
	<path d="M32.039,68.867c0-0.402-0.327-0.729-0.73-0.729h-8.026c-0.403,0-0.73,0.327-0.73,0.729c0,0.403,0.327,0.729,0.73,0.729
		h8.026C31.712,69.597,32.039,69.271,32.039,68.867z"/>
	<path d="M58.9,25.833c-1.028-2.107-3.228-3.558-5.772-3.558h-28.57v0.001c-3.529,0-6.415,2.784-6.415,6.249v38.623
		c0,2.433,1.426,4.52,3.497,5.545c1.029,2.116,3.248,3.566,5.803,3.566h22.819c0.091,0.021,0.159,0.021,0.252,0
		c0.069,0,0.115-0.023,0.184-0.047c0.022-0.021,0.046-0.021,0.046-0.045c0.046-0.022,0.069-0.046,0.115-0.067l11.364-11.752
		c0.046-0.021,0.068-0.067,0.091-0.089c0.022-0.046,0.047-0.09,0.047-0.136c0.022-0.022,0.022-0.022,0.022-0.046
		c0.022-0.046,0.022-0.091,0.022-0.137V63.92v-0.022V31.409C62.405,28.965,60.979,26.861,58.9,25.833z M22.617,71.746
		c-0.572-0.221-1.093-0.539-1.538-0.934c-1.021-0.903-1.654-2.205-1.654-3.664V28.524c0-2.762,2.269-4.98,5.133-4.98h28.569
		c1.538,0,2.907,0.651,3.841,1.687c0.407,0.451,0.732,0.977,0.951,1.555c0.205,0.541,0.317,1.126,0.317,1.74v31.854h-4.357
		c0.033-0.083,0.052-0.174,0.052-0.269c0-0.403-0.327-0.73-0.73-0.73h-8.026c-0.403,0-0.729,0.327-0.729,0.73
		c0,0.402,0.326,0.729,0.729,0.729h5.653c-0.835,0.333-1.582,0.833-2.197,1.46h-3.456c-0.403,0-0.729,0.327-0.729,0.729
		c0,0.403,0.326,0.73,0.729,0.73h2.388c-0.242,0.456-0.427,0.944-0.548,1.459h-1.84c-0.403,0-0.729,0.326-0.729,0.729
		s0.326,0.729,0.729,0.729h1.676v1.46h-1.676c-0.403,0-0.729,0.327-0.729,0.729c0,0.403,0.326,0.729,0.729,0.729h1.676v2.51H24.558
		C23.868,72.106,23.215,71.979,22.617,71.746z M49.734,74.992H27.442c-1.56,0-2.941-0.653-3.878-1.692
		c0.324,0.049,0.655,0.074,0.993,0.074h22.818c0.092,0.022,0.16,0.022,0.253,0c0.068,0,0.115-0.022,0.184-0.047
		c0.022-0.021,0.046-0.021,0.046-0.045c0.047-0.022,0.068-0.045,0.115-0.067l1.761-1.82V74.992z M49.734,69.53l-0.064,0.066
		l-0.37,0.381l-1.145,1.2v-1.581v-1.459v-1.46v-0.051c0-0.49,0.072-0.963,0.205-1.408c0.157-0.53,0.401-1.021,0.718-1.459
		c0.432-0.601,0.998-1.1,1.659-1.46c0.736-0.401,1.589-0.631,2.504-0.631h4.125l-1.556,1.604l-1.587,1.635l-0.509,0.523
		l-1.211,1.247l-1.197,1.232l-0.22,0.228L49.734,69.53z M52.186,72.862l-1.146,1.201v-4.021l0.433-0.446l1.411-1.459l3.465-3.583
		h3.902L52.186,72.862z M61.121,63.264h-3.524l1.741-1.799c0.045-0.022,0.067-0.068,0.091-0.091c0.022-0.046,0.046-0.09,0.046-0.136
		c0.022-0.022,0.022-0.022,0.022-0.045c0.023-0.045,0.023-0.091,0.023-0.136v-0.022v-0.023V28.524c0-0.271-0.02-0.534-0.053-0.793
		c1.019,0.907,1.653,2.218,1.653,3.679V63.264z"/>
</g>
</svg>
