<?xml version="1.0" encoding="utf-8"?>
<!-- Generator: Adobe Illustrator 16.0.0, SVG Export Plug-In . SVG Version: 6.00 Build 0)  -->
<!DOCTYPE svg PUBLIC "-//W3C//DTD SVG 1.1//EN" "http://www.w3.org/Graphics/SVG/1.1/DTD/svg11.dtd">
<svg version="1.1" id="Layer_1" xmlns="http://www.w3.org/2000/svg" xmlns:xlink="http://www.w3.org/1999/xlink" x="0px" y="0px"
	 width="185.339px" height="143.34px" viewBox="-29.96 -20.78 185.339 143.34"
	 enable-background="new -29.96 -20.78 185.339 143.34" xml:space="preserve">
<g id="Layer_1_1_">
</g>
<text transform="matrix(1 0 0 1 -144.9541 -91.865)"><tspan x="0" y="0" font-family="'Roboto-Bold'" font-size="12">OUVERT </tspan><tspan x="3.832" y="14.4" font-family="'Roboto-Bold'" font-size="12">FESTIF </tspan><tspan x="-14.188" y="28.8" font-family="'Roboto-Bold'" font-size="12">AGNOSTIQUE </tspan><tspan x="-3.835" y="43.2" font-family="'Roboto-Bold'" font-size="12">COMMUN</tspan></text>
<g>
	<path fill="#FFFFFF" stroke="#FFFFFF" stroke-width="0.5" stroke-miterlimit="10" d="M9.622-11.934H4.34v-2.285h5.282V-11.934z"/>
	<path fill="#FFFFFF" stroke="#FFFFFF" stroke-width="0.5" stroke-miterlimit="10" d="M33.145-13.692
		c0,1.248-0.231,2.353-0.694,3.313s-1.121,1.701-1.973,2.219c-0.854,0.519-1.824,0.778-2.914,0.778s-2.057-0.25-2.9-0.751
		s-1.502-1.217-1.973-2.149c-0.473-0.932-0.72-2.001-0.743-3.208v-0.721c0-1.254,0.229-2.36,0.69-3.318
		c0.459-0.958,1.118-1.698,1.977-2.219s1.836-0.782,2.932-0.782c1.084,0,2.051,0.258,2.9,0.773s1.51,1.25,1.982,2.202
		c0.471,0.952,0.71,2.043,0.716,3.274V-13.692z M30.007-14.228c0-1.271-0.213-2.237-0.637-2.896
		c-0.426-0.659-1.033-0.989-1.824-0.989c-1.547,0-2.364,1.16-2.452,3.48l-0.009,0.94c0,1.254,0.208,2.218,0.624,2.892
		s1.034,1.011,1.854,1.011c0.779,0,1.38-0.331,1.802-0.993s0.636-1.614,0.642-2.856V-14.228z"/>
	<path fill="#FFFFFF" stroke="#FFFFFF" stroke-width="0.5" stroke-miterlimit="10" d="M47.652-20.354v8.376
		c0,0.949-0.202,1.771-0.606,2.465s-0.984,1.223-1.74,1.586s-1.649,0.545-2.681,0.545c-1.559,0-2.786-0.404-3.683-1.213
		s-1.354-1.916-1.371-3.322v-8.438h3.103v8.499c0.035,1.4,0.686,2.101,1.951,2.101c0.639,0,1.122-0.176,1.45-0.527
		s0.492-0.923,0.492-1.714v-8.358H47.652z"/>
	<path fill="#FFFFFF" stroke="#FFFFFF" stroke-width="0.5" stroke-miterlimit="10" d="M57.423-11.037l2.549-9.316h3.445L59.11-7.557
		h-3.375l-4.271-12.797h3.419L57.423-11.037z"/>
	<path fill="#FFFFFF" stroke="#FFFFFF" stroke-width="0.5" stroke-miterlimit="10" d="M75.166-12.989h-4.852v3.059h5.73v2.373
		h-8.815v-12.797h8.833v2.382h-5.748v2.698h4.852V-12.989z"/>
	<path fill="#FFFFFF" stroke="#FFFFFF" stroke-width="0.5" stroke-miterlimit="10" d="M84.937-12.083h-1.67v4.526h-3.085v-12.797
		h5.036c1.518,0,2.704,0.336,3.56,1.01c0.855,0.673,1.283,1.624,1.283,2.854c0,0.89-0.18,1.627-0.541,2.212
		c-0.359,0.585-0.924,1.06-1.691,1.422L90.5-7.689v0.132h-3.305L84.937-12.083z M83.267-14.456h1.951
		c0.586,0,1.026-0.154,1.323-0.462c0.295-0.309,0.443-0.739,0.443-1.291s-0.149-0.985-0.448-1.299
		c-0.299-0.314-0.738-0.472-1.318-0.472h-1.951V-14.456z"/>
	<path fill="#FFFFFF" stroke="#FFFFFF" stroke-width="0.5" stroke-miterlimit="10" d="M104.41-17.972h-3.841v10.415h-3.085v-10.415
		h-3.771v-2.382h10.696V-17.972z"/>
	<path fill="#FFFFFF" stroke="#FFFFFF" stroke-width="0.5" stroke-miterlimit="10" d="M121.077-11.934h-5.282v-2.285h5.282V-11.934z
		"/>
	<path fill="#FFFFFF" stroke="#FFFFFF" stroke-width="0.5" stroke-miterlimit="10" d="M-24.428,20.489h-5.282v-2.285h5.282V20.489z"
		/>
	<path fill="#FFFFFF" stroke="#FFFFFF" stroke-width="0.5" stroke-miterlimit="10" d="M-8.657,20.524v4.342h-3.085V12.069h5.106
		c0.979,0,1.844,0.18,2.597,0.541s1.336,0.873,1.75,1.538c0.412,0.665,0.619,1.419,0.619,2.263c0,1.248-0.447,2.246-1.34,2.993
		c-0.895,0.747-2.12,1.121-3.679,1.121H-8.657z M-8.657,18.142h2.021c0.598,0,1.053-0.149,1.366-0.448s0.471-0.721,0.471-1.266
		c0-0.598-0.161-1.075-0.483-1.433s-0.762-0.539-1.318-0.545h-2.057V18.142z"/>
	<path fill="#FFFFFF" stroke="#FFFFFF" stroke-width="0.5" stroke-miterlimit="10" d="M10.79,19.434H5.938v3.059h5.73v2.373H2.854
		V12.069h8.833v2.382H5.938v2.698h4.852V19.434z M7.916,8.641h3.129l-2.443,2.76l-2.417-0.004L7.916,8.641z"/>
	<path fill="#FFFFFF" stroke="#FFFFFF" stroke-width="0.5" stroke-miterlimit="10" d="M15.806,24.866V12.069h4.122
		c1.131,0,2.147,0.256,3.05,0.769s1.606,1.236,2.113,2.171s0.764,1.982,0.77,3.142v0.589c0,1.172-0.248,2.222-0.742,3.151
		c-0.496,0.929-1.193,1.655-2.092,2.18c-0.9,0.524-1.903,0.79-3.011,0.795H15.806z M18.891,14.451v8.042h1.072
		c0.885,0,1.564-0.315,2.039-0.945s0.712-1.566,0.712-2.808v-0.554c0-1.236-0.237-2.168-0.712-2.795s-1.166-0.94-2.074-0.94H18.891z
		"/>
	<path fill="#FFFFFF" stroke="#FFFFFF" stroke-width="0.5" stroke-miterlimit="10" d="M37.407,22.475H33.18l-0.738,2.391h-3.296
		l4.693-12.797h2.9l4.729,12.797h-3.313L37.407,22.475z M33.918,20.094h2.751l-1.38-4.438L33.918,20.094z"/>
	<path fill="#FFFFFF" stroke="#FFFFFF" stroke-width="0.5" stroke-miterlimit="10" d="M55.571,23.284
		c-0.475,0.527-1.169,0.952-2.083,1.274s-1.916,0.483-3.006,0.483c-1.676,0-3.015-0.513-4.017-1.538s-1.538-2.452-1.608-4.28
		l-0.009-1.107c0-1.26,0.223-2.36,0.668-3.3s1.082-1.664,1.912-2.171c0.828-0.507,1.788-0.76,2.878-0.76
		c1.594,0,2.831,0.365,3.714,1.094c0.881,0.729,1.396,1.818,1.542,3.265h-2.971c-0.105-0.715-0.334-1.225-0.686-1.529
		s-0.85-0.457-1.494-0.457c-0.773,0-1.371,0.328-1.793,0.984s-0.636,1.594-0.642,2.812v0.773c0,1.277,0.218,2.237,0.654,2.878
		s1.124,0.962,2.062,0.962c0.803,0,1.4-0.179,1.793-0.536v-1.986h-2.145v-2.118h5.229V23.284z"/>
	<path fill="#FFFFFF" stroke="#FFFFFF" stroke-width="0.5" stroke-miterlimit="10" d="M71.081,18.731
		c0,1.248-0.231,2.353-0.694,3.313s-1.121,1.701-1.973,2.219c-0.854,0.519-1.824,0.778-2.914,0.778s-2.057-0.25-2.9-0.751
		s-1.502-1.217-1.973-2.149c-0.473-0.932-0.72-2.001-0.743-3.208v-0.721c0-1.254,0.229-2.36,0.69-3.318
		c0.459-0.958,1.118-1.698,1.977-2.219s1.836-0.782,2.932-0.782c1.084,0,2.051,0.258,2.9,0.773s1.51,1.25,1.982,2.202
		c0.471,0.952,0.71,2.043,0.716,3.274V18.731z M67.943,18.195c0-1.271-0.213-2.237-0.637-2.896
		c-0.426-0.659-1.033-0.989-1.824-0.989c-1.547,0-2.364,1.16-2.452,3.48l-0.009,0.94c0,1.254,0.208,2.218,0.624,2.892
		s1.034,1.011,1.854,1.011c0.779,0,1.38-0.331,1.802-0.993s0.636-1.614,0.642-2.856V18.195z"/>
	<path fill="#FFFFFF" stroke="#FFFFFF" stroke-width="0.5" stroke-miterlimit="10" d="M86.028,23.284
		c-0.475,0.527-1.169,0.952-2.083,1.274s-1.916,0.483-3.006,0.483c-1.676,0-3.015-0.513-4.017-1.538s-1.538-2.452-1.608-4.28
		l-0.009-1.107c0-1.26,0.223-2.36,0.668-3.3s1.082-1.664,1.912-2.171c0.828-0.507,1.788-0.76,2.878-0.76
		c1.594,0,2.831,0.365,3.714,1.094c0.881,0.729,1.396,1.818,1.542,3.265h-2.971c-0.105-0.715-0.334-1.225-0.686-1.529
		s-0.85-0.457-1.494-0.457c-0.773,0-1.371,0.328-1.793,0.984s-0.636,1.594-0.642,2.812v0.773c0,1.277,0.218,2.237,0.654,2.878
		s1.124,0.962,2.062,0.962c0.803,0,1.4-0.179,1.793-0.536v-1.986h-2.145v-2.118h5.229V23.284z"/>
	<path fill="#FFFFFF" stroke="#FFFFFF" stroke-width="0.5" stroke-miterlimit="10" d="M93.988,24.866h-3.076V12.069h3.076V24.866z"
		/>
	<path fill="#FFFFFF" stroke="#FFFFFF" stroke-width="0.5" stroke-miterlimit="10" d="M109.867,18.731
		c0,1.184-0.196,2.216-0.589,3.098s-0.935,1.589-1.626,2.123l2.065,1.635l-1.907,1.617l-2.751-2.215
		c-0.258,0.035-0.516,0.053-0.773,0.053c-1.09,0-2.057-0.252-2.9-0.756s-1.502-1.225-1.973-2.162
		c-0.473-0.938-0.717-2.016-0.734-3.234v-0.677c0-1.26,0.229-2.367,0.689-3.322s1.117-1.693,1.969-2.215
		c0.854-0.521,1.83-0.782,2.932-0.782c1.084,0,2.051,0.258,2.9,0.773s1.51,1.25,1.982,2.202c0.471,0.952,0.71,2.043,0.716,3.274
		V18.731z M106.729,18.195c0-1.271-0.213-2.237-0.637-2.896c-0.426-0.659-1.033-0.989-1.824-0.989c-0.814,0-1.427,0.325-1.837,0.976
		s-0.618,1.603-0.624,2.856v0.589c0,1.26,0.208,2.225,0.624,2.896s1.034,1.006,1.854,1.006c0.785,0,1.387-0.331,1.807-0.993
		c0.418-0.662,0.631-1.614,0.637-2.856V18.195z"/>
	<path fill="#FFFFFF" stroke="#FFFFFF" stroke-width="0.5" stroke-miterlimit="10" d="M124.357,12.069v8.376
		c0,0.949-0.202,1.771-0.606,2.465s-0.984,1.223-1.74,1.586s-1.649,0.545-2.681,0.545c-1.559,0-2.786-0.404-3.683-1.213
		s-1.354-1.916-1.371-3.322v-8.438h3.103v8.499c0.035,1.4,0.686,2.101,1.951,2.101c0.639,0,1.122-0.176,1.45-0.527
		s0.492-0.923,0.492-1.714v-8.358H124.357z"/>
	<path fill="#FFFFFF" stroke="#FFFFFF" stroke-width="0.5" stroke-miterlimit="10" d="M137.099,19.434h-4.852v3.059h5.73v2.373
		h-8.815V12.069h8.833v2.382h-5.748v2.698h4.852V19.434z"/>
	<path fill="#FFFFFF" stroke="#FFFFFF" stroke-width="0.5" stroke-miterlimit="10" d="M155.129,20.489h-5.282v-2.285h5.282V20.489z"
		/>
	<path fill="#FFFFFF" stroke="#FFFFFF" stroke-width="0.5" stroke-miterlimit="10" d="M14.957,52.912H9.675v-2.285h5.282V52.912z"/>
	<path fill="#FFFFFF" stroke="#FFFFFF" stroke-width="0.5" stroke-miterlimit="10" d="M35.702,52.192h-4.975v5.098h-3.085V44.492
		h8.561v2.382h-5.476v2.944h4.975V52.192z"/>
	<path fill="#FFFFFF" stroke="#FFFFFF" stroke-width="0.5" stroke-miterlimit="10" d="M48.303,51.858h-4.852v3.059h5.73v2.373
		h-8.815V44.492h8.833v2.382h-5.748v2.698h4.852V51.858z"/>
	<path fill="#FFFFFF" stroke="#FFFFFF" stroke-width="0.5" stroke-miterlimit="10" d="M59.919,53.888
		c0-0.451-0.16-0.803-0.479-1.055s-0.88-0.513-1.683-0.782s-1.459-0.53-1.969-0.782c-1.658-0.814-2.487-1.934-2.487-3.357
		c0-0.709,0.207-1.335,0.619-1.876c0.414-0.542,0.998-0.964,1.754-1.266s1.605-0.453,2.549-0.453c0.92,0,1.744,0.164,2.475,0.492
		c0.729,0.328,1.296,0.795,1.7,1.402c0.404,0.605,0.606,1.299,0.606,2.078h-3.076c0-0.521-0.16-0.926-0.479-1.213
		c-0.32-0.287-0.752-0.431-1.297-0.431c-0.551,0-0.986,0.122-1.305,0.364c-0.32,0.244-0.479,0.553-0.479,0.928
		c0,0.328,0.176,0.625,0.527,0.893c0.352,0.266,0.97,0.541,1.854,0.826c0.885,0.283,1.611,0.59,2.18,0.918
		c1.383,0.797,2.074,1.896,2.074,3.296c0,1.119-0.422,1.998-1.266,2.637s-2.001,0.958-3.472,0.958c-1.037,0-1.977-0.186-2.817-0.559
		c-0.841-0.371-1.474-0.881-1.898-1.529c-0.425-0.646-0.637-1.393-0.637-2.236h3.094c0,0.686,0.177,1.191,0.531,1.516
		c0.354,0.326,0.931,0.488,1.728,0.488c0.51,0,0.912-0.109,1.208-0.33C59.771,54.596,59.919,54.286,59.919,53.888z"/>
	<path fill="#FFFFFF" stroke="#FFFFFF" stroke-width="0.5" stroke-miterlimit="10" d="M77.513,46.874h-3.841v10.415h-3.085V46.874
		h-3.771v-2.382h10.696V46.874z"/>
	<path fill="#FFFFFF" stroke="#FFFFFF" stroke-width="0.5" stroke-miterlimit="10" d="M84.98,57.289h-3.076V44.492h3.076V57.289z"/>
	<path fill="#FFFFFF" stroke="#FFFFFF" stroke-width="0.5" stroke-miterlimit="10" d="M98.064,52.192H93.09v5.098h-3.085V44.492
		h8.561v2.382H93.09v2.944h4.975V52.192z"/>
	<path fill="#FFFFFF" stroke="#FFFFFF" stroke-width="0.5" stroke-miterlimit="10" d="M115.742,52.912h-5.282v-2.285h5.282V52.912z"
		/>
	<path fill="#FFFFFF" stroke="#FFFFFF" stroke-width="0.5" stroke-miterlimit="10" d="M-17.859,85.335h-5.282V83.05h5.282V85.335z"
		/>
	<path fill="#FFFFFF" stroke="#FFFFFF" stroke-width="0.5" stroke-miterlimit="10" d="M2.095,87.322h-4.228l-0.738,2.391h-3.296
		l4.693-12.797h2.9l4.729,12.797H2.842L2.095,87.322z M-1.395,84.94h2.751l-1.38-4.438L-1.395,84.94z"/>
	<path fill="#FFFFFF" stroke="#FFFFFF" stroke-width="0.5" stroke-miterlimit="10" d="M20.259,88.13
		c-0.475,0.527-1.169,0.952-2.083,1.274s-1.916,0.483-3.006,0.483c-1.676,0-3.015-0.513-4.017-1.538s-1.538-2.452-1.608-4.28
		l-0.009-1.107c0-1.26,0.223-2.36,0.668-3.3c0.445-0.941,1.082-1.664,1.912-2.172c0.828-0.506,1.788-0.76,2.878-0.76
		c1.594,0,2.831,0.365,3.714,1.094c0.881,0.73,1.396,1.818,1.542,3.266h-2.971c-0.105-0.715-0.334-1.225-0.686-1.529
		s-0.85-0.457-1.494-0.457c-0.773,0-1.371,0.328-1.793,0.984s-0.636,1.594-0.642,2.812v0.773c0,1.277,0.218,2.236,0.654,2.879
		c0.437,0.641,1.124,0.962,2.062,0.962c0.803,0,1.4-0.179,1.793-0.536v-1.986h-2.145v-2.118h5.229V88.13z"/>
	<path fill="#FFFFFF" stroke="#FFFFFF" stroke-width="0.5" stroke-miterlimit="10" d="M35.619,89.712h-3.067l-4.535-7.963v7.963
		h-3.085V76.915h3.085l4.526,7.963v-7.963h3.076V89.712z"/>
	<path fill="#FFFFFF" stroke="#FFFFFF" stroke-width="0.5" stroke-miterlimit="10" d="M51.288,83.577
		c0,1.248-0.231,2.353-0.694,3.313s-1.121,1.701-1.973,2.219c-0.854,0.52-1.824,0.778-2.914,0.778s-2.057-0.251-2.9-0.751
		c-0.844-0.502-1.502-1.218-1.973-2.149c-0.473-0.932-0.72-2.001-0.743-3.208v-0.721c0-1.254,0.229-2.359,0.69-3.318
		c0.459-0.957,1.118-1.697,1.977-2.219s1.836-0.782,2.932-0.782c1.084,0,2.051,0.258,2.9,0.773s1.51,1.249,1.982,2.202
		c0.471,0.951,0.71,2.043,0.716,3.273V83.577z M48.15,83.041c0-1.271-0.213-2.236-0.637-2.896c-0.426-0.658-1.033-0.988-1.824-0.988
		c-1.547,0-2.364,1.16-2.452,3.48l-0.009,0.94c0,1.254,0.208,2.218,0.624,2.892s1.034,1.011,1.854,1.011
		c0.779,0,1.38-0.331,1.802-0.993s0.636-1.614,0.642-2.856V83.041z"/>
	<path fill="#FFFFFF" stroke="#FFFFFF" stroke-width="0.5" stroke-miterlimit="10" d="M62.359,86.311
		c0-0.451-0.16-0.803-0.479-1.055s-0.88-0.513-1.683-0.782s-1.459-0.53-1.969-0.782c-1.658-0.814-2.487-1.934-2.487-3.357
		c0-0.709,0.207-1.334,0.619-1.877c0.414-0.541,0.998-0.963,1.754-1.266c0.756-0.301,1.605-0.452,2.549-0.452
		c0.92,0,1.744,0.164,2.475,0.492c0.729,0.328,1.296,0.796,1.7,1.401c0.404,0.607,0.606,1.3,0.606,2.079h-3.076
		c0-0.521-0.16-0.926-0.479-1.213c-0.32-0.287-0.752-0.431-1.297-0.431c-0.551,0-0.986,0.121-1.305,0.365
		c-0.32,0.242-0.479,0.552-0.479,0.927c0,0.328,0.176,0.626,0.527,0.892c0.352,0.268,0.97,0.543,1.854,0.826
		c0.885,0.285,1.611,0.591,2.18,0.919c1.383,0.797,2.074,1.896,2.074,3.296c0,1.119-0.422,1.998-1.266,2.637
		s-2.001,0.958-3.472,0.958c-1.037,0-1.977-0.187-2.817-0.558c-0.841-0.373-1.474-0.883-1.898-1.529
		c-0.425-0.648-0.637-1.394-0.637-2.237h3.094c0,0.686,0.177,1.19,0.531,1.517c0.354,0.324,0.931,0.487,1.728,0.487
		c0.51,0,0.912-0.11,1.208-0.329C62.211,87.018,62.359,86.709,62.359,86.311z"/>
	<path fill="#FFFFFF" stroke="#FFFFFF" stroke-width="0.5" stroke-miterlimit="10" d="M79.952,79.297h-3.841v10.415h-3.085V79.297
		h-3.771v-2.382h10.696V79.297z"/>
	<path fill="#FFFFFF" stroke="#FFFFFF" stroke-width="0.5" stroke-miterlimit="10" d="M87.42,89.712h-3.076V76.915h3.076V89.712z"/>
	<path fill="#FFFFFF" stroke="#FFFFFF" stroke-width="0.5" stroke-miterlimit="10" d="M103.299,83.577
		c0,1.184-0.196,2.216-0.589,3.099c-0.393,0.881-0.935,1.589-1.626,2.122l2.065,1.635l-1.907,1.617l-2.751-2.215
		c-0.258,0.035-0.516,0.053-0.773,0.053c-1.09,0-2.057-0.252-2.9-0.756s-1.502-1.225-1.973-2.162
		c-0.473-0.938-0.717-2.016-0.734-3.234v-0.677c0-1.26,0.229-2.367,0.689-3.322s1.117-1.693,1.969-2.215
		C95.622,77,96.599,76.74,97.7,76.74c1.084,0,2.051,0.258,2.9,0.773s1.51,1.249,1.982,2.202c0.471,0.951,0.71,2.043,0.716,3.273
		V83.577z M100.161,83.041c0-1.271-0.213-2.236-0.637-2.896c-0.426-0.658-1.033-0.988-1.824-0.988c-0.814,0-1.427,0.325-1.837,0.976
		s-0.618,1.603-0.624,2.856v0.589c0,1.26,0.208,2.226,0.624,2.896c0.416,0.672,1.034,1.007,1.854,1.007
		c0.785,0,1.387-0.331,1.807-0.993c0.418-0.662,0.631-1.614,0.637-2.856V83.041z"/>
	<path fill="#FFFFFF" stroke="#FFFFFF" stroke-width="0.5" stroke-miterlimit="10" d="M117.789,76.915v8.376
		c0,0.949-0.202,1.771-0.606,2.465c-0.404,0.695-0.984,1.224-1.74,1.587s-1.649,0.545-2.681,0.545c-1.559,0-2.786-0.404-3.683-1.213
		s-1.354-1.916-1.371-3.322v-8.438h3.103v8.499c0.035,1.4,0.686,2.101,1.951,2.101c0.639,0,1.122-0.176,1.45-0.527
		s0.492-0.923,0.492-1.714v-8.358H117.789z"/>
	<path fill="#FFFFFF" stroke="#FFFFFF" stroke-width="0.5" stroke-miterlimit="10" d="M130.53,84.281h-4.852v3.059h5.73v2.373
		h-8.815V76.915h8.833v2.382h-5.748v2.698h4.852V84.281z"/>
	<path fill="#FFFFFF" stroke="#FFFFFF" stroke-width="0.5" stroke-miterlimit="10" d="M148.561,85.335h-5.282V83.05h5.282V85.335z"
		/>
	<path fill="#FFFFFF" stroke="#FFFFFF" stroke-width="0.5" stroke-miterlimit="10" d="M3.663,117.758h-5.282v-2.285h5.282V117.758z"
		/>
	<path fill="#FFFFFF" stroke="#FFFFFF" stroke-width="0.5" stroke-miterlimit="10" d="M26.702,117.803
		c-0.041,0.891-0.281,1.677-0.721,2.359s-1.057,1.211-1.85,1.586c-0.795,0.375-1.701,0.562-2.721,0.562
		c-1.682,0-3.006-0.547-3.973-1.643s-1.45-2.643-1.45-4.641v-0.633c0-1.254,0.218-2.352,0.655-3.292
		c0.436-0.94,1.064-1.667,1.885-2.18s1.77-0.769,2.848-0.769c1.553,0,2.801,0.408,3.744,1.226s1.479,1.944,1.608,3.38h-3.076
		c-0.023-0.779-0.22-1.34-0.589-1.68s-0.932-0.51-1.688-0.51c-0.768,0-1.33,0.287-1.688,0.861s-0.545,1.492-0.562,2.752v0.904
		c0,1.365,0.172,2.342,0.514,2.928c0.344,0.586,0.934,0.879,1.771,0.879c0.709,0,1.251-0.168,1.626-0.502s0.574-0.863,0.598-1.59
		H26.702z"/>
	<path fill="#FFFFFF" stroke="#FFFFFF" stroke-width="0.5" stroke-miterlimit="10" d="M41.878,116c0,1.248-0.231,2.354-0.694,3.314
		s-1.121,1.7-1.973,2.219c-0.854,0.519-1.824,0.777-2.914,0.777s-2.057-0.25-2.9-0.751s-1.502-1.218-1.973-2.149
		c-0.473-0.932-0.72-2-0.743-3.207v-0.721c0-1.254,0.229-2.36,0.69-3.318c0.459-0.958,1.118-1.697,1.977-2.219
		s1.836-0.783,2.932-0.783c1.084,0,2.051,0.258,2.9,0.773s1.51,1.25,1.982,2.202c0.471,0.952,0.71,2.044,0.716,3.274V116z
		 M38.74,115.465c0-1.271-0.213-2.237-0.637-2.896c-0.426-0.659-1.033-0.988-1.824-0.988c-1.547,0-2.364,1.16-2.452,3.48L33.818,116
		c0,1.254,0.208,2.219,0.624,2.893s1.034,1.01,1.854,1.01c0.779,0,1.38-0.33,1.802-0.992s0.636-1.615,0.642-2.857V115.465z"/>
	<path fill="#FFFFFF" stroke="#FFFFFF" stroke-width="0.5" stroke-miterlimit="10" d="M50.4,109.338l2.856,8.904l2.848-8.904h4.061
		v12.797h-3.094v-2.988l0.299-6.117l-3.094,9.105h-2.039l-3.103-9.113l0.299,6.125v2.988h-3.085v-12.797H50.4z"/>
	<path fill="#FFFFFF" stroke="#FFFFFF" stroke-width="0.5" stroke-miterlimit="10" d="M69.058,109.338l2.856,8.904l2.848-8.904
		h4.061v12.797h-3.094v-2.988l0.299-6.117l-3.094,9.105h-2.039l-3.103-9.113l0.299,6.125v2.988h-3.085v-12.797H69.058z"/>
	<path fill="#FFFFFF" stroke="#FFFFFF" stroke-width="0.5" stroke-miterlimit="10" d="M93.699,109.338v8.377
		c0,0.949-0.202,1.771-0.606,2.465s-0.984,1.223-1.74,1.586s-1.649,0.545-2.681,0.545c-1.559,0-2.786-0.404-3.683-1.213
		s-1.354-1.916-1.371-3.322v-8.438h3.103v8.5c0.035,1.4,0.686,2.1,1.951,2.1c0.639,0,1.122-0.176,1.45-0.527
		s0.492-0.922,0.492-1.713v-8.359H93.699z"/>
	<path fill="#FFFFFF" stroke="#FFFFFF" stroke-width="0.5" stroke-miterlimit="10" d="M109.191,122.135h-3.067l-4.535-7.963v7.963
		h-3.085v-12.797h3.085l4.526,7.963v-7.963h3.076V122.135z"/>
	<path fill="#FFFFFF" stroke="#FFFFFF" stroke-width="0.5" stroke-miterlimit="10" d="M127.036,117.758h-5.282v-2.285h5.282V117.758
		z"/>
</g>
</svg>
