<?xml version="1.0" encoding="utf-8"?>
<!-- Generator: Adobe Illustrator 16.0.0, SVG Export Plug-In . SVG Version: 6.00 Build 0)  -->
<!DOCTYPE svg PUBLIC "-//W3C//DTD SVG 1.1//EN" "http://www.w3.org/Graphics/SVG/1.1/DTD/svg11.dtd">
<svg version="1.1" id="Layer_1" xmlns="http://www.w3.org/2000/svg" xmlns:xlink="http://www.w3.org/1999/xlink" x="0px" y="0px"
	 width="172.202px" height="110.917px" viewBox="-23.695 -3.71 172.202 110.917"
	 enable-background="new -23.695 -3.71 172.202 110.917" xml:space="preserve">
<g id="Layer_1_1_">
</g>
<text transform="matrix(1 0 0 1 -144.9541 -91.865)"><tspan x="0" y="0" font-family="'Roboto-Bold'" font-size="12">OUVERT </tspan><tspan x="3.832" y="14.4" font-family="'Roboto-Bold'" font-size="12">FESTIF </tspan><tspan x="-14.188" y="28.8" font-family="'Roboto-Bold'" font-size="12">AGNOSTIQUE </tspan><tspan x="-3.835" y="43.2" font-family="'Roboto-Bold'" font-size="12">COMMUN</tspan></text>
<g>
	<path fill="#FFFFFF" stroke="#FFFFFF" stroke-width="0.5" stroke-miterlimit="10" d="M9.318,5.136H4.036V2.851h5.282V5.136z"/>
	<path fill="#FFFFFF" stroke="#FFFFFF" stroke-width="0.5" stroke-miterlimit="10" d="M32.841,3.378
		c0,1.248-0.231,2.353-0.694,3.313s-1.121,1.701-1.973,2.219C29.32,9.429,28.35,9.689,27.26,9.689s-2.057-0.25-2.9-0.751
		s-1.502-1.217-1.973-2.149c-0.473-0.932-0.72-2.001-0.743-3.208V2.86c0-1.254,0.229-2.36,0.69-3.318
		c0.459-0.958,1.118-1.698,1.977-2.219s1.836-0.782,2.932-0.782c1.084,0,2.051,0.258,2.9,0.773s1.51,1.25,1.982,2.202
		c0.471,0.952,0.71,2.043,0.716,3.274V3.378z M29.703,2.842c0-1.271-0.213-2.237-0.637-2.896c-0.426-0.659-1.033-0.989-1.824-0.989
		c-1.547,0-2.364,1.16-2.452,3.48l-0.009,0.94c0,1.254,0.208,2.218,0.624,2.892s1.034,1.011,1.854,1.011
		c0.779,0,1.38-0.331,1.802-0.993s0.636-1.614,0.642-2.856V2.842z"/>
	<path fill="#FFFFFF" stroke="#FFFFFF" stroke-width="0.5" stroke-miterlimit="10" d="M47.349-3.284v8.376
		c0,0.949-0.202,1.771-0.606,2.465s-0.984,1.223-1.74,1.586s-1.649,0.545-2.681,0.545c-1.559,0-2.786-0.404-3.683-1.213
		s-1.354-1.916-1.371-3.322v-8.438h3.103v8.499c0.035,1.4,0.686,2.101,1.951,2.101c0.639,0,1.122-0.176,1.45-0.527
		s0.492-0.923,0.492-1.714v-8.358H47.349z"/>
	<path fill="#FFFFFF" stroke="#FFFFFF" stroke-width="0.5" stroke-miterlimit="10" d="M57.119,6.032l2.549-9.316h3.445L58.807,9.513
		h-3.375L51.16-3.284h3.419L57.119,6.032z"/>
	<path fill="#FFFFFF" stroke="#FFFFFF" stroke-width="0.5" stroke-miterlimit="10" d="M74.862,4.081h-4.852V7.14h5.73v2.373h-8.815
		V-3.284h8.833v2.382h-5.748v2.698h4.852V4.081z"/>
	<path fill="#FFFFFF" stroke="#FFFFFF" stroke-width="0.5" stroke-miterlimit="10" d="M84.633,4.987h-1.67v4.526h-3.085V-3.284
		h5.036c1.518,0,2.704,0.336,3.56,1.01c0.855,0.673,1.283,1.624,1.283,2.854c0,0.89-0.18,1.627-0.541,2.212
		c-0.359,0.585-0.924,1.06-1.691,1.422l2.672,5.167v0.132h-3.305L84.633,4.987z M82.963,2.614h1.951
		c0.586,0,1.026-0.154,1.323-0.462c0.295-0.309,0.443-0.739,0.443-1.291s-0.149-0.985-0.448-1.299
		c-0.299-0.314-0.738-0.472-1.318-0.472h-1.951V2.614z"/>
	<path fill="#FFFFFF" stroke="#FFFFFF" stroke-width="0.5" stroke-miterlimit="10" d="M104.106-0.902h-3.841V9.513h-3.085V-0.902
		H93.41v-2.382h10.696V-0.902z"/>
	<path fill="#FFFFFF" stroke="#FFFFFF" stroke-width="0.5" stroke-miterlimit="10" d="M120.773,5.136h-5.282V2.851h5.282V5.136z"/>
	<path fill="#FFFFFF" stroke="#FFFFFF" stroke-width="0.5" stroke-miterlimit="10" d="M14.653,37.559H9.371v-2.285h5.282V37.559z"/>
	<path fill="#FFFFFF" stroke="#FFFFFF" stroke-width="0.5" stroke-miterlimit="10" d="M35.398,36.838h-4.975v5.098h-3.085V29.139
		h8.561v2.382h-5.476v2.944h4.975V36.838z"/>
	<path fill="#FFFFFF" stroke="#FFFFFF" stroke-width="0.5" stroke-miterlimit="10" d="M47.999,36.504h-4.852v3.059h5.73v2.373
		h-8.815V29.139h8.833v2.382h-5.748v2.698h4.852V36.504z"/>
	<path fill="#FFFFFF" stroke="#FFFFFF" stroke-width="0.5" stroke-miterlimit="10" d="M59.615,38.534
		c0-0.451-0.16-0.803-0.479-1.055s-0.88-0.513-1.683-0.782s-1.459-0.53-1.969-0.782c-1.658-0.814-2.487-1.934-2.487-3.357
		c0-0.709,0.207-1.334,0.619-1.876c0.414-0.542,0.998-0.964,1.754-1.266s1.605-0.453,2.549-0.453c0.92,0,1.744,0.164,2.475,0.492
		c0.729,0.328,1.296,0.795,1.7,1.402s0.606,1.299,0.606,2.079h-3.076c0-0.521-0.16-0.926-0.479-1.213
		c-0.32-0.287-0.752-0.431-1.297-0.431c-0.551,0-0.986,0.122-1.305,0.365c-0.32,0.243-0.479,0.552-0.479,0.927
		c0,0.328,0.176,0.625,0.527,0.892s0.97,0.542,1.854,0.826s1.611,0.59,2.18,0.918c1.383,0.797,2.074,1.896,2.074,3.296
		c0,1.119-0.422,1.998-1.266,2.637s-2.001,0.958-3.472,0.958c-1.037,0-1.977-0.186-2.817-0.558s-1.474-0.882-1.898-1.529
		s-0.637-1.393-0.637-2.237h3.094c0,0.686,0.177,1.191,0.531,1.516s0.931,0.488,1.728,0.488c0.51,0,0.912-0.11,1.208-0.33
		S59.615,38.933,59.615,38.534z"/>
	<path fill="#FFFFFF" stroke="#FFFFFF" stroke-width="0.5" stroke-miterlimit="10" d="M77.209,31.521h-3.841v10.415h-3.085V31.521
		h-3.771v-2.382h10.696V31.521z"/>
	<path fill="#FFFFFF" stroke="#FFFFFF" stroke-width="0.5" stroke-miterlimit="10" d="M84.677,41.936h-3.076V29.139h3.076V41.936z"
		/>
	<path fill="#FFFFFF" stroke="#FFFFFF" stroke-width="0.5" stroke-miterlimit="10" d="M97.761,36.838h-4.975v5.098h-3.085V29.139
		h8.561v2.382h-5.476v2.944h4.975V36.838z"/>
	<path fill="#FFFFFF" stroke="#FFFFFF" stroke-width="0.5" stroke-miterlimit="10" d="M115.438,37.559h-5.282v-2.285h5.282V37.559z"
		/>
	<path fill="#FFFFFF" stroke="#FFFFFF" stroke-width="0.5" stroke-miterlimit="10" d="M-18.163,69.983h-5.282v-2.285h5.282V69.983z"
		/>
	<path fill="#FFFFFF" stroke="#FFFFFF" stroke-width="0.5" stroke-miterlimit="10" d="M1.791,71.969h-4.228l-0.738,2.391h-3.296
		l4.693-12.797h2.9L5.852,74.36H2.538L1.791,71.969z M-1.698,69.586h2.751l-1.38-4.438L-1.698,69.586z"/>
	<path fill="#FFFFFF" stroke="#FFFFFF" stroke-width="0.5" stroke-miterlimit="10" d="M19.955,72.778
		c-0.475,0.527-1.169,0.951-2.083,1.273s-1.916,0.484-3.006,0.484c-1.676,0-3.015-0.514-4.017-1.539s-1.538-2.451-1.608-4.279
		L9.232,67.61c0-1.26,0.223-2.36,0.668-3.301s1.082-1.664,1.912-2.171c0.828-0.507,1.788-0.761,2.878-0.761
		c1.594,0,2.831,0.365,3.714,1.095c0.881,0.729,1.396,1.817,1.542,3.265h-2.971c-0.105-0.715-0.334-1.225-0.686-1.529
		s-0.85-0.457-1.494-0.457c-0.773,0-1.371,0.328-1.793,0.984s-0.636,1.594-0.642,2.812v0.773c0,1.277,0.218,2.237,0.654,2.879
		s1.124,0.963,2.062,0.963c0.803,0,1.4-0.18,1.793-0.537v-1.986h-2.145v-2.117h5.229V72.778z"/>
	<path fill="#FFFFFF" stroke="#FFFFFF" stroke-width="0.5" stroke-miterlimit="10" d="M35.315,74.36h-3.067l-4.535-7.963v7.963
		h-3.085V61.563h3.085l4.526,7.963v-7.963h3.076V74.36z"/>
	<path fill="#FFFFFF" stroke="#FFFFFF" stroke-width="0.5" stroke-miterlimit="10" d="M50.984,68.225
		c0,1.248-0.231,2.352-0.694,3.312s-1.121,1.701-1.973,2.22c-0.854,0.519-1.824,0.778-2.914,0.778s-2.057-0.251-2.9-0.752
		s-1.502-1.217-1.973-2.148c-0.473-0.932-0.72-2.002-0.743-3.209v-0.721c0-1.254,0.229-2.359,0.69-3.317
		c0.459-0.958,1.118-1.698,1.977-2.22s1.836-0.781,2.932-0.781c1.084,0,2.051,0.258,2.9,0.773s1.51,1.249,1.982,2.201
		c0.471,0.952,0.71,2.043,0.716,3.273V68.225z M47.847,67.688c0-1.271-0.213-2.236-0.637-2.896
		c-0.426-0.659-1.033-0.989-1.824-0.989c-1.547,0-2.364,1.16-2.452,3.48l-0.009,0.941c0,1.254,0.208,2.217,0.624,2.891
		s1.034,1.012,1.854,1.012c0.779,0,1.38-0.332,1.802-0.994s0.636-1.613,0.642-2.855V67.688z"/>
	<path fill="#FFFFFF" stroke="#FFFFFF" stroke-width="0.5" stroke-miterlimit="10" d="M62.056,70.957
		c0-0.451-0.16-0.803-0.479-1.055s-0.88-0.512-1.683-0.781s-1.459-0.531-1.969-0.783c-1.658-0.814-2.487-1.934-2.487-3.357
		c0-0.709,0.207-1.334,0.619-1.876c0.414-0.542,0.998-0.964,1.754-1.266s1.605-0.452,2.549-0.452c0.92,0,1.744,0.164,2.475,0.492
		c0.729,0.328,1.296,0.795,1.7,1.401s0.606,1.3,0.606,2.079h-3.076c0-0.521-0.16-0.926-0.479-1.213
		c-0.32-0.287-0.752-0.432-1.297-0.432c-0.551,0-0.986,0.122-1.305,0.365c-0.32,0.243-0.479,0.553-0.479,0.928
		c0,0.328,0.176,0.625,0.527,0.892s0.97,0.542,1.854,0.826s1.611,0.591,2.18,0.919c1.383,0.797,2.074,1.895,2.074,3.295
		c0,1.119-0.422,1.998-1.266,2.637s-2.001,0.959-3.472,0.959c-1.037,0-1.977-0.187-2.817-0.559s-1.474-0.882-1.898-1.529
		s-0.637-1.393-0.637-2.236h3.094c0,0.686,0.177,1.19,0.531,1.516s0.931,0.488,1.728,0.488c0.51,0,0.912-0.11,1.208-0.33
		S62.056,71.356,62.056,70.957z"/>
	<path fill="#FFFFFF" stroke="#FFFFFF" stroke-width="0.5" stroke-miterlimit="10" d="M79.648,63.944h-3.841V74.36h-3.085V63.944
		h-3.771v-2.381h10.696V63.944z"/>
	<path fill="#FFFFFF" stroke="#FFFFFF" stroke-width="0.5" stroke-miterlimit="10" d="M87.116,74.36H84.04V61.563h3.076V74.36z"/>
	<path fill="#FFFFFF" stroke="#FFFFFF" stroke-width="0.5" stroke-miterlimit="10" d="M102.995,68.225
		c0,1.184-0.196,2.216-0.589,3.098s-0.935,1.59-1.626,2.123l2.065,1.635l-1.907,1.617l-2.751-2.215
		c-0.258,0.035-0.516,0.053-0.773,0.053c-1.09,0-2.057-0.252-2.9-0.756s-1.502-1.225-1.973-2.162
		c-0.473-0.938-0.717-2.016-0.734-3.234v-0.678c0-1.26,0.229-2.367,0.689-3.322s1.117-1.693,1.969-2.215
		c0.854-0.521,1.83-0.781,2.932-0.781c1.084,0,2.051,0.258,2.9,0.773s1.51,1.249,1.982,2.201c0.471,0.952,0.71,2.043,0.716,3.273
		V68.225z M99.857,67.688c0-1.271-0.213-2.236-0.637-2.896c-0.426-0.659-1.033-0.989-1.824-0.989c-0.814,0-1.427,0.326-1.837,0.977
		s-0.618,1.602-0.624,2.855v0.59c0,1.26,0.208,2.225,0.624,2.896s1.034,1.007,1.854,1.007c0.785,0,1.387-0.332,1.807-0.994
		c0.418-0.662,0.631-1.613,0.637-2.855V67.688z"/>
	<path fill="#FFFFFF" stroke="#FFFFFF" stroke-width="0.5" stroke-miterlimit="10" d="M117.485,61.563v8.375
		c0,0.949-0.202,1.771-0.606,2.466s-0.984,1.224-1.74,1.587s-1.649,0.545-2.681,0.545c-1.559,0-2.786-0.404-3.683-1.213
		s-1.354-1.916-1.371-3.322v-8.438h3.103v8.498c0.035,1.4,0.686,2.102,1.951,2.102c0.639,0,1.122-0.176,1.45-0.527
		s0.492-0.924,0.492-1.715v-8.357H117.485z"/>
	<path fill="#FFFFFF" stroke="#FFFFFF" stroke-width="0.5" stroke-miterlimit="10" d="M130.227,68.928h-4.852v3.059h5.73v2.373
		h-8.815V61.563h8.833v2.381h-5.748v2.699h4.852V68.928z"/>
	<path fill="#FFFFFF" stroke="#FFFFFF" stroke-width="0.5" stroke-miterlimit="10" d="M148.257,69.983h-5.282v-2.285h5.282V69.983z"
		/>
	<path fill="#FFFFFF" stroke="#FFFFFF" stroke-width="0.5" stroke-miterlimit="10" d="M3.359,102.405h-5.282v-2.285h5.282V102.405z"
		/>
	<path fill="#FFFFFF" stroke="#FFFFFF" stroke-width="0.5" stroke-miterlimit="10" d="M26.398,102.449
		c-0.041,0.891-0.281,1.677-0.721,2.359s-1.057,1.211-1.85,1.586c-0.795,0.375-1.701,0.562-2.721,0.562
		c-1.682,0-3.006-0.547-3.973-1.643s-1.45-2.643-1.45-4.641v-0.633c0-1.254,0.218-2.352,0.655-3.292
		c0.436-0.94,1.064-1.667,1.885-2.18s1.77-0.769,2.848-0.769c1.553,0,2.801,0.408,3.744,1.226s1.479,1.944,1.608,3.38h-3.076
		c-0.023-0.779-0.22-1.34-0.589-1.68s-0.932-0.51-1.688-0.51c-0.768,0-1.33,0.287-1.688,0.861s-0.545,1.492-0.562,2.752v0.904
		c0,1.365,0.172,2.342,0.514,2.928c0.344,0.586,0.934,0.879,1.771,0.879c0.709,0,1.251-0.168,1.626-0.502s0.574-0.863,0.598-1.59
		H26.398z"/>
	<path fill="#FFFFFF" stroke="#FFFFFF" stroke-width="0.5" stroke-miterlimit="10" d="M41.574,100.647
		c0,1.248-0.231,2.354-0.694,3.314s-1.121,1.7-1.973,2.219c-0.854,0.519-1.824,0.777-2.914,0.777s-2.057-0.25-2.9-0.751
		s-1.502-1.218-1.973-2.149c-0.473-0.932-0.72-2-0.743-3.207v-0.721c0-1.254,0.229-2.36,0.69-3.318
		c0.459-0.958,1.118-1.697,1.977-2.219s1.836-0.783,2.932-0.783c1.084,0,2.051,0.258,2.9,0.773s1.51,1.25,1.982,2.202
		c0.471,0.952,0.71,2.044,0.716,3.274V100.647z M38.437,100.112c0-1.271-0.213-2.237-0.637-2.896
		c-0.426-0.659-1.033-0.988-1.824-0.988c-1.547,0-2.364,1.16-2.452,3.48l-0.009,0.939c0,1.254,0.208,2.219,0.624,2.893
		s1.034,1.01,1.854,1.01c0.779,0,1.38-0.33,1.802-0.992s0.636-1.615,0.642-2.857V100.112z"/>
	<path fill="#FFFFFF" stroke="#FFFFFF" stroke-width="0.5" stroke-miterlimit="10" d="M50.097,93.985l2.856,8.904l2.848-8.904h4.061
		v12.797h-3.094v-2.988l0.299-6.117l-3.094,9.105h-2.039l-3.103-9.113l0.299,6.125v2.988h-3.085V93.985H50.097z"/>
	<path fill="#FFFFFF" stroke="#FFFFFF" stroke-width="0.5" stroke-miterlimit="10" d="M68.754,93.985l2.856,8.904l2.848-8.904h4.061
		v12.797h-3.094v-2.988l0.299-6.117l-3.094,9.105h-2.039l-3.103-9.113l0.299,6.125v2.988h-3.085V93.985H68.754z"/>
	<path fill="#FFFFFF" stroke="#FFFFFF" stroke-width="0.5" stroke-miterlimit="10" d="M93.396,93.985v8.377
		c0,0.949-0.202,1.771-0.606,2.465s-0.984,1.223-1.74,1.586s-1.649,0.545-2.681,0.545c-1.559,0-2.786-0.404-3.683-1.213
		s-1.354-1.916-1.371-3.322v-8.438h3.103v8.5c0.035,1.4,0.686,2.1,1.951,2.1c0.639,0,1.122-0.176,1.45-0.527
		s0.492-0.922,0.492-1.713v-8.359H93.396z"/>
	<path fill="#FFFFFF" stroke="#FFFFFF" stroke-width="0.5" stroke-miterlimit="10" d="M108.888,106.781h-3.067l-4.535-7.963v7.963
		H98.2V93.985h3.085l4.526,7.963v-7.963h3.076V106.781z"/>
	<path fill="#FFFFFF" stroke="#FFFFFF" stroke-width="0.5" stroke-miterlimit="10" d="M126.732,102.405h-5.282v-2.285h5.282V102.405
		z"/>
</g>
</svg>
