<?xml version="1.0" encoding="utf-8"?>
<!-- Generator: Adobe Illustrator 16.0.0, SVG Export Plug-In . SVG Version: 6.00 Build 0)  -->
<!DOCTYPE svg PUBLIC "-//W3C//DTD SVG 1.1//EN" "http://www.w3.org/Graphics/SVG/1.1/DTD/svg11.dtd">
<svg version="1.1" id="Layer_1" xmlns="http://www.w3.org/2000/svg" xmlns:xlink="http://www.w3.org/1999/xlink" x="0px" y="0px"
	 width="195.512px" height="175.901px" viewBox="-35.072 -31.385 195.512 175.901"
	 enable-background="new -35.072 -31.385 195.512 175.901" xml:space="preserve">
<g id="Layer_1_1_">
</g>
<g>
	<g>
		<polygon fill="#FFFFFF" points="70.003,19.061 71.682,19.061 70.839,16.545 		"/>
		<path fill="#FFFFFF" d="M83.952,15.898c-0.466,0-0.825,0.181-1.077,0.542c-0.253,0.362-0.378,0.892-0.382,1.591v0.328
			c0,0.687,0.126,1.219,0.378,1.598s0.615,0.568,1.09,0.568c0.466,0,0.821-0.183,1.07-0.548c0.25-0.364,0.377-0.896,0.381-1.595
			v-0.328c0-0.705-0.127-1.241-0.381-1.607C84.78,16.082,84.42,15.898,83.952,15.898z"/>
		<path fill="#FFFFFF" d="M64.881,18.641h-1.27v1.815h1.187c0.327,0,0.58-0.078,0.766-0.233c0.181-0.155,0.274-0.37,0.274-0.644
			C65.838,18.963,65.517,18.651,64.881,18.641z"/>
		<path fill="#FFFFFF" d="M65.683,16.826c0-0.305-0.089-0.524-0.266-0.658c-0.175-0.134-0.455-0.201-0.836-0.201h-0.971v1.695h1.024
			C65.335,17.65,65.683,17.371,65.683,16.826z"/>
		<path fill="#FFFFFF" d="M58.788,11.436v14.185h48.297V11.436H58.788z M66.602,21.061c-0.411,0.333-1.002,0.502-1.763,0.508h-2.614
			v-6.724h2.356c0.815,0,1.433,0.157,1.854,0.469c0.422,0.312,0.632,0.77,0.632,1.374c0,0.329-0.083,0.62-0.253,0.87
			c-0.169,0.251-0.403,0.435-0.707,0.552c0.345,0.086,0.617,0.26,0.814,0.522c0.2,0.262,0.3,0.582,0.3,0.96
			C67.222,20.239,67.014,20.728,66.602,21.061z M72.522,21.569l-0.466-1.386h-2.429l-0.461,1.386h-1.475l2.504-6.724h1.284
			l2.515,6.724H72.522z M80.091,21.569h-1.385l-2.698-4.423v4.423h-1.385v-6.724h1.385l2.703,4.433v-4.433h1.38V21.569z
			 M86.815,18.359c0,0.628-0.104,1.174-0.306,1.637c-0.204,0.464-0.484,0.835-0.844,1.116l1.116,0.877L85.9,22.769l-1.433-1.15
			c-0.162,0.028-0.33,0.042-0.507,0.042c-0.558,0-1.055-0.133-1.491-0.401c-0.438-0.268-0.775-0.651-1.017-1.147
			c-0.239-0.498-0.359-1.07-0.366-1.717v-0.332c0-0.662,0.121-1.244,0.357-1.747c0.239-0.505,0.578-0.89,1.013-1.16
			c0.437-0.269,0.934-0.403,1.495-0.403c0.56,0,1.057,0.135,1.493,0.403c0.437,0.271,0.773,0.655,1.011,1.16
			c0.239,0.503,0.359,1.083,0.359,1.743V18.359z M92.918,19.274c0,0.735-0.229,1.317-0.688,1.745
			c-0.461,0.429-1.089,0.642-1.888,0.642c-0.784,0-1.407-0.208-1.869-0.624c-0.462-0.415-0.698-0.986-0.707-1.713v-4.479h1.385
			v4.438c0,0.439,0.106,0.761,0.316,0.961c0.212,0.202,0.503,0.303,0.875,0.303c0.78,0,1.175-0.41,1.188-1.228v-4.475h1.389V19.274z
			 M98.561,21.569h-4.506v-6.724h4.495v1.123h-3.11v1.602h2.659v1.076H95.44v1.811h3.121V21.569z M101.014,17.186
			c0.221,0.148,0.545,0.287,0.974,0.416c0.787,0.236,1.361,0.531,1.721,0.882c0.362,0.351,0.541,0.788,0.541,1.311
			c0,0.583-0.221,1.039-0.659,1.37c-0.442,0.331-1.033,0.496-1.777,0.496c-0.519,0-0.99-0.095-1.414-0.284
			c-0.425-0.19-0.749-0.449-0.974-0.778c-0.222-0.33-0.332-0.711-0.332-1.145h1.389c0,0.742,0.443,1.112,1.331,1.112
			c0.328,0,0.586-0.066,0.771-0.201c0.183-0.133,0.276-0.321,0.276-0.561c0-0.262-0.094-0.462-0.276-0.603
			c-0.186-0.14-0.519-0.288-0.998-0.443c-0.48-0.156-0.861-0.309-1.142-0.46c-0.762-0.412-1.146-0.968-1.146-1.667
			c0-0.363,0.104-0.687,0.309-0.971c0.205-0.286,0.499-0.508,0.881-0.668c0.385-0.16,0.815-0.24,1.294-0.24
			c0.478,0,0.906,0.087,1.282,0.261c0.375,0.173,0.666,0.419,0.874,0.736c0.208,0.317,0.312,0.678,0.312,1.081h-1.385
			c0-0.308-0.098-0.547-0.291-0.717c-0.193-0.172-0.468-0.257-0.817-0.257c-0.337,0-0.603,0.072-0.79,0.214
			c-0.188,0.144-0.28,0.332-0.28,0.566C100.686,16.856,100.797,17.039,101.014,17.186z"/>
	</g>
	<g>
		<path fill="#FFFFFF" d="M66.653,134.546c-0.464,0-0.824,0.181-1.075,0.543c-0.254,0.361-0.381,0.893-0.385,1.592v0.326
			c0,0.688,0.127,1.22,0.378,1.599c0.254,0.379,0.618,0.567,1.092,0.567c0.464,0,0.821-0.182,1.071-0.547
			c0.249-0.364,0.374-0.896,0.378-1.596v-0.327c0-0.706-0.127-1.241-0.378-1.607C67.48,134.73,67.121,134.546,66.653,134.546z"/>
		<path fill="#FFFFFF" d="M55.298,134.546c-0.465,0-0.823,0.181-1.076,0.543c-0.254,0.361-0.381,0.893-0.384,1.592v0.326
			c0,0.688,0.126,1.22,0.378,1.599c0.255,0.379,0.616,0.567,1.089,0.567c0.466,0,0.823-0.182,1.072-0.547
			c0.248-0.364,0.376-0.896,0.378-1.596v-0.327c0-0.706-0.125-1.241-0.378-1.607C56.126,134.73,55.765,134.546,55.298,134.546z"/>
		<path fill="#FFFFFF" d="M39.825,134.546c-0.466,0-0.823,0.181-1.077,0.543c-0.252,0.361-0.379,0.893-0.382,1.592v0.326
			c0,0.688,0.125,1.22,0.378,1.599c0.251,0.379,0.615,0.567,1.089,0.567c0.465,0,0.822-0.182,1.072-0.547
			c0.249-0.364,0.375-0.896,0.377-1.596v-0.327c0-0.706-0.125-1.241-0.377-1.607C40.652,134.73,40.293,134.546,39.825,134.546z"/>
		<path fill="#FFFFFF" d="M27.873,129.763v14.185h59.589v-14.185H27.873z M32.993,135.834c0.22,0.147,0.545,0.287,0.971,0.416
			c0.789,0.237,1.363,0.531,1.724,0.882c0.36,0.351,0.539,0.789,0.539,1.312c0,0.582-0.219,1.038-0.658,1.37
			c-0.442,0.33-1.033,0.495-1.779,0.495c-0.518,0-0.989-0.095-1.413-0.283c-0.425-0.189-0.749-0.449-0.973-0.779
			c-0.224-0.328-0.334-0.71-0.334-1.144h1.389c0,0.741,0.444,1.112,1.331,1.112c0.331,0,0.586-0.066,0.772-0.202
			c0.184-0.133,0.277-0.319,0.277-0.56c0-0.264-0.093-0.463-0.277-0.604c-0.186-0.141-0.518-0.288-0.998-0.443
			c-0.481-0.154-0.86-0.308-1.142-0.459c-0.762-0.412-1.145-0.968-1.145-1.666c0-0.364,0.102-0.688,0.307-0.973
			c0.205-0.284,0.499-0.507,0.882-0.668c0.383-0.16,0.814-0.239,1.292-0.239c0.48,0,0.907,0.087,1.283,0.261
			c0.375,0.174,0.666,0.419,0.875,0.736c0.206,0.316,0.31,0.678,0.31,1.08h-1.385c0-0.308-0.096-0.547-0.29-0.718
			c-0.193-0.171-0.468-0.256-0.818-0.256c-0.337,0-0.601,0.071-0.788,0.215c-0.189,0.144-0.283,0.331-0.283,0.565
			C32.662,135.503,32.774,135.687,32.993,135.834z M42.688,137.007c0,0.662-0.118,1.243-0.351,1.742
			c-0.235,0.497-0.57,0.883-1.004,1.154c-0.437,0.271-0.936,0.405-1.499,0.405c-0.557,0-1.054-0.133-1.492-0.401
			c-0.438-0.269-0.776-0.65-1.016-1.147c-0.24-0.497-0.361-1.069-0.364-1.716v-0.333c0-0.661,0.119-1.244,0.358-1.746
			c0.239-0.504,0.575-0.89,1.01-1.16c0.436-0.27,0.934-0.403,1.495-0.403c0.56,0,1.057,0.134,1.493,0.403
			c0.435,0.271,0.773,0.656,1.012,1.16c0.237,0.502,0.357,1.083,0.357,1.742V137.007z M45.225,138.674
			c0.22,0.336,0.566,0.504,1.041,0.504c0.428,0,0.748-0.098,0.958-0.294c0.21-0.195,0.332-0.496,0.362-0.907h1.386
			c-0.052,0.724-0.319,1.293-0.801,1.709c-0.481,0.415-1.116,0.623-1.905,0.623c-0.862,0-1.54-0.289-2.032-0.871
			c-0.495-0.579-0.743-1.376-0.743-2.39v-0.41c0-0.646,0.114-1.216,0.341-1.708c0.228-0.493,0.553-0.87,0.977-1.134
			c0.423-0.264,0.915-0.395,1.474-0.395c0.776,0,1.402,0.208,1.875,0.624c0.476,0.414,0.749,0.998,0.821,1.749h-1.385
			c-0.033-0.434-0.155-0.749-0.361-0.944c-0.208-0.196-0.525-0.294-0.951-0.294c-0.46,0-0.807,0.167-1.035,0.497
			c-0.229,0.331-0.348,0.845-0.354,1.541v0.507C44.895,137.808,45.004,138.339,45.225,138.674z M51.355,140.217H49.97v-6.724h1.385
			V140.217z M58.16,137.007c0,0.662-0.116,1.243-0.35,1.742c-0.234,0.497-0.569,0.883-1.004,1.154
			c-0.436,0.271-0.935,0.405-1.5,0.405c-0.556,0-1.054-0.133-1.491-0.401c-0.438-0.269-0.774-0.65-1.016-1.147
			c-0.239-0.497-0.361-1.069-0.366-1.716v-0.333c0-0.661,0.121-1.244,0.358-1.746c0.239-0.504,0.576-0.89,1.012-1.16
			c0.435-0.27,0.935-0.403,1.494-0.403c0.561,0,1.058,0.134,1.493,0.403c0.436,0.271,0.773,0.656,1.012,1.16
			c0.239,0.502,0.357,1.083,0.357,1.742V137.007z M63.494,140.217h-4.327v-6.724h1.386v5.611h2.941V140.217z M69.515,137.007
			c0,0.662-0.116,1.243-0.351,1.742c-0.233,0.497-0.568,0.883-1.005,1.154c-0.435,0.271-0.934,0.405-1.497,0.405
			c-0.56,0-1.054-0.133-1.493-0.401c-0.437-0.269-0.775-0.65-1.015-1.147c-0.241-0.497-0.361-1.069-0.365-1.716v-0.333
			c0-0.661,0.12-1.244,0.359-1.746c0.237-0.504,0.574-0.89,1.011-1.16c0.435-0.27,0.932-0.403,1.493-0.403
			c0.559,0,1.058,0.134,1.492,0.403c0.437,0.271,0.773,0.656,1.013,1.16c0.239,0.502,0.357,1.083,0.357,1.742V137.007z
			 M72.167,138.656c0.269,0.361,0.659,0.541,1.177,0.541c0.52,0,0.893-0.11,1.112-0.333v-1.158h-1.26v-1.021h2.646v2.682
			c-0.249,0.3-0.603,0.53-1.058,0.697c-0.456,0.163-0.961,0.245-1.516,0.245c-0.583,0-1.092-0.127-1.531-0.381
			c-0.437-0.253-0.775-0.621-1.015-1.105c-0.238-0.483-0.361-1.053-0.365-1.704v-0.457c0-0.671,0.112-1.251,0.337-1.743
			c0.227-0.491,0.553-0.866,0.979-1.126c0.427-0.261,0.926-0.391,1.5-0.391c0.796,0,1.42,0.189,1.869,0.569
			c0.449,0.381,0.717,0.934,0.8,1.66h-1.349c-0.061-0.385-0.198-0.666-0.41-0.845c-0.21-0.179-0.499-0.268-0.869-0.268
			c-0.472,0-0.831,0.177-1.075,0.53c-0.247,0.354-0.372,0.881-0.376,1.579v0.431C71.763,137.764,71.898,138.296,72.167,138.656z
			 M78.438,140.217h-1.385v-6.724h1.385V140.217z M84.228,140.217H79.72v-6.724h4.498v1.122h-3.113v1.603h2.66v1.076h-2.66v1.811
			h3.123V140.217z"/>
	</g>
	<g>
		<path fill="#FFFFFF" d="M121.765-0.775h-0.684v4.488h0.669c0.543,0,0.957-0.177,1.243-0.531c0.285-0.354,0.433-0.86,0.438-1.519
			V1.307c0-0.684-0.142-1.201-0.425-1.554C122.724-0.6,122.31-0.775,121.765-0.775z"/>
		<path fill="#FFFFFF" d="M115.189-5.628V8.557h40.896V-5.628H115.189z M124.835,1.621c0,0.625-0.127,1.181-0.385,1.667
			s-0.62,0.864-1.088,1.131s-0.995,0.403-1.584,0.406h-2.081v-6.723h2.068c0.591,0,1.119,0.133,1.585,0.399
			c0.468,0.266,0.831,0.645,1.093,1.136c0.261,0.491,0.392,1.049,0.392,1.674V1.621z M130.348,4.825h-4.508v-6.723h4.498v1.122
			h-3.11v1.603h2.659v1.075h-2.659v1.81h3.12V4.825z M132.802,0.444c0.221,0.147,0.545,0.287,0.973,0.416
			c0.788,0.237,1.362,0.531,1.724,0.882c0.358,0.351,0.539,0.789,0.539,1.312c0,0.582-0.221,1.039-0.659,1.369
			c-0.441,0.331-1.033,0.497-1.78,0.497c-0.518,0-0.987-0.095-1.411-0.284c-0.427-0.19-0.749-0.449-0.974-0.778
			c-0.223-0.329-0.333-0.711-0.333-1.146h1.388c0,0.742,0.444,1.113,1.33,1.113c0.331,0,0.587-0.067,0.771-0.202
			c0.186-0.133,0.278-0.32,0.278-0.561c0-0.262-0.093-0.462-0.278-0.603c-0.185-0.14-0.518-0.287-0.996-0.443
			c-0.479-0.155-0.86-0.308-1.142-0.459c-0.763-0.413-1.146-0.968-1.146-1.667c0-0.363,0.103-0.687,0.308-0.971
			c0.204-0.286,0.499-0.508,0.882-0.668s0.813-0.24,1.291-0.24c0.48,0,0.907,0.087,1.283,0.261s0.667,0.419,0.875,0.737
			c0.208,0.316,0.312,0.677,0.312,1.08h-1.385c0-0.308-0.098-0.547-0.291-0.718c-0.193-0.171-0.468-0.256-0.819-0.256
			c-0.337,0-0.6,0.072-0.788,0.214c-0.189,0.144-0.283,0.332-0.283,0.566C132.471,0.113,132.584,0.296,132.802,0.444z
			 M138.447,4.825h-1.385v-6.723h1.385V4.825z M141.375,3.265c0.267,0.36,0.661,0.541,1.177,0.541c0.521,0,0.893-0.111,1.112-0.333
			v-1.16h-1.258v-1.02h2.643v2.683c-0.247,0.298-0.599,0.53-1.054,0.695c-0.457,0.165-0.961,0.247-1.516,0.247
			c-0.582,0-1.092-0.127-1.53-0.381c-0.438-0.253-0.777-0.622-1.017-1.106c-0.239-0.483-0.362-1.051-0.368-1.704V1.27
			c0-0.671,0.114-1.252,0.339-1.743c0.229-0.491,0.555-0.866,0.981-1.126c0.426-0.26,0.925-0.391,1.497-0.391
			c0.798,0,1.42,0.19,1.871,0.57c0.447,0.38,0.716,0.934,0.796,1.66h-1.347c-0.061-0.385-0.197-0.667-0.407-0.845
			c-0.211-0.179-0.502-0.268-0.872-0.268c-0.47,0-0.829,0.177-1.074,0.531c-0.246,0.354-0.37,0.88-0.375,1.579v0.429
			C140.973,2.373,141.107,2.905,141.375,3.265z M151.64,4.825h-1.385l-2.697-4.423v4.423h-1.387v-6.723h1.387l2.701,4.433v-4.433
			h1.381V4.825z"/>
	</g>
	<g>
		<path fill="#FFFFFF" d="M25.359,31.609h-1.112v2.018h1.119c0.346,0,0.616-0.088,0.807-0.265c0.19-0.178,0.286-0.422,0.286-0.733
			c0-0.317-0.088-0.566-0.269-0.748C26.008,31.7,25.733,31.609,25.359,31.609z"/>
		<path fill="#FFFFFF" d="M-10.475,26.756v14.185h48.4V26.756H-10.475z M-4.269,35.668c0.219,0.336,0.566,0.503,1.042,0.503
			c0.427,0,0.747-0.098,0.958-0.294c0.211-0.195,0.332-0.497,0.363-0.907h1.386c-0.053,0.724-0.319,1.293-0.802,1.709
			c-0.48,0.415-1.116,0.623-1.904,0.623c-0.863,0-1.541-0.29-2.033-0.871c-0.496-0.58-0.742-1.376-0.742-2.389v-0.411
			c0-0.646,0.114-1.216,0.341-1.708c0.228-0.493,0.554-0.87,0.975-1.134c0.424-0.263,0.916-0.395,1.477-0.395
			c0.775,0,1.399,0.208,1.876,0.624c0.473,0.415,0.747,0.999,0.821,1.75h-1.387c-0.033-0.434-0.155-0.749-0.361-0.944
			c-0.209-0.196-0.525-0.293-0.949-0.293c-0.461,0-0.808,0.166-1.037,0.496c-0.23,0.331-0.348,0.844-0.353,1.541v0.507
			C-4.599,34.802-4.49,35.332-4.269,35.668z M5.475,34.915c0,0.735-0.229,1.317-0.689,1.746c-0.459,0.428-1.087,0.642-1.886,0.642
			c-0.786,0-1.407-0.208-1.87-0.623c-0.461-0.416-0.698-0.987-0.708-1.713v-4.479h1.387v4.438c0,0.44,0.104,0.761,0.316,0.963
			c0.211,0.201,0.503,0.302,0.875,0.302c0.779,0,1.174-0.409,1.188-1.228v-4.475h1.388V34.915z M10.938,37.21H6.612v-6.723h1.386
			v5.61h2.941V37.21z M15.846,31.609h-2.059v5.601h-1.386v-5.601h-2.031v-1.122h5.476V31.609z M21.725,34.915
			c0,0.735-0.23,1.317-0.69,1.746c-0.459,0.428-1.09,0.642-1.886,0.642c-0.786,0-1.41-0.208-1.87-0.623
			c-0.461-0.416-0.698-0.987-0.706-1.713v-4.479h1.385v4.438c0,0.44,0.106,0.761,0.316,0.963c0.21,0.201,0.501,0.302,0.875,0.302
			c0.779,0,1.174-0.409,1.187-1.228v-4.475h1.39V34.915z M28.098,37.21h-1.487l-1.262-2.461h-1.103v2.461h-1.385v-6.723h2.497
			c0.793,0,1.408,0.177,1.838,0.531c0.432,0.354,0.646,0.854,0.646,1.5c0,0.458-0.099,0.841-0.296,1.148
			c-0.2,0.306-0.5,0.55-0.904,0.731l1.456,2.747V37.21z M33.404,37.21h-4.508v-6.723h4.499v1.122h-3.113v1.602h2.661v1.076h-2.661
			v1.81h3.122V37.21z"/>
	</g>
	<g>
		<path fill="#FFFFFF" d="M129.457,42.233c-0.464,0-0.823,0.181-1.075,0.542c-0.254,0.363-0.38,0.893-0.385,1.591v0.328
			c0,0.687,0.127,1.219,0.379,1.597c0.253,0.379,0.617,0.568,1.089,0.568c0.469,0,0.822-0.182,1.071-0.547
			c0.252-0.365,0.376-0.897,0.381-1.596v-0.327c0-0.705-0.127-1.241-0.381-1.607C130.284,42.416,129.925,42.233,129.457,42.233z"/>
		<path fill="#FFFFFF" d="M95.891,42.302h-0.685v4.488h0.67c0.543,0,0.956-0.177,1.243-0.531c0.287-0.354,0.433-0.86,0.437-1.52
			v-0.355c0-0.684-0.139-1.201-0.422-1.554C96.849,42.477,96.436,42.302,95.891,42.302z"/>
		<polygon fill="#FFFFFF" points="114.122,45.396 115.802,45.396 114.956,42.879 		"/>
		<path fill="#FFFFFF" d="M82.937,37.262v14.185h60.775V37.262H82.937z M91.102,39.365h1.456l-1.281,1.431h-1.085L91.102,39.365z
			 M93.011,47.903h-4.508v-6.723h4.497v1.123h-3.112v1.603h2.659v1.075h-2.659v1.81h3.123V47.903z M98.963,44.698
			c0,0.625-0.129,1.181-0.387,1.667c-0.256,0.486-0.62,0.864-1.086,1.131c-0.47,0.268-0.996,0.403-1.584,0.406h-2.084v-6.723h2.069
			c0.591,0,1.12,0.133,1.586,0.4c0.466,0.266,0.83,0.645,1.092,1.136c0.263,0.491,0.394,1.049,0.394,1.674V44.698z M105.056,45.608
			c0,0.736-0.23,1.317-0.69,1.746c-0.459,0.428-1.089,0.642-1.886,0.642c-0.786,0-1.407-0.208-1.869-0.623s-0.698-0.987-0.707-1.713
			v-4.479h1.385v4.438c0,0.44,0.106,0.761,0.318,0.962c0.208,0.202,0.501,0.303,0.873,0.303c0.78,0,1.175-0.41,1.188-1.229v-4.475
			h1.389V45.608z M107.724,46.361c0.219,0.336,0.565,0.503,1.042,0.503c0.426,0,0.746-0.098,0.956-0.293
			c0.212-0.196,0.333-0.497,0.364-0.907h1.385c-0.052,0.724-0.32,1.293-0.803,1.708c-0.48,0.416-1.114,0.623-1.902,0.623
			c-0.865,0-1.541-0.29-2.036-0.871c-0.492-0.58-0.74-1.376-0.74-2.389v-0.411c0-0.647,0.114-1.216,0.341-1.709
			c0.229-0.493,0.556-0.87,0.978-1.134c0.422-0.262,0.915-0.395,1.475-0.395c0.777,0,1.401,0.208,1.875,0.623
			c0.475,0.416,0.749,0.999,0.823,1.75h-1.385c-0.035-0.434-0.157-0.749-0.363-0.944c-0.208-0.195-0.524-0.292-0.95-0.292
			c-0.462,0-0.807,0.165-1.036,0.496c-0.229,0.331-0.347,0.844-0.354,1.541v0.508C107.393,45.494,107.504,46.025,107.724,46.361z
			 M116.642,47.903l-0.466-1.385h-2.429l-0.464,1.385h-1.47l2.501-6.723h1.283l2.519,6.723H116.642z M123.25,42.302h-2.061v5.601
			h-1.385v-5.601h-2.031v-1.123h5.477V42.302z M125.512,47.903h-1.385v-6.723h1.385V47.903z M132.318,44.694
			c0,0.662-0.115,1.242-0.35,1.741c-0.232,0.499-0.569,0.883-1.004,1.154c-0.435,0.271-0.936,0.406-1.5,0.406
			c-0.557,0-1.052-0.134-1.49-0.401c-0.437-0.268-0.775-0.651-1.015-1.147c-0.241-0.497-0.362-1.069-0.366-1.716v-0.332
			c0-0.662,0.121-1.245,0.357-1.748c0.237-0.504,0.576-0.89,1.013-1.16c0.435-0.27,0.932-0.404,1.493-0.404
			c0.56,0,1.059,0.134,1.493,0.404c0.437,0.27,0.773,0.656,1.013,1.16c0.238,0.502,0.355,1.084,0.355,1.743V44.694z M138.793,47.903
			h-1.385l-2.697-4.423v4.423h-1.385v-6.723h1.385l2.701,4.433v-4.433h1.381V47.903z"/>
	</g>
	<g>
		<polygon fill="#FFFFFF" points="126.435,78.861 128.118,78.861 127.273,76.343 		"/>
		<path fill="#FFFFFF" d="M82.445,75.767h-0.683v4.487h0.668c0.542,0,0.956-0.177,1.243-0.531c0.287-0.354,0.435-0.86,0.438-1.519
			v-0.355c0-0.683-0.142-1.201-0.424-1.555C83.405,75.942,82.989,75.767,82.445,75.767z"/>
		<path fill="#FFFFFF" d="M121.161,75.767h-1.115v2.017h1.117c0.349,0,0.617-0.088,0.811-0.265c0.189-0.178,0.285-0.422,0.285-0.732
			c0-0.317-0.092-0.566-0.271-0.747C121.807,75.857,121.533,75.767,121.161,75.767z"/>
		<polygon fill="#FFFFFF" points="53.457,78.861 55.137,78.861 54.292,76.343 		"/>
		<polygon fill="#FFFFFF" points="75.756,78.861 77.435,78.861 76.592,76.343 		"/>
		<path fill="#FFFFFF" d="M67.716,76.939c0.181-0.116,0.308-0.23,0.376-0.342c0.07-0.111,0.104-0.243,0.104-0.397
			c0-0.152-0.056-0.287-0.172-0.401c-0.112-0.114-0.258-0.171-0.437-0.171c-0.191,0-0.344,0.062-0.46,0.185
			c-0.116,0.123-0.175,0.287-0.175,0.489c0,0.231,0.138,0.521,0.407,0.873L67.716,76.939z"/>
		<path fill="#FFFFFF" d="M66.931,78.656c-0.276,0.233-0.412,0.508-0.412,0.823c0,0.269,0.086,0.485,0.256,0.653
			c0.171,0.166,0.394,0.25,0.668,0.25c0.32,0,0.623-0.088,0.91-0.267l-1.326-1.528L66.931,78.656z"/>
		<path fill="#FFFFFF" d="M141.772,75.697c-0.466,0-0.823,0.181-1.077,0.542c-0.252,0.362-0.381,0.894-0.383,1.592v0.327
			c0,0.688,0.125,1.22,0.381,1.599c0.252,0.378,0.613,0.568,1.09,0.568c0.463,0,0.821-0.184,1.07-0.549
			c0.25-0.364,0.374-0.896,0.379-1.594v-0.329c0-0.705-0.127-1.24-0.379-1.606C142.599,75.881,142.24,75.697,141.772,75.697z"/>
		<path fill="#FFFFFF" d="M36.665,70.681v14.185H160.44V70.681H36.665z M43.606,72.829h1.457l-1.28,1.432h-1.085L43.606,72.829z
			 M45.514,81.367h-4.506v-6.724h4.497v1.123h-3.112v1.602h2.658v1.076h-2.658v1.81h3.121V81.367z M49.421,81.367h-1.385v-5.601
			h-2.032v-1.123h5.476v1.123h-2.059V81.367z M55.977,81.367l-0.467-1.387h-2.429l-0.461,1.387h-1.473l2.503-6.724h1.284
			l2.515,6.724H55.977z M62.585,75.767h-2.061v5.601H59.14v-5.601h-2.032v-1.123h5.477V75.767z M69.432,81.367l-0.347-0.397
			c-0.493,0.327-1.064,0.489-1.707,0.489c-0.666,0-1.198-0.175-1.598-0.523c-0.401-0.35-0.601-0.81-0.601-1.379
			c0-0.31,0.088-0.599,0.262-0.863c0.173-0.265,0.493-0.559,0.957-0.881c-0.197-0.269-0.355-0.521-0.47-0.755
			c-0.115-0.237-0.171-0.482-0.171-0.738c0-0.521,0.164-0.948,0.495-1.275c0.33-0.329,0.777-0.492,1.337-0.492
			c0.503,0,0.915,0.148,1.237,0.447c0.32,0.3,0.479,0.672,0.479,1.117c0,0.536-0.27,1.009-0.812,1.418l-0.518,0.374l1.16,1.349
			c0.181-0.357,0.272-0.752,0.272-1.183h1.135c0,0.875-0.201,1.583-0.604,2.125l1.008,1.168H69.432z M78.276,81.367l-0.466-1.387
			h-2.429l-0.462,1.387h-1.474l2.503-6.724h1.283l2.518,6.724H78.276z M85.515,78.162c0,0.625-0.127,1.181-0.385,1.667
			s-0.621,0.864-1.087,1.131c-0.468,0.269-0.996,0.403-1.585,0.407h-2.083v-6.724h2.069c0.592,0,1.12,0.133,1.588,0.4
			c0.466,0.265,0.828,0.645,1.09,1.136s0.393,1.048,0.393,1.673V78.162z M93.595,81.367h-1.389V79.53l0.14-3.173l-1.815,5.011
			h-0.952l-1.81-5.006l0.138,3.168v1.838h-1.385v-6.724h1.811l1.727,4.877l1.717-4.877h1.819V81.367z M96.28,81.367h-1.385v-6.724
			h1.385V81.367z M103.031,81.367h-1.387l-2.694-4.424v4.424h-1.387v-6.724h1.387l2.701,4.433v-4.433h1.38V81.367z M105.714,81.367
			h-1.385v-6.724h1.385V81.367z M108.637,76.985c0.222,0.147,0.544,0.287,0.973,0.416c0.788,0.237,1.364,0.531,1.724,0.882
			c0.359,0.352,0.539,0.789,0.539,1.312c0,0.583-0.221,1.038-0.659,1.369c-0.441,0.331-1.034,0.496-1.78,0.496
			c-0.516,0-0.985-0.096-1.412-0.283c-0.424-0.19-0.748-0.449-0.971-0.779c-0.225-0.328-0.335-0.711-0.335-1.145h1.39
			c0,0.742,0.442,1.113,1.328,1.113c0.331,0,0.589-0.066,0.773-0.201c0.186-0.133,0.276-0.32,0.276-0.561
			c0-0.263-0.091-0.463-0.276-0.604c-0.185-0.139-0.518-0.286-0.998-0.442c-0.48-0.154-0.858-0.308-1.14-0.459
			c-0.765-0.412-1.146-0.969-1.146-1.666c0-0.364,0.102-0.688,0.308-0.974c0.204-0.284,0.497-0.507,0.88-0.667
			c0.385-0.16,0.815-0.239,1.291-0.239c0.48,0,0.909,0.088,1.285,0.261c0.374,0.174,0.667,0.419,0.873,0.735
			c0.208,0.318,0.312,0.679,0.312,1.081h-1.385c0-0.308-0.096-0.547-0.289-0.717c-0.195-0.172-0.469-0.256-0.819-0.256
			c-0.337,0-0.602,0.07-0.788,0.214c-0.189,0.144-0.283,0.331-0.283,0.565C108.308,76.655,108.419,76.837,108.637,76.985z
			 M117.871,75.767h-2.059v5.601h-1.385v-5.601h-2.031v-1.123h5.475V75.767z M123.896,81.367h-1.486l-1.26-2.461h-1.104v2.461
			h-1.385v-6.724h2.5c0.792,0,1.405,0.177,1.836,0.531c0.43,0.354,0.646,0.854,0.646,1.501c0,0.459-0.1,0.841-0.298,1.147
			c-0.199,0.306-0.501,0.551-0.902,0.731l1.453,2.747V81.367z M128.958,81.367l-0.466-1.387h-2.429l-0.462,1.387h-1.474l2.503-6.724
			h1.283l2.518,6.724H128.958z M135.565,75.767h-2.058v5.601h-1.385v-5.601h-2.034v-1.123h5.477V75.767z M137.83,81.367h-1.387
			v-6.724h1.387V81.367z M144.635,78.157c0,0.661-0.116,1.243-0.352,1.74c-0.235,0.499-0.567,0.884-1.004,1.155
			c-0.435,0.271-0.934,0.406-1.497,0.406c-0.56,0-1.057-0.133-1.493-0.401c-0.437-0.268-0.775-0.65-1.017-1.147
			c-0.239-0.497-0.362-1.068-0.364-1.716v-0.332c0-0.661,0.118-1.245,0.357-1.747c0.239-0.505,0.576-0.89,1.013-1.16
			c0.437-0.27,0.932-0.403,1.493-0.403c0.56,0,1.059,0.134,1.493,0.403c0.437,0.271,0.773,0.655,1.013,1.16
			c0.236,0.502,0.357,1.084,0.357,1.743V78.157z M151.11,81.367h-1.385l-2.696-4.424v4.424h-1.388v-6.724h1.388l2.698,4.433v-4.433
			h1.383V81.367z M153.961,76.985c0.221,0.147,0.543,0.287,0.971,0.416c0.788,0.237,1.362,0.531,1.722,0.882
			c0.36,0.352,0.541,0.789,0.541,1.312c0,0.583-0.221,1.038-0.661,1.369c-0.438,0.331-1.033,0.496-1.775,0.496
			c-0.518,0-0.988-0.096-1.412-0.283c-0.427-0.19-0.751-0.449-0.973-0.779c-0.225-0.328-0.335-0.711-0.335-1.145h1.389
			c0,0.742,0.442,1.113,1.331,1.113c0.328,0,0.586-0.066,0.769-0.201c0.186-0.133,0.277-0.32,0.277-0.561
			c0-0.263-0.092-0.463-0.277-0.604c-0.183-0.139-0.516-0.286-0.995-0.442c-0.48-0.154-0.861-0.308-1.14-0.459
			c-0.766-0.412-1.147-0.969-1.147-1.666c0-0.364,0.104-0.688,0.31-0.974c0.203-0.284,0.497-0.507,0.882-0.667
			c0.382-0.16,0.812-0.239,1.289-0.239c0.479,0,0.908,0.088,1.282,0.261c0.379,0.174,0.67,0.419,0.878,0.735
			c0.205,0.318,0.31,0.679,0.31,1.081h-1.385c0-0.308-0.098-0.547-0.291-0.717c-0.193-0.172-0.466-0.256-0.817-0.256
			c-0.339,0-0.601,0.07-0.79,0.214c-0.188,0.144-0.28,0.331-0.28,0.565C153.631,76.655,153.74,76.837,153.961,76.985z"/>
	</g>
	<g>
		<path fill="#FFFFFF" d="M105.514-25.866c-0.468,0-0.823,0.181-1.077,0.543s-0.381,0.892-0.383,1.59v0.328
			c0,0.687,0.125,1.219,0.379,1.598c0.251,0.379,0.613,0.568,1.089,0.568c0.464,0,0.821-0.182,1.071-0.547
			c0.249-0.364,0.374-0.896,0.378-1.595v-0.328c0-0.705-0.127-1.241-0.378-1.606C106.34-25.683,105.98-25.866,105.514-25.866z"/>
		<path fill="#FFFFFF" d="M99.316-25.797h-1.115v2.018h1.119c0.347,0,0.617-0.089,0.809-0.266c0.189-0.177,0.287-0.421,0.287-0.732
			c0-0.318-0.092-0.567-0.271-0.749C99.965-25.706,99.688-25.797,99.316-25.797z"/>
		<path fill="#FFFFFF" d="M92.741-25.797h-0.684v4.488h0.667c0.543,0,0.959-0.177,1.243-0.531c0.287-0.354,0.433-0.86,0.439-1.519
			v-0.356c0-0.683-0.142-1.202-0.425-1.554C93.7-25.62,93.286-25.797,92.741-25.797z"/>
		<path fill="#FFFFFF" d="M86.815-30.65v14.185h34.609V-30.65H86.815z M95.81-23.4c0,0.625-0.129,1.181-0.385,1.667
			c-0.258,0.486-0.62,0.863-1.088,1.13c-0.468,0.269-0.996,0.403-1.584,0.407h-2.081v-6.723h2.068c0.591,0,1.121,0.133,1.585,0.399
			c0.468,0.266,0.829,0.644,1.094,1.136c0.26,0.491,0.391,1.049,0.391,1.674V-23.4z M102.054-20.196h-1.487l-1.26-2.461h-1.106
			v2.461h-1.385v-6.723h2.5c0.794,0,1.405,0.177,1.838,0.531c0.428,0.353,0.646,0.854,0.646,1.5c0,0.458-0.102,0.842-0.3,1.148
			c-0.197,0.306-0.499,0.55-0.902,0.731l1.456,2.748V-20.196z M108.375-23.405c0,0.662-0.116,1.242-0.352,1.741
			c-0.234,0.499-0.567,0.883-1.002,1.155c-0.437,0.271-0.938,0.406-1.499,0.406c-0.558,0-1.054-0.134-1.493-0.402
			c-0.437-0.268-0.775-0.649-1.017-1.147c-0.239-0.497-0.359-1.069-0.363-1.715v-0.333c0-0.662,0.118-1.245,0.357-1.748
			c0.239-0.503,0.576-0.89,1.013-1.159c0.435-0.269,0.934-0.404,1.495-0.404c0.557,0,1.056,0.135,1.492,0.404
			c0.435,0.27,0.771,0.656,1.011,1.159c0.239,0.503,0.357,1.084,0.357,1.744V-23.405z M110.853-20.196h-1.385v-6.723h1.385V-20.196z
			 M117.066-25.797h-2.061v5.601h-1.385v-5.601h-2.031v-1.122h5.477V-25.797z"/>
	</g>
	<g>
		<path fill="#FFFFFF" d="M21.69,105.043h-0.684v4.489h0.669c0.541,0,0.957-0.178,1.241-0.531c0.287-0.354,0.434-0.858,0.44-1.52
			v-0.354c0-0.684-0.143-1.202-0.426-1.555C22.649,105.221,22.234,105.043,21.69,105.043z"/>
		<path fill="#FFFFFF" d="M33.746,104.976c-0.466,0-0.824,0.18-1.076,0.542c-0.251,0.36-0.38,0.892-0.384,1.592v0.326
			c0,0.688,0.127,1.219,0.38,1.598c0.252,0.38,0.614,0.568,1.089,0.568c0.465,0,0.822-0.182,1.071-0.547
			c0.25-0.364,0.375-0.897,0.379-1.596v-0.328c0-0.704-0.127-1.24-0.379-1.606S34.214,104.976,33.746,104.976z"/>
		<path fill="#FFFFFF" d="M-17.859,99.775v14.186h63.167V99.775H-17.859z M28.366,102.107h1.454l-1.279,1.433h-1.084L28.366,102.107
			z M-10.411,108.577c0,0.427-0.095,0.807-0.285,1.133c-0.189,0.329-0.456,0.58-0.8,0.76c-0.345,0.178-0.734,0.268-1.169,0.268
			c-0.71,0-1.265-0.181-1.662-0.542c-0.397-0.362-0.596-0.874-0.596-1.535h1.395c0,0.328,0.069,0.571,0.207,0.729
			c0.138,0.156,0.358,0.235,0.655,0.235c0.266,0,0.477-0.092,0.634-0.272c0.156-0.182,0.234-0.44,0.234-0.775v-4.654h1.387V108.577z
			 M-4.719,110.646h-4.506v-6.723h4.497v1.12H-7.84v1.604h2.658v1.076H-7.84v1.81h3.121V110.646z M1.182,108.351
			c0,0.735-0.231,1.317-0.69,1.744c-0.459,0.43-1.089,0.643-1.886,0.643c-0.786,0-1.408-0.208-1.87-0.624
			c-0.462-0.416-0.698-0.986-0.707-1.712v-4.479h1.386v4.436c0,0.441,0.105,0.761,0.317,0.964c0.209,0.203,0.502,0.303,0.875,0.303
			c0.78,0,1.175-0.41,1.186-1.229v-4.474h1.39V108.351z M6.017,110.646l-1.293-2.355l-1.291,2.355H1.821l2.009-3.389l-1.958-3.334
			h1.592l1.26,2.317l1.261-2.317h1.594l-1.959,3.334l2.009,3.389H6.017z M13.89,110.646h-1.445l-2.331-6.723h1.538l1.514,5.056
			l1.523-5.056h1.543L13.89,110.646z M18.336,110.646h-1.385v-6.723h1.385V110.646z M24.759,107.442
			c0,0.624-0.128,1.181-0.385,1.666c-0.256,0.486-0.621,0.863-1.087,1.132c-0.468,0.268-0.997,0.402-1.584,0.406h-2.082v-6.723
			h2.069c0.589,0,1.119,0.133,1.584,0.4c0.468,0.264,0.831,0.642,1.094,1.135c0.261,0.491,0.391,1.049,0.391,1.673V107.442z
			 M30.273,110.646h-4.506v-6.723h4.497v1.12h-3.111v1.604h2.659v1.076h-2.659v1.81h3.121V110.646z M36.609,107.436
			c0,0.662-0.116,1.243-0.351,1.742c-0.234,0.498-0.568,0.882-1.004,1.154c-0.437,0.271-0.935,0.405-1.498,0.405
			c-0.558,0-1.053-0.134-1.491-0.401c-0.438-0.269-0.777-0.65-1.017-1.147c-0.24-0.497-0.362-1.069-0.365-1.716v-0.332
			c0-0.662,0.121-1.244,0.357-1.747c0.239-0.504,0.576-0.891,1.013-1.16c0.435-0.269,0.933-0.403,1.493-0.403
			c0.56,0,1.058,0.135,1.493,0.403c0.437,0.27,0.773,0.656,1.013,1.16c0.237,0.503,0.357,1.083,0.357,1.742V107.436z
			 M39.256,106.263c0.222,0.147,0.545,0.286,0.973,0.416c0.788,0.237,1.362,0.531,1.722,0.882c0.361,0.351,0.542,0.788,0.542,1.312
			c0,0.582-0.221,1.038-0.66,1.37c-0.44,0.329-1.033,0.495-1.78,0.495c-0.516,0-0.986-0.094-1.412-0.283
			c-0.424-0.189-0.749-0.45-0.972-0.778c-0.224-0.329-0.334-0.711-0.334-1.145h1.39c0,0.74,0.443,1.111,1.329,1.111
			c0.331,0,0.587-0.065,0.772-0.2c0.184-0.134,0.278-0.32,0.278-0.561c0-0.263-0.094-0.463-0.278-0.604
			c-0.185-0.14-0.518-0.288-0.997-0.442c-0.48-0.156-0.861-0.309-1.14-0.46c-0.763-0.412-1.145-0.968-1.145-1.667
			c0-0.363,0.101-0.688,0.307-0.972c0.204-0.284,0.498-0.507,0.88-0.668c0.384-0.16,0.814-0.239,1.291-0.239
			c0.48,0,0.909,0.087,1.284,0.261s0.667,0.419,0.875,0.737c0.208,0.316,0.312,0.676,0.312,1.079h-1.386
			c0-0.308-0.098-0.547-0.291-0.718c-0.193-0.17-0.467-0.257-0.817-0.257c-0.337,0-0.601,0.072-0.79,0.216
			c-0.187,0.144-0.28,0.33-0.28,0.565C38.927,105.932,39.037,106.115,39.256,106.263z"/>
	</g>
	<g>
		<path fill="#FFFFFF" d="M-0.136,3.165h-1.112v2.018h1.118c0.348,0,0.617-0.088,0.808-0.265c0.191-0.177,0.287-0.421,0.287-0.732
			c0-0.317-0.09-0.566-0.271-0.748C0.513,3.257,0.238,3.165-0.136,3.165z"/>
		<polygon fill="#FFFFFF" points="-25.107,6.259 -23.426,6.259 -24.272,3.743 		"/>
		<polygon fill="#FFFFFF" points="5.143,6.259 6.823,6.259 5.979,3.743 		"/>
		<path fill="#FFFFFF" d="M-30.302-1.811v14.185h66.089V-1.811H-30.302z M-22.586,8.766l-0.468-1.385h-2.429l-0.461,1.385h-1.472
			l2.503-6.723h1.283l2.516,6.723H-22.586z M-18.844,4.385c0.22,0.147,0.544,0.286,0.973,0.416c0.787,0.237,1.362,0.531,1.723,0.882
			c0.36,0.352,0.539,0.789,0.539,1.312c0,0.582-0.219,1.038-0.659,1.37c-0.441,0.33-1.033,0.496-1.779,0.496
			c-0.517,0-0.988-0.095-1.413-0.284c-0.424-0.189-0.748-0.449-0.973-0.778c-0.221-0.329-0.333-0.711-0.333-1.145h1.389
			c0,0.743,0.444,1.113,1.33,1.113c0.331,0,0.587-0.067,0.772-0.201s0.276-0.321,0.276-0.561c0-0.262-0.091-0.462-0.276-0.603
			c-0.185-0.14-0.518-0.288-0.998-0.443c-0.479-0.155-0.86-0.308-1.14-0.459c-0.764-0.412-1.146-0.968-1.146-1.667
			c0-0.363,0.104-0.688,0.307-0.972c0.206-0.285,0.5-0.507,0.881-0.667c0.385-0.161,0.815-0.24,1.292-0.24
			c0.48,0,0.908,0.087,1.284,0.261c0.374,0.173,0.666,0.419,0.874,0.736s0.311,0.677,0.311,1.08h-1.385
			c0-0.308-0.096-0.547-0.29-0.717c-0.194-0.172-0.467-0.257-0.818-0.257c-0.338,0-0.601,0.072-0.788,0.214
			c-0.19,0.144-0.284,0.332-0.284,0.566C-19.175,4.053-19.063,4.236-18.844,4.385z M-13.031,4.385
			c0.222,0.147,0.545,0.286,0.973,0.416c0.788,0.237,1.361,0.531,1.722,0.882c0.361,0.352,0.542,0.789,0.542,1.312
			c0,0.582-0.221,1.038-0.662,1.37c-0.438,0.33-1.032,0.496-1.778,0.496c-0.517,0-0.986-0.095-1.413-0.284
			c-0.424-0.189-0.749-0.449-0.971-0.778c-0.224-0.329-0.335-0.711-0.335-1.145h1.39c0,0.743,0.443,1.113,1.329,1.113
			c0.33,0,0.587-0.067,0.771-0.201s0.278-0.321,0.278-0.561c0-0.262-0.094-0.462-0.278-0.603c-0.184-0.14-0.517-0.288-0.997-0.443
			c-0.48-0.155-0.861-0.308-1.139-0.459c-0.765-0.412-1.146-0.968-1.146-1.667c0-0.363,0.101-0.688,0.308-0.972
			c0.204-0.285,0.498-0.507,0.881-0.667s0.813-0.24,1.289-0.24c0.481,0,0.91,0.087,1.285,0.261c0.374,0.173,0.667,0.419,0.875,0.736
			c0.208,0.317,0.312,0.677,0.312,1.08h-1.387c0-0.308-0.098-0.547-0.291-0.717c-0.193-0.172-0.465-0.257-0.816-0.257
			c-0.34,0-0.602,0.072-0.79,0.214c-0.188,0.144-0.282,0.332-0.282,0.566C-13.36,4.053-13.25,4.236-13.031,4.385z M-3.769,6.471
			c0,0.735-0.229,1.317-0.69,1.746c-0.46,0.428-1.087,0.642-1.887,0.642c-0.785,0-1.408-0.208-1.87-0.624
			c-0.461-0.415-0.698-0.987-0.707-1.713V2.043h1.385v4.438c0,0.439,0.106,0.761,0.317,0.962c0.212,0.201,0.502,0.302,0.875,0.302
			c0.78,0,1.175-0.41,1.187-1.228V2.043h1.39V6.471z M2.602,8.766H1.116l-1.26-2.461h-1.104v2.461h-1.385V2.043h2.497
			c0.795,0,1.407,0.177,1.838,0.531c0.43,0.354,0.646,0.854,0.646,1.5c0,0.459-0.101,0.841-0.297,1.148
			c-0.2,0.306-0.501,0.55-0.903,0.731l1.454,2.747V8.766z M7.663,8.766L7.199,7.381h-2.43L4.307,8.766H2.833l2.502-6.723h1.285
			l2.517,6.723H7.663z M15.233,8.766h-1.386L11.15,4.343v4.423H9.764V2.043h1.386l2.701,4.433V2.043h1.382V8.766z M17.972,7.224
			c0.22,0.336,0.568,0.503,1.041,0.503c0.43,0,0.748-0.097,0.96-0.293c0.21-0.196,0.331-0.498,0.362-0.907h1.385
			c-0.051,0.724-0.319,1.293-0.801,1.708c-0.481,0.416-1.117,0.624-1.906,0.624c-0.861,0-1.54-0.29-2.032-0.871
			c-0.495-0.58-0.741-1.376-0.741-2.389V5.188c0-0.646,0.113-1.216,0.342-1.708c0.226-0.493,0.553-0.87,0.975-1.134
			c0.423-0.263,0.917-0.395,1.475-0.395c0.777,0,1.401,0.208,1.876,0.624c0.474,0.416,0.748,0.999,0.821,1.75h-1.385
			c-0.035-0.434-0.155-0.749-0.362-0.944c-0.209-0.195-0.525-0.293-0.951-0.293c-0.461,0-0.807,0.166-1.036,0.496
			c-0.229,0.331-0.347,0.844-0.353,1.541v0.508C17.643,6.358,17.752,6.888,17.972,7.224z M27.137,8.766H22.63V2.043h4.498v1.122
			h-3.113v1.602h2.66v1.077h-2.66v1.81h3.122V8.766z M29.589,4.385c0.222,0.147,0.545,0.286,0.973,0.416
			c0.788,0.237,1.362,0.531,1.723,0.882c0.36,0.352,0.541,0.789,0.541,1.312c0,0.582-0.22,1.038-0.661,1.37
			c-0.438,0.33-1.032,0.496-1.778,0.496c-0.517,0-0.987-0.095-1.413-0.284c-0.424-0.189-0.749-0.449-0.972-0.778
			c-0.224-0.329-0.335-0.711-0.335-1.145h1.39c0,0.743,0.444,1.113,1.33,1.113c0.33,0,0.587-0.067,0.771-0.201
			c0.185-0.134,0.279-0.321,0.279-0.561c0-0.262-0.094-0.462-0.279-0.603c-0.183-0.14-0.516-0.288-0.997-0.443
			c-0.479-0.155-0.86-0.308-1.139-0.459c-0.764-0.412-1.145-0.968-1.145-1.667c0-0.363,0.1-0.688,0.307-0.972
			c0.205-0.285,0.499-0.507,0.881-0.667c0.384-0.161,0.814-0.24,1.29-0.24c0.48,0,0.909,0.087,1.284,0.261
			c0.375,0.173,0.667,0.419,0.875,0.736c0.207,0.317,0.312,0.677,0.312,1.08H31.44c0-0.308-0.098-0.547-0.291-0.717
			c-0.194-0.172-0.466-0.257-0.817-0.257c-0.339,0-0.601,0.072-0.791,0.214c-0.187,0.144-0.281,0.332-0.281,0.566
			C29.26,4.053,29.37,4.236,29.589,4.385z"/>
	</g>
	<g>
		<path fill="#FFFFFF" d="M36.212-25.186H35.1v2.017h1.118c0.347,0,0.617-0.088,0.807-0.266c0.191-0.177,0.287-0.42,0.287-0.731
			c0-0.318-0.089-0.567-0.27-0.748C36.862-25.095,36.585-25.186,36.212-25.186z"/>
		<path fill="#FFFFFF" d="M6.719-30.055v14.185H62.11v-14.185H6.719z M14.959-19.585h-4.507v-6.724h4.499v1.123h-3.114v1.602h2.66
			v1.077h-2.66v1.81h3.122V-19.585z M20.925-25.186h-2.061v5.601H17.48v-5.601h-2.032v-1.123h5.477V-25.186z M27.186-19.585h-1.385
			v-2.881h-2.703v2.881h-1.385v-6.724h1.385v2.725h2.703v-2.725h1.385V-19.585z M32.903-19.585h-4.507v-6.724h4.498v1.123h-3.112
			v1.602h2.659v1.077h-2.659v1.81h3.121V-19.585z M38.952-19.585h-1.488l-1.261-2.461H35.1v2.461h-1.386v-6.724h2.497
			c0.794,0,1.408,0.177,1.839,0.531c0.431,0.354,0.646,0.854,0.646,1.501c0,0.459-0.099,0.841-0.297,1.147
			c-0.199,0.307-0.5,0.551-0.902,0.732l1.456,2.749V-19.585z M44.257-19.585H39.75v-6.724h4.496v1.123h-3.11v1.602h2.659v1.077
			h-2.659v1.81h3.121V-19.585z M50.157-21.881c0,0.736-0.229,1.318-0.689,1.746s-1.089,0.642-1.887,0.642
			c-0.785,0-1.408-0.208-1.87-0.623c-0.461-0.416-0.697-0.986-0.708-1.713v-4.479h1.385v4.438c0,0.439,0.106,0.761,0.317,0.962
			c0.212,0.202,0.503,0.303,0.875,0.303c0.778,0,1.175-0.409,1.187-1.229v-4.475h1.389V-21.881z M58.367-19.585h-1.388v-1.838
			l0.137-3.172l-1.815,5.01h-0.952l-1.809-5.005l0.138,3.167v1.838h-1.385v-6.724h1.81l1.727,4.876l1.718-4.876h1.819V-19.585z"/>
	</g>
	<g>
		<path fill="#FFFFFF" d="M125.947,110.182h-0.682v4.489h0.669c0.543,0,0.954-0.179,1.241-0.532s0.433-0.858,0.439-1.519v-0.355
			c0-0.684-0.142-1.201-0.425-1.555C126.906,110.359,126.494,110.182,125.947,110.182z"/>
		<path fill="#FFFFFF" d="M109.901,110.182h-1.114v2.019h1.118c0.348,0,0.618-0.089,0.81-0.266s0.287-0.42,0.287-0.731
			c0-0.317-0.092-0.566-0.273-0.749C110.551,110.274,110.273,110.182,109.901,110.182z"/>
		<path fill="#FFFFFF" d="M144.284,110.182h-1.112v2.019h1.118c0.348,0,0.616-0.089,0.808-0.266c0.19-0.177,0.286-0.42,0.286-0.731
			c0-0.317-0.091-0.566-0.272-0.749C144.932,110.274,144.656,110.182,144.284,110.182z"/>
		<path fill="#FFFFFF" d="M98.638,110.182H97.37v2.111h1.237c0.365,0,0.645-0.086,0.838-0.259s0.289-0.418,0.289-0.739
			c0-0.329-0.098-0.595-0.291-0.799C99.247,110.292,98.979,110.189,98.638,110.182z"/>
		<path fill="#FFFFFF" d="M79.689,104.976v14.185h70.539v-14.185H79.689z M89.056,115.783h-1.385v-2.882H84.97v2.882h-1.387v-6.723
			h1.387v2.724h2.701v-2.724h1.385V115.783z M93.161,113.345v2.438h-1.407v-2.438l-2.206-4.284h1.518l1.391,3.028l1.399-3.028h1.514
			L93.161,113.345z M100.455,112.844c-0.449,0.38-1.074,0.571-1.873,0.571H97.37v2.368h-1.388v-6.723h2.625
			c0.505,0,0.947,0.093,1.33,0.277c0.385,0.184,0.68,0.447,0.886,0.787s0.31,0.727,0.31,1.161
			C101.133,111.945,100.906,112.464,100.455,112.844z M106.589,115.783h-4.505v-6.723h4.497v1.121h-3.11v1.603h2.657v1.076h-2.657
			v1.811h3.118V115.783z M112.639,115.783h-1.486l-1.26-2.461h-1.106v2.461h-1.385v-6.723h2.499c0.794,0,1.405,0.176,1.838,0.531
			c0.431,0.354,0.647,0.854,0.647,1.5c0,0.46-0.101,0.841-0.3,1.147c-0.197,0.307-0.499,0.55-0.902,0.731l1.455,2.748V115.783z
			 M117.765,115.783h-4.327v-6.723h1.387v5.61h2.94V115.783z M123.067,115.783h-4.508v-6.723h4.497v1.121h-3.11v1.603h2.657v1.076
			h-2.657v1.811h3.121V115.783z M129.018,112.579c0,0.625-0.129,1.181-0.385,1.667c-0.258,0.485-0.62,0.863-1.088,1.131
			c-0.47,0.268-0.996,0.404-1.584,0.406h-2.084v-6.723h2.069c0.593,0,1.121,0.133,1.586,0.4c0.466,0.265,0.83,0.644,1.092,1.135
			s0.394,1.049,0.394,1.674V112.579z M131.669,114.222c0.269,0.361,0.661,0.541,1.177,0.541c0.521,0,0.893-0.11,1.115-0.333v-1.158
			h-1.263v-1.021h2.647v2.683c-0.252,0.298-0.604,0.53-1.059,0.696c-0.457,0.163-0.961,0.245-1.514,0.245
			c-0.582,0-1.092-0.127-1.532-0.38c-0.438-0.254-0.775-0.623-1.015-1.106c-0.239-0.482-0.362-1.051-0.368-1.703v-0.457
			c0-0.672,0.114-1.252,0.339-1.744c0.227-0.491,0.553-0.865,0.979-1.126c0.428-0.261,0.927-0.391,1.499-0.391
			c0.796,0,1.42,0.189,1.871,0.569c0.449,0.381,0.713,0.936,0.799,1.661h-1.35c-0.062-0.384-0.197-0.667-0.41-0.846
			c-0.21-0.177-0.498-0.267-0.869-0.267c-0.47,0-0.829,0.176-1.076,0.531c-0.246,0.353-0.37,0.879-0.373,1.578v0.43
			C131.267,113.329,131.401,113.863,131.669,114.222z M140.973,115.783h-4.505v-6.723h4.495v1.121h-3.11v1.603h2.659v1.076h-2.659
			v1.811h3.12V115.783z M147.022,115.783h-1.486l-1.261-2.461h-1.104v2.461h-1.385v-6.723h2.497c0.794,0,1.405,0.176,1.838,0.531
			c0.433,0.354,0.646,0.854,0.646,1.5c0,0.46-0.1,0.841-0.299,1.147c-0.198,0.307-0.499,0.55-0.902,0.731l1.455,2.748V115.783z"/>
	</g>
	<g>
		<path fill="#FFFFFF" d="M-35.072,62.087v14.185h45.257V62.087H-35.072z M-25.729,72.049c-0.414,0.332-1,0.501-1.763,0.507h-2.614
			v-6.723h2.354c0.815,0,1.434,0.157,1.857,0.47c0.421,0.312,0.631,0.771,0.631,1.373c0,0.329-0.084,0.618-0.253,0.871
			c-0.168,0.251-0.404,0.435-0.707,0.551c0.345,0.086,0.618,0.26,0.816,0.521c0.199,0.263,0.297,0.582,0.297,0.961
			C-25.111,71.228-25.317,71.716-25.729,72.049z M-22.598,72.556h-1.385v-6.723h1.385V72.556z M-16.388,66.955h-2.06v5.601h-1.386
			v-5.601h-2.03v-1.122h5.476V66.955z M-14.197,71.014c0.22,0.336,0.568,0.505,1.041,0.505c0.428,0,0.748-0.098,0.958-0.294
			s0.332-0.498,0.363-0.908h1.385c-0.053,0.724-0.32,1.293-0.802,1.709c-0.48,0.416-1.116,0.624-1.904,0.624
			c-0.861,0-1.54-0.291-2.034-0.871c-0.495-0.58-0.74-1.377-0.74-2.39v-0.411c0-0.646,0.112-1.216,0.341-1.708
			c0.228-0.492,0.553-0.87,0.976-1.134c0.424-0.263,0.915-0.395,1.475-0.395c0.776,0,1.402,0.208,1.875,0.624
			c0.476,0.415,0.75,0.998,0.823,1.749h-1.385c-0.034-0.434-0.156-0.748-0.363-0.943c-0.208-0.197-0.525-0.294-0.95-0.294
			c-0.461,0-0.807,0.166-1.036,0.496c-0.229,0.331-0.346,0.845-0.353,1.54v0.509C-14.527,70.149-14.417,70.679-14.197,71.014z
			 M-4.017,69.348c0,0.661-0.119,1.241-0.352,1.74c-0.235,0.499-0.568,0.884-1.004,1.154c-0.437,0.271-0.936,0.407-1.5,0.407
			c-0.556,0-1.054-0.134-1.492-0.401c-0.437-0.269-0.775-0.65-1.015-1.147c-0.24-0.498-0.362-1.069-0.366-1.716v-0.332
			c0-0.663,0.119-1.245,0.358-1.749c0.239-0.503,0.575-0.889,1.012-1.159c0.436-0.27,0.934-0.403,1.494-0.403
			c0.561,0,1.058,0.134,1.493,0.403c0.436,0.271,0.772,0.656,1.01,1.159c0.239,0.504,0.36,1.085,0.36,1.743V69.348z M-1.538,72.556
			h-1.385v-6.723h1.385V72.556z M5.212,72.556H3.827l-2.697-4.423v4.423h-1.385v-6.723h1.385l2.702,4.434v-4.434h1.38V72.556z"/>
		<path fill="#FFFFFF" d="M-6.88,66.886c-0.465,0-0.824,0.181-1.077,0.543c-0.252,0.362-0.38,0.893-0.383,1.591v0.328
			c0,0.686,0.127,1.219,0.379,1.598c0.251,0.38,0.615,0.567,1.088,0.567c0.465,0,0.823-0.182,1.072-0.547
			c0.25-0.364,0.375-0.896,0.378-1.596v-0.327c0-0.705-0.127-1.241-0.378-1.606C-6.052,67.07-6.413,66.886-6.88,66.886z"/>
		<path fill="#FFFFFF" d="M-26.65,67.815c0-0.305-0.086-0.524-0.264-0.658c-0.178-0.134-0.456-0.201-0.838-0.201h-0.97v1.695h1.025
			C-26.998,68.638-26.65,68.36-26.65,67.815z"/>
		<path fill="#FFFFFF" d="M-27.453,69.629h-1.268v1.815h1.186c0.326,0,0.582-0.078,0.764-0.233c0.183-0.156,0.275-0.37,0.275-0.645
			C-26.496,69.95-26.815,69.638-27.453,69.629z"/>
	</g>
</g>
</svg>
