<?xml version="1.0" encoding="utf-8"?>
<!-- Generator: Adobe Illustrator 16.0.0, SVG Export Plug-In . SVG Version: 6.00 Build 0)  -->
<!DOCTYPE svg PUBLIC "-//W3C//DTD SVG 1.1//EN" "http://www.w3.org/Graphics/SVG/1.1/DTD/svg11.dtd">
<svg version="1.1" id="Layer_1" xmlns="http://www.w3.org/2000/svg" xmlns:xlink="http://www.w3.org/1999/xlink" x="0px" y="0px"
	 width="212.766px" height="166.005px" viewBox="14.851 4.736 212.766 166.005"
	 enable-background="new 14.851 4.736 212.766 166.005" xml:space="preserve">
<g id="Layer_1_1_">
</g>
<g>
	<g>
		<polygon fill="#FFFFFF" points="129.198,53.834 131.028,53.834 130.108,51.096 		"/>
		<path fill="#FFFFFF" d="M144.378,50.392c-0.506,0-0.896,0.197-1.172,0.59c-0.274,0.395-0.412,0.972-0.417,1.731v0.356
			c0,0.748,0.14,1.327,0.413,1.739c0.274,0.412,0.67,0.618,1.186,0.618c0.507,0,0.894-0.198,1.164-0.596
			c0.273-0.396,0.41-0.975,0.415-1.735v-0.357c0-0.768-0.139-1.351-0.415-1.749C145.279,50.591,144.887,50.392,144.378,50.392z"/>
		<path fill="#FFFFFF" d="M123.624,53.376h-1.382v1.976h1.292c0.354,0,0.631-0.085,0.832-0.254c0.198-0.169,0.299-0.402,0.299-0.701
			C124.665,53.727,124.318,53.387,123.624,53.376z"/>
		<path fill="#FFFFFF" d="M124.499,51.402c0-0.332-0.098-0.571-0.29-0.716c-0.191-0.146-0.497-0.219-0.91-0.219h-1.057v1.845h1.116
			C124.117,52.297,124.499,51.994,124.499,51.402z"/>
		<path fill="#FFFFFF" d="M116.994,45.536v15.437h52.56V45.536H116.994z M125.499,56.009c-0.449,0.362-1.091,0.547-1.92,0.553
			h-2.845v-7.316h2.564c0.886,0,1.559,0.17,2.019,0.51c0.459,0.34,0.688,0.838,0.688,1.495c0,0.358-0.09,0.674-0.275,0.947
			c-0.184,0.273-0.44,0.473-0.771,0.601c0.378,0.094,0.674,0.283,0.889,0.567c0.218,0.286,0.325,0.633,0.325,1.045
			C126.172,55.115,125.947,55.648,125.499,56.009z M131.941,56.562l-0.508-1.507h-2.643l-0.502,1.507h-1.604l2.723-7.316h1.398
			l2.737,7.316H131.941z M140.177,56.562h-1.508l-2.936-4.813v4.813h-1.508v-7.316h1.508l2.941,4.824v-4.824h1.502V56.562z
			 M147.494,53.069c0,0.684-0.112,1.278-0.333,1.781c-0.222,0.505-0.527,0.909-0.918,1.214l1.215,0.955l-0.96,0.85l-1.56-1.251
			c-0.175,0.031-0.358,0.045-0.551,0.045c-0.607,0-1.146-0.146-1.623-0.437c-0.476-0.292-0.844-0.708-1.105-1.248
			c-0.262-0.542-0.393-1.165-0.397-1.868v-0.362c0-0.72,0.131-1.354,0.389-1.901c0.26-0.549,0.628-0.968,1.103-1.262
			c0.474-0.292,1.016-0.439,1.625-0.439c0.608,0,1.151,0.147,1.625,0.439c0.475,0.294,0.842,0.713,1.1,1.262
			c0.261,0.547,0.392,1.179,0.392,1.896V53.069z M154.136,54.065c0,0.799-0.25,1.433-0.749,1.898
			c-0.503,0.467-1.187,0.699-2.056,0.699c-0.853,0-1.53-0.227-2.033-0.679s-0.76-1.074-0.77-1.864v-4.875h1.508v4.83
			c0,0.479,0.114,0.829,0.344,1.047c0.23,0.22,0.548,0.33,0.951,0.33c0.851,0,1.279-0.446,1.292-1.336v-4.87h1.513V54.065z
			 M160.277,56.562h-4.903v-7.316h4.893v1.221h-3.386v1.744h2.894v1.17h-2.894v1.971h3.396V56.562z M162.948,51.793
			c0.239,0.161,0.593,0.312,1.058,0.453c0.859,0.257,1.482,0.578,1.875,0.96c0.393,0.382,0.587,0.857,0.587,1.426
			c0,0.634-0.239,1.13-0.718,1.491c-0.48,0.359-1.124,0.54-1.934,0.54c-0.563,0-1.077-0.104-1.538-0.309
			c-0.463-0.207-0.815-0.489-1.059-0.847c-0.243-0.359-0.363-0.774-0.363-1.247h1.512c0,0.808,0.481,1.211,1.448,1.211
			c0.357,0,0.639-0.072,0.839-0.219c0.2-0.145,0.302-0.349,0.302-0.61c0-0.285-0.102-0.503-0.302-0.656
			c-0.2-0.152-0.563-0.312-1.085-0.482c-0.523-0.169-0.937-0.335-1.241-0.5c-0.83-0.448-1.249-1.054-1.249-1.814
			c0-0.395,0.113-0.748,0.335-1.057c0.224-0.311,0.543-0.552,0.96-0.727c0.418-0.174,0.887-0.262,1.407-0.262
			c0.521,0,0.987,0.096,1.396,0.285c0.407,0.188,0.724,0.456,0.951,0.8c0.225,0.346,0.338,0.737,0.338,1.176h-1.507
			c0-0.335-0.105-0.596-0.316-0.781c-0.211-0.187-0.509-0.279-0.89-0.279c-0.366,0-0.655,0.079-0.859,0.233
			c-0.204,0.157-0.307,0.361-0.307,0.616C162.588,51.434,162.709,51.633,162.948,51.793z"/>
	</g>
	<g>
		<path fill="#FFFFFF" d="M125.554,160.51c-0.507,0-0.896,0.197-1.172,0.591c-0.274,0.395-0.414,0.971-0.418,1.731v0.356
			c0,0.748,0.138,1.326,0.413,1.739c0.274,0.413,0.67,0.618,1.187,0.618c0.504,0,0.895-0.198,1.165-0.596
			c0.271-0.396,0.408-0.977,0.412-1.736v-0.357c0-0.768-0.138-1.35-0.412-1.748C126.453,160.71,126.062,160.51,125.554,160.51z"/>
		<path fill="#FFFFFF" d="M113.197,160.51c-0.507,0-0.896,0.197-1.172,0.591c-0.275,0.395-0.413,0.971-0.417,1.731v0.356
			c0,0.748,0.137,1.326,0.412,1.739c0.277,0.413,0.67,0.618,1.187,0.618c0.506,0,0.895-0.198,1.166-0.596
			c0.271-0.396,0.41-0.977,0.412-1.736v-0.357c0-0.768-0.137-1.35-0.412-1.748S113.704,160.51,113.197,160.51z"/>
		<path fill="#FFFFFF" d="M96.359,160.51c-0.508,0-0.896,0.197-1.172,0.591c-0.275,0.395-0.414,0.971-0.418,1.731v0.356
			c0,0.748,0.138,1.326,0.412,1.739c0.273,0.413,0.67,0.618,1.187,0.618c0.505,0,0.895-0.198,1.167-0.596
			c0.27-0.396,0.407-0.977,0.41-1.736v-0.357c0-0.768-0.137-1.35-0.41-1.748C97.258,160.71,96.867,160.51,96.359,160.51z"/>
		<path fill="#FFFFFF" d="M83.351,155.304v15.438h64.848v-15.438H83.351z M88.922,161.913c0.239,0.16,0.593,0.311,1.058,0.451
			c0.858,0.259,1.482,0.578,1.875,0.96s0.587,0.858,0.587,1.428c0,0.633-0.239,1.13-0.716,1.49c-0.482,0.358-1.125,0.54-1.937,0.54
			c-0.563,0-1.075-0.104-1.538-0.309c-0.463-0.207-0.814-0.49-1.059-0.848c-0.242-0.358-0.363-0.773-0.363-1.246h1.512
			c0,0.808,0.483,1.211,1.448,1.211c0.359,0,0.638-0.072,0.841-0.219c0.2-0.146,0.301-0.35,0.301-0.61
			c0-0.286-0.101-0.503-0.301-0.656c-0.203-0.151-0.563-0.312-1.087-0.482c-0.522-0.169-0.936-0.335-1.242-0.499
			c-0.829-0.449-1.245-1.055-1.245-1.814c0-0.396,0.111-0.748,0.334-1.057c0.223-0.311,0.543-0.553,0.96-0.728
			s0.885-0.261,1.405-0.261c0.522,0,0.986,0.094,1.396,0.283s0.727,0.457,0.953,0.802c0.226,0.345,0.338,0.737,0.338,1.176h-1.508
			c0-0.335-0.104-0.596-0.315-0.78c-0.21-0.188-0.51-0.279-0.891-0.279c-0.365,0-0.653,0.078-0.857,0.232
			c-0.206,0.157-0.307,0.361-0.307,0.615C88.564,161.552,88.685,161.751,88.922,161.913z M99.472,163.188
			c0,0.721-0.127,1.352-0.381,1.895c-0.255,0.543-0.619,0.961-1.092,1.257c-0.476,0.294-1.019,0.442-1.632,0.442
			c-0.606,0-1.147-0.146-1.624-0.438s-0.844-0.707-1.104-1.248c-0.262-0.542-0.394-1.164-0.396-1.867v-0.361
			c0-0.721,0.129-1.355,0.39-1.902c0.26-0.549,0.625-0.969,1.099-1.263c0.474-0.293,1.017-0.438,1.628-0.438
			c0.608,0,1.15,0.146,1.624,0.438c0.474,0.294,0.843,0.714,1.103,1.263c0.258,0.547,0.387,1.18,0.387,1.896V163.188z
			 M102.235,165.003c0.239,0.365,0.617,0.547,1.132,0.547c0.466,0,0.814-0.105,1.044-0.318c0.228-0.213,0.36-0.541,0.394-0.988
			h1.508c-0.057,0.788-0.348,1.408-0.872,1.86s-1.214,0.679-2.073,0.679c-0.938,0-1.675-0.316-2.211-0.948
			c-0.539-0.631-0.808-1.497-0.808-2.6v-0.448c0-0.703,0.123-1.322,0.371-1.859c0.248-0.535,0.602-0.946,1.062-1.233
			c0.461-0.286,0.996-0.429,1.604-0.429c0.844,0,1.525,0.225,2.041,0.678c0.518,0.452,0.814,1.087,0.895,1.905h-1.508
			c-0.036-0.473-0.168-0.815-0.393-1.028c-0.228-0.213-0.572-0.318-1.035-0.318c-0.501,0-0.877,0.18-1.127,0.539
			c-0.248,0.36-0.379,0.919-0.385,1.677v0.553C101.874,164.06,101.993,164.638,102.235,165.003z M108.906,166.681h-1.507v-7.316
			h1.507V166.681z M116.311,163.188c0,0.721-0.126,1.352-0.382,1.895c-0.254,0.543-0.617,0.961-1.093,1.257
			c-0.474,0.294-1.017,0.442-1.63,0.442c-0.606,0-1.148-0.146-1.623-0.438c-0.477-0.291-0.843-0.707-1.105-1.248
			c-0.26-0.542-0.393-1.164-0.398-1.867v-0.361c0-0.721,0.131-1.355,0.391-1.902c0.26-0.549,0.627-0.969,1.102-1.263
			c0.472-0.293,1.016-0.438,1.625-0.438s1.15,0.146,1.625,0.438c0.474,0.294,0.842,0.714,1.1,1.263
			c0.261,0.547,0.39,1.18,0.39,1.896V163.188z M122.115,166.681h-4.709v-7.316h1.509v6.106h3.2V166.681z M128.667,163.188
			c0,0.721-0.126,1.352-0.381,1.895c-0.254,0.543-0.619,0.961-1.093,1.257c-0.474,0.294-1.017,0.442-1.63,0.442
			c-0.607,0-1.147-0.146-1.623-0.438c-0.477-0.291-0.846-0.707-1.105-1.248c-0.264-0.542-0.395-1.164-0.397-1.867v-0.361
			c0-0.721,0.13-1.355,0.39-1.902c0.26-0.549,0.625-0.969,1.101-1.263c0.472-0.293,1.015-0.438,1.626-0.438
			c0.607,0,1.151,0.146,1.624,0.438c0.474,0.294,0.843,0.714,1.103,1.263c0.258,0.547,0.387,1.18,0.387,1.896V163.188z
			 M131.553,164.983c0.292,0.392,0.719,0.588,1.28,0.588c0.568,0,0.971-0.121,1.212-0.363v-1.26h-1.372v-1.111h2.88v2.92
			c-0.271,0.324-0.655,0.577-1.151,0.758c-0.494,0.178-1.045,0.268-1.648,0.268c-0.633,0-1.188-0.139-1.666-0.416
			c-0.476-0.275-0.845-0.676-1.104-1.203c-0.261-0.525-0.394-1.145-0.398-1.854v-0.498c0-0.73,0.122-1.361,0.368-1.896
			s0.602-0.943,1.064-1.227c0.465-0.283,1.008-0.424,1.632-0.424c0.867,0,1.546,0.206,2.035,0.619
			c0.488,0.416,0.779,1.017,0.869,1.808h-1.468c-0.066-0.419-0.215-0.726-0.445-0.919c-0.228-0.195-0.543-0.292-0.947-0.292
			c-0.513,0-0.902,0.192-1.169,0.577c-0.27,0.387-0.405,0.959-0.409,1.719v0.468C131.115,164.011,131.262,164.591,131.553,164.983z
			 M138.378,166.681h-1.508v-7.316h1.508V166.681z M144.679,166.681h-4.904v-7.316h4.895v1.221h-3.388v1.744h2.895v1.172h-2.895
			v1.97h3.397V166.681z"/>
	</g>
	<g>
		<path fill="#FFFFFF" d="M185.529,32.247h-0.744v4.884h0.729c0.591,0,1.041-0.192,1.353-0.578c0.312-0.385,0.472-0.936,0.478-1.653
			v-0.387c0-0.744-0.154-1.307-0.462-1.691C186.573,32.438,186.121,32.247,185.529,32.247z"/>
		<path fill="#FFFFFF" d="M178.373,26.965v15.437h44.505V26.965H178.373z M188.869,34.854c0,0.68-0.137,1.285-0.419,1.814
			c-0.279,0.529-0.675,0.939-1.183,1.23c-0.51,0.292-1.084,0.439-1.724,0.442h-2.268v-7.316h2.252c0.643,0,1.219,0.144,1.726,0.435
			c0.508,0.289,0.903,0.701,1.188,1.236s0.427,1.141,0.427,1.822V34.854z M194.869,38.342h-4.905v-7.316h4.896v1.221h-3.387v1.744
			h2.895v1.171h-2.895v1.969h3.396V38.342z M197.54,33.573c0.24,0.161,0.593,0.312,1.06,0.453c0.856,0.257,1.481,0.578,1.874,0.96
			c0.391,0.381,0.586,0.858,0.586,1.427c0,0.633-0.238,1.13-0.717,1.49c-0.48,0.36-1.124,0.54-1.936,0.54
			c-0.563,0-1.076-0.103-1.537-0.309c-0.463-0.207-0.814-0.489-1.059-0.847c-0.242-0.358-0.363-0.774-0.363-1.247h1.511
			c0,0.808,0.483,1.211,1.448,1.211c0.359,0,0.638-0.072,0.84-0.219c0.2-0.145,0.301-0.349,0.301-0.609
			c0-0.286-0.101-0.504-0.301-0.657c-0.202-0.152-0.564-0.312-1.086-0.482c-0.521-0.168-0.936-0.335-1.242-0.5
			c-0.83-0.449-1.245-1.054-1.245-1.815c0-0.395,0.111-0.747,0.334-1.057c0.223-0.31,0.544-0.552,0.959-0.727
			c0.417-0.174,0.886-0.262,1.407-0.262c0.521,0,0.985,0.095,1.395,0.285s0.726,0.456,0.953,0.802
			c0.226,0.345,0.338,0.737,0.338,1.175h-1.506c0-0.335-0.106-0.595-0.316-0.781c-0.211-0.187-0.509-0.279-0.891-0.279
			c-0.367,0-0.654,0.078-0.858,0.233c-0.206,0.156-0.308,0.36-0.308,0.616C197.181,33.213,197.302,33.413,197.54,33.573z
			 M203.684,38.342h-1.507v-7.316h1.507V38.342z M206.868,36.643c0.291,0.393,0.721,0.588,1.281,0.588
			c0.567,0,0.971-0.121,1.212-0.361v-1.262h-1.37v-1.11h2.877v2.92c-0.271,0.325-0.653,0.576-1.148,0.756
			c-0.498,0.179-1.045,0.269-1.648,0.269c-0.633,0-1.189-0.138-1.667-0.415c-0.477-0.275-0.846-0.676-1.106-1.203
			c-0.259-0.525-0.392-1.144-0.398-1.854v-0.498c0-0.729,0.125-1.362,0.368-1.896c0.249-0.535,0.604-0.943,1.067-1.226
			c0.464-0.284,1.008-0.426,1.629-0.426c0.87,0,1.547,0.207,2.037,0.621c0.486,0.414,0.777,1.017,0.867,1.807h-1.467
			c-0.065-0.419-0.215-0.726-0.444-0.919c-0.229-0.195-0.544-0.292-0.947-0.292c-0.513,0-0.902,0.192-1.171,0.578
			c-0.266,0.386-0.402,0.958-0.405,1.719v0.467C206.434,35.672,206.577,36.252,206.868,36.643z M218.04,38.342h-1.507l-2.934-4.814
			v4.814h-1.51v-7.316h1.51l2.938,4.824v-4.824h1.502V38.342z"/>
	</g>
	<g>
		<path fill="#FFFFFF" d="M80.615,65.489h-1.209v2.196h1.217c0.376,0,0.67-0.096,0.877-0.289c0.207-0.193,0.312-0.459,0.312-0.798
			c0-0.344-0.097-0.616-0.293-0.813C81.322,65.588,81.023,65.489,80.615,65.489z"/>
		<path fill="#FFFFFF" d="M41.619,60.207v15.437H94.29V60.207H41.619z M48.372,69.906c0.238,0.366,0.616,0.548,1.134,0.548
			c0.465,0,0.812-0.106,1.041-0.32c0.23-0.212,0.361-0.541,0.395-0.987h1.509c-0.058,0.788-0.347,1.408-0.873,1.86
			c-0.522,0.451-1.215,0.678-2.071,0.678c-0.94,0-1.677-0.315-2.214-0.948c-0.539-0.631-0.807-1.498-0.807-2.6v-0.448
			c0-0.703,0.124-1.323,0.371-1.859c0.248-0.536,0.604-0.947,1.062-1.234c0.462-0.286,0.997-0.429,1.607-0.429
			c0.843,0,1.522,0.226,2.041,0.678c0.515,0.452,0.813,1.086,0.894,1.905h-1.508c-0.037-0.472-0.17-0.815-0.394-1.028
			c-0.228-0.213-0.571-0.319-1.033-0.319c-0.502,0-0.879,0.181-1.129,0.54c-0.25,0.36-0.378,0.919-0.384,1.677v0.552
			C48.013,68.963,48.132,69.541,48.372,69.906z M58.977,69.086c0,0.801-0.249,1.434-0.75,1.9c-0.501,0.466-1.185,0.698-2.054,0.698
			c-0.855,0-1.53-0.227-2.035-0.678c-0.502-0.453-0.759-1.074-0.77-1.865v-4.875h1.509v4.829c0,0.479,0.113,0.829,0.345,1.048
			c0.229,0.219,0.547,0.329,0.951,0.329c0.849,0,1.277-0.445,1.293-1.336v-4.87h1.511V69.086z M64.922,71.584h-4.709v-7.317h1.509
			v6.106h3.2V71.584z M70.263,65.489h-2.24v6.095h-1.508v-6.095h-2.211v-1.222h5.959V65.489z M76.661,69.086
			c0,0.801-0.251,1.434-0.752,1.9c-0.5,0.466-1.186,0.698-2.053,0.698c-0.855,0-1.533-0.227-2.035-0.678
			c-0.502-0.453-0.759-1.074-0.768-1.865v-4.875h1.507v4.829c0,0.479,0.115,0.829,0.344,1.048s0.546,0.329,0.952,0.329
			c0.848,0,1.277-0.445,1.292-1.336v-4.87h1.513V69.086z M83.596,71.584h-1.617l-1.374-2.679h-1.199v2.679h-1.508v-7.317h2.717
			c0.863,0,1.532,0.192,2.001,0.578c0.47,0.385,0.702,0.929,0.702,1.633c0,0.499-0.107,0.915-0.322,1.249
			c-0.217,0.333-0.544,0.599-0.982,0.796l1.583,2.989V71.584z M89.37,71.584h-4.906v-7.317h4.896v1.222h-3.389v1.743h2.896v1.171
			h-2.896v1.97h3.398V71.584z"/>
	</g>
	<g>
		<path fill="#FFFFFF" d="M193.899,77.05c-0.505,0-0.896,0.197-1.17,0.59c-0.275,0.395-0.415,0.972-0.419,1.731v0.357
			c0,0.747,0.139,1.327,0.414,1.738c0.273,0.413,0.67,0.618,1.186,0.618c0.508,0,0.894-0.198,1.165-0.596
			c0.272-0.396,0.409-0.976,0.412-1.736v-0.356c0-0.768-0.136-1.35-0.412-1.749C194.799,77.249,194.408,77.05,193.899,77.05z"/>
		<path fill="#FFFFFF" d="M157.372,77.125h-0.744v4.884h0.729c0.589,0,1.041-0.192,1.352-0.578c0.312-0.385,0.472-0.936,0.477-1.653
			v-0.386c0-0.744-0.153-1.308-0.461-1.692C158.415,77.316,157.965,77.125,157.372,77.125z"/>
		<polygon fill="#FFFFFF" points="177.21,80.492 179.04,80.492 178.12,77.753 		"/>
		<path fill="#FFFFFF" d="M143.275,71.642v15.437h66.139V71.642H143.275z M152.159,73.929h1.584l-1.394,1.558h-1.18L152.159,73.929z
			 M154.237,83.22h-4.905v-7.316h4.895v1.221h-3.387v1.744h2.895v1.17h-2.895v1.97h3.397V83.22z M160.713,79.733
			c0,0.68-0.14,1.285-0.42,1.814c-0.279,0.529-0.676,0.94-1.182,1.231c-0.511,0.292-1.084,0.438-1.725,0.442h-2.267v-7.316h2.252
			c0.643,0,1.219,0.145,1.725,0.435c0.509,0.29,0.905,0.702,1.19,1.236c0.283,0.535,0.426,1.142,0.426,1.822V79.733z
			 M167.345,80.723c0,0.8-0.25,1.434-0.749,1.899c-0.5,0.466-1.187,0.698-2.054,0.698c-0.854,0-1.532-0.226-2.034-0.678
			c-0.503-0.453-0.761-1.074-0.77-1.865v-4.874h1.507v4.83c0,0.479,0.115,0.828,0.346,1.047c0.228,0.22,0.546,0.33,0.951,0.33
			c0.848,0,1.278-0.446,1.293-1.337v-4.87h1.51V80.723z M170.248,81.542c0.239,0.366,0.617,0.547,1.134,0.547
			c0.466,0,0.812-0.106,1.042-0.319c0.23-0.212,0.361-0.541,0.395-0.986h1.508c-0.057,0.788-0.349,1.407-0.872,1.859
			c-0.524,0.452-1.215,0.678-2.072,0.678c-0.94,0-1.676-0.315-2.215-0.948c-0.536-0.631-0.806-1.498-0.806-2.6v-0.447
			c0-0.704,0.124-1.324,0.371-1.86c0.249-0.537,0.604-0.947,1.063-1.234c0.46-0.286,0.996-0.43,1.605-0.43
			c0.846,0,1.523,0.227,2.039,0.678c0.518,0.453,0.816,1.087,0.896,1.905h-1.508c-0.038-0.473-0.17-0.815-0.395-1.028
			c-0.228-0.211-0.571-0.318-1.033-0.318c-0.503,0-0.878,0.18-1.128,0.54c-0.249,0.36-0.378,0.918-0.385,1.676v0.553
			C169.889,80.599,170.01,81.177,170.248,81.542z M179.954,83.22l-0.508-1.507h-2.643l-0.503,1.507h-1.602l2.723-7.316h1.396
			l2.739,7.316H179.954z M187.144,77.125h-2.24v6.095h-1.508v-6.095h-2.211v-1.221h5.959V77.125z M189.608,83.22h-1.509v-7.316
			h1.509V83.22z M197.013,79.728c0,0.72-0.125,1.352-0.381,1.895c-0.253,0.543-0.619,0.961-1.093,1.256
			c-0.474,0.295-1.017,0.442-1.63,0.442c-0.607,0-1.146-0.146-1.623-0.437c-0.477-0.292-0.844-0.708-1.105-1.249
			c-0.263-0.541-0.394-1.163-0.397-1.867v-0.361c0-0.72,0.131-1.355,0.39-1.902c0.258-0.548,0.626-0.969,1.101-1.262
			c0.474-0.293,1.015-0.439,1.625-0.439s1.152,0.146,1.624,0.439c0.478,0.293,0.842,0.714,1.103,1.262
			c0.26,0.547,0.388,1.179,0.388,1.896V79.728z M204.06,83.22h-1.508l-2.935-4.814v4.814h-1.508v-7.316h1.508l2.94,4.824v-4.824
			h1.502V83.22z"/>
	</g>
	<g>
		<polygon fill="#FFFFFF" points="190.613,109.909 192.441,109.909 191.523,107.171 		"/>
		<path fill="#FFFFFF" d="M142.74,106.542h-0.744v4.885h0.728c0.591,0,1.04-0.191,1.354-0.578c0.312-0.385,0.472-0.936,0.478-1.652
			v-0.387c0-0.744-0.155-1.308-0.463-1.691S143.331,106.542,142.74,106.542z"/>
		<path fill="#FFFFFF" d="M184.87,106.542h-1.213v2.196h1.217c0.379,0,0.672-0.097,0.881-0.288c0.206-0.193,0.311-0.459,0.311-0.797
			c0-0.345-0.1-0.617-0.295-0.813C185.573,106.642,185.276,106.542,184.87,106.542z"/>
		<polygon fill="#FFFFFF" points="111.193,109.909 113.021,109.909 112.102,107.171 		"/>
		<polygon fill="#FFFFFF" points="135.458,109.909 137.286,109.909 136.368,107.171 		"/>
		<path fill="#FFFFFF" d="M126.709,107.819c0.198-0.127,0.335-0.251,0.409-0.372c0.077-0.12,0.113-0.265,0.113-0.433
			c0-0.166-0.061-0.312-0.188-0.438c-0.122-0.123-0.281-0.186-0.477-0.186c-0.207,0-0.373,0.067-0.5,0.201
			c-0.125,0.134-0.188,0.312-0.188,0.532c0,0.252,0.148,0.568,0.442,0.95L126.709,107.819z"/>
		<path fill="#FFFFFF" d="M125.855,109.688c-0.299,0.254-0.447,0.553-0.447,0.896c0,0.292,0.093,0.527,0.279,0.709
			c0.185,0.182,0.428,0.273,0.725,0.273c0.35,0,0.68-0.097,0.992-0.29l-1.442-1.664L125.855,109.688z"/>
		<path fill="#FFFFFF" d="M207.302,106.468c-0.508,0-0.896,0.196-1.172,0.59c-0.273,0.395-0.414,0.972-0.416,1.731v0.356
			c0,0.748,0.135,1.327,0.412,1.739c0.274,0.411,0.668,0.618,1.186,0.618c0.506,0,0.895-0.199,1.166-0.597
			c0.271-0.396,0.408-0.976,0.412-1.735v-0.357c0-0.767-0.139-1.35-0.412-1.748C208.201,106.667,207.81,106.468,207.302,106.468z"/>
		<path fill="#FFFFFF" d="M92.919,101.009v15.438h134.697v-15.438H92.919z M100.472,103.347h1.585l-1.393,1.558h-1.181
			L100.472,103.347z M102.549,112.638h-4.904v-7.316h4.894v1.221h-3.386v1.744h2.894v1.171h-2.894v1.97h3.396V112.638z
			 M106.801,112.638h-1.507v-6.096h-2.212v-1.221h5.959v1.221h-2.24V112.638z M113.935,112.638l-0.508-1.508h-2.643l-0.502,1.508
			h-1.604l2.725-7.316h1.396l2.737,7.316H113.935z M121.126,106.542h-2.242v6.096h-1.508v-6.096h-2.21v-1.221h5.96V106.542z
			 M128.579,112.638l-0.379-0.432c-0.537,0.355-1.158,0.533-1.858,0.533c-0.723,0-1.303-0.191-1.738-0.57
			c-0.437-0.381-0.653-0.881-0.653-1.501c0-0.338,0.095-0.651,0.284-0.939s0.536-0.607,1.042-0.96
			c-0.215-0.291-0.388-0.564-0.512-0.82c-0.125-0.258-0.186-0.524-0.186-0.803c0-0.568,0.179-1.033,0.54-1.389
			c0.359-0.357,0.845-0.535,1.455-0.535c0.546,0,0.994,0.162,1.345,0.486c0.348,0.326,0.523,0.73,0.523,1.217
			c0,0.583-0.295,1.098-0.887,1.543l-0.562,0.406l1.262,1.468c0.196-0.389,0.297-0.818,0.297-1.286h1.236
			c0,0.951-0.22,1.723-0.659,2.311l1.097,1.271H128.579z M138.201,112.638l-0.508-1.508h-2.643l-0.503,1.508h-1.604l2.725-7.316
			h1.396l2.74,7.316H138.201z M146.081,109.151c0,0.679-0.14,1.284-0.42,1.812c-0.279,0.53-0.676,0.941-1.184,1.232
			c-0.509,0.291-1.082,0.438-1.725,0.441h-2.266v-7.316h2.252c0.643,0,1.22,0.146,1.727,0.436c0.508,0.289,0.902,0.701,1.188,1.236
			c0.284,0.533,0.428,1.141,0.428,1.82V109.151z M154.874,112.638h-1.512v-2l0.15-3.451l-1.975,5.451h-1.035l-1.97-5.447l0.15,3.447
			v2h-1.508v-7.316h1.97l1.879,5.308l1.869-5.308h1.98V112.638z M157.795,112.638h-1.509v-7.316h1.509V112.638z M165.142,112.638
			h-1.509l-2.934-4.813v4.813h-1.509v-7.316h1.509l2.939,4.824v-4.824h1.503V112.638z M168.06,112.638h-1.506v-7.316h1.506V112.638z
			 M171.242,107.869c0.241,0.161,0.593,0.312,1.059,0.452c0.858,0.258,1.483,0.578,1.876,0.961c0.392,0.381,0.586,0.857,0.586,1.426
			c0,0.634-0.239,1.131-0.717,1.49c-0.48,0.36-1.125,0.541-1.937,0.541c-0.562,0-1.073-0.104-1.538-0.31
			c-0.461-0.206-0.813-0.489-1.057-0.847c-0.242-0.358-0.363-0.774-0.363-1.246h1.511c0,0.808,0.483,1.211,1.447,1.211
			c0.359,0,0.64-0.072,0.84-0.219c0.202-0.145,0.302-0.35,0.302-0.609c0-0.287-0.1-0.504-0.302-0.658
			c-0.2-0.151-0.562-0.312-1.086-0.48c-0.521-0.17-0.934-0.337-1.239-0.5c-0.832-0.449-1.247-1.055-1.247-1.814
			c0-0.395,0.112-0.748,0.335-1.058c0.222-0.31,0.542-0.552,0.957-0.727c0.419-0.174,0.887-0.261,1.406-0.261
			c0.522,0,0.989,0.094,1.397,0.283c0.407,0.189,0.727,0.457,0.951,0.801c0.227,0.346,0.339,0.738,0.339,1.177h-1.508
			c0-0.335-0.104-0.595-0.314-0.78c-0.212-0.188-0.508-0.279-0.89-0.279c-0.368,0-0.655,0.078-0.858,0.232
			c-0.206,0.157-0.309,0.361-0.309,0.616C170.884,107.509,171.005,107.708,171.242,107.869z M181.292,106.542h-2.242v6.096h-1.507
			v-6.096h-2.21v-1.221h5.959V106.542z M187.849,112.638h-1.618l-1.372-2.678h-1.201v2.678h-1.507v-7.316h2.72
			c0.863,0,1.529,0.193,2,0.578c0.467,0.386,0.702,0.93,0.702,1.633c0,0.5-0.107,0.916-0.324,1.25
			c-0.216,0.332-0.544,0.599-0.981,0.796l1.582,2.989V112.638z M193.357,112.638l-0.508-1.508h-2.644l-0.502,1.508H188.1
			l2.724-7.316h1.398l2.738,7.316H193.357z M200.548,106.542h-2.242v6.096H196.8v-6.096h-2.213v-1.221h5.961V106.542z
			 M203.011,112.638h-1.508v-7.316h1.508V112.638z M210.417,109.146c0,0.72-0.127,1.352-0.381,1.895
			c-0.258,0.543-0.619,0.961-1.094,1.256c-0.474,0.296-1.018,0.443-1.631,0.443c-0.606,0-1.148-0.146-1.624-0.438
			c-0.474-0.291-0.844-0.708-1.105-1.248c-0.261-0.542-0.394-1.164-0.396-1.869v-0.359c0-0.721,0.127-1.355,0.388-1.902
			c0.26-0.549,0.627-0.969,1.103-1.263c0.475-0.293,1.014-0.438,1.625-0.438c0.609,0,1.15,0.146,1.625,0.438
			c0.474,0.294,0.842,0.714,1.102,1.263c0.259,0.547,0.389,1.179,0.389,1.896V109.146z M217.463,112.638h-1.507l-2.936-4.813v4.813
			h-1.509v-7.316h1.509l2.938,4.824v-4.824h1.504V112.638z M220.566,107.869c0.24,0.161,0.591,0.312,1.058,0.452
			c0.857,0.258,1.48,0.578,1.873,0.961c0.392,0.381,0.589,0.857,0.589,1.426c0,0.634-0.24,1.131-0.721,1.49
			c-0.478,0.36-1.124,0.541-1.933,0.541c-0.563,0-1.075-0.104-1.536-0.31c-0.463-0.206-0.816-0.489-1.06-0.847
			c-0.243-0.358-0.364-0.774-0.364-1.246h1.513c0,0.808,0.482,1.211,1.447,1.211c0.358,0,0.639-0.072,0.838-0.219
			c0.202-0.145,0.302-0.35,0.302-0.609c0-0.287-0.1-0.504-0.302-0.658c-0.199-0.151-0.562-0.312-1.085-0.48
			c-0.522-0.17-0.936-0.337-1.239-0.5c-0.833-0.449-1.249-1.055-1.249-1.814c0-0.395,0.112-0.748,0.336-1.058
			c0.225-0.31,0.543-0.552,0.961-0.727c0.417-0.174,0.885-0.261,1.402-0.261c0.523,0,0.99,0.094,1.397,0.283
			c0.41,0.189,0.728,0.457,0.953,0.801c0.226,0.346,0.339,0.738,0.339,1.177h-1.507c0-0.335-0.106-0.595-0.318-0.78
			c-0.21-0.188-0.507-0.279-0.888-0.279c-0.37,0-0.655,0.078-0.86,0.232c-0.204,0.157-0.306,0.361-0.306,0.616
			C220.206,107.509,220.325,107.708,220.566,107.869z"/>
	</g>
	<g>
		<path fill="#FFFFFF" d="M167.843,9.941c-0.508,0-0.896,0.197-1.173,0.59c-0.274,0.394-0.413,0.971-0.415,1.731v0.357
			c0,0.747,0.135,1.327,0.411,1.738c0.274,0.413,0.669,0.619,1.187,0.619c0.506,0,0.893-0.198,1.165-0.596
			c0.271-0.396,0.407-0.976,0.411-1.736v-0.356c0-0.767-0.137-1.35-0.411-1.749C168.742,10.141,168.351,9.941,167.843,9.941z"/>
		<path fill="#FFFFFF" d="M161.098,10.018h-1.212v2.196h1.216c0.38,0,0.673-0.097,0.881-0.289c0.206-0.193,0.312-0.458,0.312-0.797
			c0-0.346-0.101-0.617-0.295-0.814C161.804,10.116,161.504,10.018,161.098,10.018z"/>
		<path fill="#FFFFFF" d="M153.944,10.018h-0.745v4.883h0.728c0.591,0,1.042-0.192,1.354-0.578c0.311-0.385,0.47-0.936,0.476-1.653
			v-0.387c0-0.743-0.152-1.307-0.461-1.691C154.986,10.209,154.535,10.018,153.944,10.018z"/>
		<path fill="#FFFFFF" d="M147.494,4.736v15.437h37.663V4.736H147.494z M157.284,12.625c0,0.68-0.141,1.285-0.42,1.814
			c-0.281,0.529-0.674,0.938-1.183,1.23c-0.511,0.292-1.085,0.439-1.725,0.443h-2.266V8.796h2.252c0.644,0,1.219,0.146,1.726,0.435
			c0.508,0.289,0.902,0.701,1.188,1.236c0.283,0.534,0.427,1.142,0.427,1.821V12.625z M164.077,16.112h-1.617l-1.371-2.678h-1.203
			v2.678h-1.507V8.796h2.719c0.864,0,1.53,0.192,2.001,0.578c0.467,0.385,0.703,0.929,0.703,1.633c0,0.499-0.11,0.916-0.325,1.249
			c-0.216,0.333-0.544,0.599-0.983,0.796l1.584,2.989V16.112z M170.958,12.62c0,0.72-0.128,1.351-0.385,1.894
			c-0.254,0.542-0.617,0.961-1.09,1.257c-0.476,0.294-1.02,0.441-1.631,0.441c-0.607,0-1.148-0.146-1.625-0.437
			c-0.475-0.292-0.843-0.708-1.106-1.249c-0.26-0.541-0.392-1.163-0.396-1.867v-0.362c0-0.72,0.129-1.355,0.39-1.902
			c0.259-0.548,0.627-0.969,1.101-1.262c0.475-0.292,1.016-0.439,1.627-0.439c0.608,0,1.15,0.147,1.625,0.439
			c0.473,0.293,0.839,0.714,1.099,1.262c0.261,0.547,0.392,1.18,0.392,1.897V12.62z M173.655,16.112h-1.508V8.796h1.508V16.112z
			 M180.415,10.018h-2.243v6.095h-1.507v-6.095h-2.21V8.796h5.96V10.018z"/>
	</g>
	<g>
		<path fill="#FFFFFF" d="M76.622,131.403h-0.744v4.886h0.729c0.588,0,1.041-0.192,1.351-0.577c0.312-0.387,0.472-0.936,0.479-1.654
			v-0.387c0-0.743-0.155-1.308-0.464-1.691C77.665,131.597,77.214,131.403,76.622,131.403z"/>
		<path fill="#FFFFFF" d="M89.742,131.33c-0.508,0-0.896,0.196-1.171,0.589c-0.274,0.395-0.414,0.972-0.418,1.732v0.355
			c0,0.748,0.138,1.326,0.413,1.739c0.274,0.412,0.668,0.619,1.186,0.619c0.505,0,0.895-0.198,1.165-0.597
			c0.273-0.396,0.409-0.976,0.413-1.735v-0.357c0-0.767-0.138-1.349-0.413-1.749C90.643,131.529,90.251,131.33,89.742,131.33z"/>
		<path fill="#FFFFFF" d="M33.583,125.67v15.438h68.742V125.67H33.583z M83.888,128.208h1.582l-1.393,1.559h-1.18L83.888,128.208z
			 M41.688,135.249c0,0.465-0.103,0.877-0.31,1.233c-0.206,0.357-0.497,0.632-0.871,0.827c-0.377,0.193-0.799,0.291-1.273,0.291
			c-0.773,0-1.376-0.196-1.808-0.59c-0.433-0.395-0.648-0.951-0.648-1.671h1.519c0,0.358,0.074,0.623,0.225,0.794
			s0.39,0.256,0.713,0.256c0.29,0,0.519-0.1,0.69-0.297c0.169-0.197,0.254-0.479,0.254-0.844v-5.064h1.51V135.249z M47.883,137.501
			H42.98v-7.316h4.894v1.219h-3.387v1.745h2.894v1.171h-2.894v1.97h3.396V137.501z M54.305,135.003c0,0.801-0.251,1.434-0.751,1.898
			c-0.501,0.467-1.187,0.699-2.053,0.699c-0.855,0-1.531-0.227-2.036-0.678c-0.502-0.453-0.758-1.075-0.769-1.865v-4.873h1.508
			v4.828c0,0.479,0.114,0.828,0.346,1.048c0.228,0.22,0.546,0.329,0.951,0.329c0.848,0,1.279-0.445,1.291-1.337v-4.868h1.513
			V135.003z M59.566,137.501l-1.408-2.563l-1.404,2.563h-1.754l2.187-3.689l-2.132-3.627h1.732l1.371,2.521l1.373-2.521h1.734
			l-2.131,3.627l2.186,3.689H59.566z M68.133,137.501h-1.572l-2.536-7.316h1.673l1.647,5.502l1.657-5.502h1.679L68.133,137.501z
			 M72.972,137.501h-1.506v-7.316h1.506V137.501z M79.962,134.014c0,0.679-0.14,1.284-0.418,1.812
			c-0.28,0.53-0.676,0.94-1.184,1.232c-0.51,0.291-1.086,0.437-1.725,0.442h-2.265v-7.316h2.251c0.642,0,1.218,0.145,1.724,0.435
			c0.51,0.288,0.905,0.7,1.191,1.235c0.283,0.535,0.425,1.143,0.425,1.821V134.014z M85.962,137.501H81.06v-7.316h4.893v1.219
			h-3.386v1.745h2.894v1.171h-2.894v1.97h3.396V137.501z M92.857,134.007c0,0.721-0.125,1.354-0.382,1.896
			c-0.254,0.542-0.617,0.96-1.092,1.256c-0.476,0.293-1.018,0.441-1.631,0.441c-0.608,0-1.146-0.146-1.622-0.438
			c-0.477-0.291-0.846-0.707-1.106-1.248s-0.395-1.164-0.397-1.867v-0.362c0-0.72,0.131-1.354,0.389-1.901
			c0.261-0.548,0.627-0.969,1.103-1.262c0.472-0.293,1.015-0.439,1.625-0.439s1.151,0.146,1.624,0.439
			c0.476,0.293,0.842,0.714,1.102,1.262c0.258,0.548,0.389,1.18,0.389,1.897V134.007z M95.738,132.731
			c0.242,0.16,0.594,0.311,1.06,0.451c0.858,0.26,1.482,0.578,1.874,0.961s0.59,0.857,0.59,1.428c0,0.633-0.241,1.129-0.72,1.49
			c-0.479,0.358-1.124,0.539-1.937,0.539c-0.561,0-1.073-0.103-1.536-0.308c-0.462-0.208-0.814-0.49-1.058-0.848
			c-0.244-0.358-0.365-0.774-0.365-1.247h1.513c0,0.808,0.481,1.211,1.446,1.211c0.359,0,0.639-0.072,0.841-0.218
			c0.199-0.146,0.302-0.349,0.302-0.61c0-0.285-0.103-0.504-0.302-0.656c-0.202-0.152-0.563-0.312-1.085-0.482
			c-0.522-0.169-0.938-0.336-1.242-0.5c-0.829-0.449-1.245-1.054-1.245-1.814c0-0.395,0.11-0.748,0.334-1.057
			c0.222-0.311,0.542-0.553,0.958-0.727c0.418-0.176,0.887-0.262,1.406-0.262c0.521,0,0.988,0.096,1.396,0.285
			c0.408,0.188,0.727,0.455,0.951,0.801c0.227,0.345,0.342,0.736,0.342,1.176h-1.509c0-0.336-0.107-0.596-0.317-0.781
			c-0.21-0.187-0.508-0.279-0.889-0.279c-0.367,0-0.654,0.078-0.86,0.233c-0.203,0.156-0.306,0.36-0.306,0.616
			C95.38,132.371,95.5,132.57,95.738,132.731z"/>
	</g>
	<g>
		<path fill="#FFFFFF" d="M52.87,36.535h-1.211v2.196h1.217c0.379,0,0.67-0.096,0.879-0.289c0.208-0.192,0.312-0.458,0.312-0.797
			c0-0.345-0.099-0.617-0.294-0.814C53.575,36.634,53.277,36.535,52.87,36.535z"/>
		<polygon fill="#FFFFFF" points="25.696,39.902 27.525,39.902 26.604,37.163 		"/>
		<polygon fill="#FFFFFF" points="58.615,39.902 60.444,39.902 59.526,37.163 		"/>
		<path fill="#FFFFFF" d="M20.042,31.12v15.437h71.922V31.12H20.042z M28.439,42.63l-0.509-1.507h-2.644l-0.502,1.507h-1.602
			l2.725-7.316h1.396l2.737,7.316H28.439z M32.511,37.862c0.24,0.161,0.592,0.311,1.059,0.452c0.856,0.258,1.482,0.578,1.875,0.959
			c0.392,0.383,0.586,0.858,0.586,1.427c0,0.633-0.238,1.129-0.717,1.491c-0.48,0.359-1.125,0.54-1.937,0.54
			c-0.562,0-1.075-0.104-1.536-0.309c-0.463-0.207-0.814-0.489-1.06-0.848c-0.242-0.358-0.362-0.773-0.362-1.246h1.512
			c0,0.808,0.482,1.211,1.446,1.211c0.36,0,0.64-0.073,0.841-0.219c0.202-0.146,0.301-0.349,0.301-0.61
			c0-0.285-0.099-0.503-0.301-0.656c-0.201-0.152-0.563-0.313-1.086-0.482c-0.521-0.169-0.936-0.335-1.24-0.5
			c-0.831-0.449-1.247-1.054-1.247-1.814c0-0.396,0.112-0.748,0.333-1.058c0.225-0.31,0.544-0.551,0.959-0.727
			c0.419-0.174,0.888-0.261,1.407-0.261c0.522,0,0.987,0.094,1.396,0.284c0.407,0.189,0.727,0.456,0.952,0.802
			c0.226,0.345,0.338,0.737,0.338,1.175h-1.507c0-0.335-0.104-0.596-0.315-0.781c-0.212-0.187-0.508-0.279-0.891-0.279
			c-0.368,0-0.654,0.079-0.857,0.233c-0.207,0.157-0.309,0.362-0.309,0.616C32.152,37.501,32.273,37.7,32.511,37.862z
			 M38.838,37.862c0.241,0.161,0.593,0.311,1.059,0.452c0.858,0.258,1.481,0.578,1.874,0.959c0.392,0.383,0.59,0.858,0.59,1.427
			c0,0.633-0.242,1.129-0.722,1.491c-0.477,0.359-1.123,0.54-1.935,0.54c-0.562,0-1.073-0.104-1.537-0.309
			c-0.462-0.207-0.814-0.489-1.057-0.848c-0.244-0.358-0.365-0.773-0.365-1.246h1.513c0,0.808,0.481,1.211,1.446,1.211
			c0.358,0,0.639-0.073,0.84-0.219c0.2-0.146,0.301-0.349,0.301-0.61c0-0.285-0.101-0.503-0.301-0.656
			c-0.201-0.152-0.562-0.313-1.085-0.482c-0.523-0.169-0.937-0.335-1.24-0.5c-0.832-0.449-1.247-1.054-1.247-1.814
			c0-0.396,0.11-0.748,0.335-1.058c0.222-0.31,0.542-0.551,0.959-0.727c0.418-0.174,0.886-0.261,1.403-0.261
			c0.523,0,0.99,0.094,1.398,0.284c0.407,0.189,0.726,0.456,0.951,0.802c0.227,0.345,0.342,0.737,0.342,1.175h-1.51
			c0-0.335-0.106-0.596-0.316-0.781c-0.211-0.187-0.507-0.279-0.889-0.279c-0.37,0-0.655,0.079-0.86,0.233
			c-0.204,0.157-0.307,0.362-0.307,0.616C38.479,37.501,38.599,37.7,38.838,37.862z M48.915,40.133c0,0.8-0.248,1.433-0.751,1.899
			c-0.501,0.466-1.183,0.699-2.053,0.699c-0.854,0-1.532-0.227-2.034-0.679c-0.503-0.452-0.76-1.074-0.77-1.865v-4.874h1.507v4.83
			c0,0.478,0.115,0.828,0.345,1.047c0.23,0.219,0.547,0.329,0.952,0.329c0.848,0,1.278-0.446,1.292-1.336v-4.869h1.512V40.133z
			 M55.851,42.63h-1.619l-1.37-2.679h-1.202v2.679h-1.506v-7.316h2.717c0.865,0,1.53,0.192,2,0.578
			c0.468,0.385,0.704,0.93,0.704,1.633c0,0.5-0.11,0.916-0.323,1.25c-0.217,0.333-0.546,0.598-0.983,0.795l1.583,2.99V42.63z
			 M61.358,42.63l-0.505-1.507h-2.645l-0.502,1.507h-1.604l2.723-7.316h1.398l2.739,7.316H61.358z M69.595,42.63h-1.508
			l-2.936-4.814v4.814h-1.507v-7.316h1.507l2.94,4.824v-4.824h1.503V42.63z M72.576,40.952c0.239,0.365,0.618,0.547,1.133,0.547
			c0.468,0,0.813-0.106,1.044-0.319c0.229-0.212,0.36-0.541,0.395-0.987h1.506c-0.055,0.787-0.347,1.407-0.871,1.859
			c-0.523,0.452-1.215,0.679-2.073,0.679c-0.938,0-1.676-0.316-2.212-0.948c-0.539-0.631-0.807-1.498-0.807-2.6v-0.448
			c0-0.703,0.123-1.323,0.372-1.859c0.246-0.537,0.602-0.946,1.062-1.234c0.46-0.286,0.997-0.43,1.604-0.43
			c0.846,0,1.524,0.226,2.042,0.678c0.516,0.453,0.812,1.087,0.894,1.905h-1.507c-0.038-0.472-0.169-0.814-0.395-1.028
			c-0.227-0.213-0.57-0.319-1.034-0.319c-0.501,0-0.878,0.181-1.128,0.54c-0.248,0.361-0.378,0.919-0.383,1.677v0.552
			C72.218,40.009,72.337,40.586,72.576,40.952z M82.549,42.63h-4.903v-7.316h4.894v1.221h-3.388v1.744h2.896v1.171h-2.896v1.97
			h3.397V42.63z M85.218,37.862c0.241,0.161,0.594,0.311,1.06,0.452c0.858,0.258,1.482,0.578,1.874,0.959
			c0.392,0.383,0.589,0.858,0.589,1.427c0,0.633-0.239,1.129-0.72,1.491c-0.477,0.359-1.123,0.54-1.934,0.54
			c-0.563,0-1.075-0.104-1.538-0.309c-0.462-0.207-0.815-0.489-1.058-0.848c-0.243-0.358-0.364-0.773-0.364-1.246h1.513
			c0,0.808,0.482,1.211,1.447,1.211c0.357,0,0.639-0.073,0.838-0.219c0.201-0.146,0.303-0.349,0.303-0.61
			c0-0.285-0.102-0.503-0.303-0.656c-0.199-0.152-0.562-0.313-1.086-0.482c-0.521-0.169-0.936-0.335-1.238-0.5
			c-0.832-0.449-1.247-1.054-1.247-1.814c0-0.396,0.109-0.748,0.334-1.058c0.223-0.31,0.544-0.551,0.959-0.727
			c0.417-0.174,0.887-0.261,1.405-0.261c0.521,0,0.988,0.094,1.396,0.284c0.409,0.189,0.727,0.456,0.952,0.802
			c0.226,0.345,0.34,0.737,0.34,1.175h-1.509c0-0.335-0.105-0.596-0.316-0.781c-0.211-0.187-0.506-0.279-0.889-0.279
			c-0.369,0-0.654,0.079-0.859,0.233c-0.204,0.157-0.307,0.362-0.307,0.616C84.861,37.501,84.98,37.7,85.218,37.862z"/>
	</g>
	<g>
		<path fill="#FFFFFF" d="M92.425,10.682h-1.209v2.195h1.217c0.378,0,0.67-0.097,0.877-0.289c0.209-0.193,0.312-0.458,0.312-0.796
			c0-0.345-0.098-0.617-0.293-0.813C93.132,10.78,92.832,10.682,92.425,10.682z"/>
		<path fill="#FFFFFF" d="M60.33,5.383v15.436h60.279V5.383H60.33z M69.296,16.777h-4.904V9.459h4.896v1.223H65.9v1.743h2.895v1.171
			H65.9v1.97h3.396V16.777z M75.79,10.682h-2.243v6.095H72.04v-6.095h-2.211V9.459h5.961V10.682z M82.603,16.777h-1.507v-3.136
			h-2.941v3.136h-1.508V9.459h1.508v2.965h2.941V9.459h1.507V16.777z M88.824,16.777h-4.905V9.459h4.896v1.223h-3.387v1.743h2.894
			v1.171h-2.894v1.97h3.396V16.777z M95.407,16.777h-1.619l-1.372-2.679h-1.2v2.679h-1.508V9.459h2.717
			c0.865,0,1.532,0.193,2.002,0.579c0.469,0.385,0.702,0.929,0.702,1.633c0,0.5-0.106,0.915-0.323,1.248
			c-0.217,0.334-0.544,0.599-0.981,0.797l1.583,2.991V16.777z M101.181,16.777h-4.905V9.459h4.893v1.223h-3.384v1.743h2.894v1.171
			h-2.894v1.97h3.396V16.777z M107.602,14.279c0,0.801-0.249,1.435-0.75,1.9c-0.501,0.465-1.186,0.698-2.054,0.698
			c-0.854,0-1.532-0.226-2.034-0.678c-0.503-0.452-0.759-1.073-0.771-1.864V9.459h1.508v4.831c0,0.479,0.114,0.828,0.345,1.047
			c0.23,0.22,0.548,0.329,0.952,0.329c0.848,0,1.278-0.445,1.292-1.337v-4.87h1.512V14.279z M116.536,16.777h-1.511v-2l0.149-3.453
			l-1.976,5.453h-1.035l-1.97-5.448l0.15,3.448v2h-1.507V9.459h1.97l1.88,5.307l1.868-5.307h1.98V16.777z"/>
	</g>
	<g>
		<path fill="#FFFFFF" d="M190.08,136.997h-0.743v4.884h0.729c0.591,0,1.039-0.193,1.352-0.578s0.47-0.936,0.478-1.653v-0.387
			c0-0.744-0.153-1.308-0.462-1.691C191.123,137.188,190.675,136.997,190.08,136.997z"/>
		<path fill="#FFFFFF" d="M172.619,136.997h-1.214v2.195h1.218c0.378,0,0.671-0.097,0.879-0.289
			c0.209-0.192,0.312-0.457,0.312-0.797c0-0.344-0.098-0.615-0.294-0.813C173.325,137.095,173.024,136.997,172.619,136.997z"/>
		<path fill="#FFFFFF" d="M210.036,136.997h-1.213v2.195h1.218c0.378,0,0.671-0.097,0.878-0.289c0.21-0.192,0.312-0.457,0.312-0.797
			c0-0.344-0.099-0.615-0.295-0.813C210.741,137.095,210.441,136.997,210.036,136.997z"/>
		<path fill="#FFFFFF" d="M160.362,136.997h-1.38v2.296h1.345c0.399,0,0.703-0.093,0.913-0.282c0.209-0.188,0.313-0.454,0.313-0.803
			c0-0.359-0.106-0.648-0.317-0.87S160.733,137.003,160.362,136.997z"/>
		<path fill="#FFFFFF" d="M139.741,131.33v15.438h76.764V131.33H139.741z M149.935,143.092h-1.508v-3.136h-2.94v3.136h-1.507v-7.315
			h1.507v2.963h2.94v-2.963h1.508V143.092z M154.402,140.438v2.653h-1.532v-2.653l-2.401-4.662h1.651l1.515,3.295l1.522-3.295h1.646
			L154.402,140.438z M162.338,139.894c-0.489,0.414-1.17,0.621-2.038,0.621h-1.318v2.577h-1.51v-7.315h2.854
			c0.551,0,1.032,0.1,1.449,0.301c0.419,0.201,0.738,0.486,0.964,0.857c0.223,0.369,0.336,0.791,0.336,1.264
			C163.075,138.914,162.828,139.479,162.338,139.894z M169.014,143.092h-4.903v-7.315h4.894v1.221h-3.386v1.742h2.894v1.172h-2.894
			v1.97h3.396V143.092z M175.599,143.092h-1.617l-1.374-2.679h-1.202v2.679H169.9v-7.315h2.72c0.864,0,1.529,0.191,1.998,0.576
			c0.47,0.386,0.704,0.93,0.704,1.634c0,0.5-0.107,0.915-0.324,1.249c-0.215,0.333-0.544,0.598-0.982,0.796l1.584,2.99V143.092z
			 M181.176,143.092h-4.708v-7.315h1.508v6.104h3.2V143.092z M186.946,143.092h-4.905v-7.315h4.895v1.221h-3.386v1.742h2.892v1.172
			h-2.892v1.97h3.396V143.092z M193.422,139.604c0,0.681-0.14,1.285-0.419,1.814s-0.675,0.938-1.184,1.23
			c-0.511,0.291-1.082,0.439-1.725,0.442h-2.266v-7.315h2.251c0.644,0,1.219,0.145,1.727,0.434c0.507,0.29,0.902,0.701,1.188,1.236
			c0.285,0.535,0.427,1.143,0.427,1.821V139.604z M196.306,141.394c0.292,0.392,0.72,0.588,1.282,0.588
			c0.565,0,0.97-0.121,1.212-0.361v-1.262h-1.372v-1.111h2.879v2.92c-0.272,0.324-0.655,0.577-1.15,0.758
			c-0.498,0.178-1.046,0.268-1.649,0.268c-0.632,0-1.188-0.139-1.666-0.415c-0.478-0.274-0.845-0.677-1.104-1.202
			c-0.26-0.526-0.395-1.145-0.4-1.855v-0.496c0-0.732,0.123-1.363,0.368-1.898c0.247-0.535,0.602-0.943,1.065-1.226
			c0.465-0.284,1.009-0.425,1.632-0.425c0.867,0,1.545,0.206,2.037,0.621c0.487,0.414,0.775,1.016,0.867,1.806h-1.468
			c-0.067-0.418-0.217-0.726-0.445-0.919s-0.543-0.291-0.945-0.291c-0.513,0-0.903,0.191-1.174,0.578
			c-0.267,0.385-0.402,0.957-0.404,1.717v0.469C195.87,140.421,196.015,141.001,196.306,141.394z M206.434,143.092h-4.905v-7.315
			h4.894v1.221h-3.387v1.742h2.896v1.172h-2.896v1.97h3.398V143.092z M213.016,143.092h-1.618l-1.372-2.679h-1.202v2.679h-1.506
			v-7.315h2.719c0.863,0,1.528,0.191,1.998,0.576c0.471,0.386,0.704,0.93,0.704,1.634c0,0.5-0.106,0.915-0.325,1.249
			c-0.215,0.333-0.542,0.598-0.981,0.796l1.584,2.99V143.092z"/>
	</g>
	<g>
		<path fill="#FFFFFF" d="M14.851,91.656v15.437h49.252V91.656H14.851z M25.018,102.497c-0.45,0.362-1.088,0.546-1.918,0.553h-2.845
			v-7.316h2.562c0.887,0,1.56,0.172,2.021,0.511c0.458,0.339,0.687,0.839,0.687,1.495c0,0.357-0.092,0.673-0.276,0.947
			c-0.183,0.273-0.439,0.473-0.769,0.6c0.375,0.094,0.672,0.283,0.888,0.568c0.216,0.284,0.323,0.633,0.323,1.045
			C25.691,101.603,25.467,102.136,25.018,102.497z M28.426,103.05h-1.508v-7.316h1.508V103.05z M35.183,96.954h-2.241v6.096h-1.508
			v-6.096h-2.209v-1.221h5.958V96.954z M37.569,101.372c0.239,0.365,0.618,0.547,1.132,0.547c0.467,0,0.814-0.105,1.044-0.318
			s0.361-0.543,0.395-0.988h1.507c-0.059,0.787-0.349,1.408-0.873,1.86c-0.521,0.452-1.214,0.679-2.072,0.679
			c-0.937,0-1.675-0.316-2.212-0.948c-0.54-0.631-0.806-1.497-0.806-2.601v-0.447c0-0.703,0.121-1.323,0.371-1.858
			c0.248-0.536,0.602-0.948,1.061-1.233c0.462-0.287,0.996-0.43,1.605-0.43c0.845,0,1.526,0.227,2.04,0.678
			c0.519,0.453,0.815,1.088,0.896,1.904h-1.508c-0.037-0.473-0.169-0.814-0.395-1.027c-0.227-0.213-0.571-0.319-1.034-0.319
			c-0.502,0-0.877,0.181-1.127,0.54s-0.377,0.919-0.384,1.676v0.554C37.209,100.429,37.328,101.007,37.569,101.372z M48.647,99.558
			c0,0.721-0.129,1.352-0.382,1.895c-0.256,0.542-0.619,0.962-1.094,1.256c-0.475,0.295-1.018,0.443-1.631,0.443
			c-0.605,0-1.147-0.146-1.624-0.438c-0.476-0.291-0.845-0.707-1.104-1.249c-0.261-0.542-0.393-1.163-0.397-1.866v-0.361
			c0-0.722,0.13-1.355,0.39-1.902c0.26-0.548,0.626-0.969,1.102-1.262c0.474-0.295,1.016-0.439,1.625-0.439
			c0.61,0,1.15,0.145,1.626,0.439c0.474,0.293,0.84,0.714,1.099,1.262c0.261,0.547,0.392,1.18,0.392,1.896V99.558z M51.344,103.05
			h-1.508v-7.316h1.508V103.05z M58.691,103.05h-1.508l-2.935-4.814v4.814H52.74v-7.316h1.508l2.94,4.824v-4.824h1.502V103.05z"/>
		<path fill="#FFFFFF" d="M45.531,96.879c-0.506,0-0.896,0.196-1.172,0.591c-0.274,0.395-0.413,0.971-0.416,1.731v0.356
			c0,0.747,0.138,1.327,0.413,1.739c0.273,0.413,0.669,0.618,1.185,0.618c0.506,0,0.895-0.199,1.166-0.596s0.408-0.976,0.412-1.736
			v-0.356c0-0.768-0.138-1.351-0.412-1.749S46.038,96.879,45.531,96.879z"/>
		<path fill="#FFFFFF" d="M24.017,97.89c0-0.332-0.094-0.57-0.288-0.716c-0.193-0.146-0.496-0.22-0.911-0.22h-1.057v1.845h1.117
			C23.638,98.786,24.017,98.482,24.017,97.89z"/>
		<path fill="#FFFFFF" d="M23.142,99.864h-1.381v1.976h1.292c0.354,0,0.634-0.085,0.831-0.255c0.199-0.169,0.301-0.402,0.301-0.7
			C24.185,100.214,23.837,99.874,23.142,99.864z"/>
	</g>
</g>
</svg>
