<?xml version="1.0" encoding="utf-8"?>
<!-- Generator: Adobe Illustrator 16.0.0, SVG Export Plug-In . SVG Version: 6.00 Build 0)  -->
<!DOCTYPE svg PUBLIC "-//W3C//DTD SVG 1.1//EN" "http://www.w3.org/Graphics/SVG/1.1/DTD/svg11.dtd">
<svg version="1.1" id="Layer_1" xmlns="http://www.w3.org/2000/svg" xmlns:xlink="http://www.w3.org/1999/xlink" x="0px" y="0px"
	 width="602px" height="175.901px" viewBox="-258.55 -31.385 602 175.901" enable-background="new -258.55 -31.385 602 175.901"
	 xml:space="preserve">
<g id="Layer_1_1_">
</g>
<g>
	<g>
		<polygon points="171.314,34.06 173.802,34.06 172.551,30.334 		"/>
		<path d="M191.965,29.377c-0.688,0-1.219,0.268-1.592,0.803c-0.375,0.536-0.562,1.321-0.568,2.355v0.485
			c0,1.017,0.188,1.805,0.561,2.365c0.375,0.561,0.912,0.841,1.613,0.841c0.689,0,1.217-0.27,1.586-0.811
			c0.369-0.539,0.557-1.327,0.561-2.361V32.57c0-1.044-0.186-1.837-0.561-2.379C193.191,29.649,192.658,29.377,191.965,29.377z"/>
		<path d="M163.732,33.438h-1.879v2.687h1.756c0.484,0,0.861-0.115,1.133-0.345c0.27-0.23,0.406-0.549,0.406-0.954
			C165.148,33.914,164.676,33.451,163.732,33.438z"/>
		<path d="M164.922,30.751c0-0.451-0.131-0.776-0.393-0.974c-0.262-0.199-0.676-0.298-1.24-0.298h-1.436v2.509h1.518
			C164.404,31.97,164.922,31.558,164.922,30.751z"/>
		<path d="M154.715,22.772v21h71.5v-21H154.715z M166.283,37.02c-0.611,0.492-1.482,0.743-2.611,0.752h-3.869v-9.953
			h3.486c1.207,0,2.123,0.231,2.748,0.693c0.623,0.463,0.936,1.141,0.936,2.034c0,0.487-0.125,0.917-0.375,1.288
			c-0.252,0.372-0.6,0.645-1.047,0.817c0.512,0.128,0.914,0.385,1.207,0.772c0.295,0.388,0.441,0.861,0.441,1.422
			C167.199,35.803,166.892,36.528,166.283,37.02z M175.047,37.772l-0.691-2.051h-3.596l-0.684,2.051h-2.18l3.705-9.953h1.9
			l3.725,9.953H175.047z M186.25,37.772h-2.051l-3.992-6.549v6.549h-2.051v-9.953h2.051l4,6.562v-6.562h2.043V37.772z
			 M196.203,33.021c0,0.93-0.15,1.737-0.451,2.423c-0.301,0.687-0.717,1.236-1.25,1.651l1.654,1.299l-1.307,1.155l-2.119-1.702
			c-0.24,0.041-0.492,0.062-0.752,0.062c-0.824,0-1.561-0.198-2.207-0.595c-0.648-0.396-1.148-0.963-1.504-1.698
			c-0.355-0.736-0.535-1.583-0.541-2.54v-0.492c0-0.979,0.178-1.843,0.529-2.587c0.354-0.746,0.854-1.317,1.498-1.717
			c0.645-0.398,1.383-0.598,2.211-0.598c0.83,0,1.566,0.199,2.211,0.598c0.646,0.399,1.145,0.971,1.498,1.717
			c0.354,0.744,0.529,1.604,0.529,2.58V33.021z M205.24,34.374c0,1.089-0.34,1.95-1.021,2.584s-1.611,0.95-2.793,0.95
			c-1.162,0-2.084-0.308-2.768-0.923s-1.033-1.461-1.047-2.536v-6.631h2.051v6.569c0,0.651,0.156,1.127,0.469,1.425
			c0.312,0.299,0.744,0.448,1.295,0.448c1.154,0,1.738-0.606,1.758-1.818v-6.624h2.057V34.374z M213.594,37.772h-6.672v-9.953h6.658
			v1.661h-4.607v2.372h3.938v1.593h-3.938v2.68h4.621V37.772z M217.226,31.284c0.326,0.219,0.807,0.424,1.439,0.615
			c1.168,0.351,2.018,0.786,2.551,1.306s0.799,1.167,0.799,1.941c0,0.861-0.326,1.537-0.977,2.027
			c-0.652,0.489-1.529,0.734-2.633,0.734c-0.766,0-1.463-0.141-2.092-0.42c-0.629-0.281-1.107-0.665-1.439-1.152
			c-0.33-0.487-0.494-1.053-0.494-1.695h2.057c0,1.099,0.656,1.647,1.969,1.647c0.488,0,0.869-0.099,1.143-0.298
			c0.273-0.197,0.41-0.475,0.41-0.83c0-0.388-0.137-0.685-0.41-0.893c-0.273-0.207-0.766-0.426-1.477-0.656
			c-0.711-0.229-1.273-0.456-1.689-0.68c-1.129-0.61-1.695-1.434-1.695-2.468c0-0.538,0.152-1.018,0.455-1.438
			c0.303-0.422,0.738-0.751,1.305-0.988c0.568-0.237,1.205-0.355,1.912-0.355c0.711,0,1.344,0.129,1.9,0.387
			c0.555,0.257,0.986,0.62,1.295,1.09c0.307,0.47,0.461,1.003,0.461,1.6h-2.051c0-0.456-0.143-0.811-0.43-1.062
			c-0.287-0.254-0.691-0.38-1.211-0.38c-0.5,0-0.891,0.106-1.168,0.317c-0.279,0.213-0.418,0.491-0.418,0.838
			C216.738,30.794,216.902,31.066,217.226,31.284z"/>
	</g>
	<g>
		<path d="M311.662,52.379c-0.688,0-1.219,0.268-1.593,0.803c-0.374,0.536-0.562,1.321-0.567,2.355v0.485
			c0,1.017,0.187,1.805,0.561,2.365s0.911,0.841,1.613,0.841c0.688,0,1.217-0.27,1.586-0.811c0.369-0.539,0.556-1.327,0.561-2.361
			v-0.485c0-1.044-0.187-1.837-0.561-2.379S312.354,52.379,311.662,52.379z"/>
		<path d="M294.852,52.379c-0.688,0-1.219,0.268-1.593,0.803c-0.374,0.536-0.562,1.321-0.567,2.355v0.485
			c0,1.017,0.187,1.805,0.561,2.365s0.911,0.841,1.613,0.841c0.688,0,1.217-0.27,1.586-0.811c0.369-0.539,0.556-1.327,0.561-2.361
			v-0.485c0-1.044-0.187-1.837-0.561-2.379S295.545,52.379,294.852,52.379z"/>
		<path d="M271.945,52.379c-0.688,0-1.219,0.268-1.593,0.803c-0.374,0.536-0.562,1.321-0.567,2.355v0.485
			c0,1.017,0.187,1.805,0.561,2.365s0.911,0.841,1.613,0.841c0.688,0,1.217-0.27,1.586-0.811c0.369-0.539,0.556-1.327,0.561-2.361
			v-0.485c0-1.044-0.187-1.837-0.561-2.379S272.637,52.379,271.945,52.379z"/>
		<path d="M254.253,45.297v21h88.214v-21H254.253z M261.831,54.286c0.326,0.219,0.806,0.424,1.439,0.615
			c1.167,0.351,2.017,0.786,2.55,1.306s0.8,1.167,0.8,1.941c0,0.861-0.326,1.537-0.978,2.027c-0.651,0.489-1.529,0.734-2.632,0.734
			c-0.766,0-1.463-0.141-2.092-0.42c-0.629-0.281-1.108-0.665-1.439-1.152c-0.33-0.487-0.495-1.053-0.495-1.695h2.058
			c0,1.099,0.656,1.647,1.969,1.647c0.487,0,0.868-0.099,1.142-0.298c0.273-0.197,0.41-0.475,0.41-0.83
			c0-0.388-0.137-0.685-0.41-0.893c-0.273-0.207-0.766-0.426-1.477-0.656c-0.711-0.229-1.273-0.456-1.688-0.68
			c-1.13-0.61-1.695-1.434-1.695-2.468c0-0.538,0.151-1.018,0.455-1.438c0.303-0.422,0.738-0.751,1.305-0.988
			c0.568-0.237,1.205-0.355,1.911-0.355c0.711,0,1.345,0.129,1.9,0.387c0.556,0.257,0.987,0.62,1.296,1.09
			c0.307,0.47,0.461,1.003,0.461,1.6h-2.051c0-0.456-0.144-0.811-0.431-1.062c-0.287-0.254-0.69-0.38-1.21-0.38
			c-0.501,0-0.891,0.106-1.169,0.317c-0.278,0.213-0.417,0.491-0.417,0.838C261.343,53.796,261.506,54.067,261.831,54.286z
			 M276.183,56.022c0,0.979-0.173,1.839-0.52,2.577s-0.842,1.308-1.486,1.709c-0.646,0.401-1.385,0.602-2.219,0.602
			c-0.825,0-1.561-0.198-2.208-0.595s-1.148-0.963-1.504-1.698c-0.355-0.736-0.535-1.583-0.54-2.54v-0.492
			c0-0.979,0.177-1.843,0.529-2.587c0.354-0.746,0.853-1.317,1.498-1.717c0.645-0.398,1.382-0.598,2.211-0.598
			s1.566,0.199,2.211,0.598c0.646,0.399,1.145,0.971,1.498,1.717c0.353,0.744,0.529,1.604,0.529,2.58V56.022z M279.939,58.49
			c0.326,0.497,0.84,0.745,1.542,0.745c0.634,0,1.106-0.145,1.419-0.435c0.312-0.289,0.49-0.736,0.536-1.343h2.051
			c-0.077,1.071-0.473,1.914-1.187,2.529c-0.713,0.615-1.652,0.923-2.819,0.923c-1.276,0-2.28-0.43-3.011-1.289
			c-0.732-0.858-1.098-2.038-1.098-3.537v-0.608c0-0.957,0.169-1.8,0.506-2.529s0.819-1.288,1.445-1.679
			c0.627-0.389,1.355-0.584,2.185-0.584c1.148,0,2.073,0.308,2.775,0.923s1.107,1.479,1.217,2.591h-2.051
			c-0.05-0.643-0.229-1.108-0.536-1.398c-0.309-0.289-0.776-0.434-1.405-0.434c-0.684,0-1.195,0.245-1.534,0.734
			c-0.34,0.49-0.515,1.25-0.523,2.28v0.752C279.451,57.207,279.614,57.993,279.939,58.49z M289.014,60.773h-2.051V50.82h2.051
			V60.773z M299.091,56.022c0,0.979-0.173,1.839-0.52,2.577s-0.842,1.308-1.486,1.709c-0.646,0.401-1.385,0.602-2.219,0.602
			c-0.825,0-1.561-0.198-2.208-0.595s-1.148-0.963-1.504-1.698c-0.355-0.736-0.535-1.583-0.54-2.54v-0.492
			c0-0.979,0.177-1.843,0.529-2.587c0.354-0.746,0.853-1.317,1.498-1.717c0.645-0.398,1.382-0.598,2.211-0.598
			s1.566,0.199,2.211,0.598c0.646,0.399,1.145,0.971,1.498,1.717c0.353,0.744,0.529,1.604,0.529,2.58V56.022z M306.986,60.773
			h-6.405V50.82h2.051v8.306h4.354V60.773z M315.9,56.022c0,0.979-0.173,1.839-0.52,2.577s-0.842,1.308-1.486,1.709
			c-0.646,0.401-1.385,0.602-2.219,0.602c-0.825,0-1.561-0.198-2.208-0.595s-1.148-0.963-1.504-1.698
			c-0.355-0.736-0.535-1.583-0.54-2.54v-0.492c0-0.979,0.177-1.843,0.529-2.587c0.354-0.746,0.853-1.317,1.498-1.717
			c0.645-0.398,1.382-0.598,2.211-0.598s1.566,0.199,2.211,0.598c0.646,0.399,1.145,0.971,1.498,1.717
			c0.353,0.744,0.529,1.604,0.529,2.58V56.022z M319.824,58.463c0.396,0.533,0.978,0.8,1.743,0.8c0.771,0,1.319-0.164,1.647-0.492
			v-1.716h-1.866v-1.511h3.917v3.972c-0.369,0.442-0.891,0.785-1.565,1.029c-0.675,0.243-1.422,0.365-2.242,0.365
			c-0.861,0-1.616-0.188-2.267-0.564c-0.648-0.375-1.15-0.921-1.504-1.637c-0.353-0.716-0.534-1.557-0.543-2.522V55.51
			c0-0.993,0.168-1.854,0.502-2.58c0.336-0.728,0.818-1.283,1.449-1.668c0.632-0.386,1.371-0.578,2.219-0.578
			c1.181,0,2.104,0.281,2.769,0.844c0.665,0.563,1.06,1.383,1.183,2.458h-1.996c-0.091-0.569-0.293-0.986-0.605-1.251
			c-0.312-0.265-0.741-0.396-1.288-0.396c-0.697,0-1.229,0.262-1.593,0.786s-0.549,1.304-0.554,2.338v0.636
			C319.229,57.141,319.427,57.929,319.824,58.463z M329.107,60.773h-2.051V50.82h2.051V60.773z M337.679,60.773h-6.672V50.82h6.658
			v1.661h-4.607v2.372h3.938v1.593h-3.938v2.68h4.621V60.773z"/>
	</g>
	<g>
		<path d="M124.907-16.203h-1.012v6.645h0.99c0.803,0,1.416-0.262,1.84-0.786s0.641-1.273,0.648-2.249v-0.526
			c0-1.012-0.209-1.778-0.629-2.301C126.327-15.942,125.714-16.203,124.907-16.203z"/>
		<path d="M115.173-23.387v21h60.543v-21H115.173z M129.452-12.655c0,0.925-0.189,1.748-0.57,2.468
			s-0.918,1.278-1.609,1.675c-0.693,0.396-1.475,0.597-2.346,0.602h-3.082v-9.953h3.062c0.875,0,1.658,0.197,2.348,0.592
			c0.691,0.394,1.229,0.954,1.617,1.682c0.387,0.727,0.58,1.553,0.58,2.478V-12.655z M137.614-7.911h-6.672v-9.953h6.658v1.661
			h-4.607v2.372h3.938v1.593h-3.938v2.68h4.621V-7.911z M141.247-14.398c0.326,0.219,0.807,0.424,1.439,0.615
			c1.168,0.351,2.018,0.786,2.551,1.306s0.799,1.167,0.799,1.941c0,0.861-0.326,1.537-0.977,2.027
			c-0.652,0.489-1.529,0.734-2.633,0.734c-0.766,0-1.463-0.141-2.092-0.42c-0.629-0.281-1.107-0.665-1.439-1.152
			c-0.33-0.487-0.494-1.053-0.494-1.695h2.057c0,1.099,0.656,1.647,1.969,1.647c0.488,0,0.869-0.099,1.143-0.298
			c0.273-0.197,0.41-0.475,0.41-0.83c0-0.388-0.137-0.685-0.41-0.893c-0.273-0.207-0.766-0.426-1.477-0.656
			c-0.711-0.229-1.273-0.456-1.689-0.68c-1.129-0.61-1.695-1.434-1.695-2.468c0-0.538,0.152-1.018,0.455-1.438
			c0.303-0.422,0.738-0.751,1.305-0.988c0.568-0.237,1.205-0.355,1.912-0.355c0.711,0,1.344,0.129,1.9,0.387
			c0.555,0.257,0.986,0.62,1.295,1.09c0.307,0.47,0.461,1.003,0.461,1.6h-2.051c0-0.456-0.143-0.811-0.43-1.062
			c-0.287-0.254-0.691-0.38-1.211-0.38c-0.5,0-0.891,0.106-1.168,0.317c-0.279,0.213-0.418,0.491-0.418,0.838
			C140.759-14.888,140.923-14.617,141.247-14.398z M149.604-7.911h-2.051v-9.953h2.051V-7.911z M153.938-10.221
			c0.396,0.533,0.979,0.8,1.744,0.8c0.77,0,1.318-0.164,1.646-0.492v-1.716h-1.865v-1.511h3.916v3.972
			c-0.369,0.442-0.891,0.785-1.564,1.029c-0.676,0.243-1.422,0.365-2.242,0.365c-0.861,0-1.617-0.188-2.268-0.564
			c-0.648-0.375-1.15-0.921-1.504-1.637c-0.352-0.716-0.533-1.557-0.543-2.522v-0.677c0-0.993,0.168-1.854,0.502-2.58
			c0.336-0.728,0.818-1.283,1.449-1.668c0.633-0.386,1.371-0.578,2.219-0.578c1.182,0,2.104,0.281,2.77,0.844
			c0.664,0.563,1.059,1.383,1.182,2.458h-1.996c-0.09-0.569-0.293-0.986-0.605-1.251c-0.311-0.265-0.74-0.396-1.287-0.396
			c-0.697,0-1.229,0.262-1.594,0.786c-0.363,0.524-0.549,1.304-0.553,2.338v0.636C153.344-11.543,153.542-10.755,153.938-10.221z
			 M169.135-7.911h-2.051l-3.992-6.549v6.549h-2.051v-9.953h2.051l3.998,6.562v-6.562h2.045V-7.911z"/>
	</g>
	<g>
		<path d="M70.906,30.284H69.26v2.987h1.654c0.514,0,0.914-0.131,1.195-0.393c0.283-0.263,0.424-0.624,0.424-1.084
			c0-0.47-0.133-0.839-0.398-1.107C71.867,30.419,71.459,30.284,70.906,30.284z"/>
		<path d="M17.857,23.1v21H89.51v-21H17.857z M27.043,36.293c0.326,0.497,0.84,0.745,1.543,0.745
			c0.633,0,1.105-0.145,1.418-0.435c0.312-0.289,0.49-0.736,0.537-1.343h2.051c-0.078,1.071-0.473,1.914-1.188,2.529
			c-0.713,0.615-1.652,0.923-2.818,0.923c-1.277,0-2.281-0.43-3.012-1.289c-0.732-0.858-1.098-2.038-1.098-3.537v-0.608
			c0-0.957,0.17-1.8,0.506-2.529c0.338-0.729,0.82-1.288,1.445-1.679c0.627-0.389,1.355-0.584,2.186-0.584
			c1.148,0,2.072,0.308,2.775,0.923c0.701,0.615,1.107,1.479,1.217,2.591h-2.051c-0.051-0.643-0.23-1.108-0.537-1.398
			c-0.309-0.289-0.775-0.434-1.404-0.434c-0.684,0-1.195,0.245-1.535,0.734c-0.34,0.49-0.514,1.25-0.523,2.28v0.752
			C26.554,35.01,26.719,35.796,27.043,36.293z M41.47,35.179c0,1.089-0.34,1.95-1.021,2.584s-1.611,0.95-2.793,0.95
			c-1.162,0-2.084-0.308-2.768-0.923s-1.033-1.461-1.047-2.536v-6.631h2.051v6.569c0,0.651,0.156,1.127,0.469,1.425
			c0.312,0.299,0.744,0.448,1.295,0.448c1.154,0,1.738-0.606,1.758-1.818v-6.624h2.057V35.179z M49.558,38.576h-6.406v-9.953h2.051
			v8.306h4.355V38.576z M56.824,30.284h-3.049v8.292h-2.051v-8.292h-3.008v-1.661h8.107V30.284z M65.527,35.179
			c0,1.089-0.342,1.95-1.021,2.584c-0.682,0.634-1.613,0.95-2.793,0.95c-1.162,0-2.086-0.308-2.77-0.923s-1.031-1.461-1.045-2.536
			v-6.631h2.051v6.569c0,0.651,0.156,1.127,0.469,1.425c0.311,0.299,0.742,0.448,1.295,0.448c1.152,0,1.738-0.606,1.756-1.818
			v-6.624h2.059V35.179z M74.961,38.576H72.76l-1.867-3.644H69.26v3.644h-2.051v-9.953h3.697c1.176,0,2.084,0.262,2.721,0.786
			c0.639,0.524,0.957,1.265,0.957,2.222c0,0.679-0.146,1.245-0.439,1.699c-0.295,0.453-0.74,0.814-1.338,1.083l2.154,4.067V38.576z
			 M82.814,38.576h-6.672v-9.953h6.658v1.661h-4.607v2.372h3.938v1.593h-3.938v2.68h4.621V38.576z"/>
	</g>
	<g>
		<path d="M155.224,76.731c-0.688,0-1.219,0.268-1.592,0.803c-0.375,0.536-0.562,1.321-0.568,2.355v0.485
			c0,1.017,0.188,1.805,0.561,2.365c0.375,0.561,0.912,0.841,1.613,0.841c0.689,0,1.217-0.27,1.586-0.811
			c0.369-0.539,0.557-1.327,0.561-2.361v-0.485c0-1.044-0.186-1.837-0.561-2.379C156.451,77.002,155.918,76.731,155.224,76.731z"/>
		<path d="M105.535,76.833h-1.012v6.645h0.99c0.803,0,1.416-0.262,1.84-0.786s0.641-1.273,0.648-2.249v-0.526
			c0-1.012-0.209-1.778-0.629-2.301C106.955,77.094,106.342,76.833,105.535,76.833z"/>
		<polygon points="132.523,81.413 135.011,81.413 133.76,77.688 		"/>
		<path d="M86.357,69.373v21h89.973v-21H86.357z M98.445,72.486h2.154l-1.895,2.119h-1.605L98.445,72.486z
			 M101.269,85.125h-6.672v-9.953h6.658v1.661h-4.607v2.372h3.938v1.593h-3.938v2.68h4.621V85.125z M110.08,80.381
			c0,0.925-0.189,1.748-0.57,2.468s-0.918,1.278-1.609,1.675c-0.693,0.396-1.475,0.597-2.346,0.602h-3.082v-9.953h3.062
			c0.875,0,1.658,0.197,2.348,0.592c0.691,0.394,1.229,0.954,1.617,1.682c0.387,0.727,0.58,1.553,0.58,2.478V80.381z
			 M119.103,81.728c0,1.089-0.34,1.95-1.021,2.584s-1.611,0.95-2.793,0.95c-1.162,0-2.084-0.308-2.768-0.923
			s-1.033-1.461-1.047-2.536v-6.631h2.051v6.569c0,0.651,0.156,1.127,0.469,1.425c0.312,0.299,0.744,0.448,1.295,0.448
			c1.154,0,1.738-0.606,1.758-1.818v-6.624h2.057V81.728z M123.051,82.842c0.326,0.497,0.84,0.745,1.543,0.745
			c0.633,0,1.105-0.145,1.418-0.435c0.312-0.289,0.49-0.736,0.537-1.343h2.051c-0.078,1.071-0.473,1.914-1.188,2.529
			c-0.713,0.615-1.652,0.923-2.818,0.923c-1.277,0-2.281-0.43-3.012-1.289c-0.732-0.858-1.098-2.038-1.098-3.537v-0.608
			c0-0.957,0.17-1.8,0.506-2.529c0.338-0.729,0.82-1.288,1.445-1.679c0.627-0.389,1.355-0.584,2.186-0.584
			c1.148,0,2.072,0.308,2.775,0.923c0.701,0.615,1.107,1.479,1.217,2.591h-2.051c-0.051-0.643-0.23-1.108-0.537-1.398
			c-0.309-0.289-0.775-0.434-1.404-0.434c-0.684,0-1.195,0.245-1.535,0.734c-0.34,0.49-0.514,1.25-0.523,2.28v0.752
			C122.562,81.559,122.726,82.345,123.051,82.842z M136.256,85.125l-0.691-2.051h-3.596l-0.684,2.051h-2.18l3.705-9.953h1.9
			l3.725,9.953H136.256z M146.037,76.833h-3.049v8.292h-2.051v-8.292h-3.008v-1.661h8.107V76.833z M149.386,85.125h-2.051v-9.953
			h2.051V85.125z M159.463,80.374c0,0.979-0.172,1.839-0.52,2.577c-0.346,0.738-0.842,1.308-1.486,1.709s-1.385,0.602-2.219,0.602
			c-0.824,0-1.561-0.198-2.207-0.595c-0.648-0.396-1.148-0.963-1.504-1.698c-0.355-0.736-0.535-1.583-0.541-2.54v-0.492
			c0-0.979,0.178-1.843,0.529-2.587c0.354-0.746,0.854-1.317,1.498-1.717c0.645-0.398,1.383-0.598,2.211-0.598
			c0.83,0,1.566,0.199,2.211,0.598c0.646,0.399,1.145,0.971,1.498,1.717c0.354,0.744,0.529,1.604,0.529,2.58V80.374z
			 M169.047,85.125h-2.051l-3.992-6.549v6.549h-2.051v-9.953h2.051l4,6.562v-6.562h2.043V85.125z"/>
	</g>
	<g>
		<polygon points="116.91,135.624 119.398,135.624 118.148,131.899 		"/>
		<path d="M51.785,131.044h-1.012v6.645h0.99c0.803,0,1.416-0.262,1.84-0.786s0.641-1.273,0.648-2.249v-0.526
			c0-1.012-0.209-1.778-0.629-2.301C53.205,131.305,52.592,131.044,51.785,131.044z"/>
		<path d="M109.097,131.044h-1.648v2.987h1.654c0.516,0,0.914-0.131,1.197-0.393c0.281-0.263,0.424-0.624,0.424-1.084
			c0-0.47-0.135-0.839-0.4-1.107C110.056,131.179,109.648,131.044,109.097,131.044z"/>
		<polygon points="8.869,135.624 11.357,135.624 10.105,131.899 		"/>
		<polygon points="41.879,135.624 44.367,135.624 43.117,131.899 		"/>
		<path d="M29.978,132.781c0.268-0.173,0.455-0.342,0.557-0.506c0.104-0.164,0.154-0.36,0.154-0.588
			s-0.084-0.426-0.254-0.595c-0.168-0.169-0.385-0.253-0.648-0.253c-0.283,0-0.51,0.091-0.68,0.273
			c-0.172,0.183-0.258,0.424-0.258,0.725c0,0.342,0.201,0.772,0.602,1.292L29.978,132.781z"/>
		<path d="M28.816,135.323c-0.406,0.345-0.609,0.752-0.609,1.22c0,0.396,0.127,0.718,0.381,0.965
			c0.252,0.248,0.582,0.372,0.986,0.372c0.475,0,0.924-0.132,1.348-0.396l-1.963-2.264L28.816,135.323z"/>
		<path d="M139.613,130.942c-0.689,0-1.219,0.268-1.594,0.803c-0.373,0.536-0.562,1.321-0.566,2.355v0.485
			c0,1.017,0.186,1.805,0.561,2.365c0.373,0.561,0.91,0.841,1.613,0.841c0.688,0,1.217-0.27,1.586-0.811
			c0.369-0.539,0.555-1.327,0.561-2.361v-0.485c0-1.044-0.188-1.837-0.561-2.379C140.838,131.213,140.304,130.942,139.613,130.942z"
			/>
		<path d="M-15.99,123.516v21h183.238v-21H-15.99z M-5.713,126.697h2.154l-1.895,2.119h-1.605L-5.713,126.697z
			 M-2.889,139.336h-6.672v-9.953h6.658v1.661H-7.51v2.372h3.938v1.593H-7.51v2.68h4.621V139.336z M2.894,139.336H0.844v-8.292
			h-3.008v-1.661h8.107v1.661H2.894V139.336z M12.601,139.336l-0.691-2.051H8.314l-0.684,2.051h-2.18l3.705-9.953h1.9l3.725,9.953
			H12.601z M22.383,131.044h-3.049v8.292h-2.051v-8.292h-3.008v-1.661h8.107V131.044z M32.521,139.336l-0.514-0.588
			c-0.732,0.483-1.576,0.725-2.529,0.725c-0.984,0-1.771-0.259-2.365-0.775c-0.592-0.518-0.889-1.198-0.889-2.041
			c0-0.46,0.129-0.887,0.387-1.278s0.73-0.827,1.418-1.306c-0.295-0.396-0.527-0.77-0.697-1.117
			c-0.168-0.35-0.252-0.713-0.252-1.091c0-0.774,0.244-1.405,0.734-1.89c0.49-0.486,1.15-0.729,1.979-0.729
			c0.744,0,1.354,0.221,1.83,0.663c0.475,0.442,0.713,0.993,0.713,1.654c0,0.793-0.4,1.492-1.203,2.099l-0.766,0.554l1.717,1.996
			c0.268-0.528,0.402-1.112,0.402-1.75h1.682c0,1.294-0.299,2.343-0.895,3.145l1.49,1.729H32.521z M45.611,139.336l-0.689-2.051
			h-3.596l-0.684,2.051h-2.182l3.705-9.953h1.9l3.727,9.953H45.611z M56.33,134.592c0,0.925-0.189,1.748-0.57,2.468
			s-0.918,1.278-1.609,1.675c-0.693,0.396-1.475,0.597-2.346,0.602h-3.082v-9.953h3.062c0.875,0,1.658,0.197,2.348,0.592
			c0.691,0.394,1.229,0.954,1.617,1.682c0.387,0.727,0.58,1.553,0.58,2.478V134.592z M68.293,139.336h-2.057v-2.721l0.205-4.696
			l-2.688,7.417h-1.408l-2.68-7.41l0.205,4.689v2.721H57.82v-9.953h2.68l2.557,7.219l2.543-7.219h2.693V139.336z M72.265,139.336
			h-2.051v-9.953h2.051V139.336z M82.26,139.336h-2.051l-3.992-6.549v6.549h-2.051v-9.953h2.051l3.998,6.562v-6.562h2.045V139.336z
			 M86.23,139.336h-2.051v-9.953h2.051V139.336z M90.56,132.849c0.326,0.219,0.807,0.424,1.439,0.615
			c1.168,0.351,2.018,0.786,2.551,1.306s0.799,1.167,0.799,1.941c0,0.861-0.326,1.537-0.977,2.027
			c-0.652,0.489-1.529,0.734-2.633,0.734c-0.766,0-1.463-0.141-2.092-0.42c-0.629-0.281-1.107-0.665-1.439-1.152
			c-0.33-0.487-0.494-1.053-0.494-1.695h2.057c0,1.099,0.656,1.647,1.969,1.647c0.488,0,0.869-0.099,1.143-0.298
			c0.273-0.197,0.41-0.475,0.41-0.83c0-0.388-0.137-0.685-0.41-0.893c-0.273-0.207-0.766-0.426-1.477-0.656
			c-0.711-0.229-1.273-0.456-1.689-0.68c-1.129-0.61-1.695-1.434-1.695-2.468c0-0.538,0.152-1.018,0.455-1.438
			c0.303-0.422,0.738-0.751,1.305-0.988c0.568-0.237,1.205-0.355,1.912-0.355c0.711,0,1.344,0.129,1.9,0.387
			c0.555,0.257,0.986,0.62,1.295,1.09c0.307,0.47,0.461,1.003,0.461,1.6h-2.051c0-0.456-0.143-0.811-0.43-1.062
			c-0.287-0.254-0.691-0.38-1.211-0.38c-0.5,0-0.891,0.106-1.168,0.317c-0.279,0.213-0.418,0.491-0.418,0.838
			C90.072,132.359,90.236,132.63,90.56,132.849z M104.23,131.044h-3.049v8.292h-2.051v-8.292h-3.008v-1.661h8.107V131.044z
			 M113.15,139.336h-2.201l-1.865-3.644h-1.635v3.644h-2.051v-9.953h3.699c1.176,0,2.082,0.262,2.721,0.786
			c0.637,0.524,0.957,1.265,0.957,2.222c0,0.679-0.148,1.245-0.441,1.699c-0.295,0.453-0.74,0.814-1.336,1.083l2.152,4.067V139.336z
			 M120.642,139.336l-0.689-2.051h-3.596l-0.684,2.051h-2.182l3.705-9.953h1.9l3.727,9.953H120.642z M130.426,131.044h-3.049v8.292
			h-2.051v-8.292h-3.008v-1.661h8.107V131.044z M133.775,139.336h-2.051v-9.953h2.051V139.336z M143.851,134.585
			c0,0.979-0.174,1.839-0.52,2.577c-0.348,0.738-0.842,1.308-1.486,1.709c-0.646,0.401-1.385,0.602-2.219,0.602
			c-0.826,0-1.561-0.198-2.209-0.595c-0.646-0.396-1.148-0.963-1.504-1.698c-0.355-0.736-0.535-1.583-0.539-2.54v-0.492
			c0-0.979,0.176-1.843,0.529-2.587c0.354-0.746,0.852-1.317,1.498-1.717c0.645-0.398,1.381-0.598,2.211-0.598
			c0.828,0,1.566,0.199,2.211,0.598c0.645,0.399,1.145,0.971,1.498,1.717c0.352,0.744,0.529,1.604,0.529,2.58V134.585z
			 M153.435,139.336h-2.051l-3.992-6.549v6.549h-2.051v-9.953h2.051l3.998,6.562v-6.562h2.045V139.336z M157.656,132.849
			c0.326,0.219,0.805,0.424,1.439,0.615c1.166,0.351,2.016,0.786,2.549,1.306s0.801,1.167,0.801,1.941
			c0,0.861-0.326,1.537-0.979,2.027c-0.65,0.489-1.529,0.734-2.631,0.734c-0.766,0-1.463-0.141-2.092-0.42
			c-0.629-0.281-1.109-0.665-1.439-1.152s-0.496-1.053-0.496-1.695h2.059c0,1.099,0.656,1.647,1.969,1.647
			c0.486,0,0.867-0.099,1.141-0.298c0.273-0.197,0.41-0.475,0.41-0.83c0-0.388-0.137-0.685-0.41-0.893
			c-0.273-0.207-0.766-0.426-1.477-0.656c-0.711-0.229-1.273-0.456-1.688-0.68c-1.131-0.61-1.695-1.434-1.695-2.468
			c0-0.538,0.15-1.018,0.455-1.438c0.303-0.422,0.738-0.751,1.305-0.988c0.568-0.237,1.205-0.355,1.91-0.355
			c0.711,0,1.346,0.129,1.9,0.387c0.557,0.257,0.988,0.62,1.297,1.09c0.307,0.47,0.461,1.003,0.461,1.6h-2.051
			c0-0.456-0.145-0.811-0.432-1.062c-0.287-0.254-0.689-0.38-1.209-0.38c-0.502,0-0.891,0.106-1.17,0.317
			c-0.277,0.213-0.416,0.491-0.416,0.838C157.168,132.359,157.33,132.63,157.656,132.849z"/>
	</g>
	<g>
		<path d="M-110.906,28.36c-0.689,0-1.219,0.268-1.594,0.803c-0.373,0.536-0.562,1.321-0.566,2.355v0.485
			c0,1.017,0.186,1.805,0.561,2.365c0.373,0.561,0.91,0.841,1.613,0.841c0.688,0,1.217-0.27,1.586-0.811
			c0.369-0.539,0.555-1.327,0.561-2.361v-0.485c0-1.044-0.188-1.837-0.561-2.379C-109.681,28.632-110.215,28.36-110.906,28.36z"/>
		<path d="M-120.08,28.463h-1.648v2.987h1.654c0.516,0,0.914-0.131,1.197-0.393c0.281-0.263,0.424-0.624,0.424-1.084
			c0-0.47-0.135-0.839-0.4-1.107C-119.121,28.597-119.529,28.463-120.08,28.463z"/>
		<path d="M-129.814,28.463h-1.012v6.645h0.99c0.803,0,1.416-0.262,1.84-0.786s0.641-1.273,0.648-2.249v-0.526
			c0-1.012-0.209-1.778-0.629-2.301C-128.394,28.723-129.008,28.463-129.814,28.463z"/>
		<path d="M-138.588,21.278v21h51.238v-21H-138.588z M-125.269,32.01c0,0.925-0.189,1.748-0.57,2.468
			s-0.918,1.278-1.609,1.675c-0.693,0.396-1.475,0.597-2.346,0.602h-3.082v-9.953h3.062c0.875,0,1.658,0.197,2.348,0.592
			c0.691,0.394,1.229,0.954,1.617,1.682c0.387,0.727,0.58,1.553,0.58,2.478V32.01z M-116.027,36.755h-2.201l-1.865-3.644h-1.635
			v3.644h-2.051v-9.953h3.699c1.176,0,2.082,0.262,2.721,0.786c0.637,0.524,0.957,1.265,0.957,2.222
			c0,0.679-0.148,1.245-0.441,1.699c-0.295,0.453-0.74,0.814-1.336,1.083l2.152,4.067V36.755z M-106.668,32.004
			c0,0.979-0.174,1.839-0.52,2.577c-0.348,0.738-0.842,1.308-1.486,1.709c-0.646,0.401-1.385,0.602-2.219,0.602
			c-0.826,0-1.561-0.198-2.209-0.595c-0.646-0.396-1.148-0.963-1.504-1.698c-0.355-0.736-0.535-1.583-0.539-2.54v-0.492
			c0-0.979,0.176-1.843,0.529-2.587c0.354-0.746,0.852-1.317,1.498-1.717c0.645-0.398,1.381-0.598,2.211-0.598
			c0.828,0,1.566,0.199,2.211,0.598c0.645,0.399,1.145,0.971,1.498,1.717c0.352,0.744,0.529,1.604,0.529,2.58V32.004z
			 M-102.998,36.755h-2.051v-9.953h2.051V36.755z M-93.802,28.463h-3.049v8.292h-2.051v-8.292h-3.008v-1.661h8.107V28.463z"/>
	</g>
	<g>
		<path d="M-198.606,71.839h-1.012v6.645h0.991c0.802,0,1.415-0.262,1.839-0.785c0.424-0.525,0.641-1.273,0.649-2.25
			v-0.525c0-1.012-0.21-1.779-0.629-2.301S-197.8,71.839-198.606,71.839z"/>
		<path d="M-180.758,71.738c-0.688,0-1.219,0.268-1.593,0.803s-0.562,1.32-0.567,2.355v0.484
			c0,1.018,0.187,1.805,0.561,2.365s0.911,0.842,1.613,0.842c0.688,0,1.217-0.27,1.586-0.811c0.369-0.539,0.556-1.328,0.561-2.361
			v-0.486c0-1.043-0.187-1.836-0.561-2.379C-179.532,72.009-180.065,71.738-180.758,71.738z"/>
		<path d="M-257.153,64.038v21h93.513v-21H-257.153z M-188.721,67.491h2.153l-1.894,2.119h-1.606L-188.721,67.491z
			 M-246.13,77.07c0,0.633-0.14,1.193-0.421,1.678c-0.279,0.486-0.675,0.859-1.186,1.125c-0.511,0.264-1.087,0.396-1.729,0.396
			c-1.053,0-1.873-0.268-2.461-0.803c-0.588-0.537-0.882-1.295-0.882-2.273h2.064c0,0.486,0.103,0.848,0.308,1.08
			s0.528,0.348,0.971,0.348c0.392,0,0.704-0.135,0.937-0.402c0.232-0.27,0.349-0.652,0.349-1.148v-6.891h2.051V77.07z
			 M-237.701,80.132h-6.672v-9.953h6.658v1.66h-4.607v2.373h3.938v1.592h-3.938v2.68h4.621V80.132z M-228.965,76.734
			c0,1.09-0.341,1.951-1.021,2.584c-0.682,0.635-1.612,0.951-2.793,0.951c-1.162,0-2.085-0.309-2.769-0.924
			s-1.032-1.461-1.046-2.535v-6.631h2.051v6.568c0,0.652,0.156,1.127,0.469,1.426c0.312,0.299,0.743,0.447,1.295,0.447
			c1.153,0,1.738-0.605,1.757-1.818v-6.623h2.058V76.734z M-221.807,80.132l-1.914-3.486l-1.914,3.486h-2.386l2.974-5.018
			l-2.898-4.936h2.358l1.866,3.432l1.866-3.432h2.358l-2.898,4.936l2.974,5.018H-221.807z M-210.152,80.132h-2.14l-3.452-9.953
			h2.276l2.242,7.484l2.256-7.484h2.283L-210.152,80.132z M-203.569,80.132h-2.051v-9.953h2.051V80.132z M-194.06,75.388
			c0,0.924-0.19,1.748-0.571,2.467c-0.38,0.721-0.917,1.279-1.609,1.676s-1.475,0.596-2.345,0.602h-3.083v-9.953h3.062
			c0.875,0,1.658,0.197,2.348,0.592c0.691,0.393,1.229,0.953,1.617,1.682c0.388,0.727,0.581,1.553,0.581,2.477V75.388z
			 M-185.898,80.132h-6.672v-9.953h6.658v1.66h-4.607v2.373h3.938v1.592h-3.938v2.68h4.621V80.132z M-176.519,75.38
			c0,0.98-0.173,1.84-0.52,2.578s-0.842,1.307-1.486,1.709c-0.646,0.4-1.385,0.602-2.219,0.602c-0.825,0-1.561-0.199-2.208-0.596
			s-1.148-0.963-1.504-1.697c-0.355-0.736-0.535-1.584-0.54-2.541v-0.492c0-0.979,0.177-1.842,0.529-2.586
			c0.354-0.746,0.853-1.318,1.498-1.717c0.645-0.398,1.382-0.598,2.211-0.598s1.566,0.199,2.211,0.598
			c0.646,0.398,1.145,0.971,1.498,1.717c0.353,0.744,0.529,1.604,0.529,2.58V75.38z M-172.599,73.644
			c0.326,0.219,0.806,0.424,1.439,0.615c1.167,0.352,2.017,0.787,2.55,1.307s0.8,1.166,0.8,1.941c0,0.861-0.326,1.537-0.978,2.027
			c-0.651,0.488-1.529,0.734-2.632,0.734c-0.766,0-1.463-0.141-2.092-0.42c-0.629-0.281-1.108-0.666-1.439-1.152
			c-0.33-0.488-0.495-1.053-0.495-1.695h2.058c0,1.098,0.656,1.646,1.969,1.646c0.487,0,0.868-0.098,1.142-0.297
			c0.273-0.197,0.41-0.475,0.41-0.83c0-0.389-0.137-0.686-0.41-0.893s-0.766-0.426-1.477-0.656s-1.273-0.457-1.688-0.68
			c-1.13-0.611-1.695-1.434-1.695-2.469c0-0.537,0.151-1.018,0.455-1.438c0.303-0.422,0.738-0.752,1.305-0.988
			c0.568-0.238,1.205-0.355,1.911-0.355c0.711,0,1.345,0.129,1.9,0.387c0.556,0.256,0.987,0.619,1.296,1.09
			c0.307,0.469,0.461,1.002,0.461,1.6h-2.051c0-0.457-0.144-0.811-0.431-1.062c-0.287-0.254-0.69-0.381-1.21-0.381
			c-0.501,0-0.891,0.107-1.169,0.318c-0.278,0.213-0.417,0.49-0.417,0.838C-173.088,73.154-172.925,73.425-172.599,73.644z"/>
	</g>
	<g>
		<path d="M-155.34,115.06h-1.648v2.987h1.654c0.516,0,0.914-0.131,1.197-0.393c0.281-0.263,0.424-0.624,0.424-1.084
			c0-0.47-0.135-0.839-0.4-1.107C-154.381,115.195-154.789,115.06-155.34,115.06z"/>
		<polygon points="-192.309,119.64 -189.821,119.64 -191.073,115.914 		"/>
		<polygon points="-147.528,119.64 -145.039,119.64 -146.289,115.914 		"/>
		<path d="M-200,107.694v21h97.84v-21H-200z M-188.576,123.352l-0.691-2.051h-3.596l-0.684,2.051h-2.18l3.705-9.953h1.9
			l3.725,9.953H-188.576z M-183.037,116.865c0.326,0.219,0.807,0.424,1.439,0.615c1.168,0.351,2.018,0.786,2.551,1.306
			s0.799,1.167,0.799,1.941c0,0.861-0.326,1.537-0.977,2.027c-0.652,0.489-1.529,0.734-2.633,0.734c-0.766,0-1.463-0.141-2.092-0.42
			c-0.629-0.281-1.107-0.665-1.439-1.152c-0.33-0.487-0.494-1.053-0.494-1.695h2.057c0,1.099,0.656,1.647,1.969,1.647
			c0.488,0,0.869-0.099,1.143-0.298c0.273-0.197,0.41-0.475,0.41-0.83c0-0.388-0.137-0.685-0.41-0.893
			c-0.273-0.207-0.766-0.426-1.477-0.656c-0.711-0.229-1.273-0.456-1.689-0.68c-1.129-0.61-1.695-1.434-1.695-2.468
			c0-0.538,0.152-1.018,0.455-1.438c0.303-0.422,0.738-0.751,1.305-0.988c0.568-0.237,1.205-0.355,1.912-0.355
			c0.711,0,1.344,0.129,1.9,0.387c0.555,0.257,0.986,0.62,1.295,1.09c0.307,0.47,0.461,1.003,0.461,1.6h-2.051
			c0-0.456-0.143-0.811-0.43-1.062c-0.287-0.254-0.691-0.38-1.211-0.38c-0.5,0-0.891,0.106-1.168,0.317
			c-0.279,0.213-0.418,0.491-0.418,0.838C-183.526,116.374-183.362,116.646-183.037,116.865z M-174.43,116.865
			c0.326,0.219,0.805,0.424,1.439,0.615c1.166,0.351,2.016,0.786,2.549,1.306s0.801,1.167,0.801,1.941
			c0,0.861-0.326,1.537-0.979,2.027c-0.65,0.489-1.529,0.734-2.631,0.734c-0.766,0-1.463-0.141-2.092-0.42
			c-0.629-0.281-1.109-0.665-1.439-1.152s-0.496-1.053-0.496-1.695h2.059c0,1.099,0.656,1.647,1.969,1.647
			c0.486,0,0.867-0.099,1.141-0.298c0.273-0.197,0.41-0.475,0.41-0.83c0-0.388-0.137-0.685-0.41-0.893
			c-0.273-0.207-0.766-0.426-1.477-0.656c-0.711-0.229-1.273-0.456-1.688-0.68c-1.131-0.61-1.695-1.434-1.695-2.468
			c0-0.538,0.15-1.018,0.455-1.438c0.303-0.422,0.738-0.751,1.305-0.988c0.568-0.237,1.205-0.355,1.91-0.355
			c0.711,0,1.346,0.129,1.9,0.387c0.557,0.257,0.988,0.62,1.297,1.09c0.307,0.47,0.461,1.003,0.461,1.6h-2.051
			c0-0.456-0.145-0.811-0.432-1.062c-0.287-0.254-0.689-0.38-1.209-0.38c-0.502,0-0.891,0.106-1.17,0.317
			c-0.277,0.213-0.416,0.491-0.416,0.838C-174.918,116.374-174.756,116.646-174.43,116.865z M-160.721,119.954
			c0,1.089-0.34,1.95-1.021,2.584s-1.611,0.95-2.793,0.95c-1.162,0-2.084-0.308-2.768-0.923s-1.033-1.461-1.047-2.536v-6.631h2.051
			v6.569c0,0.651,0.156,1.127,0.469,1.425c0.312,0.299,0.744,0.448,1.295,0.448c1.154,0,1.738-0.606,1.758-1.818v-6.624h2.057
			V119.954z M-151.287,123.352h-2.201l-1.865-3.644h-1.635v3.644h-2.051v-9.953h3.699c1.176,0,2.082,0.262,2.721,0.786
			c0.637,0.524,0.957,1.265,0.957,2.222c0,0.679-0.148,1.245-0.441,1.699c-0.295,0.453-0.74,0.814-1.336,1.083l2.152,4.067V123.352z
			 M-143.795,123.352l-0.689-2.051h-3.596l-0.684,2.051h-2.182l3.705-9.953h1.9l3.727,9.953H-143.795z M-132.59,123.352h-2.051
			l-3.992-6.549v6.549h-2.051v-9.953h2.051l3.998,6.562v-6.562h2.045V123.352z M-128.533,121.069
			c0.326,0.497,0.84,0.745,1.541,0.745c0.635,0,1.107-0.145,1.42-0.435c0.311-0.289,0.49-0.736,0.535-1.343h2.051
			c-0.076,1.071-0.473,1.914-1.186,2.529s-1.652,0.923-2.82,0.923c-1.275,0-2.279-0.43-3.01-1.289
			c-0.732-0.858-1.098-2.038-1.098-3.537v-0.608c0-0.957,0.168-1.8,0.506-2.529c0.336-0.729,0.818-1.288,1.445-1.679
			c0.627-0.389,1.355-0.584,2.184-0.584c1.148,0,2.074,0.308,2.775,0.923c0.703,0.615,1.107,1.479,1.217,2.591h-2.051
			c-0.049-0.643-0.229-1.108-0.535-1.398c-0.309-0.289-0.777-0.434-1.406-0.434c-0.684,0-1.195,0.245-1.533,0.734
			c-0.34,0.49-0.516,1.25-0.523,2.28v0.752C-129.022,119.785-128.86,120.572-128.533,121.069z M-114.967,123.352h-6.672v-9.953
			h6.658v1.661h-4.607v2.372h3.938v1.593h-3.938v2.68h4.621V123.352z M-111.334,116.865c0.326,0.219,0.805,0.424,1.439,0.615
			c1.166,0.351,2.016,0.786,2.549,1.306s0.801,1.167,0.801,1.941c0,0.861-0.326,1.537-0.979,2.027
			c-0.65,0.489-1.529,0.734-2.631,0.734c-0.766,0-1.463-0.141-2.092-0.42c-0.629-0.281-1.109-0.665-1.439-1.152
			s-0.496-1.053-0.496-1.695h2.059c0,1.099,0.656,1.647,1.969,1.647c0.486,0,0.867-0.099,1.141-0.298
			c0.273-0.197,0.41-0.475,0.41-0.83c0-0.388-0.137-0.685-0.41-0.893c-0.273-0.207-0.766-0.426-1.477-0.656
			c-0.711-0.229-1.273-0.456-1.688-0.68c-1.131-0.61-1.695-1.434-1.695-2.468c0-0.538,0.15-1.018,0.455-1.438
			c0.303-0.422,0.738-0.751,1.305-0.988c0.568-0.237,1.205-0.355,1.91-0.355c0.711,0,1.346,0.129,1.9,0.387
			c0.557,0.257,0.988,0.62,1.297,1.09c0.307,0.47,0.461,1.003,0.461,1.6h-2.051c0-0.456-0.145-0.811-0.432-1.062
			c-0.287-0.254-0.689-0.38-1.209-0.38c-0.502,0-0.891,0.106-1.17,0.317c-0.277,0.213-0.416,0.491-0.416,0.838
			C-111.823,116.374-111.66,116.646-111.334,116.865z"/>
	</g>
</g>
<g>
	<polygon points="-31.078,76.449 -28.59,76.449 -29.841,72.724 	"/>
	<path d="M-92.478,75.827h-1.88v2.687h1.757c0.483,0,0.86-0.115,1.131-0.346c0.271-0.229,0.407-0.547,0.407-0.953
		C-91.063,76.303-91.535,75.841-92.478,75.827z"/>
	<path d="M-91.289,73.141c0-0.451-0.131-0.775-0.393-0.975c-0.262-0.197-0.676-0.297-1.241-0.297h-1.436v2.509h1.518
		C-91.806,74.36-91.289,73.948-91.289,73.141z"/>
	<path d="M-101.228,64.661v21h94v-21H-101.228z M-89.928,79.409c-0.611,0.492-1.481,0.743-2.611,0.752h-3.869v-9.953
		h3.486c1.208,0,2.124,0.231,2.748,0.694c0.625,0.462,0.937,1.141,0.937,2.033c0,0.488-0.125,0.917-0.376,1.289
		c-0.25,0.371-0.599,0.643-1.046,0.816c0.51,0.127,0.913,0.385,1.207,0.772s0.441,0.861,0.441,1.422
		C-89.012,78.193-89.318,78.917-89.928,79.409z M-81.069,80.161h-6.405v-9.953h2.051v8.306h4.354V80.161z M-72.155,75.41
		c0,0.98-0.173,1.839-0.52,2.577s-0.842,1.308-1.487,1.709s-1.384,0.602-2.218,0.602c-0.825,0-1.561-0.198-2.208-0.595
		s-1.148-0.963-1.504-1.699c-0.355-0.735-0.536-1.582-0.54-2.539v-0.492c0-0.98,0.177-1.842,0.53-2.588
		c0.353-0.744,0.852-1.316,1.497-1.715c0.645-0.399,1.382-0.599,2.211-0.599s1.566,0.199,2.211,0.599
		c0.645,0.398,1.144,0.971,1.497,1.715c0.353,0.746,0.53,1.605,0.53,2.581V75.41z M-68.399,77.878
		c0.326,0.497,0.84,0.745,1.542,0.745c0.633,0,1.106-0.145,1.418-0.434c0.312-0.29,0.491-0.738,0.537-1.344h2.051
		c-0.078,1.07-0.473,1.914-1.186,2.529s-1.653,0.923-2.82,0.923c-1.276,0-2.28-0.43-3.011-1.288
		c-0.731-0.859-1.097-2.039-1.097-3.538v-0.608c0-0.957,0.168-1.801,0.506-2.529s0.819-1.289,1.446-1.678
		c0.626-0.391,1.354-0.585,2.184-0.585c1.148,0,2.074,0.308,2.775,0.923s1.107,1.479,1.217,2.591h-2.051
		c-0.05-0.643-0.229-1.108-0.537-1.397c-0.308-0.29-0.776-0.435-1.405-0.435c-0.684,0-1.195,0.245-1.535,0.735
		c-0.339,0.489-0.514,1.25-0.523,2.279v0.752C-68.887,76.596-68.724,77.381-68.399,77.878z M-55.831,80.161l-2.557-3.992
		l-1.066,1.148v2.844h-2.051v-9.953h2.051v4.512l0.902-1.237l2.536-3.274h2.522l-3.534,4.423l3.637,5.53H-55.831z M-50.564,77.878
		c0.326,0.497,0.84,0.745,1.542,0.745c0.633,0,1.106-0.145,1.418-0.434c0.312-0.29,0.491-0.738,0.537-1.344h2.051
		c-0.078,1.07-0.473,1.914-1.186,2.529s-1.653,0.923-2.82,0.923c-1.276,0-2.28-0.43-3.011-1.288
		c-0.731-0.859-1.097-2.039-1.097-3.538v-0.608c0-0.957,0.168-1.801,0.506-2.529s0.819-1.289,1.446-1.678
		c0.626-0.391,1.354-0.585,2.184-0.585c1.148,0,2.074,0.308,2.775,0.923s1.107,1.479,1.217,2.591h-2.051
		c-0.05-0.643-0.229-1.108-0.537-1.397c-0.308-0.29-0.776-0.435-1.405-0.435c-0.684,0-1.195,0.245-1.535,0.735
		c-0.339,0.489-0.514,1.25-0.523,2.279v0.752C-51.052,76.596-50.889,77.381-50.564,77.878z M-35.569,80.161h-2.051v-4.266h-3.999
		v4.266h-2.051v-9.953h2.051v4.033h3.999v-4.033h2.051V80.161z M-27.345,80.161l-0.69-2.051h-3.596l-0.684,2.051h-2.181l3.705-9.953
		h1.9l3.726,9.953H-27.345z M-22.054,80.161h-2.051v-9.953h2.051V80.161z M-12.06,80.161h-2.051l-3.992-6.549v6.549h-2.051v-9.953
		h2.051l3.999,6.562v-6.562h2.044V80.161z"/>
	<path d="M-76.393,71.767c-0.688,0-1.219,0.268-1.593,0.804c-0.374,0.535-0.563,1.32-0.567,2.354v0.485
		c0,1.016,0.187,1.805,0.561,2.365s0.912,0.841,1.613,0.841c0.688,0,1.217-0.271,1.586-0.81c0.369-0.541,0.556-1.328,0.561-2.362
		v-0.485c0-1.043-0.187-1.836-0.561-2.379S-75.7,71.767-76.393,71.767z"/>
</g>
<g>
	<path d="M9.74-22.919H8.093v2.987h1.654c0.515,0,0.913-0.131,1.195-0.393c0.283-0.262,0.424-0.623,0.424-1.083
		c0-0.469-0.133-0.838-0.399-1.107S10.291-22.919,9.74-22.919z"/>
	<path d="M-33.923-30.127v21h82v-21H-33.923z M-21.725-14.627h-6.672v-9.953h6.658v1.661h-4.607v2.372h3.938v1.593
		h-3.938v2.68h4.621V-14.627z M-12.893-22.919h-3.049v8.292h-2.051v-8.292h-3.008v-1.661h8.107V-22.919z M-3.624-14.627h-2.051
		v-4.266h-4v4.266h-2.051v-9.953h2.051v4.033h4v-4.033h2.051V-14.627z M4.839-14.627h-6.672v-9.953h6.658v1.661H0.218v2.372h3.938
		v1.593H0.218v2.68h4.621V-14.627z M13.794-14.627h-2.201l-1.867-3.644H8.093v3.644H6.042v-9.953H9.74
		c1.176,0,2.083,0.262,2.721,0.786c0.639,0.524,0.957,1.265,0.957,2.222c0,0.679-0.146,1.245-0.44,1.699s-0.739,0.814-1.337,1.083
		l2.154,4.067V-14.627z M21.648-14.627h-6.672v-9.953h6.658v1.661h-4.607v2.372h3.938v1.593h-3.938v2.68h4.621V-14.627z
		 M30.384-18.025c0,1.089-0.34,1.951-1.021,2.584s-1.612,0.95-2.793,0.95c-1.162,0-2.084-0.308-2.768-0.923s-1.033-1.46-1.047-2.536
		v-6.631h2.051v6.569c0,0.652,0.156,1.127,0.469,1.425s0.744,0.448,1.295,0.448c1.153,0,1.739-0.606,1.758-1.818v-6.624h2.057
		V-18.025z M42.538-14.627h-2.057v-2.721l0.205-4.696l-2.688,7.417h-1.408l-2.68-7.41l0.205,4.689v2.721h-2.051v-9.953h2.68
		l2.557,7.219l2.543-7.219h2.693V-14.627z"/>
</g>
<g>
	<path d="M267.881,98.968h-1.012v6.645h0.99c0.803,0,1.416-0.263,1.84-0.786s0.639-1.273,0.648-2.249v-0.526
		c0-1.012-0.209-1.778-0.629-2.301C269.299,99.229,268.687,98.968,267.881,98.968z"/>
	<path d="M244.125,98.968h-1.647v2.987h1.654c0.515,0,0.913-0.131,1.196-0.393c0.283-0.263,0.424-0.623,0.424-1.084
		c0-0.469-0.133-0.838-0.4-1.107C245.086,99.102,244.676,98.968,244.125,98.968z"/>
	<path d="M295.025,98.968h-1.646v2.987h1.654c0.514,0,0.912-0.131,1.195-0.393c0.283-0.263,0.424-0.623,0.424-1.084
		c0-0.469-0.133-0.838-0.4-1.107C295.986,99.102,295.576,98.968,295.025,98.968z"/>
	<path d="M227.452,98.968h-1.88v3.124h1.832c0.543,0,0.956-0.127,1.24-0.383c0.285-0.256,0.428-0.619,0.428-1.094
		c0-0.488-0.144-0.882-0.431-1.183S227.958,98.977,227.452,98.968z"/>
	<path d="M199.398,91.26v21h104.428v-21H199.398z M213.267,107.26h-2.051v-4.266h-3.999v4.266h-2.051v-9.953h2.051
		v4.033h3.999v-4.033h2.051V107.26z M219.344,103.651v3.609h-2.085v-3.609l-3.268-6.344h2.249l2.058,4.484l2.071-4.484h2.242
		L219.344,103.651z M230.142,102.908c-0.668,0.563-1.592,0.845-2.772,0.845h-1.798v3.507h-2.051v-9.953h3.883
		c0.748,0,1.404,0.137,1.973,0.41c0.566,0.273,1.004,0.662,1.309,1.166c0.305,0.503,0.458,1.076,0.458,1.719
		C231.143,101.576,230.809,102.346,230.142,102.908z M239.223,107.26h-6.672v-9.953h6.658v1.661h-4.607v2.372h3.938v1.593h-3.938
		v2.68h4.621V107.26z M248.179,107.26h-2.201l-1.867-3.644h-1.634v3.644h-2.051v-9.953h3.698c1.176,0,2.082,0.262,2.721,0.786
		s0.957,1.265,0.957,2.222c0,0.68-0.146,1.245-0.441,1.699c-0.293,0.453-0.738,0.814-1.336,1.083l2.154,4.067V107.26z
		 M255.767,107.26h-6.406v-9.953h2.051v8.306h4.355V107.26z M263.615,107.26h-6.672v-9.953h6.658v1.661h-4.607v2.372h3.938v1.593
		h-3.938v2.68h4.621V107.26z M272.426,102.516c0,0.926-0.189,1.748-0.57,2.468s-0.918,1.278-1.609,1.675
		c-0.693,0.396-1.475,0.598-2.346,0.602h-3.082v-9.953h3.062c0.875,0,1.656,0.197,2.348,0.592c0.689,0.394,1.229,0.954,1.617,1.682
		c0.387,0.727,0.58,1.553,0.58,2.478V102.516z M276.349,104.949c0.396,0.533,0.979,0.8,1.744,0.8c0.77,0,1.318-0.164,1.646-0.492
		v-1.716h-1.865v-1.511h3.916v3.972c-0.369,0.441-0.891,0.785-1.564,1.029c-0.676,0.243-1.422,0.365-2.242,0.365
		c-0.861,0-1.617-0.188-2.268-0.564c-0.648-0.375-1.15-0.922-1.504-1.637c-0.352-0.715-0.533-1.557-0.543-2.522v-0.677
		c0-0.994,0.168-1.854,0.502-2.58c0.336-0.728,0.818-1.283,1.449-1.668c0.633-0.386,1.371-0.578,2.219-0.578
		c1.18,0,2.104,0.281,2.77,0.844c0.664,0.563,1.059,1.383,1.182,2.458h-1.996c-0.092-0.569-0.293-0.987-0.605-1.251
		c-0.311-0.264-0.74-0.396-1.287-0.396c-0.697,0-1.229,0.262-1.594,0.786s-0.549,1.304-0.553,2.338v0.636
		C275.756,103.627,275.953,104.416,276.349,104.949z M290.125,107.26h-6.672v-9.953h6.658v1.661h-4.607v2.372h3.938v1.593h-3.938
		v2.68h4.621V107.26z M299.08,107.26h-2.201l-1.867-3.644h-1.633v3.644h-2.051v-9.953h3.697c1.176,0,2.082,0.262,2.721,0.786
		s0.957,1.265,0.957,2.222c0,0.68-0.146,1.245-0.441,1.699c-0.293,0.453-0.738,0.814-1.336,1.083l2.154,4.067V107.26z"/>
</g>
<g>
	<path d="M-195.812-16.685v21h67v-21H-195.812z M-181.982-1.937c-0.611,0.492-1.481,0.743-2.611,0.752h-3.869v-9.953
		h3.486c1.207,0,2.123,0.232,2.748,0.694c0.624,0.462,0.936,1.141,0.936,2.034c0,0.487-0.125,0.916-0.375,1.288
		c-0.251,0.372-0.6,0.644-1.047,0.817c0.511,0.127,0.913,0.385,1.207,0.771c0.294,0.388,0.441,0.861,0.441,1.422
		C-181.066-3.154-181.372-2.429-181.982-1.937z M-177.347-1.185h-2.051v-9.953h2.051V-1.185z M-168.154-9.476h-3.049v8.291h-2.051
		v-8.291h-3.008v-1.662h8.107V-9.476z M-164.91-3.469c0.326,0.497,0.84,0.746,1.541,0.746c0.634,0,1.107-0.145,1.419-0.435
		s0.491-0.737,0.536-1.343h2.051c-0.077,1.07-0.473,1.914-1.186,2.529s-1.653,0.922-2.82,0.922c-1.275,0-2.279-0.43-3.011-1.288
		s-1.097-2.038-1.097-3.538v-0.607c0-0.957,0.168-1.801,0.506-2.529c0.337-0.729,0.818-1.289,1.445-1.679s1.354-0.585,2.184-0.585
		c1.148,0,2.074,0.309,2.775,0.924c0.702,0.615,1.107,1.479,1.217,2.59h-2.051c-0.05-0.643-0.229-1.107-0.536-1.397
		s-0.776-0.435-1.405-0.435c-0.684,0-1.195,0.246-1.534,0.735s-0.514,1.25-0.522,2.28v0.752
		C-165.398-4.751-165.236-3.965-164.91-3.469z M-149.84-5.935c0,0.979-0.174,1.838-0.52,2.576c-0.347,0.738-0.842,1.309-1.487,1.709
		c-0.646,0.401-1.384,0.602-2.218,0.602c-0.825,0-1.562-0.197-2.209-0.594c-0.646-0.396-1.148-0.963-1.504-1.699
		s-0.535-1.582-0.539-2.539v-0.492c0-0.98,0.176-1.843,0.529-2.588s0.852-1.316,1.497-1.716s1.382-0.599,2.212-0.599
		c0.829,0,1.566,0.199,2.211,0.599s1.145,0.971,1.497,1.716s0.53,1.605,0.53,2.58V-5.935z M-146.17-1.185h-2.051v-9.953h2.051
		V-1.185z M-136.176-1.185h-2.051l-3.992-6.549v6.549h-2.051v-9.953h2.051l4,6.562v-6.562h2.043V-1.185z"/>
	<path d="M-154.078-9.58c-0.688,0-1.22,0.268-1.594,0.804c-0.373,0.536-0.562,1.32-0.566,2.354v0.486
		c0,1.016,0.187,1.805,0.561,2.365c0.373,0.561,0.911,0.84,1.613,0.84c0.688,0,1.217-0.27,1.586-0.81s0.556-1.327,0.561-2.362
		v-0.484c0-1.044-0.188-1.837-0.561-2.379C-152.852-9.308-153.385-9.58-154.078-9.58z"/>
	<path d="M-183.344-8.205c0-0.451-0.131-0.776-0.393-0.975s-0.676-0.297-1.24-0.297h-1.436v2.508h1.518
		C-183.86-6.986-183.344-7.398-183.344-8.205z"/>
	<path d="M-184.533-5.519h-1.879v2.688h1.756c0.483,0,0.861-0.115,1.132-0.346s0.407-0.548,0.407-0.953
		C-183.117-5.043-183.59-5.506-184.533-5.519z"/>
</g>
</svg>
