<?xml version="1.0" encoding="utf-8"?>
<!-- Generator: Adobe Illustrator 16.0.0, SVG Export Plug-In . SVG Version: 6.00 Build 0)  -->
<!DOCTYPE svg PUBLIC "-//W3C//DTD SVG 1.1//EN" "http://www.w3.org/Graphics/SVG/1.1/DTD/svg11.dtd">
<svg version="1.1" xmlns="http://www.w3.org/2000/svg" xmlns:xlink="http://www.w3.org/1999/xlink" x="0px" y="0px"
	 width="124.57px" height="126.895px" viewBox="0 0 124.57 126.895" enable-background="new 0 0 124.57 126.895"
	 xml:space="preserve">
<g id="Layer_1">
</g>
<g id="Layer_2">
	<g>
		<g>
			<path fill="none" d="M109.773,42.234c-1.257,0-2.398,0.459-3.309,1.193c-0.624-2.232-2.654-3.881-5.081-3.881
				c-0.406,0-0.734,0.328-0.734,0.73c0,0.404,0.328,0.732,0.732,0.732c2.113,0,3.836,1.719,3.836,3.836
				c0,0.006,0.008,0.012,0.008,0.012c-0.465,0.791-0.751,1.697-0.751,2.678c0,0.404,0.326,0.73,0.73,0.73
				c0.405,0,0.732-0.326,0.732-0.73c0-2.117,1.721-3.836,3.836-3.836c0.406,0,0.733-0.33,0.733-0.732
				C110.507,42.562,110.18,42.234,109.773,42.234z"/>
			<path fill="none" d="M102.899,35.557c0.143,0.145,0.328,0.215,0.517,0.215c0.186,0,0.374-0.072,0.518-0.215
				c0.284-0.285,0.284-0.748,0-1.031c-1.498-1.498-1.498-3.932,0-5.428c0.004-0.002,0.002-0.006,0.004-0.01
				c0.907-0.234,1.745-0.686,2.423-1.365c0.287-0.287,0.287-0.75,0-1.035c-0.286-0.285-0.748-0.285-1.034,0
				c-0.726,0.725-1.69,1.125-2.713,1.125c-1.025,0-1.989-0.398-2.712-1.123c-0.286-0.285-0.749-0.285-1.034,0
				c-0.286,0.285-0.286,0.748,0,1.035c0.865,0.865,1.981,1.371,3.182,1.496C100.914,31.24,101.184,33.842,102.899,35.557z"/>
			<path fill="none" d="M115.227,34.016c-1.223,0-2.37,0.434-3.307,1.191c-0.241-0.869-0.682-1.672-1.337-2.326
				c-1-1-2.33-1.551-3.746-1.551c-0.405,0-0.732,0.324-0.732,0.729s0.327,0.732,0.732,0.732c1.026,0,1.987,0.398,2.712,1.123
				s1.125,1.691,1.125,2.715c0,0.002,0.004,0.004,0.004,0.008c-0.476,0.807-0.747,1.719-0.747,2.68c0,0.404,0.325,0.732,0.731,0.732
				c0.403,0,0.731-0.328,0.731-0.732c0-1.025,0.398-1.988,1.125-2.713c0.722-0.725,1.686-1.123,2.709-1.123
				c0.403,0,0.731-0.33,0.731-0.734C115.959,34.344,115.631,34.016,115.227,34.016z"/>
			<path fill="none" d="M123.649,24.705c-0.551-0.387-2.097-0.277-2.869,0.662c-0.056-0.826-0.165-1.6-0.387-2.207
				c0.331-0.055,0.553-0.111,0.553-0.111c2.648-0.938,4.36-3.146,3.311-6.568c0,0-4.305,0.443-4.636,4.857
				c-0.607-1.711-1.6-2.648-4.305-2.428c0,0,0.33,3.201,3.752,4.084c0.451,0.658,0.618,2.014,0.613,3.285
				c-0.902-0.645-1.97-1.072-3.124-1.209c-0.309-1.117-0.896-2.129-1.733-2.969c-1.271-1.273-2.96-1.973-4.757-1.973
				c-0.75,0-1.491,0.127-2.194,0.367c-1.271-1.457-3.131-2.326-5.086-2.326c-1.53,0-2.989,0.512-4.163,1.439
				c-0.321-0.254-0.664-0.475-1.021-0.664c0.009-0.105,0.02-0.207,0.031-0.309c2.174,0.713,3.065-1.205,3.065-1.205
				c-0.477-0.477-2.019-0.629-2.94,0.162c-0.062-1.016-0.217-1.328-0.005-2.242c0.337,0.002,0.562-0.016,0.562-0.016
				c2.771-0.471,4.825-2.299,4.431-5.84c0,0-3.484-0.268-4.974,2.836c0.056-1.615,0.286-3.594,1.376-5.029
				c3.514-0.23,4.395-3.383,4.395-3.383c-2.637-0.627-3.774,0.129-4.656,1.658C99.378,1.125,95.148,0,95.148,0
				c-1.562,3.203-0.309,5.66,2.143,7.037c0,0,0.261,0.102,0.524,0.203c-0.321,0.561-0.562,1.303-0.758,2.111
				c-0.601-1.059-2.096-1.486-2.715-1.145c0,0,0.142,2.098,2.481,2.166c-0.048,0.273-0.087,0.826-0.136,1.434
				c-0.541-0.766-1.462-1.262-3.167-1.445c0,0-0.229,3.266,2.956,4.602c-0.056,1.188-0.093,2.35-0.117,3.479
				c-0.608-0.18-1.248-0.271-1.899-0.271c-2.12,0-4.053,0.959-5.31,2.578c-0.881-0.408-1.84-0.619-2.834-0.619
				c-0.658,0-1.295,0.094-1.896,0.268c-0.034-0.453-0.075-0.912-0.121-1.373c-0.055-0.166-0.055-0.496-0.165-0.938
				c2.042,0.166,2.54-1.711,2.54-1.711c-0.554-0.441-2.099-0.33-2.871,0.607c-0.442-1.326-1.214-2.816-2.539-3.367
				c-0.11-0.057-0.276-0.057-0.44-0.111c-0.885-0.164-1.546,0.441-2.65,1.381l-0.11,0.055c0,0.057-0.332,0.275-0.332,0.33
				c-0.55,0.885-0.55,1.879,0,2.373c0.332,0.332,0.829,0.443,1.324,0.332c0.553-0.109,1.159-0.439,1.656-0.992
				c0.553-0.607,0.885-1.326,0.885-1.932c0.661,0.662,1.048,1.709,1.324,2.705v0.053c0,0.111,0.055,0.166,0.055,0.223
				c0.055,0.055,0.055,0.055,0.055,0.109c0.056,0.057,0.056,0.111,0.056,0.166c0.056,0.055,0.056,0.109,0.056,0.164
				c0,0,0,0.057,0,0.109c0.055,0.059,0.055,0.113,0.055,0.168c0,0.057,0,0.057,0,0.109c0.057,0.111,0.057,0.223,0.057,0.277
				c0.046,0.537,0.086,1.096,0.118,1.662c-1.768,0.854-3.104,2.455-3.593,4.428c-2.969,0.734-5.099,3.387-5.099,6.541
				c0,1.201,0.323,2.379,0.926,3.404c-0.638,1.047-0.979,2.26-0.979,3.498c0,3.717,3.023,6.742,6.739,6.742
				c0.379,0,0.754-0.033,1.121-0.094c1.105,2.293,3.444,3.809,6.071,3.809c1.378,0,2.695-0.412,3.807-1.178
				c1.359,0.906,3.034,1.305,4.654,1.113c0.729,1.207,1.828,2.164,3.129,2.719c0.321,3.418,3.209,6.104,6.712,6.104
				c3.099,0,5.718-2.064,6.503-4.957c3.298-0.434,5.854-3.264,5.854-6.678c0-0.139-0.004-0.275-0.014-0.41
				c2.468-1.033,4.104-3.439,4.104-6.215c0-1.664-0.628-3.258-1.714-4.479c0.593-1.018,0.915-2.184,0.915-3.379
				c0-1.717-0.646-3.287-1.707-4.479c0.022-0.283,0.034-0.576,0.034-0.871C123.099,26.748,123.649,24.705,123.649,24.705z
				 M117.458,43.641l-1.33,0.289l0.338,1.32c0.083,0.324,0.126,0.66,0.126,0.998c0,2.266-1.848,4.109-4.113,4.109
				c-0.055,0-0.107,0-0.161-0.002l-1.244-0.055l-0.12,1.24c-0.199,2.084-1.998,3.717-4.094,3.717c-2.27,0-4.113-1.848-4.113-4.115
				c0-0.078,0.002-0.154,0.007-0.229l0.065-1.082l-1.049-0.271c-1.274-0.324-2.323-1.248-2.805-2.471l-0.444-1.123l-1.155,0.348
				c-1.419,0.428-3.027,0.033-4.099-1l-0.92-0.887l-0.912,0.895c-0.771,0.76-1.793,1.176-2.877,1.176
				c-1.879,0-3.516-1.27-3.981-3.086l-0.366-1.426l-1.374,0.523c-0.471,0.182-0.966,0.273-1.469,0.273
				c-2.27,0-4.114-1.846-4.114-4.115c0-0.98,0.331-1.893,0.959-2.639l0.701-0.832l-0.688-0.844c-0.6-0.738-0.918-1.633-0.918-2.588
				c0-2.104,1.637-3.904,3.729-4.096l1.085-0.102l0.102-1.086c0.092-1.016,0.567-1.924,1.271-2.592
				c0.068,3.094-0.001,5.99-0.052,7.229c-0.121,0.031-0.233,0.096-0.33,0.189c-0.285,0.285-0.285,0.748,0,1.033
				c1.498,1.496,1.498,3.932,0,5.43c-0.285,0.285-0.285,0.748,0,1.033c0.145,0.141,0.332,0.213,0.519,0.213s0.374-0.072,0.518-0.213
				c0.89-0.889,1.372-2.021,1.494-3.184c0.787,0.445,1.666,0.703,2.593,0.703c1.415,0,2.746-0.553,3.746-1.551
				c0.287-0.287,0.287-0.75,0-1.037c-0.284-0.285-0.747-0.285-1.033,0c-0.726,0.727-1.689,1.125-2.713,1.125
				c-1.024,0-1.988-0.4-2.714-1.125c-0.003-0.004-0.009-0.002-0.013-0.004c-0.191-0.744-0.531-1.455-1.043-2.074
				c0.051-0.639,0.296-4.088,0.118-8.512c0.529-0.252,1.119-0.393,1.733-0.393c0.901,0,1.758,0.285,2.472,0.824l1.274,0.963
				l0.697-1.436c0.691-1.428,2.11-2.311,3.7-2.311c0.662,0,1.302,0.158,1.875,0.453c0,1.525,0.024,2.977,0.067,4.34
				c-0.034-0.098-0.09-0.189-0.168-0.266c-0.283-0.285-0.746-0.283-1.034,0c-0.864,0.863-1.369,1.982-1.497,3.182
				c-0.784-0.445-1.664-0.701-2.59-0.701c-1.416,0-2.748,0.551-3.748,1.553c-0.285,0.285-0.285,0.746,0,1.033
				c0.286,0.285,0.748,0.285,1.034,0c0.726-0.725,1.689-1.123,2.714-1.123c1.025,0,1.988,0.398,2.712,1.123
				c0.004,0.004,0.008,0.002,0.01,0.004c0.234,0.906,0.687,1.744,1.365,2.424c0.144,0.143,0.332,0.215,0.518,0.215
				s0.375-0.072,0.518-0.215c0.285-0.285,0.285-0.748,0-1.031c-0.727-0.729-1.125-1.691-1.125-2.717
				c0-1.023,0.398-1.988,1.124-2.711c0.089-0.09,0.15-0.197,0.184-0.311c0.196,5.754,0.668,9.832,0.703,11.004
				c-0.155,0.324-0.277,0.662-0.366,1.01c-0.005,0.004-0.009,0.002-0.011,0.004c-0.723,0.725-1.688,1.123-2.714,1.123
				c-1.024,0-1.989-0.398-2.713-1.123c-0.285-0.287-0.747-0.287-1.033,0c-0.287,0.285-0.287,0.748,0,1.033
				c1,1,2.331,1.553,3.746,1.553c0.926,0,1.807-0.258,2.591-0.701c0.129,1.199,0.632,2.316,1.496,3.182
				c0.144,0.145,0.331,0.215,0.517,0.215c0.188,0,0.376-0.07,0.519-0.215c0.285-0.287,0.285-0.748,0-1.033
				c-0.726-0.725-1.123-1.689-1.123-2.713c0-1.025,0.398-1.988,1.124-2.713c0.284-0.285,0.284-0.748,0-1.035
				c-0.269-0.268-0.692-0.283-0.98-0.051c-0.215-3.16-0.737-8.934-0.712-13.484c0.052,0.055,0.104,0.111,0.151,0.17l1.01,1.219
				l1.011-1.219c0.779-0.939,1.93-1.477,3.154-1.477c1.433,0,2.782,0.768,3.526,2.002l0.654,1.088l1.107-0.617
				c0.614-0.34,1.285-0.514,1.991-0.514c1.095,0,2.127,0.428,2.899,1.201c0.683,0.684,1.094,1.557,1.191,2.521l0.124,1.262
				l1.264-0.082c0.078-0.002,0.152-0.006,0.226-0.006c2.267,0,4.112,1.844,4.112,4.111c0,1.16-0.497,2.273-1.367,3.055l-0.845,0.75
				l0.973,0.51c1.258,0.74,2.038,2.1,2.038,3.547C120.683,41.578,119.357,43.229,117.458,43.641z"/>
		</g>
		<g>
			<path fill="none" d="M71.024,125.799l17.458,1.096l4.044-69.406l-17.459-1.096L71.024,125.799z M78.702,60.512l9.7,0.611
				l-0.298,5.48l-5.821-0.365l-0.243,3.881l5.818,0.367l-0.3,5.479l-2.91-0.182l-0.24,3.881l2.908,0.182l-0.298,5.482l-5.82-0.367
				l-0.245,3.877l5.819,0.365l-0.297,5.484l-2.91-0.182l-0.243,3.881l2.91,0.18l-0.3,5.484l-5.821-0.365l-0.242,3.879l5.821,0.363
				l-0.299,5.484l-2.912-0.186l-0.243,3.877l2.911,0.184l-0.301,5.484l-9.697-0.607L78.702,60.512z"/>
			<path fill="none" d="M56.936,77.109c1.424-1.648,2.841-3.797,3.271-6.291c0.413-2.432-0.166-4.846-1.691-6.965
				c-0.493-0.688-1.116-1.398-1.78-2.145c-2.135-2.391-3.507-4.131-3.143-6.352c0.48-2.932,3.857-5.938,5.111-6.848
				c1.03-0.74,1.264-2.18,0.523-3.215c-0.745-1.031-2.178-1.264-3.212-0.523c-0.617,0.443-6.094,4.508-6.97,9.844
				c-0.748,4.555,2.138,7.795,4.249,10.158c0.547,0.621,1.073,1.199,1.479,1.768c0.809,1.125,1.098,2.268,0.894,3.486
				c-0.419,2.455-2.737,4.818-4.166,6c-7.885-1.17-15.198-0.678-16.774,8.906l-1.494,9.094c-1.836,11.174,2.214,23.703,12.175,25.34
				c10.333,1.699,17.83-9.094,19.64-20.111l1.495-9.092C67.882,82.021,63.193,78.766,56.936,77.109z M39.272,85.682
				c0.709-4.316,2.45-6.207,10.202-5.275l-1.484,9.043l-9.094-1.496L39.272,85.682z M60.504,98.512
				c-1.238,7.547-6.516,17.594-14.353,16.309c-7.018-1.152-9.812-11.303-8.374-20.047l0.372-2.271l22.728,3.734L60.504,98.512z
				 M61.625,91.691l-9.091-1.492l1.487-9.043c7.639,1.594,8.688,3.943,7.978,8.26L61.625,91.691z"/>
			<g>
				<g>
					<path fill="none" d="M20.887,76.553l-1.104-7.332l-8.698,1.352l1.102,7.334l1.301,8.662l5.164,35.977
						c0.063,0.418,0.28,0.725,0.567,0.936s0.649,0.33,1.065,0.268l5.912-0.889c0.752-0.115,1.282-0.834,1.171-1.582l-5.168-35.977
						L20.887,76.553z"/>
					<path fill="none" d="M1.538,68.852c0.135,0.916,0.999,1.557,1.963,1.451l0.418-0.062c0.92-0.137,1.557-0.996,1.453-1.965
						l-0.135-0.914L6.983,67.1l-1.254-8.338l-1.746,0.268l-0.139-0.916c-0.137-0.916-1.002-1.555-1.965-1.455l-0.419,0.064
						c-0.916,0.139-1.554,0.998-1.45,1.965L1.538,68.852z"/>
					<path fill="none" d="M22.099,56.562l1.241,8.25c8.151,0.393,8.953,5.725,7.852-1.609C30.394,58.17,25.726,56.871,22.099,56.562
						z"/>
					<path fill="none" d="M20.555,55.646c-0.077-0.506-0.339-0.846-0.674-1.096c-0.337-0.244-0.823-0.385-1.239-0.32L8.428,55.723
						c-0.918,0.133-1.556,0.998-1.451,1.963L7.114,58.6l1.251,8.332l0.136,0.918c0.076,0.498,0.34,0.844,0.678,1.09
						c0.095,0.074,0.189,0.141,0.237,0.178c0.227,0.096,0.454,0.188,0.752,0.186c0.084-0.012,0.165-0.025,0.249-0.035l0.418-0.064
						l8.749-1.316l0.666-0.098l0.331-0.051c0.171-0.027,0.251-0.039,0.373-0.098c0.722-0.279,1.208-1.031,1.081-1.871l-0.149-0.996
						l-1.24-8.25L20.555,55.646z"/>
				</g>
			</g>
		</g>
	</g>
</g>
</svg>
