<?xml version="1.0" encoding="utf-8"?>
<!-- Generator: Adobe Illustrator 16.0.0, SVG Export Plug-In . SVG Version: 6.00 Build 0)  -->
<!DOCTYPE svg PUBLIC "-//W3C//DTD SVG 1.1//EN" "http://www.w3.org/Graphics/SVG/1.1/DTD/svg11.dtd">
<svg version="1.1" xmlns="http://www.w3.org/2000/svg" xmlns:xlink="http://www.w3.org/1999/xlink" x="0px" y="0px"
	 width="98.732px" height="113.924px" viewBox="0 0 98.732 113.924" enable-background="new 0 0 98.732 113.924"
	 xml:space="preserve">
<g id="Layer_1">
</g>
<g id="Layer_2">
	<g>
		<path fill="none" d="M49.646,54.886v6.028h6.06v-1.516C55.706,56.521,54.775,55.106,49.646,54.886z"/>
		<path fill="none" d="M46.616,54.886c-5.13,0.221-6.061,1.636-6.061,4.513v1.516h6.061V54.886z"/>
		<path fill="none" d="M40.556,65.46c0,5.83,2.897,12.119,7.577,12.119c5.224,0,7.573-7.086,7.573-12.119v-1.516h-15.15V65.46z"/>
		<path fill="none" d="M98.732,34.812l-1.897-3.166l1.897-3.164h-3.67l-1.899-3.164l-1.771,3.164h-3.672l-1.772-3.164l1.772-3.164
			H84.05l-1.771-3.164l-1.899,3.164h-3.544l1.772,3.164l-1.772,3.164h-3.67l-1.899-3.164l-1.772,3.164h-3.672l-1.897-3.164
			l1.897-3.164h-3.67l-1.772-3.164l1.772-3.166h3.67l-1.897-3.164l1.897-3.164h-3.67l-1.772-3.164l-1.897,3.164H54.81l-1.771-3.164
			l1.771-3.167h-3.671L49.367,0l-1.773,3.164h-3.67l1.772,3.167l-1.772,3.164h-3.671l-1.899-3.164l-1.771,3.164h-3.671l1.898,3.164
			l-1.898,3.164h3.671l1.771,3.166l-1.771,3.164h-3.671l1.898,3.164l-1.898,3.164h-3.672l-1.771-3.164l-1.898,3.164h-3.671
			l-1.773-3.164l1.773-3.164h-3.544l-1.899-3.164l-1.772,3.164h-3.671l1.773,3.164l-1.773,3.164H7.341l-1.771-3.164l-1.898,3.164H0
			l1.897,3.164L0,34.812h3.671l1.898,3.164L3.671,41.14H0l1.897,3.164L0,47.47h3.671l1.898,3.164l1.771-3.164h3.671l1.773,3.164
			l-1.773,3.164h3.671l1.772,3.164l-1.772,3.164h-3.671l1.773,3.166l-1.773,3.164H7.341l-1.771-3.164l-1.898,3.164H0l1.897,3.164
			L0,72.784h3.671l1.898,3.166l-1.898,3.164H0l1.897,3.164L0,85.442h3.671l1.898,3.164l1.771-3.164h3.671l1.773,3.164l-1.773,3.167
			h3.671l1.772,3.164l1.899-3.164h3.544l-1.773-3.167l1.773-3.164h3.671l1.898,3.164l1.771-3.164h3.672l1.898,3.164l-1.898,3.167
			h3.671l1.771,3.164l-1.771,3.164h-3.671l1.898,3.164l-1.898,3.166h3.671l1.771,3.164l1.899-3.164h3.671l1.772,3.164l-1.772,3.164
			h3.67l1.773,3.164l1.771-3.164h3.671l-1.771-3.164l1.771-3.164h3.672l1.897,3.164l1.772-3.164h3.67l-1.897-3.166l1.897-3.164
			h-3.67l-1.772-3.164l1.772-3.164h3.67l-1.897-3.167l1.897-3.164h3.672l1.772,3.164l1.899-3.164h3.67l1.772,3.164l-1.772,3.167
			h3.544l1.899,3.164l1.771-3.164h3.671l-1.772-3.167l1.772-3.164h3.672l1.771,3.164l1.899-3.164h3.67l-1.897-3.164l1.897-3.164
			h-3.67l-1.899-3.164l1.899-3.166h3.67l-1.897-3.164l1.897-3.164h-3.67l-1.899-3.164l-1.771,3.164h-3.672l-1.772-3.164l1.772-3.166
			H84.05l-1.771-3.164l1.771-3.164h3.671l-1.772-3.164l1.772-3.164h3.672l1.771,3.164l1.899-3.164h3.67l-1.897-3.166l1.897-3.164
			h-3.67l-1.899-3.164l1.899-3.164H98.732z M21.064,44.121h-1.318v0.692c-0.031,0.721-0.597,1.285-1.287,1.285h-0.313
			c-0.723-0.03-1.287-0.596-1.287-1.285v-7.661c0.031-0.722,0.597-1.286,1.287-1.286h0.313c0.722,0.031,1.287,0.596,1.287,1.286
			v0.692h1.318V44.121z M30.263,59.223v20.091c0,0.564-0.472,1.037-1.035,1.037H24.77c-0.314,0-0.565-0.127-0.755-0.314
			c-0.187-0.189-0.313-0.44-0.313-0.754V59.189v-6.528v-5.525l6.562-0.031v5.525V59.223z M32.304,37.845v6.215v0.754
			c0,0.627-0.439,1.13-1.005,1.255c-0.095,0.03-0.157,0.03-0.283,0.03h-0.25h-0.503H23.67h-0.313c-0.062,0-0.126,0-0.188,0
			c-0.219-0.03-0.377-0.124-0.534-0.22c-0.031-0.031-0.094-0.093-0.156-0.155c-0.221-0.221-0.376-0.504-0.376-0.879v-0.692v-6.276
			v-0.692c0.031-0.722,0.596-1.286,1.286-1.286l7.691,0.031c0.314,0,0.659,0.156,0.879,0.376s0.376,0.503,0.376,0.879L32.304,37.845
			z M33.371,44.248v-6.217c2.637,0.628,5.933,2.104,5.964,5.903C39.336,49.459,39.336,45.44,33.371,44.248z M58.735,65.46
			c0,7.345-3.717,15.15-10.605,15.15c-6.637,0-10.604-7.703-10.604-15.15v-6.062c0-6.386,4.694-7.487,9.938-7.567
			c0.801-0.921,2.055-2.701,2.063-4.342c0.004-0.813-0.307-1.523-0.952-2.169c-0.325-0.325-0.727-0.644-1.148-0.987
			c-1.621-1.311-3.84-3.106-3.84-6.142c0-3.558,3.119-6.778,3.473-7.132c0.591-0.592,1.547-0.592,2.141-0.004
			c0.592,0.592,0.594,1.551,0.005,2.143c-0.72,0.726-2.588,3.037-2.588,4.99c0,1.48,1.075,2.464,2.716,3.787
			c0.512,0.416,0.993,0.811,1.385,1.202c1.215,1.213,1.852,2.717,1.84,4.341c-0.011,1.664-0.7,3.211-1.45,4.431
			c4.238,0.411,7.63,2.021,7.628,7.449V65.46z M79.337,80.61H65.702V35.161h13.635V80.61z"/>
		<polygon fill="none" points="76.307,74.55 74.034,74.55 74.034,71.519 76.307,71.519 76.307,68.49 71.763,68.49 71.763,65.46 
			76.307,65.46 76.307,62.429 74.034,62.429 74.034,59.398 76.307,59.398 76.307,56.37 71.763,56.37 71.763,53.34 76.307,53.34 
			76.307,50.31 74.034,50.31 74.034,47.28 76.307,47.28 76.307,44.251 71.763,44.251 71.763,41.22 76.307,41.22 76.307,38.188 
			68.732,38.188 68.732,77.579 76.307,77.579 		"/>
	</g>
</g>
</svg>
