<?xml version="1.0" encoding="utf-8"?>
<!-- Generator: Adobe Illustrator 16.0.0, SVG Export Plug-In . SVG Version: 6.00 Build 0)  -->
<!DOCTYPE svg PUBLIC "-//W3C//DTD SVG 1.1//EN" "http://www.w3.org/Graphics/SVG/1.1/DTD/svg11.dtd">
<svg version="1.1" id="Layer_1" xmlns="http://www.w3.org/2000/svg" xmlns:xlink="http://www.w3.org/1999/xlink" x="0px" y="0px"
	 width="56.332px" height="65px" viewBox="21.235 23.775 56.332 65" enable-background="new 21.235 23.775 56.332 65"
	 xml:space="preserve">
<g id="Layer_1_1_">
</g>
<g>
	<path d="M49.561,55.091v3.439h3.457v-0.864C53.018,56.023,52.488,55.216,49.561,55.091z"/>
	<path d="M47.832,55.091c-2.927,0.125-3.457,0.933-3.457,2.575v0.864h3.457V55.091z"/>
	<path d="M44.375,61.124c0,3.327,1.652,6.914,4.322,6.914c2.981,0,4.321-4.042,4.321-6.914v-0.865h-8.644V61.124z"/>
	<path d="M77.567,43.638l-1.083-1.807l1.083-1.806h-2.094l-1.084-1.806l-1.01,1.806h-2.096l-1.011-1.806l1.011-1.805H69.19
		l-1.011-1.805l-1.084,1.805h-2.021l1.011,1.805l-1.011,1.806h-2.095l-1.084-1.806l-1.011,1.806H58.79l-1.083-1.806l1.083-1.805
		h-2.094l-1.012-1.805l1.012-1.808h2.094l-1.083-1.805l1.083-1.805h-2.094l-1.012-1.806l-1.083,1.806h-2.095l-1.011-1.806
		l1.011-1.807h-2.095l-1.011-1.806l-1.011,1.806h-2.095l1.012,1.807l-1.012,1.806h-2.094l-1.084-1.806l-1.011,1.806h-2.095
		l1.084,1.805l-1.084,1.805h2.095l1.011,1.808l-1.011,1.805h-2.095l1.084,1.805l-1.084,1.806h-2.095l-1.011-1.806l-1.083,1.806
		h-2.095l-1.012-1.806l1.012-1.805h-2.021l-1.084-1.805l-1.012,1.805h-2.094l1.011,1.805l-1.011,1.806h-2.095l-1.011-1.806
		l-1.083,1.806h-2.095l1.083,1.806l-1.083,1.807h2.095l1.083,1.805l-1.083,1.806h-2.095l1.083,1.805l-1.083,1.808h2.095l1.083,1.804
		l1.011-1.804h2.095l1.011,1.804l-1.011,1.806h2.094l1.012,1.806l-1.012,1.806h-2.094l1.011,1.806l-1.011,1.806h-2.095l-1.011-1.806
		l-1.083,1.806h-2.095l1.083,1.806l-1.083,1.805h2.095l1.083,1.806l-1.083,1.806h-2.095l1.083,1.806l-1.083,1.806h2.095l1.083,1.806
		l1.011-1.806h2.095l1.011,1.806l-1.011,1.807h2.094l1.012,1.805l1.084-1.805h2.021l-1.012-1.807l1.012-1.806h2.095l1.083,1.806
		l1.011-1.806h2.095l1.084,1.806l-1.084,1.807h2.095l1.011,1.805l-1.011,1.806h-2.095l1.084,1.805l-1.084,1.808h2.095l1.011,1.804
		l1.084-1.804h2.094l1.012,1.804l-1.012,1.806h2.095l1.011,1.806l1.011-1.806h2.095l-1.011-1.806l1.011-1.804h2.095l1.083,1.804
		l1.012-1.804h2.094l-1.083-1.808l1.083-1.805h-2.094l-1.012-1.806l1.012-1.805h2.094l-1.083-1.807l1.083-1.806h2.095l1.011,1.806
		l1.084-1.806h2.095l1.011,1.806l-1.011,1.807h2.021l1.084,1.805l1.011-1.805h2.094l-1.011-1.807l1.011-1.806h2.096l1.01,1.806
		l1.084-1.806h2.094l-1.083-1.806l1.083-1.806h-2.094l-1.084-1.806l1.084-1.806h2.094l-1.083-1.805l1.083-1.806h-2.094l-1.084-1.806
		l-1.01,1.806h-2.096l-1.011-1.806l1.011-1.806H69.19l-1.011-1.806l1.011-1.806h2.094l-1.011-1.806l1.011-1.804h2.096l1.01,1.804
		l1.084-1.804h2.094l-1.083-1.808l1.083-1.805h-2.094l-1.084-1.806l1.084-1.805H77.567z M33.254,48.948h-0.753v0.396
		c-0.018,0.411-0.341,0.733-0.734,0.733h-0.179c-0.412-0.017-0.734-0.34-0.734-0.733v-4.371c0.019-0.411,0.341-0.733,0.734-0.733
		h0.179c0.413,0.018,0.734,0.34,0.734,0.733v0.396h0.753V48.948z M38.502,57.564v11.464c0,0.322-0.269,0.591-0.591,0.591h-2.544
		c-0.179,0-0.322-0.071-0.431-0.179c-0.106-0.107-0.179-0.251-0.179-0.43V57.546v-3.725V50.67l3.744-0.02v3.153V57.564z
		 M39.666,45.368v3.546v0.43c0,0.358-0.25,0.646-0.573,0.717c-0.054,0.017-0.09,0.017-0.161,0.017h-0.143h-0.287H34.74h-0.18
		c-0.035,0-0.071,0-0.106,0c-0.125-0.017-0.216-0.07-0.305-0.125c-0.018-0.019-0.054-0.053-0.09-0.089
		c-0.125-0.126-0.215-0.287-0.215-0.501v-0.395v-3.582V44.99c0.019-0.411,0.341-0.733,0.734-0.733l4.389,0.018
		c0.179,0,0.376,0.09,0.501,0.214c0.126,0.126,0.215,0.288,0.215,0.502L39.666,45.368z M40.274,49.021v-3.547
		c1.505,0.357,3.386,1.2,3.403,3.368C43.678,51.994,43.678,49.702,40.274,49.021z M54.747,61.124c0,4.19-2.12,8.644-6.051,8.644
		c-3.786,0-6.051-4.394-6.051-8.644v-3.458c0-3.645,2.678-4.272,5.671-4.317c0.456-0.525,1.172-1.542,1.177-2.479
		c0.002-0.464-0.175-0.868-0.543-1.237c-0.186-0.185-0.415-0.367-0.655-0.563c-0.925-0.747-2.19-1.772-2.19-3.504
		c0-2.03,1.779-3.867,1.98-4.068c0.337-0.339,0.883-0.339,1.221-0.002c0.339,0.337,0.34,0.884,0.004,1.222
		c-0.411,0.414-1.477,1.733-1.477,2.848c0,0.844,0.614,1.405,1.55,2.16c0.291,0.237,0.566,0.462,0.79,0.687
		c0.693,0.691,1.057,1.55,1.05,2.476c-0.006,0.95-0.4,1.833-0.828,2.528c2.418,0.234,4.353,1.153,4.353,4.251V61.124z
		 M66.501,69.768h-7.779V43.836h7.779V69.768z"/>
	<polygon points="64.772,66.311 63.475,66.311 63.475,64.58 64.772,64.58 64.772,62.854 62.179,62.854 62.179,61.124 64.772,61.124 
		64.772,59.394 63.475,59.394 63.475,57.666 64.772,57.666 64.772,55.938 62.179,55.938 62.179,54.209 64.772,54.209 64.772,52.479 
		63.475,52.479 63.475,50.752 64.772,50.752 64.772,49.022 62.179,49.022 62.179,47.293 64.772,47.293 64.772,45.564 60.451,45.564 
		60.451,68.038 64.772,68.038 	"/>
</g>
</svg>
