<?xml version="1.0" encoding="utf-8"?>
<!-- Generator: Adobe Illustrator 16.0.0, SVG Export Plug-In . SVG Version: 6.00 Build 0)  -->
<!DOCTYPE svg PUBLIC "-//W3C//DTD SVG 1.1//EN" "http://www.w3.org/Graphics/SVG/1.1/DTD/svg11.dtd">
<svg version="1.1" id="Layer_1" xmlns="http://www.w3.org/2000/svg" xmlns:xlink="http://www.w3.org/1999/xlink" x="0px" y="0px"
	 width="75.326px" height="65px" viewBox="9.438 6.775 75.326 65" enable-background="new 9.438 6.775 75.326 65"
	 xml:space="preserve">
<g id="Layer_1_1_">
</g>
<g>
	<path d="M62.571,21.948c-0.247-0.248-0.65-0.248-0.898-0.002c-0.59,0.592-0.983,1.318-1.187,2.105
		c-0.001,0.004-0.005,0.002-0.007,0.004c-0.629,0.631-1.467,0.976-2.357,0.976s-1.729-0.345-2.357-0.976
		c-0.247-0.248-0.648-0.248-0.896,0c-0.25,0.248-0.25,0.65,0,0.897c0.867,0.869,2.024,1.35,3.254,1.35
		c0.805,0,1.568-0.226,2.25-0.609c0.111,1.041,0.547,2.012,1.299,2.764c0.125,0.124,0.287,0.185,0.45,0.185
		c0.161,0,0.324-0.061,0.448-0.185c0.248-0.25,0.248-0.65,0-0.897c-0.628-0.63-0.975-1.467-0.975-2.358
		c0-0.889,0.347-1.727,0.977-2.354C62.819,22.599,62.819,22.196,62.571,21.948z"/>
	<path d="M54.443,17.389c0.632-0.63,1.468-0.976,2.356-0.976c0.891,0,1.729,0.346,2.356,0.976c0.003,0.002,0.007,0,0.009,0.004
		c0.203,0.785,0.597,1.515,1.186,2.105c0.125,0.123,0.287,0.187,0.45,0.187c0.161,0,0.326-0.063,0.448-0.187
		c0.248-0.248,0.248-0.651,0-0.896c-0.63-0.631-0.976-1.469-0.976-2.36c-0.001-0.889,0.346-1.727,0.976-2.354
		c0.248-0.248,0.248-0.651,0-0.898c-0.245-0.248-0.648-0.246-0.898-0.001c-0.752,0.751-1.189,1.723-1.3,2.764
		c-0.682-0.386-1.446-0.609-2.251-0.609c-1.229,0-2.385,0.48-3.254,1.35c-0.248,0.248-0.248,0.648,0,0.897
		C53.795,17.638,54.195,17.638,54.443,17.389z"/>
	<path d="M84.764,25.41c0-1.447-0.546-2.831-1.489-3.891c0.514-0.883,0.795-1.896,0.795-2.936c0-2.996-2.264-5.474-5.169-5.814
		c-0.267-0.972-0.778-1.851-1.507-2.579c-1.103-1.104-2.568-1.712-4.132-1.712c-0.649,0-1.293,0.108-1.904,0.317
		c-1.103-1.265-2.721-2.021-4.418-2.021c-1.329,0-2.597,0.446-3.616,1.25c-1.02-0.804-2.287-1.25-3.616-1.25
		c-1.839,0-3.519,0.836-4.612,2.239c-0.763-0.353-1.598-0.538-2.461-0.538c-2.738,0-5.042,1.85-5.68,4.427
		c-2.578,0.637-4.428,2.941-4.428,5.681c0,1.043,0.281,2.067,0.804,2.958c-0.552,0.91-0.851,1.961-0.851,3.038
		c0,3.229,2.626,5.854,5.854,5.854c0.328,0,0.653-0.026,0.974-0.082c0.959,1.993,2.99,3.31,5.272,3.31
		c1.196,0,2.342-0.357,3.308-1.021c1.181,0.786,2.634,1.133,4.041,0.965c0.635,1.051,1.589,1.879,2.719,2.361
		c0.279,2.971,2.786,5.304,5.829,5.304c2.691,0,4.968-1.794,5.647-4.306c2.865-0.377,5.087-2.836,5.087-5.802
		c0-0.119-0.005-0.239-0.013-0.357C83.342,29.91,84.764,27.82,84.764,25.41z M79.683,28.899l-1.154,0.251l0.293,1.147
		c0.07,0.281,0.108,0.571,0.108,0.865c0,1.968-1.604,3.571-3.573,3.571c-0.047,0-0.094-0.002-0.14-0.004l-1.08-0.046l-0.103,1.076
		c-0.174,1.81-1.737,3.228-3.558,3.228c-1.97,0-3.573-1.603-3.573-3.574c0-0.066,0.002-0.133,0.007-0.199l0.057-0.939l-0.912-0.232
		c-1.106-0.283-2.017-1.088-2.436-2.148l-0.385-0.975l-1.005,0.302c-1.232,0.371-2.629,0.028-3.56-0.869l-0.799-0.771l-0.792,0.779
		c-0.669,0.657-1.557,1.02-2.499,1.02c-1.632,0-3.053-1.104-3.457-2.681l-0.317-1.237l-1.193,0.455
		c-0.41,0.156-0.84,0.234-1.278,0.234c-1.97,0-3.573-1.603-3.573-3.573c0-0.851,0.288-1.645,0.834-2.292l0.608-0.722l-0.597-0.732
		c-0.522-0.641-0.799-1.418-0.799-2.249c0-1.828,1.424-3.39,3.238-3.557l0.944-0.089l0.087-0.941
		c0.167-1.817,1.73-3.239,3.557-3.239c0.785,0,1.527,0.247,2.147,0.717l1.106,0.836l0.605-1.249
		c0.603-1.237,1.834-2.006,3.214-2.006c1.064,0,2.062,0.467,2.74,1.285l0.876,1.056l0.878-1.056
		c0.677-0.818,1.676-1.285,2.738-1.285c1.244,0,2.418,0.667,3.065,1.739l0.567,0.944l0.962-0.535
		c0.533-0.296,1.115-0.447,1.729-0.447c0.952,0,1.845,0.371,2.518,1.044c0.593,0.594,0.95,1.353,1.034,2.19l0.108,1.095l1.099-0.069
		c0.065-0.004,0.131-0.007,0.194-0.007c1.97,0,3.572,1.603,3.572,3.572c0,1.008-0.432,1.976-1.188,2.651l-0.734,0.651l0.846,0.444
		c1.092,0.644,1.771,1.824,1.771,3.081C82.484,27.107,81.332,28.543,79.683,28.899z"/>
	<path d="M57.554,20.298c-0.246-0.248-0.648-0.248-0.897,0c-0.629,0.631-1.467,0.976-2.355,0.976c-0.891,0-1.729-0.347-2.356-0.978
		c-0.003-0.002-0.009-0.002-0.014-0.005c-0.196-0.77-0.579-1.501-1.18-2.103c-0.25-0.249-0.65-0.249-0.899,0
		c-0.248,0.246-0.248,0.649,0,0.897c1.301,1.301,1.301,3.415,0,4.714c-0.248,0.249-0.248,0.649,0,0.899
		c0.124,0.123,0.287,0.185,0.45,0.185c0.161,0,0.324-0.062,0.449-0.185c0.772-0.772,1.191-1.755,1.299-2.766
		c0.683,0.386,1.445,0.609,2.251,0.609c1.228,0,2.385-0.478,3.253-1.348C57.805,20.947,57.805,20.545,57.554,20.298z"/>
	<path d="M73.01,27.677c-1.094,0-2.084,0.399-2.875,1.038c-0.543-1.939-2.307-3.373-4.415-3.373
		c-0.353,0.002-0.638,0.284-0.638,0.637c0,0.35,0.285,0.636,0.636,0.636c1.837,0,3.335,1.494,3.335,3.332
		c0,0.006,0.005,0.009,0.005,0.013c-0.404,0.684-0.652,1.473-0.652,2.323c0,0.352,0.283,0.635,0.635,0.635s0.635-0.283,0.635-0.635
		c0-1.841,1.496-3.333,3.335-3.333c0.35,0,0.635-0.285,0.635-0.637C73.645,27.962,73.359,27.677,73.01,27.677z"/>
	<path d="M77.745,20.539c-1.062,0-2.059,0.377-2.873,1.037c-0.21-0.758-0.593-1.456-1.16-2.024c-0.87-0.868-2.025-1.346-3.256-1.346
		c-0.35,0-0.635,0.282-0.635,0.635c0,0.351,0.285,0.635,0.635,0.635c0.891,0,1.729,0.347,2.356,0.975
		c0.631,0.631,0.978,1.469,0.978,2.357l0.004,0.009c-0.414,0.699-0.65,1.491-0.65,2.327c0,0.35,0.285,0.635,0.635,0.635
		c0.353,0,0.637-0.285,0.637-0.635c0-0.891,0.347-1.727,0.977-2.357c0.627-0.629,1.465-0.975,2.354-0.975
		c0.35-0.001,0.635-0.286,0.635-0.638C78.38,20.824,78.095,20.539,77.745,20.539z"/>
	<path d="M67.037,21.878c0.124,0.124,0.285,0.188,0.448,0.188c0.162,0,0.326-0.063,0.45-0.188c0.247-0.247,0.247-0.65,0-0.896
		c-1.301-1.3-1.301-3.415,0-4.715c0.002-0.001,0.002-0.006,0.003-0.008c0.789-0.203,1.515-0.597,2.104-1.186
		c0.25-0.247,0.25-0.65,0-0.898c-0.248-0.248-0.651-0.248-0.898,0c-0.629,0.629-1.467,0.978-2.357,0.978
		c-0.889,0-1.725-0.349-2.354-0.976c-0.249-0.249-0.651-0.249-0.899,0c-0.247,0.247-0.247,0.649,0,0.897
		c0.752,0.753,1.723,1.189,2.764,1.301C65.313,18.127,65.547,20.387,67.037,21.878z"/>
	<path d="M28.767,55.609c-2.142,0-3.93,1.454-4.481,3.422c-0.803-0.647-1.809-1.054-2.916-1.054c-0.357,0-0.647,0.29-0.647,0.646
		c0,0.357,0.29,0.646,0.647,0.646c1.864,0,3.383,1.517,3.383,3.384c0,0.355,0.288,0.645,0.645,0.645
		c0.355,0,0.645-0.289,0.645-0.645c0-0.863-0.251-1.663-0.662-2.358c0-0.003,0.005-0.008,0.005-0.013
		c0-1.865,1.521-3.383,3.385-3.383c0.355,0,0.646-0.289,0.646-0.645C29.414,55.897,29.124,55.609,28.767,55.609z"/>
	<path d="M21.231,55.407c0-0.849-0.24-1.653-0.659-2.362c0-0.004,0.003-0.006,0.003-0.008c0-0.903,0.353-1.754,0.993-2.393
		c0.637-0.64,1.485-0.989,2.391-0.989c0.355,0,0.646-0.291,0.646-0.646c0-0.356-0.29-0.644-0.646-0.644
		c-1.248,0-2.422,0.484-3.305,1.366c-0.577,0.578-0.965,1.287-1.177,2.054c-0.827-0.67-1.838-1.053-2.917-1.053
		c-0.355,0-0.645,0.29-0.645,0.646c0,0.355,0.289,0.645,0.645,0.645c0.903,0,1.752,0.354,2.39,0.992
		c0.64,0.639,0.99,1.488,0.99,2.392c0,0.354,0.289,0.644,0.646,0.644C20.943,56.051,21.231,55.762,21.231,55.407z"/>
	<path d="M33.303,49.675c0.127,0.127,0.292,0.19,0.457,0.19s0.33-0.063,0.457-0.19c0.597-0.597,0.996-1.337,1.202-2.135
		c0.002-0.004,0.006-0.002,0.01-0.005c0.638-0.639,1.486-0.99,2.39-0.99s1.754,0.352,2.393,0.99c0.252,0.252,0.66,0.252,0.912,0
		c0.25-0.251,0.25-0.659,0-0.911c-0.882-0.883-2.057-1.369-3.305-1.369c-0.815,0-1.591,0.227-2.283,0.62
		c-0.112-1.06-0.557-2.044-1.318-2.808c-0.254-0.248-0.664-0.25-0.914,0.002c-0.249,0.251-0.249,0.66,0,0.912
		c0.641,0.637,0.993,1.487,0.992,2.391c0,0.903-0.352,1.754-0.992,2.395C33.052,49.017,33.052,49.424,33.303,49.675z"/>
	<path d="M30.074,44.275c-0.64,0.637-1.488,0.99-2.393,0.99c-0.901,0-1.752-0.354-2.392-0.993c-0.252-0.251-0.66-0.251-0.912,0
		c-0.252,0.254-0.252,0.661,0,0.913c0.6,0.598,1.336,0.998,2.136,1.203c0.003,0.002,0.001,0.007,0.006,0.009
		c1.32,1.318,1.32,3.466,0,4.784c-0.252,0.251-0.252,0.66,0,0.911c0.124,0.126,0.292,0.19,0.454,0.19c0.165,0,0.33-0.063,0.457-0.19
		c1.511-1.514,1.749-3.806,0.749-5.586c1.059-0.111,2.041-0.556,2.804-1.32c0.253-0.251,0.253-0.66,0-0.911
		C30.734,44.023,30.325,44.023,30.074,44.275z"/>
	<path d="M38.87,54.303c-0.639,0.639-1.488,0.99-2.392,0.99s-1.754-0.352-2.393-0.99c-0.002-0.002-0.006-0.001-0.009-0.004
		c-0.205-0.799-0.604-1.536-1.203-2.136c-0.252-0.251-0.66-0.252-0.911,0s-0.251,0.66,0,0.912c0.638,0.637,0.99,1.487,0.99,2.391
		s-0.351,1.753-0.99,2.394c-0.251,0.251-0.251,0.658,0,0.91c0.127,0.125,0.292,0.188,0.457,0.188c0.163,0,0.329-0.062,0.457-0.188
		c0.762-0.762,1.206-1.748,1.317-2.805c0.691,0.391,1.468,0.618,2.284,0.618c1.248,0,2.421-0.488,3.304-1.37
		c0.252-0.25,0.252-0.658,0-0.91C39.529,54.051,39.122,54.051,38.87,54.303z"/>
	<path d="M52.308,48.748c0-2.78-1.879-5.118-4.494-5.766c-0.647-2.615-2.985-4.492-5.766-4.492c-0.878,0-1.723,0.187-2.497,0.546
		c-1.11-1.426-2.813-2.272-4.683-2.272c-1.348,0-2.636,0.451-3.67,1.27c-1.035-0.816-2.32-1.27-3.669-1.27
		c-1.724,0-3.364,0.766-4.484,2.051c-0.619-0.212-1.273-0.324-1.934-0.324c-1.585,0-3.075,0.618-4.195,1.739
		c-0.737,0.739-1.257,1.631-1.526,2.618c-2.949,0.344-5.247,2.859-5.247,5.9c0,1.056,0.283,2.082,0.806,2.981
		c-0.956,1.074-1.511,2.479-1.511,3.948c0,2.445,1.443,4.568,3.618,5.476c-0.008,0.121-0.012,0.242-0.012,0.364
		c0,3.011,2.253,5.505,5.162,5.889c0.69,2.549,3.001,4.369,5.733,4.369c3.088,0,5.631-2.367,5.916-5.383
		c1.147-0.49,2.114-1.331,2.758-2.397c1.428,0.171,2.904-0.182,4.103-0.979c0.981,0.675,2.144,1.039,3.357,1.039
		c2.315,0,4.378-1.336,5.35-3.36c0.327,0.057,0.657,0.083,0.99,0.083c3.275,0,5.941-2.664,5.941-5.942
		c0-1.092-0.301-2.161-0.863-3.082C52.022,50.848,52.308,49.808,52.308,48.748z M46.413,58.462c-0.444,0-0.881-0.08-1.297-0.24
		l-1.211-0.462l-0.323,1.257c-0.409,1.602-1.854,2.722-3.51,2.722c-0.955,0-1.856-0.368-2.536-1.035l-0.804-0.79l-0.812,0.781
		c-0.942,0.91-2.361,1.257-3.612,0.882l-1.019-0.308l-0.391,0.99c-0.425,1.078-1.35,1.894-2.474,2.181l-0.925,0.237l0.058,0.952
		c0.004,0.067,0.006,0.135,0.006,0.203c0,2-1.625,3.628-3.626,3.628c-1.848,0-3.435-1.44-3.61-3.275l-0.105-1.095l-1.095,0.048
		c-0.048,0.003-0.095,0.003-0.143,0.003c-2,0-3.627-1.626-3.627-3.625c0-0.297,0.037-0.593,0.11-0.878l0.298-1.164l-1.174-0.254
		c-1.673-0.363-2.841-1.82-2.841-3.542c0-1.277,0.688-2.476,1.797-3.128l0.859-0.45l-0.747-0.66
		c-0.767-0.689-1.206-1.67-1.206-2.691c0-2,1.627-3.628,3.629-3.628c0.063,0,0.129,0.004,0.194,0.008l1.115,0.071l0.112-1.112
		c0.083-0.851,0.446-1.62,1.048-2.222c0.683-0.684,1.59-1.061,2.558-1.061c0.622,0,1.212,0.152,1.754,0.453l0.978,0.544l0.576-0.958
		c0.655-1.088,1.847-1.767,3.109-1.767c1.077,0,2.093,0.476,2.78,1.303l0.89,1.074l0.892-1.074c0.687-0.827,1.7-1.303,2.778-1.303
		c1.401,0,2.652,0.78,3.262,2.037l0.615,1.267l1.124-0.848c0.63-0.477,1.383-0.729,2.179-0.729c1.854,0,3.44,1.443,3.61,3.287
		l0.089,0.958l0.958,0.089c1.843,0.169,3.288,1.756,3.288,3.609c0,0.844-0.281,1.634-0.812,2.283l-0.605,0.744l0.618,0.733
		c0.554,0.657,0.847,1.46,0.847,2.326C50.04,56.835,48.412,58.462,46.413,58.462z"/>
	<path d="M44.872,48.348c-0.252-0.253-0.66-0.253-0.912,0c-0.611,0.609-0.998,1.353-1.199,2.136c-0.004,0.002-0.01,0-0.013,0.004
		c-0.639,0.64-1.489,0.99-2.391,0.99c-0.903,0-1.754-0.35-2.392-0.99c-0.252-0.252-0.661-0.252-0.912,0
		c-0.253,0.252-0.253,0.66,0,0.912c0.883,0.884,2.057,1.369,3.304,1.369c0.816,0,1.591-0.229,2.285-0.62
		c0.108,1.026,0.533,2.022,1.317,2.806c0.127,0.127,0.292,0.19,0.457,0.19c0.164,0,0.33-0.063,0.455-0.19
		c0.252-0.252,0.252-0.658,0-0.91c-1.32-1.319-1.32-3.466,0-4.785C45.124,49.008,45.124,48.599,44.872,48.348z"/>
	<path d="M26.854,31.798c0.584,0.011,1.062-0.455,1.072-1.036c0-0.013,0-0.022,0-0.035v-7.36h6.938l-1.352,1.353
		c-0.419,0.403-0.433,1.069-0.029,1.489c0.403,0.421,1.07,0.434,1.489,0.029c0.011-0.009,0.021-0.019,0.031-0.029l3.15-3.149
		c0.201-0.202,0.312-0.478,0.309-0.762c-0.006-0.274-0.116-0.535-0.309-0.729l-3.15-3.148c-0.404-0.421-1.07-0.434-1.491-0.029
		c-0.419,0.401-0.433,1.068-0.029,1.489c0.01,0.009,0.019,0.02,0.029,0.028l1.352,1.354h-7.992c-0.581,0-1.054,0.472-1.054,1.052
		v8.414C25.809,31.308,26.272,31.787,26.854,31.798z"/>
	<path d="M67.903,43.577c-0.581-0.009-1.062,0.455-1.069,1.038c0,0.01,0,0.02,0,0.03v7.359h-6.94l1.352-1.353
		c0.203-0.197,0.32-0.47,0.32-0.753c0.002-0.582-0.47-1.056-1.051-1.057c-0.287,0-0.562,0.115-0.761,0.32l-3.148,3.15
		c-0.411,0.411-0.411,1.079,0,1.49l3.148,3.149c0.403,0.421,1.07,0.434,1.491,0.03c0.419-0.402,0.432-1.069,0.029-1.489
		c-0.01-0.011-0.021-0.02-0.029-0.03l-1.352-1.352h7.994c0.581,0,1.054-0.471,1.054-1.054v-8.413l0,0
		C68.949,44.063,68.484,43.584,67.903,43.577z"/>
</g>
</svg>
