<?xml version="1.0" encoding="utf-8"?>
<!-- Generator: Adobe Illustrator 16.0.0, SVG Export Plug-In . SVG Version: 6.00 Build 0)  -->
<!DOCTYPE svg PUBLIC "-//W3C//DTD SVG 1.1//EN" "http://www.w3.org/Graphics/SVG/1.1/DTD/svg11.dtd">
<svg version="1.1" xmlns="http://www.w3.org/2000/svg" xmlns:xlink="http://www.w3.org/1999/xlink" x="0px" y="0px"
	 width="92.709px" height="80px" viewBox="0 0 92.709 80" enable-background="new 0 0 92.709 80" xml:space="preserve">
<g id="Layer_1">
</g>
<g id="Layer_2">
	<g>
		<path d="M65.396,18.675c-0.305-0.306-0.801-0.306-1.106-0.003c-0.726,0.729-1.21,1.623-1.46,2.592
			c-0.001,0.004-0.006,0.002-0.009,0.005c-0.773,0.775-1.805,1.2-2.901,1.2c-1.096,0-2.127-0.425-2.9-1.2
			c-0.305-0.306-0.799-0.306-1.104,0c-0.307,0.305-0.307,0.8,0,1.104c1.068,1.069,2.492,1.66,4.005,1.66
			c0.99,0,1.931-0.277,2.77-0.749c0.137,1.281,0.674,2.476,1.599,3.4c0.153,0.153,0.354,0.228,0.554,0.228
			c0.199,0,0.399-0.074,0.553-0.228c0.305-0.307,0.305-0.8,0-1.104c-0.773-0.776-1.2-1.806-1.2-2.903
			c0-1.094,0.427-2.125,1.202-2.896C65.7,19.475,65.7,18.979,65.396,18.675z"/>
		<path d="M55.392,13.062c0.777-0.775,1.807-1.201,2.9-1.201c1.097,0,2.127,0.426,2.9,1.201
			c0.004,0.003,0.008,0,0.011,0.005c0.25,0.967,0.734,1.864,1.459,2.591c0.153,0.151,0.354,0.229,0.554,0.229
			c0.199,0,0.401-0.078,0.553-0.229c0.305-0.305,0.305-0.801,0-1.104c-0.775-0.776-1.201-1.808-1.201-2.904
			c-0.002-1.094,0.426-2.125,1.201-2.897c0.305-0.306,0.305-0.803,0-1.106c-0.303-0.305-0.799-0.303-1.106-0.001
			c-0.925,0.925-1.464,2.12-1.6,3.401c-0.839-0.475-1.78-0.75-2.771-0.75c-1.513,0-2.936,0.591-4.005,1.661
			c-0.305,0.305-0.305,0.798,0,1.104C54.594,13.369,55.087,13.369,55.392,13.062z"/>
		<path d="M92.709,22.935c0-1.78-0.672-3.483-1.833-4.788c0.633-1.087,0.979-2.334,0.979-3.612
			c0-3.688-2.786-6.737-6.362-7.156c-0.328-1.196-0.958-2.278-1.854-3.175c-1.357-1.359-3.162-2.107-5.086-2.107
			c-0.8,0-1.592,0.134-2.344,0.392C74.852,0.93,72.86,0,70.771,0c-1.636,0-3.195,0.549-4.45,1.539C65.065,0.549,63.506,0,61.87,0
			c-2.264,0-4.331,1.028-5.677,2.756c-0.938-0.434-1.966-0.662-3.028-0.662c-3.37,0-6.206,2.276-6.99,5.448
			c-3.174,0.784-5.45,3.62-5.45,6.992c0,1.283,0.347,2.544,0.989,3.641c-0.68,1.119-1.047,2.413-1.047,3.739
			c0,3.974,3.232,7.205,7.206,7.205c0.403,0,0.804-0.033,1.198-0.101c1.18,2.453,3.68,4.072,6.488,4.072
			c1.473,0,2.883-0.439,4.071-1.257c1.453,0.968,3.242,1.395,4.974,1.188c0.781,1.293,1.955,2.312,3.347,2.906
			c0.343,3.656,3.429,6.527,7.174,6.527c3.312,0,6.114-2.207,6.951-5.299c3.526-0.464,6.26-3.49,6.26-7.141
			c0-0.146-0.005-0.294-0.015-0.44C90.959,28.474,92.709,25.901,92.709,22.935z M86.456,27.229l-1.422,0.31l0.361,1.411
			c0.087,0.347,0.134,0.704,0.134,1.065c0,2.422-1.975,4.396-4.398,4.396c-0.058,0-0.115-0.002-0.172-0.005L79.63,34.35
			l-0.127,1.325c-0.214,2.227-2.138,3.972-4.378,3.972c-2.425,0-4.398-1.973-4.398-4.398c0-0.082,0.003-0.164,0.009-0.245
			l0.07-1.156l-1.123-0.287c-1.361-0.349-2.482-1.338-2.997-2.644l-0.474-1.2l-1.237,0.372c-1.517,0.456-3.235,0.035-4.381-1.069
			L59.61,28.07l-0.975,0.958c-0.823,0.81-1.916,1.256-3.075,1.256c-2.009,0-3.758-1.359-4.256-3.3l-0.391-1.523l-1.469,0.561
			c-0.505,0.192-1.033,0.289-1.572,0.289c-2.425,0-4.398-1.973-4.398-4.398c0-1.047,0.354-2.023,1.026-2.82l0.749-0.889
			l-0.734-0.901c-0.644-0.789-0.983-1.745-0.983-2.769c0-2.249,1.752-4.171,3.986-4.377l1.161-0.109l0.107-1.159
			c0.206-2.236,2.13-3.986,4.378-3.986c0.966,0,1.88,0.305,2.643,0.882l1.362,1.029l0.745-1.537
			c0.741-1.522,2.257-2.469,3.955-2.469c1.31,0,2.537,0.574,3.372,1.581l1.079,1.3l1.08-1.3c0.833-1.007,2.062-1.581,3.37-1.581
			c1.531,0,2.977,0.821,3.772,2.141l0.698,1.162l1.185-0.659C77.083,5.086,77.8,4.9,78.555,4.9c1.172,0,2.271,0.456,3.1,1.285
			c0.729,0.73,1.169,1.664,1.272,2.695l0.134,1.348l1.352-0.085c0.081-0.006,0.161-0.009,0.239-0.009
			c2.425,0,4.396,1.972,4.396,4.396c0,1.24-0.531,2.432-1.461,3.264l-0.904,0.802l1.041,0.546c1.344,0.792,2.18,2.245,2.18,3.792
			C89.903,25.023,88.485,26.791,86.456,27.229z"/>
		<path d="M59.22,16.643c-0.303-0.305-0.798-0.305-1.104,0c-0.773,0.776-1.805,1.201-2.899,1.201
			c-1.096,0-2.127-0.427-2.9-1.203c-0.003-0.003-0.011-0.002-0.016-0.006c-0.242-0.947-0.713-1.848-1.453-2.588
			c-0.307-0.307-0.8-0.307-1.106,0c-0.305,0.303-0.305,0.8,0,1.104c1.602,1.601,1.602,4.203,0,5.802c-0.305,0.307-0.305,0.8,0,1.106
			c0.153,0.151,0.354,0.228,0.554,0.228c0.199,0,0.399-0.076,0.553-0.228c0.951-0.95,1.467-2.159,1.6-3.403
			c0.84,0.475,1.778,0.75,2.77,0.75c1.512,0,2.936-0.588,4.004-1.658C59.528,17.442,59.528,16.947,59.22,16.643z"/>
		<path d="M78.242,25.725c-1.346,0-2.564,0.491-3.538,1.277c-0.668-2.387-2.839-4.15-5.434-4.15
			c-0.434,0.002-0.785,0.35-0.785,0.783c0,0.431,0.352,0.782,0.783,0.782c2.261,0,4.104,1.839,4.104,4.102
			c0,0.007,0.006,0.01,0.006,0.016c-0.497,0.841-0.803,1.812-0.803,2.859c0,0.432,0.35,0.781,0.782,0.781
			c0.432,0,0.781-0.35,0.781-0.781c0-2.266,1.841-4.103,4.104-4.103c0.431,0,0.782-0.351,0.782-0.783S78.673,25.725,78.242,25.725z"
			/>
		<path d="M84.07,16.94c-1.308,0-2.533,0.463-3.536,1.275c-0.258-0.932-0.729-1.791-1.428-2.491
			c-1.07-1.068-2.492-1.656-4.007-1.656c-0.431,0-0.781,0.348-0.781,0.781c0,0.432,0.351,0.781,0.781,0.781
			c1.097,0,2.127,0.427,2.9,1.2c0.776,0.775,1.203,1.807,1.203,2.901l0.005,0.01c-0.51,0.861-0.801,1.836-0.801,2.864
			c0,0.431,0.351,0.782,0.781,0.782c0.434,0,0.783-0.352,0.783-0.782c0-1.096,0.427-2.125,1.203-2.9
			c0.771-0.774,1.802-1.2,2.896-1.2c0.43-0.001,0.781-0.353,0.781-0.784C84.853,17.291,84.501,16.94,84.07,16.94z"/>
		<path d="M70.892,18.588c0.153,0.152,0.352,0.23,0.552,0.23s0.401-0.078,0.554-0.23c0.305-0.305,0.305-0.801,0-1.104
			c-1.601-1.6-1.601-4.203,0-5.803C72,11.68,72,11.675,72.001,11.672c0.971-0.25,1.864-0.734,2.59-1.459
			c0.308-0.305,0.308-0.801,0-1.106c-0.305-0.305-0.801-0.305-1.105,0c-0.774,0.774-1.806,1.203-2.901,1.203
			c-1.094,0-2.123-0.429-2.896-1.2c-0.307-0.307-0.802-0.307-1.106,0c-0.305,0.305-0.305,0.8,0,1.104
			c0.925,0.927,2.119,1.464,3.401,1.602C68.771,13.972,69.058,16.753,70.892,18.588z"/>
		<path d="M23.789,60.104c-2.635,0-4.836,1.79-5.515,4.212c-0.988-0.797-2.227-1.297-3.59-1.297
			c-0.439,0-0.796,0.356-0.796,0.794c0,0.439,0.356,0.795,0.796,0.795c2.295,0,4.164,1.866,4.164,4.164
			c0,0.438,0.354,0.794,0.793,0.794c0.438,0,0.794-0.356,0.794-0.794c0-1.062-0.31-2.047-0.815-2.902
			c0-0.004,0.006-0.01,0.006-0.016c0-2.296,1.871-4.163,4.166-4.163c0.438,0,0.794-0.356,0.794-0.794
			C24.586,60.458,24.229,60.104,23.789,60.104z"/>
		<path d="M14.516,59.854c0-1.045-0.296-2.034-0.812-2.907c0-0.005,0.004-0.007,0.004-0.01
			c0-1.112,0.434-2.159,1.222-2.945c0.784-0.786,1.829-1.217,2.943-1.217c0.438,0,0.794-0.358,0.794-0.796
			c0-0.438-0.356-0.792-0.794-0.792c-1.537,0-2.981,0.597-4.067,1.682c-0.711,0.712-1.188,1.584-1.448,2.527
			c-1.019-0.824-2.263-1.295-3.591-1.295c-0.438,0-0.793,0.356-0.793,0.795c0,0.438,0.355,0.794,0.793,0.794
			c1.111,0,2.156,0.435,2.941,1.221c0.787,0.786,1.219,1.831,1.219,2.943c0,0.437,0.355,0.792,0.795,0.792
			S14.516,60.291,14.516,59.854z"/>
		<path d="M29.373,52.8c0.155,0.156,0.359,0.234,0.562,0.234c0.203,0,0.406-0.078,0.562-0.234
			c0.735-0.735,1.227-1.646,1.48-2.628c0.002-0.005,0.007-0.003,0.012-0.006c0.784-0.786,1.829-1.219,2.941-1.219
			c1.111,0,2.158,0.433,2.944,1.219c0.31,0.311,0.812,0.311,1.122,0c0.309-0.31,0.309-0.812,0-1.121
			c-1.085-1.087-2.53-1.686-4.066-1.686c-1.004,0-1.959,0.278-2.811,0.763c-0.138-1.304-0.686-2.516-1.623-3.455
			c-0.312-0.306-0.816-0.308-1.124,0.002s-0.308,0.812,0,1.123c0.788,0.783,1.222,1.83,1.221,2.942c0,1.112-0.433,2.158-1.221,2.947
			C29.063,51.989,29.063,52.49,29.373,52.8z"/>
		<path d="M25.398,46.153c-0.786,0.784-1.831,1.219-2.944,1.219c-1.109,0-2.156-0.435-2.943-1.222
			c-0.31-0.31-0.812-0.31-1.122,0c-0.311,0.312-0.311,0.813,0,1.123c0.737,0.736,1.644,1.229,2.628,1.481
			c0.004,0.003,0.002,0.008,0.007,0.011c1.625,1.622,1.625,4.266,0,5.888c-0.31,0.31-0.31,0.812,0,1.122
			c0.153,0.154,0.359,0.234,0.56,0.234c0.203,0,0.406-0.078,0.562-0.234c1.859-1.863,2.152-4.685,0.922-6.875
			c1.303-0.138,2.512-0.685,3.451-1.625c0.311-0.31,0.311-0.812,0-1.122C26.211,45.844,25.708,45.844,25.398,46.153z"/>
		<path d="M36.225,58.495c-0.786,0.786-1.831,1.219-2.943,1.219s-2.159-0.433-2.944-1.219
			c-0.003-0.003-0.008-0.001-0.011-0.005c-0.253-0.982-0.743-1.891-1.481-2.629c-0.311-0.309-0.812-0.31-1.121,0.001
			c-0.31,0.31-0.31,0.812,0,1.122c0.785,0.784,1.219,1.831,1.219,2.942c0,1.112-0.432,2.157-1.219,2.945
			c-0.309,0.31-0.309,0.811,0,1.12c0.156,0.154,0.359,0.232,0.562,0.232c0.201,0,0.404-0.076,0.562-0.232
			c0.938-0.938,1.484-2.15,1.621-3.451c0.852,0.48,1.807,0.761,2.812,0.761c1.536,0,2.979-0.601,4.065-1.687
			c0.311-0.308,0.311-0.811,0-1.12C37.036,58.185,36.534,58.185,36.225,58.495z"/>
		<path d="M52.763,51.659c0-3.422-2.312-6.3-5.531-7.097c-0.796-3.219-3.674-5.528-7.096-5.528
			c-1.08,0-2.12,0.229-3.073,0.672c-1.366-1.756-3.463-2.798-5.763-2.798c-1.659,0-3.244,0.556-4.518,1.562
			c-1.273-1.005-2.855-1.562-4.516-1.562c-2.121,0-4.141,0.943-5.52,2.524c-0.762-0.261-1.567-0.398-2.38-0.398
			c-1.95,0-3.784,0.76-5.163,2.141c-0.907,0.909-1.547,2.007-1.879,3.222c-3.63,0.424-6.458,3.52-6.458,7.263
			c0,1.299,0.35,2.562,0.992,3.669C0.683,56.65,0,58.38,0,60.188c0,3.01,1.776,5.622,4.453,6.739
			c-0.01,0.148-0.015,0.298-0.015,0.448c0,3.705,2.772,6.775,6.354,7.247C11.642,77.76,14.485,80,17.849,80
			c3.8,0,6.931-2.914,7.281-6.625c1.412-0.604,2.603-1.638,3.395-2.95c1.757,0.21,3.574-0.224,5.049-1.206
			c1.208,0.831,2.638,1.278,4.133,1.278c2.85,0,5.388-1.644,6.584-4.135c0.402,0.069,0.809,0.102,1.218,0.102
			c4.032,0,7.313-3.279,7.313-7.313c0-1.344-0.371-2.66-1.062-3.794C52.412,54.242,52.763,52.963,52.763,51.659z M45.508,63.614
			c-0.547,0-1.083-0.099-1.596-0.296l-1.49-0.568l-0.397,1.547c-0.504,1.972-2.281,3.35-4.32,3.35c-1.176,0-2.284-0.453-3.121-1.274
			L33.594,65.4l-0.999,0.962c-1.16,1.12-2.906,1.547-4.446,1.085l-1.253-0.379l-0.481,1.219c-0.522,1.327-1.661,2.33-3.044,2.685
			l-1.138,0.291l0.07,1.173c0.005,0.083,0.008,0.166,0.008,0.249c0,2.462-2.001,4.466-4.464,4.466c-2.273,0-4.227-1.772-4.442-4.031
			l-0.13-1.348l-1.348,0.06c-0.06,0.003-0.117,0.003-0.176,0.003c-2.461,0-4.464-2.001-4.464-4.461c0-0.365,0.046-0.729,0.136-1.081
			l0.367-1.433l-1.445-0.312c-2.059-0.447-3.496-2.24-3.496-4.359c0-1.572,0.848-3.047,2.212-3.85l1.057-0.554l-0.919-0.813
			c-0.943-0.848-1.484-2.055-1.484-3.312c0-2.461,2.003-4.465,4.466-4.465c0.078,0,0.159,0.005,0.24,0.01l1.372,0.088l0.138-1.369
			c0.103-1.047,0.55-1.994,1.29-2.734c0.841-0.842,1.957-1.305,3.147-1.305c0.766,0,1.492,0.188,2.159,0.558l1.203,0.669l0.709-1.18
			c0.807-1.339,2.272-2.174,3.827-2.174c1.326,0,2.576,0.585,3.422,1.604l1.095,1.322l1.098-1.322
			c0.845-1.019,2.092-1.604,3.42-1.604c1.725,0,3.264,0.96,4.014,2.507l0.758,1.56l1.383-1.044c0.775-0.586,1.702-0.896,2.682-0.896
			c2.281,0,4.234,1.776,4.443,4.045l0.109,1.179l1.179,0.109c2.269,0.209,4.047,2.162,4.047,4.443c0,1.038-0.346,2.01-0.999,2.81
			l-0.745,0.916l0.76,0.902c0.683,0.809,1.042,1.797,1.042,2.863C49.972,61.612,47.969,63.614,45.508,63.614z"/>
		<path d="M43.612,51.166c-0.311-0.312-0.812-0.312-1.123,0c-0.752,0.75-1.229,1.665-1.476,2.628
			c-0.005,0.003-0.013,0.001-0.016,0.005c-0.786,0.787-1.833,1.22-2.943,1.22c-1.111,0-2.158-0.431-2.942-1.219
			c-0.311-0.311-0.814-0.311-1.123,0c-0.312,0.31-0.312,0.812,0,1.122c1.087,1.088,2.531,1.685,4.065,1.685
			c1.005,0,1.959-0.28,2.812-0.763c0.134,1.263,0.657,2.489,1.622,3.453c0.156,0.156,0.359,0.234,0.562,0.234
			c0.201,0,0.406-0.078,0.561-0.234c0.31-0.31,0.31-0.811,0-1.12c-1.625-1.624-1.625-4.266,0-5.89
			C43.922,51.979,43.922,51.475,43.612,51.166z"/>
		<path d="M21.436,30.797c0.718,0.013,1.307-0.56,1.319-1.275c0-0.016,0-0.027,0-0.043V20.42h8.54l-1.664,1.664
			c-0.516,0.496-0.532,1.316-0.036,1.833c0.496,0.518,1.317,0.533,1.833,0.036c0.013-0.011,0.025-0.023,0.038-0.036l3.878-3.876
			c0.247-0.249,0.384-0.588,0.38-0.938c-0.007-0.338-0.143-0.658-0.38-0.897l-3.878-3.876c-0.497-0.518-1.317-0.533-1.835-0.036
			c-0.516,0.495-0.532,1.315-0.036,1.833c0.012,0.012,0.023,0.024,0.036,0.035l1.664,1.666h-9.837c-0.716,0-1.297,0.58-1.297,1.295
			v10.355C20.149,30.193,20.72,30.784,21.436,30.797z"/>
		<path d="M71.958,45.294c-0.716-0.011-1.307,0.561-1.316,1.278c0,0.012,0,0.024,0,0.037v9.058H62.1l1.663-1.664
			c0.251-0.243,0.395-0.578,0.395-0.928c0.002-0.716-0.578-1.299-1.293-1.3c-0.354,0-0.691,0.142-0.937,0.395l-3.875,3.877
			c-0.506,0.506-0.506,1.328,0,1.834l3.875,3.877c0.497,0.518,1.317,0.533,1.835,0.036c0.517-0.495,0.532-1.315,0.037-1.833
			c-0.013-0.013-0.025-0.023-0.037-0.036L62.1,58.261h9.839c0.716,0,1.297-0.579,1.297-1.297V46.609l0,0
			C73.245,45.894,72.673,45.303,71.958,45.294z"/>
	</g>
</g>
</svg>
