<?xml version="1.0" encoding="utf-8"?>
<!-- Generator: Adobe Illustrator 16.0.0, SVG Export Plug-In . SVG Version: 6.00 Build 0)  -->
<!DOCTYPE svg PUBLIC "-//W3C//DTD SVG 1.1//EN" "http://www.w3.org/Graphics/SVG/1.1/DTD/svg11.dtd">
<svg version="1.1" xmlns="http://www.w3.org/2000/svg" xmlns:xlink="http://www.w3.org/1999/xlink" x="0px" y="0px"
	 width="115.887px" height="100px" viewBox="0 0 115.887 100" enable-background="new 0 0 115.887 100" xml:space="preserve">
<g id="Layer_1">
</g>
<g id="Layer_2">
	<g>
		<path d="M81.744,23.343c-0.381-0.383-1-0.382-1.383-0.002c-0.906,0.909-1.512,2.028-1.824,3.239
			c-0.002,0.004-0.008,0.002-0.012,0.006c-0.967,0.968-2.256,1.501-3.627,1.501c-1.369,0-2.658-0.533-3.625-1.501
			c-0.381-0.383-0.998-0.383-1.381,0c-0.383,0.381-0.383,1,0,1.381c1.336,1.336,3.115,2.074,5.006,2.074
			c1.238,0,2.414-0.346,3.463-0.937c0.17,1.603,0.842,3.096,1.998,4.25c0.191,0.192,0.441,0.287,0.691,0.287s0.5-0.096,0.691-0.287
			c0.381-0.381,0.381-0.999,0-1.379c-0.967-0.97-1.5-2.258-1.5-3.627s0.533-2.657,1.502-3.623
			C82.125,24.343,82.125,23.725,81.744,23.343z"/>
		<path d="M69.24,16.327c0.971-0.968,2.258-1.501,3.625-1.501c1.371,0,2.658,0.533,3.625,1.501
			c0.006,0.005,0.01,0.002,0.014,0.007c0.312,1.21,0.918,2.331,1.824,3.238c0.191,0.19,0.441,0.287,0.691,0.287
			s0.502-0.097,0.691-0.287c0.381-0.382,0.381-1,0-1.379c-0.969-0.972-1.502-2.259-1.502-3.63c-0.002-1.369,0.533-2.657,1.502-3.623
			c0.381-0.381,0.381-1.002,0-1.383c-0.379-0.38-0.998-0.379-1.383-0.001c-1.156,1.156-1.83,2.649-2,4.253
			c-1.049-0.595-2.225-0.938-3.463-0.938c-1.891,0-3.67,0.736-5.006,2.075c-0.381,0.381-0.381,0.998,0,1.38
			C68.242,16.71,68.859,16.71,69.24,16.327z"/>
		<path d="M115.887,28.669c0-2.226-0.84-4.354-2.291-5.985c0.791-1.359,1.223-2.918,1.223-4.517
			c0-4.61-3.482-8.422-7.953-8.945c-0.41-1.495-1.197-2.847-2.316-3.968c-1.697-1.7-3.953-2.635-6.357-2.635
			c-1,0-1.99,0.168-2.93,0.49C93.564,1.162,91.076,0,88.465,0c-2.045,0-3.994,0.686-5.562,1.924C81.332,0.686,79.383,0,77.338,0
			c-2.83,0-5.414,1.284-7.096,3.446c-1.174-0.545-2.457-0.828-3.785-0.828c-4.213,0-7.758,2.845-8.738,6.81
			c-3.967,0.98-6.812,4.524-6.812,8.739c0,1.604,0.434,3.18,1.236,4.552c-0.85,1.399-1.309,3.017-1.309,4.674
			c0,4.966,4.041,9.007,9.008,9.007c0.504,0,1.004-0.042,1.498-0.125c1.475,3.066,4.6,5.09,8.109,5.09
			c1.842,0,3.604-0.55,5.09-1.571c1.816,1.209,4.053,1.743,6.217,1.483c0.977,1.616,2.443,2.893,4.184,3.635
			c0.428,4.569,4.285,8.157,8.967,8.157c4.141,0,7.643-2.758,8.689-6.624c4.408-0.579,7.824-4.361,7.824-8.925
			c0-0.184-0.006-0.368-0.018-0.551C113.699,35.592,115.887,32.377,115.887,28.669z M108.07,34.037l-1.777,0.387l0.451,1.763
			c0.109,0.434,0.168,0.882,0.168,1.333c0,3.028-2.469,5.494-5.498,5.494c-0.072,0-0.145-0.002-0.215-0.006l-1.662-0.07
			l-0.158,1.655c-0.268,2.784-2.672,4.966-5.473,4.966c-3.031,0-5.498-2.467-5.498-5.498c0-0.104,0.004-0.205,0.012-0.307
			l0.088-1.445l-1.404-0.359c-1.701-0.436-3.104-1.671-3.746-3.305l-0.592-1.501l-1.547,0.465c-1.896,0.57-4.045,0.046-5.477-1.335
			l-1.229-1.186l-1.219,1.197c-1.029,1.012-2.395,1.569-3.844,1.569c-2.512,0-4.697-1.697-5.32-4.124l-0.488-1.904l-1.836,0.7
			c-0.631,0.241-1.291,0.362-1.965,0.362c-3.031,0-5.498-2.466-5.498-5.497c0-1.311,0.443-2.53,1.283-3.526l0.936-1.111
			l-0.918-1.127c-0.805-0.986-1.229-2.183-1.229-3.461c0-2.81,2.189-5.214,4.982-5.472l1.451-0.135l0.135-1.451
			c0.258-2.794,2.662-4.981,5.473-4.981c1.207,0,2.35,0.381,3.303,1.102l1.703,1.286l0.932-1.921
			c0.926-1.903,2.82-3.086,4.943-3.086c1.637,0,3.172,0.72,4.215,1.976l1.35,1.627l1.35-1.627c1.041-1.256,2.578-1.976,4.213-1.976
			c1.914,0,3.721,1.026,4.715,2.677l0.873,1.453l1.48-0.824c0.82-0.456,1.717-0.688,2.66-0.688c1.465,0,2.84,0.57,3.875,1.606
			c0.912,0.913,1.461,2.079,1.59,3.37l0.168,1.684l1.689-0.107c0.102-0.006,0.201-0.011,0.299-0.011
			c3.031,0,5.496,2.466,5.496,5.497c0,1.55-0.664,3.037-1.826,4.079l-1.131,1.002l1.301,0.682c1.68,0.99,2.725,2.807,2.725,4.741
			C112.379,31.279,110.607,33.487,108.07,34.037z"/>
		<path d="M74.025,20.803c-0.379-0.382-0.998-0.382-1.381,0c-0.967,0.97-2.256,1.502-3.625,1.502
			s-2.658-0.533-3.625-1.503c-0.004-0.005-0.014-0.003-0.02-0.008c-0.303-1.185-0.891-2.311-1.816-3.235
			c-0.383-0.383-1-0.383-1.383,0c-0.381,0.38-0.381,0.999,0,1.381c2.002,2,2.002,5.254,0,7.253c-0.381,0.382-0.381,1,0,1.381
			c0.191,0.19,0.441,0.287,0.691,0.287s0.5-0.097,0.691-0.287c1.189-1.188,1.834-2.699,2-4.253c1.049,0.595,2.223,0.938,3.461,0.938
			c1.891,0,3.67-0.736,5.006-2.073C74.41,21.803,74.41,21.185,74.025,20.803z"/>
		<path d="M97.803,32.157c-1.682,0-3.205,0.613-4.422,1.595c-0.836-2.982-3.549-5.188-6.793-5.188
			c-0.541,0.001-0.98,0.438-0.98,0.978s0.439,0.979,0.979,0.979c2.826,0,5.129,2.298,5.129,5.126c0,0.009,0.008,0.014,0.008,0.02
			c-0.621,1.053-1.004,2.265-1.004,3.574c0,0.539,0.438,0.977,0.979,0.977c0.539,0,0.977-0.438,0.977-0.977
			c0-2.831,2.301-5.128,5.129-5.128c0.539,0,0.979-0.438,0.979-0.979S98.342,32.157,97.803,32.157z"/>
		<path d="M105.088,21.175c-1.635,0-3.166,0.58-4.42,1.594c-0.322-1.162-0.91-2.236-1.785-3.112
			c-1.338-1.335-3.115-2.071-5.008-2.071c-0.539,0-0.977,0.436-0.977,0.977c0,0.539,0.438,0.979,0.977,0.979
			c1.371,0,2.658,0.532,3.625,1.5c0.971,0.969,1.504,2.256,1.504,3.626c0,0.004,0.006,0.007,0.006,0.012
			c-0.637,1.076-1,2.294-1,3.581c0,0.539,0.438,0.978,0.977,0.978c0.541,0,0.979-0.438,0.979-0.978c0-1.37,0.533-2.657,1.504-3.625
			c0.965-0.969,2.252-1.502,3.621-1.502c0.537-0.001,0.977-0.439,0.977-0.979C106.066,21.612,105.627,21.175,105.088,21.175z"/>
		<path d="M88.615,23.235c0.191,0.191,0.439,0.287,0.689,0.287s0.502-0.097,0.691-0.287c0.381-0.382,0.381-1,0-1.38
			c-2-2-2-5.254,0-7.253C90,14.6,90,14.593,90.002,14.59c1.213-0.312,2.33-0.917,3.236-1.824c0.385-0.381,0.385-1,0-1.383
			c-0.381-0.381-1-0.381-1.381,0c-0.969,0.97-2.258,1.503-3.627,1.503c-1.367,0-2.654-0.533-3.621-1.5
			c-0.383-0.381-1.002-0.381-1.383,0c-0.381,0.382-0.381,1,0,1.382c1.156,1.157,2.648,1.831,4.252,2.001
			C85.963,17.465,86.322,20.942,88.615,23.235z"/>
		<path d="M29.737,75.128c-3.293,0-6.046,2.238-6.894,5.266c-1.235-0.996-2.782-1.619-4.488-1.619
			c-0.548,0-0.994,0.444-0.994,0.992s0.445,0.993,0.994,0.993c2.87,0,5.204,2.332,5.204,5.205c0,0.548,0.444,0.991,0.993,0.991
			c0.548,0,0.991-0.444,0.991-0.991c0-1.329-0.387-2.559-1.018-3.628c0-0.006,0.008-0.012,0.008-0.02
			c0-2.87,2.337-5.203,5.205-5.203c0.548,0,0.994-0.446,0.994-0.994S30.287,75.129,29.737,75.128z"/>
		<path d="M18.145,74.818c0-1.307-0.369-2.543-1.015-3.636c0-0.005,0.005-0.008,0.005-0.012
			c0-1.391,0.543-2.697,1.526-3.681c0.982-0.981,2.288-1.522,3.68-1.522c0.548,0,0.992-0.446,0.992-0.993
			c0-0.549-0.445-0.991-0.992-0.991c-1.921,0-3.726,0.747-5.083,2.103c-0.888,0.89-1.484,1.979-1.812,3.159
			c-1.272-1.029-2.827-1.618-4.486-1.618c-0.548,0-0.993,0.445-0.993,0.993s0.445,0.992,0.992,0.994
			c1.389,0,2.696,0.541,3.675,1.524c0.986,0.981,1.525,2.289,1.525,3.68c0,0.546,0.445,0.991,0.993,0.991
			C17.701,75.81,18.145,75.364,18.145,74.818z"/>
		<path d="M36.717,66.001c0.193,0.193,0.449,0.291,0.701,0.291c0.254,0,0.508-0.098,0.703-0.291
			c0.92-0.921,1.533-2.059,1.852-3.287c0.002-0.005,0.008-0.003,0.014-0.007c0.98-0.982,2.287-1.522,3.678-1.522
			c1.389,0,2.697,0.54,3.68,1.522c0.387,0.389,1.016,0.389,1.402,0c0.387-0.387,0.387-1.014,0-1.4
			c-1.355-1.359-3.162-2.106-5.082-2.106c-1.256,0-2.449,0.348-3.514,0.952c-0.172-1.628-0.857-3.145-2.029-4.318
			c-0.391-0.383-1.02-0.384-1.404,0.002c-0.385,0.387-0.385,1.017,0,1.404c0.984,0.979,1.527,2.287,1.525,3.677
			c0,1.392-0.541,2.698-1.525,3.684C36.33,64.986,36.33,65.613,36.717,66.001z"/>
		<path d="M31.747,57.691c-0.981,0.981-2.288,1.522-3.678,1.522c-1.389,0-2.697-0.542-3.68-1.525
			c-0.388-0.387-1.016-0.387-1.403,0c-0.389,0.389-0.389,1.017,0,1.403c0.921,0.921,2.056,1.535,3.286,1.852
			c0.003,0.004,0.001,0.01,0.006,0.013c2.031,2.029,2.031,5.332,0,7.361c-0.387,0.387-0.387,1.014,0,1.401
			c0.192,0.193,0.449,0.292,0.701,0.292c0.254,0,0.507-0.098,0.701-0.292c2.326-2.327,2.692-5.856,1.152-8.594
			c1.629-0.172,3.143-0.856,4.315-2.031c0.389-0.387,0.389-1.015,0-1.402C32.763,57.305,32.135,57.305,31.747,57.691z"/>
		<path d="M45.281,73.119c-0.982,0.982-2.289,1.523-3.68,1.523s-2.699-0.541-3.68-1.523
			c-0.004-0.004-0.01-0.002-0.014-0.005c-0.316-1.229-0.93-2.365-1.852-3.288c-0.389-0.386-1.016-0.387-1.402,0.001
			s-0.387,1.016,0,1.404c0.982,0.98,1.523,2.288,1.523,3.677c0,1.391-0.539,2.697-1.522,3.682c-0.386,0.386-0.386,1.014,0,1.4
			c0.194,0.194,0.448,0.291,0.702,0.291c0.252,0,0.506-0.096,0.703-0.291c1.172-1.172,1.855-2.688,2.027-4.314
			c1.064,0.601,2.258,0.951,3.514,0.951c1.92,0,3.725-0.75,5.082-2.106c0.389-0.386,0.389-1.015,0-1.401
			C46.295,72.73,45.668,72.73,45.281,73.119z"/>
		<path d="M65.953,64.574c0-4.277-2.889-7.875-6.914-8.87c-0.994-4.024-4.592-6.912-8.869-6.912
			c-1.35,0-2.65,0.287-3.842,0.841c-1.707-2.194-4.328-3.498-7.203-3.498c-2.074,0-4.055,0.695-5.646,1.953
			c-1.592-1.257-3.57-1.953-5.646-1.953c-2.651,0-5.176,1.18-6.899,3.156c-0.952-0.327-1.959-0.498-2.975-0.498
			c-2.438,0-4.729,0.949-6.452,2.675c-1.136,1.138-1.934,2.51-2.351,4.027c-4.538,0.53-8.072,4.4-8.072,9.079
			c0,1.623,0.437,3.204,1.24,4.585C0.853,70.813,0,72.975,0,75.233c0,3.764,2.22,7.027,5.566,8.425
			c-0.012,0.186-0.018,0.373-0.018,0.56c0,4.632,3.466,8.471,7.941,9.059C14.552,97.2,18.107,100,22.31,100
			c4.751,0,8.666-3.643,9.102-8.28c1.766-0.754,3.254-2.049,4.245-3.689c2.195,0.264,4.467-0.278,6.311-1.506
			c1.51,1.037,3.297,1.596,5.166,1.596c3.562,0,6.734-2.055,8.23-5.167c0.502,0.085,1.01,0.127,1.521,0.127
			c5.041,0,9.143-4.101,9.143-9.142c0-1.682-0.465-3.324-1.328-4.744C65.516,67.803,65.953,66.203,65.953,64.574z M56.885,79.518
			c-0.684,0-1.354-0.123-1.994-0.368l-1.863-0.711l-0.496,1.933c-0.631,2.464-2.852,4.187-5.4,4.187
			c-1.471,0-2.855-0.566-3.902-1.593l-1.236-1.216l-1.248,1.204c-1.451,1.4-3.633,1.934-5.559,1.354l-1.567-0.472l-0.601,1.523
			c-0.653,1.658-2.076,2.912-3.804,3.354l-1.424,0.364l0.089,1.467c0.007,0.103,0.011,0.207,0.011,0.312
			c0,3.077-2.503,5.58-5.581,5.58c-2.843,0-5.282-2.214-5.554-5.039l-0.161-1.682l-1.687,0.072
			c-0.072,0.004-0.146,0.006-0.219,0.006c-3.075,0-5.579-2.503-5.579-5.577c0-0.457,0.058-0.912,0.17-1.352l0.459-1.79l-1.806-0.393
			c-2.574-0.558-4.372-2.799-4.372-5.449c0-1.964,1.061-3.807,2.765-4.812l1.32-0.691l-1.147-1.017
			c-1.179-1.059-1.854-2.567-1.854-4.141c0-3.076,2.503-5.579,5.58-5.579c0.098,0,0.199,0.005,0.303,0.011l1.715,0.109l0.17-1.71
			c0.13-1.31,0.688-2.493,1.614-3.42c1.05-1.052,2.446-1.63,3.933-1.63c0.959,0,1.866,0.234,2.699,0.697l1.504,0.837l0.887-1.476
			c1.009-1.675,2.842-2.717,4.784-2.717c1.659,0,3.22,0.73,4.277,2.005l1.37,1.651l1.37-1.651c1.057-1.274,2.615-2.005,4.275-2.005
			c2.156,0,4.08,1.2,5.018,3.133l0.947,1.949l1.729-1.306c0.969-0.731,2.127-1.118,3.352-1.118c2.852,0,5.293,2.221,5.555,5.057
			l0.137,1.473l1.473,0.137c2.836,0.262,5.059,2.702,5.059,5.554c0,1.297-0.432,2.512-1.248,3.514l-0.932,1.144l0.949,1.128
			c0.854,1.011,1.303,2.248,1.303,3.579C62.465,77.015,59.961,79.518,56.885,79.518z"/>
		<path d="M54.516,63.957c-0.389-0.389-1.016-0.389-1.404,0c-0.939,0.938-1.535,2.081-1.844,3.284
			c-0.006,0.005-0.016,0.003-0.02,0.007c-0.982,0.984-2.291,1.525-3.68,1.525s-2.697-0.54-3.678-1.523
			c-0.389-0.389-1.018-0.389-1.404,0c-0.389,0.387-0.389,1.015,0,1.403c1.359,1.357,3.164,2.104,5.082,2.104
			c1.256,0,2.449-0.35,3.516-0.953c0.168,1.577,0.822,3.111,2.027,4.317c0.195,0.193,0.449,0.291,0.703,0.291
			c0.252,0,0.508-0.098,0.701-0.291c0.387-0.387,0.387-1.015,0-1.401c-2.031-2.029-2.031-5.332,0-7.362
			C54.902,64.972,54.902,64.343,54.516,63.957z"/>
		<path d="M26.796,38.496c0.896,0.015,1.633-0.699,1.648-1.594c0-0.019,0-0.036,0-0.055V25.525h10.675l-2.08,2.079
			c-0.645,0.62-0.666,1.646-0.045,2.292c0.619,0.646,1.646,0.666,2.291,0.046c0.016-0.015,0.031-0.03,0.047-0.046l4.848-4.846
			c0.309-0.311,0.48-0.733,0.475-1.172c-0.008-0.421-0.178-0.822-0.475-1.12l-4.848-4.847c-0.621-0.646-1.646-0.666-2.293-0.046
			c-0.645,0.62-0.666,1.646-0.045,2.292c0.014,0.016,0.029,0.031,0.045,0.046l2.08,2.08H26.823c-0.896,0-1.621,0.726-1.621,1.62
			v12.943C25.188,37.743,25.901,38.48,26.796,38.496z"/>
		<path d="M89.947,56.617c-0.895-0.014-1.633,0.701-1.645,1.597c0,0.016,0,0.032,0,0.048v11.322H77.625l2.078-2.079
			c0.314-0.305,0.494-0.724,0.494-1.162c0.002-0.895-0.723-1.622-1.617-1.624c-0.441,0-0.863,0.178-1.17,0.494l-4.844,4.847
			c-0.633,0.633-0.633,1.658,0,2.291l4.844,4.847c0.621,0.646,1.646,0.666,2.293,0.046s0.666-1.646,0.047-2.292
			c-0.016-0.016-0.031-0.03-0.047-0.046l-2.078-2.079h12.299c0.895,0,1.621-0.726,1.621-1.621V58.262l0,0
			C91.557,57.366,90.842,56.63,89.947,56.617z"/>
	</g>
</g>
</svg>
