<?xml version="1.0" encoding="utf-8"?>
<!-- Generator: Adobe Illustrator 16.0.0, SVG Export Plug-In . SVG Version: 6.00 Build 0)  -->
<!DOCTYPE svg PUBLIC "-//W3C//DTD SVG 1.1//EN" "http://www.w3.org/Graphics/SVG/1.1/DTD/svg11.dtd">
<svg version="1.1" xmlns="http://www.w3.org/2000/svg" xmlns:xlink="http://www.w3.org/1999/xlink" x="0px" y="0px"
	 width="97.336px" height="100.563px" viewBox="0 0 97.336 100.563" enable-background="new 0 0 97.336 100.563"
	 xml:space="preserve">
<g id="Layer_1">
</g>
<g id="Layer_2">
	<g>
		<g>
			
				<rect x="11.047" y="26.447" stroke="#FFFFFF" stroke-width="0.5648" stroke-miterlimit="10" width="3.074" height="1.537"/>
			
				<rect x="11.047" y="72.578" stroke="#FFFFFF" stroke-width="0.5648" stroke-miterlimit="10" width="3.074" height="1.537"/>
			
				<rect x="23.348" y="37.211" stroke="#FFFFFF" stroke-width="0.5648" stroke-miterlimit="10" width="1.539" height="12.303"/>
			
				<rect x="23.348" y="52.588" stroke="#FFFFFF" stroke-width="0.5648" stroke-miterlimit="10" width="1.539" height="10.764"/>
			
				<rect x="55.638" y="72.578" stroke="#FFFFFF" stroke-width="0.5648" stroke-miterlimit="10" width="3.076" height="1.537"/>
			
				<rect x="55.638" y="26.447" stroke="#FFFFFF" stroke-width="0.5648" stroke-miterlimit="10" width="3.076" height="1.537"/>
			
				<rect x="44.876" y="52.588" stroke="#FFFFFF" stroke-width="0.5648" stroke-miterlimit="10" width="1.536" height="10.764"/>
			
				<rect x="44.876" y="37.211" stroke="#FFFFFF" stroke-width="0.5648" stroke-miterlimit="10" width="1.536" height="12.303"/>
			
				<rect x="67.941" y="52.588" stroke="#FFFFFF" stroke-width="0.5648" stroke-miterlimit="10" width="1.537" height="10.764"/>
			
				<rect x="67.941" y="37.211" stroke="#FFFFFF" stroke-width="0.5648" stroke-miterlimit="10" width="1.537" height="12.303"/>
			
				<rect x="32.572" y="72.578" stroke="#FFFFFF" stroke-width="0.5648" stroke-miterlimit="10" width="3.076" height="1.537"/>
			<polygon stroke="#FFFFFF" stroke-width="0.5648" stroke-miterlimit="10" points="33.342,94.105 32.572,94.105 
				32.572,95.643 33.342,95.643 35.649,95.643 35.649,95.643 35.649,94.105 35.649,94.105 			"/>
			<polygon stroke="#FFFFFF" stroke-width="0.5648" stroke-miterlimit="10" points="77.167,26.447 77.167,27.984 
				77.933,27.984 80.242,27.984 80.242,26.447 77.933,26.447 			"/>
			<polygon stroke="#FFFFFF" stroke-width="0.5648" stroke-miterlimit="10" points="77.933,4.92 77.167,4.92 
				77.167,6.457 77.933,6.457 80.242,6.457 80.242,6.457 80.242,4.92 80.242,4.92 			"/>
			<path stroke="#FFFFFF" stroke-width="0.5648" stroke-miterlimit="10" d="M89.462,52.58v10.766h1.543V52.58H89.462z
				 M90.99,4.512c-0.016-0.393-0.076-0.74-0.182-1.088C90.763,3.271,90.703,3.135,90.642,3c-0.242-0.561-0.59-1.045-1.072-1.527
				c-0.031-0.031-0.105-0.076-0.105-0.09c0,0,0,0,0-0.018c0-0.09-0.166-0.18-0.318-0.256c-0.031-0.016-0.076-0.045-0.105-0.061
				c-0.045-0.045-0.092-0.076-0.135-0.105c-0.695-0.453-1.453-0.635-2.057-0.635h-0.348c-0.438-0.031-0.771,0-0.861,0
				c-0.016,0-0.016,0-0.031,0H73.345c-0.033,0-0.033,0-0.047,0c-0.105,0-0.574-0.061-1.209,0c-0.393,0-0.861,0.076-1.33,0.287
				c-0.484,0.182-0.938,0.469-1.377,0.877c-0.951,0.953-1.436,1.904-1.436,3.447c0,0.016,0,0.016,0,0.029v10.736h-19.99v7.621
				l-2.525,3.145H24.294l-2.479-3.145v-7.621H1.447L0.344,26.451H0.282v47.902l1.543,2.312v8.211h21.517v10.766
				c0,1.543,0.498,2.51,1.451,3.463c0.847,0.832,1.905,1.088,2.706,1.148c0.636,0.061,1.104,0,1.21,0c0.016,0,0.016,0,0.03,0h12.278
				c0.015,0,0.015,0,0.03,0c0.104,0,0.589,0.061,1.209,0c0.802-0.061,1.86-0.316,2.706-1.148c0.953-0.953,1.452-1.922,1.452-3.463
				V84.877h21.532v-8.211l1.527-2.312v-0.242h21.531V66.43h-1.543v6.154H69.474V66.43h-1.527v6.154h-6.154v1.527h5.943l-1.33,2.057
				v7.166H47.488l-0.982-9.225h6.064v-1.527h-6.155v-6.154h-1.542v6.154h-6.154v1.527h6.154V94.1h-6.154v1.543h6.154
				c0,0-0.318,1.709-0.983,2.359c-0.423,0.422-0.968,0.619-1.451,0.711H27.091c-0.423-0.121-0.847-0.348-1.225-0.695
				c-0.635-0.65-0.983-2.375-0.983-2.375h4.612V94.1h-4.612V74.111h4.612v-1.527h-4.612V66.43h-1.541v6.154h-6.14v1.527h6.048
				l-0.982,9.225H3.352V76.17l-1.33-2.057h5.942v-1.527H1.825V27.98h6.139v-1.527H1.9l0.938-9.225h17.434v6.594l2.117,2.631h-5.187
				v1.527h6.14v6.154h1.541V27.98h19.99v6.154h1.542V27.98h6.155v-1.527h-5.248l2.162-2.631v-6.594h17.359l0.969,9.225h-6.018v1.527
				h6.154v6.154h1.527V27.98h4.611v-1.527h-4.611V6.463h4.611V4.92h-4.611c0,0,0.334-1.709,0.982-2.359
				c0.438-0.408,0.967-0.605,1.467-0.695c0.045,0,0.074-0.016,0.121-0.016h15.166c0.014,0,0.043,0.016,0.059,0.016
				c0.408,0.121,0.848,0.348,1.211,0.695c0.65,0.65,0.982,2.359,0.982,2.359h-6.141v1.543h6.141v19.988h-6.141v1.527h6.141v6.154
				h1.543V4.949c0-0.014,0-0.014,0-0.029C91.005,4.783,91.005,4.648,90.99,4.512z M89.462,37.217v12.277h1.543V37.217H89.462z"/>
			<polygon stroke="#FFFFFF" stroke-width="0.5648" stroke-miterlimit="10" points="97.054,30.232 97.054,70.664 
				95.541,71.541 91.277,74.111 90.869,74.111 90.218,72.992 91.005,72.523 95.541,69.801 95.541,31.109 91.005,28.479 
				90.218,28.023 90.974,26.723 91.005,26.738 95.541,29.355 			"/>
		</g>
	</g>
</g>
</svg>
