<?xml version="1.0" encoding="utf-8"?>
<!-- Generator: Adobe Illustrator 16.0.0, SVG Export Plug-In . SVG Version: 6.00 Build 0)  -->
<!DOCTYPE svg PUBLIC "-//W3C//DTD SVG 1.1//EN" "http://www.w3.org/Graphics/SVG/1.1/DTD/svg11.dtd">
<svg version="1.1" xmlns="http://www.w3.org/2000/svg" xmlns:xlink="http://www.w3.org/1999/xlink" x="0px" y="0px"
	 width="112.257px" height="116px" viewBox="0 0 112.257 116" enable-background="new 0 0 112.257 116" xml:space="preserve">
<g id="Layer_1">
</g>
<g id="Layer_2">
	<g>
		<rect x="12.488" y="30.353" width="3.566" height="1.783"/>
		<rect x="12.488" y="83.864" width="3.566" height="1.783"/>
		<rect x="64.214" y="83.864" width="3.568" height="1.783"/>
		<rect x="37.458" y="83.864" width="3.568" height="1.783"/>
		<polygon points="38.351,108.836 37.458,108.836 37.458,110.619 38.351,110.619 41.026,110.619 41.026,110.619 
			41.026,108.836 41.026,108.836 		"/>
		<polygon points="90.076,5.381 89.188,5.381 89.188,7.164 90.076,7.164 92.754,7.164 92.754,7.164 92.754,5.381 
			92.754,5.381 		"/>
	</g>
	<g>
		<rect x="26.757" y="42.838" width="1.786" height="14.271"/>
		<rect x="26.757" y="60.676" width="1.786" height="12.486"/>
		<rect x="51.729" y="60.676" width="1.783" height="12.486"/>
		<rect x="78.485" y="60.676" width="1.783" height="12.486"/>
		<rect x="103.45" y="60.666" width="1.79" height="12.488"/>
		<path d="M110.501,33.727l-5.259-3.035V5.415c0-0.017,0-0.017,0-0.034c-0.002-0.158-0.002-0.314-0.021-0.474
			c-0.018-0.455-0.088-0.858-0.211-1.262c-0.052-0.177-0.122-0.335-0.192-0.491c-0.281-0.65-0.685-1.213-1.244-1.772
			c-0.036-0.036-0.122-0.089-0.122-0.104c0,0,0,0,0-0.02c0-0.104-0.192-0.209-0.369-0.297c-0.036-0.019-0.088-0.053-0.122-0.07
			c-0.053-0.053-0.106-0.088-0.156-0.123c-0.807-0.525-1.687-0.736-2.386-0.736h-0.403c-0.508-0.035-0.896,0-0.999,0
			c-0.019,0-0.019,0-0.037,0H84.754c-0.038,0-0.038,0-0.054,0c-0.123,0-0.667-0.07-1.403,0c-0.455,0-0.999,0.089-1.543,0.334
			c-0.562,0.211-1.087,0.543-1.597,1.017c-1.104,1.106-1.665,2.209-1.665,3.999c0,0.018,0,0.018,0,0.034v12.454H55.305v8.84
			l-2.93,3.648H27.854l-2.875-3.648v-8.84H1.353L0.073,30.357H0v55.566l1.79,2.683v9.524h24.961v12.488
			c0,1.79,0.577,2.912,1.683,4.018c0.981,0.965,2.209,1.262,3.138,1.332c0.739,0.07,1.283,0,1.405,0c0.019,0,0.019,0,0.034,0h14.244
			c0.016,0,0.016,0,0.033,0c0.123,0,0.685,0.07,1.402,0c0.932-0.07,2.16-0.367,3.141-1.332c1.105-1.105,1.684-2.23,1.684-4.018
			V98.131h24.978v-9.524l1.771-2.683v-0.281h24.817h0.159h0.314l4.946-2.98l1.756-1.018V34.743L110.501,33.727z M110.501,80.643
			l-5.261,3.158v-7.068h-1.79v7.139H80.264v-7.139h-1.771v7.139h-7.14v1.771h6.895l-1.543,2.387v8.312H54.761l-1.14-10.701h7.033
			v-1.771h-7.14V76.73h-1.788v7.139h-7.139v1.771h7.139v23.189h-7.139v1.789h7.139c0,0-0.369,1.982-1.142,2.736
			c-0.489,0.49-1.121,0.719-1.684,0.825H31.099c-0.49-0.14-0.981-0.403-1.421-0.807c-0.736-0.755-1.14-2.755-1.14-2.755h5.35v-1.789
			h-5.35V85.643h5.35v-1.771h-5.35v-7.139h-1.787v7.139h-7.123v1.771h7.016l-1.139,10.701H3.562v-8.312l-1.543-2.387h6.893v-1.771
			H1.79V32.131h7.121v-1.771H1.879l1.087-10.701h20.223v7.649l2.456,3.052h-6.017v1.771h7.123v7.139h1.787v-7.139h23.188v5.416
			l-5.827,2.911v3.714l5.83,2.571v10.366h1.783v-9.58l14.154,6.242v-6.255l-13.299-5.462l13.299-6.163v-3.756h0.115v-1.783h-0.115
			v-0.768l-1.537,0.768h-1.916v0.957l-10.699,5.345v-4.523h7.14v-1.771h-6.086l2.508-3.052v-7.649h20.136l1.123,10.701h-6.979v1.771
			h6.506l-9.52,25.535h7.002l3.142-8.428v7.871h1.783V44.455l4.595-12.324h0.752v-1.771h-0.092l1.56-4.184h-6.817V7.171h5.35v-1.79
			h-5.35c0,0,0.388-1.982,1.14-2.736c0.508-0.475,1.121-0.703,1.701-0.807c0.053,0,0.087-0.019,0.141-0.019h17.593
			c0.016,0,0.05,0.019,0.068,0.019c0.474,0.141,0.983,0.402,1.404,0.807c0.755,0.754,1.14,2.736,1.14,2.736h-7.123v1.79h7.123
			v23.187h-7.123v1.771h7.123v5.337l-10.698-5.344v-1.77h-2.678h-0.864l-1.537-0.768v6.307l13.299,6.163l-13.299,5.462v6.255
			l15.775-6.957v10.272h1.79V46.025l4.202-1.854v-3.714l-4.2-2.099V32.71l5.259,3.051V80.643z"/>
	</g>
</g>
</svg>
