<?xml version="1.0" encoding="utf-8"?>
<!-- Generator: Adobe Illustrator 16.0.0, SVG Export Plug-In . SVG Version: 6.00 Build 0)  -->
<!DOCTYPE svg PUBLIC "-//W3C//DTD SVG 1.1//EN" "http://www.w3.org/Graphics/SVG/1.1/DTD/svg11.dtd">
<svg version="1.1" id="Layer_1" xmlns="http://www.w3.org/2000/svg" xmlns:xlink="http://www.w3.org/1999/xlink" x="0px" y="0px"
	 width="64.795px" height="33.8px" viewBox="18.124 10.375 64.795 33.8" enable-background="new 18.124 10.375 64.795 33.8"
	 xml:space="preserve">
<g id="Layer_1_1_">
</g>
<g>
	<g>
		<path d="M62.987,12.401c-1.577-2.183-4.641-2.684-6.823-1.091c-0.168,0.105-0.304,0.228-0.455,0.363
			c-2.926,2.698-7.443,2.698-10.385,0c-1.986-1.834-5.079-1.713-6.913,0.288c-0.137,0.137-0.258,0.288-0.364,0.439
			c-3.654,5.049-6.247,10.795-7.581,16.875c9.233,3.759,19.331,4.837,29.17,3.137l-2.138-8.777l8.944,0.228l1.44,6.428
			c0.91-0.318,1.805-0.653,2.684-1.017C69.233,23.196,66.641,17.45,62.987,12.401z"/>
	</g>
	<g>
		<path d="M19.368,34.778l11.022-1.605c12.901,5.259,27.351,5.259,40.253,0l11.021,1.605c0.455,0.062,0.864,0.35,1.077,0.759
			c0.393,0.728,0.105,1.607-0.606,1.985c-20.149,8.871-43.088,8.871-63.237,0c-0.409-0.228-0.697-0.62-0.758-1.091
			C18.019,35.628,18.565,34.885,19.368,34.778z"/>
	</g>
</g>
</svg>
