<?xml version="1.0" encoding="utf-8"?>
<!-- Generator: Adobe Illustrator 16.0.0, SVG Export Plug-In . SVG Version: 6.00 Build 0)  -->
<!DOCTYPE svg PUBLIC "-//W3C//DTD SVG 1.1//EN" "http://www.w3.org/Graphics/SVG/1.1/DTD/svg11.dtd">
<svg version="1.1" xmlns="http://www.w3.org/2000/svg" xmlns:xlink="http://www.w3.org/1999/xlink" x="0px" y="0px"
	 width="101.506px" height="52.949px" viewBox="0 0 101.506 52.949" enable-background="new 0 0 101.506 52.949"
	 xml:space="preserve">
<g id="Layer_1">
</g>
<g id="Layer_2">
	<g>
		<g>
			<path d="M70.281,3.174c-2.471-3.419-7.27-4.205-10.688-1.71c-0.263,0.166-0.477,0.357-0.713,0.57
				c-4.584,4.227-11.66,4.227-16.269,0C39.5-0.84,34.654-0.65,31.781,2.485c-0.214,0.214-0.404,0.45-0.57,0.688
				c-5.725,7.908-9.786,16.91-11.876,26.435c14.465,5.89,30.283,7.578,45.696,4.915l-3.35-13.75l14.012,0.355l2.257,10.069
				c1.426-0.498,2.828-1.022,4.205-1.592C80.066,20.084,76.005,11.082,70.281,3.174z"/>
		</g>
		<g>
			<path d="M1.95,38.229l17.267-2.516c20.211,8.239,42.846,8.239,63.059,0l17.266,2.516
				c0.714,0.097,1.354,0.547,1.688,1.188c0.615,1.14,0.166,2.519-0.949,3.11c-31.566,13.896-67.5,13.896-99.065,0
				c-0.642-0.356-1.092-0.972-1.188-1.709C-0.165,39.56,0.691,38.395,1.95,38.229z"/>
		</g>
	</g>
</g>
</svg>
