<?xml version="1.0" encoding="utf-8"?>
<!-- Generator: Adobe Illustrator 16.0.0, SVG Export Plug-In . SVG Version: 6.00 Build 0)  -->
<!DOCTYPE svg PUBLIC "-//W3C//DTD SVG 1.1//EN" "http://www.w3.org/Graphics/SVG/1.1/DTD/svg11.dtd">
<svg version="1.1" xmlns="http://www.w3.org/2000/svg" xmlns:xlink="http://www.w3.org/1999/xlink" x="0px" y="0px"
	 width="122.27px" height="100.001px" viewBox="0 0 122.27 100.001" enable-background="new 0 0 122.27 100.001"
	 xml:space="preserve">
<g id="Layer_1">
</g>
<g id="Layer_2">
	<g>
		<g>
			<path d="M34.747,5.928V4.344h0.971c0.511,0,0.869-0.408,0.869-0.869V0.869C36.587,0.358,36.178,0,35.718,0h-5.621
				c-0.511,0-0.869,0.41-0.869,0.869v2.605c0,0.512,0.409,0.869,0.869,0.869h0.971v1.584c-2.964,0.357-5.672,1.533-7.92,3.271
				L22.279,8.33l0.102-0.103c0.358-0.358,0.358-0.92,0-1.277l-1.277-1.278c-0.358-0.357-0.92-0.357-1.277,0l-2.862,2.862
				c-0.357,0.357-0.357,0.92,0,1.277l1.277,1.277c0.358,0.358,0.92,0.358,1.278,0l0.102-0.103l0.869,0.869
				c-2.095,2.657-3.373,6.029-3.373,9.709c0,8.687,7.052,15.738,15.738,15.738c8.687,0,15.739-7.052,15.739-15.738
				c0-3.68-1.278-7.052-3.373-9.709l0.869-0.869l0.102,0.103c0.358,0.358,0.92,0.358,1.277,0l1.278-1.277
				c0.357-0.357,0.357-0.92,0-1.277l-2.862-2.862c-0.358-0.357-0.919-0.357-1.277,0L43.332,6.95c-0.358,0.357-0.358,0.919,0,1.277
				l0.102,0.103l-0.869,0.868C40.419,7.461,37.711,6.285,34.747,5.928z M44.967,21.564c0,6.643-5.417,12.059-12.06,12.059
				s-12.11-5.416-12.11-12.059s5.417-12.06,12.059-12.06C39.5,9.505,44.967,14.871,44.967,21.564z M4.854,27.338
				c0-0.868,0.715-1.584,1.584-1.584h7.972c0.255,1.074,0.562,2.045,0.971,3.066c-0.153,0.051-0.307,0.102-0.46,0.102H6.438
				C5.57,28.871,4.854,28.156,4.854,27.338z M14.359,17.374H1.584C0.715,17.374,0,16.658,0,15.79s0.715-1.584,1.584-1.584H14.87
				c0.153,0,0.307,0.052,0.46,0.052C14.921,15.33,14.614,16.301,14.359,17.374z M2.197,21.564c0-0.869,0.715-1.584,1.584-1.584
				h10.22c-0.051,0.511-0.051,1.021-0.051,1.533c0,0.511,0.051,1.072,0.051,1.584H3.781C2.913,23.148,2.197,22.434,2.197,21.564z
				 M40.47,17.067c-0.255-0.46-0.817-0.612-1.277-0.357l-5.468,2.657c-0.664-0.256-1.431-0.256-2.146,0.152
				c-1.124,0.665-1.533,2.146-0.817,3.271c0.664,1.124,2.146,1.533,3.27,0.817c0.665-0.409,1.073-1.073,1.175-1.788l4.957-3.475
				C40.624,18.039,40.726,17.477,40.47,17.067z M33.878,21.82c-0.153,0.562-0.715,0.919-1.277,0.766
				c-0.562-0.152-0.92-0.715-0.767-1.277s0.716-0.92,1.278-0.766C33.674,20.695,34.032,21.258,33.878,21.82z M35.922,15.177
				c-0.153-0.306-0.204-0.664,0-0.971c0.256-0.46,0.869-0.613,1.329-0.357c0.46,0.255,0.665,0.868,0.358,1.328
				c-0.256,0.46-0.869,0.613-1.329,0.358C36.127,15.483,36.025,15.33,35.922,15.177z M31.988,14.154
				c-0.102-0.152-0.153-0.306-0.153-0.51c0-0.562,0.409-0.971,0.971-0.971s0.971,0.408,0.971,0.971c0,0.562-0.409,0.971-0.971,0.971
				C32.448,14.666,32.141,14.461,31.988,14.154z M33.93,29.434c0,0.562-0.409,0.971-0.971,0.971c-0.358,0-0.665-0.204-0.869-0.511
				c-0.103-0.153-0.153-0.308-0.153-0.511c0-0.562,0.409-0.971,0.971-0.971l0,0C33.47,28.463,33.93,28.922,33.93,29.434z
				 M37.711,27.85c0.255,0.459,0.102,1.072-0.358,1.328c-0.459,0.256-1.073,0.103-1.328-0.357l0,0
				c-0.256-0.46-0.103-1.073,0.357-1.328C36.842,27.236,37.456,27.39,37.711,27.85z M40.624,25.908
				c-0.255,0.459-0.869,0.664-1.329,0.357c-0.153-0.103-0.255-0.205-0.357-0.357c-0.153-0.307-0.205-0.664,0-0.971
				c0.255-0.461,0.869-0.613,1.329-0.358C40.675,24.834,40.879,25.447,40.624,25.908z M24.987,22.637
				c-0.357,0-0.664-0.203-0.869-0.51c-0.102-0.154-0.153-0.307-0.153-0.512c0-0.562,0.409-0.971,0.971-0.971
				s0.971,0.408,0.971,0.971C25.958,22.178,25.549,22.637,24.987,22.637z M26.929,25.09c0.255,0.46,0.102,1.073-0.358,1.328
				c-0.459,0.256-1.073,0.104-1.329-0.357l0,0c-0.255-0.459-0.102-1.072,0.358-1.328S26.674,24.63,26.929,25.09z M40.777,20.491
				c0.562,0,0.971,0.409,0.971,0.971c0,0.562-0.408,0.972-0.971,0.972c-0.357,0-0.664-0.205-0.869-0.461
				c-0.102-0.152-0.153-0.307-0.153-0.511C39.806,20.951,40.215,20.491,40.777,20.491z M25.141,18.191
				c-0.153-0.307-0.204-0.664,0-0.971c0.255-0.459,0.869-0.664,1.329-0.357c0.46,0.256,0.664,0.869,0.358,1.328l0,0
				c-0.256,0.461-0.869,0.664-1.329,0.357C25.345,18.447,25.243,18.346,25.141,18.191z M28.002,15.279L28.002,15.279
				c-0.256-0.46-0.103-1.073,0.357-1.328l0,0l0,0c0.46-0.256,1.073-0.103,1.329,0.357c0.255,0.459,0.102,1.072-0.358,1.328l0,0l0,0
				l0,0C28.871,15.893,28.309,15.738,28.002,15.279z M29.842,28.922c-0.255,0.461-0.869,0.664-1.329,0.358
				c-0.153-0.103-0.255-0.204-0.357-0.358c-0.153-0.307-0.205-0.664,0-0.971c0.255-0.459,0.869-0.664,1.328-0.357
				C29.944,27.85,30.148,28.463,29.842,28.922z"/>
		</g>
		<g>
			<path d="M45.935,71.791c-0.233-0.266-0.662-0.212-0.822,0.104l-3.762,7.533c-0.192,0.382-0.16,0.839,0.081,1.194
				l3.199,4.07c0.396,0.563,0.547,1.264,0.417,1.942l-1.901,9.933c-0.289,1.509,0.731,2.957,2.249,3.191l1.335,0.209
				c1.387,0.215,2.708-0.662,3.049-2.022l3.937-15.725c0.205-0.817-0.007-1.683-0.566-2.312L45.935,71.791z"/>
			<circle cx="61.835" cy="37.303" r="7.043"/>
			<circle cx="115.226" cy="37.234" r="7.043"/>
			<path d="M86.129,71.355c-0.202-0.238-0.59-0.148-0.666,0.156l-2.046,7.555c-0.078,0.312-0.34,0.545-0.66,0.586
				l-12.667,1.606c-0.942,0.12-1.647,0.921-1.647,1.87v2.745c0,1.056,0.867,1.906,1.923,1.885l17.115-0.343
				c1.33-0.026,2.536-0.793,3.123-1.986l2.236-5.111c0.194-0.395,0.137-0.867-0.148-1.202L86.129,71.355z"/>
			<path d="M95.858,68.047l-8.47-4.254c-0.302,0.57-0.51,1.187-0.614,1.826l-0.193,0.771
				c-0.492,1.97-0.02,4.056,1.271,5.621l5.861,7.107l0.009-0.02l4.296,5.527c0.397,0.563,0.547,1.266,0.417,1.942l-1.901,9.933
				c-0.289,1.508,0.731,2.956,2.249,3.191l1.335,0.209c1.387,0.215,2.708-0.662,3.049-2.023l3.937-15.724
				c0.204-0.817-0.008-1.683-0.566-2.312l-8.436-9.62l0.054-0.072l-0.291-0.096L95.858,68.047z"/>
			<path d="M63.879,69.726l-2.961-1.259c-0.206-0.086-0.445-0.013-0.565,0.177l-1.819,2.665
				c-0.137,0.213-0.073,0.498,0.14,0.633l2.676,1.705c0.213,0.137,0.498,0.074,0.633-0.14l2.105-3.112
				C64.239,70.156,64.14,69.838,63.879,69.726z"/>
			<path d="M68.607,55.504l-3.974,6.557c-0.126,0.199-0.083,0.462,0.104,0.607l2.509,1.969
				c0.211,0.165,0.522,0.112,0.668-0.115l4.142-6.819c0.137-0.214,0.073-0.497-0.14-0.633l-2.676-1.705
				C69.027,55.228,68.742,55.291,68.607,55.504z"/>
			<path d="M121.077,65.634l-7.985-5.722c-0.623-0.447-0.963-1.191-0.893-1.955l0.763-8.309
				c0.061-0.664-0.074-1.334-0.386-1.924l-0.196-0.37c-1.188-2.243-3.22-3.92-5.649-4.659l-0.186-0.057
				c-0.904-0.275-1.844-0.415-2.79-0.415H88.947c-1.096,0-2.133,0.493-2.826,1.342l-8.014,9.826
				c-0.842,1.032-0.924,2.56-0.051,3.565c1.021,1.176,2.797,1.231,3.892,0.168l7.138-6.945c0.436-0.424,1.066-0.578,1.647-0.402
				l3.623,1.095c0.75,0.227,1.065,1.118,0.622,1.766l-6.9,10.077l-0.065,0.096l8.708,4.375l2.634,1.322l5.449-7.463
				c0.26-0.402,0.688,0.898,0.957,1.867c0.17,0.613,0.604,1.118,1.184,1.38l12.202,5.497c1.086,0.42,2.315-0.042,2.857-1.074
				C122.588,67.604,122.174,66.234,121.077,65.634z"/>
			<path d="M33.384,65.688l-3.357,13.449c-0.079,0.312-0.341,0.545-0.66,0.586L16.701,81.33
				c-0.941,0.119-1.647,0.921-1.647,1.869v2.746c0,1.055,0.867,1.906,1.923,1.885l17.115-0.344c1.331-0.025,2.536-0.793,3.124-1.986
				l7.34-14.911l-10.346-7.093C33.792,64.164,33.51,64.908,33.384,65.688z"/>
			<path d="M67.686,65.701l-7.985-5.722c-0.624-0.446-0.963-1.19-0.894-1.954l0.763-8.309
				c0.061-0.664-0.073-1.333-0.386-1.924l-0.194-0.366c-1.188-2.244-3.221-3.923-5.65-4.663l-0.184-0.057
				c-0.905-0.275-1.846-0.416-2.792-0.416H35.556c-1.095,0-2.132,0.494-2.825,1.342l-8.114,9.948
				c-0.875,1.073-0.788,2.636,0.202,3.605c1.038,1.017,2.698,1.019,3.739,0.006l7.139-6.946c0.436-0.422,1.066-0.577,1.647-0.4
				l3.622,1.094c0.751,0.227,1.065,1.119,0.622,1.766l-6.607,9.648l7.903,4.191l2.535,2.775l5.995-8.211
				c0.26-0.402,0.688,0.898,0.957,1.867c0.17,0.613,0.603,1.118,1.184,1.38l12.202,5.497c1.088,0.42,2.317-0.043,2.858-1.074
				C69.197,67.672,68.784,66.303,67.686,65.701z"/>
			<polygon points="34.981,62.354 34.923,62.439 45.267,69.529 45.419,69.32 42.884,66.545 			"/>
		</g>
	</g>
</g>
</svg>
