<?xml version="1.0" encoding="utf-8"?>
<!-- Generator: Adobe Illustrator 16.0.0, SVG Export Plug-In . SVG Version: 6.00 Build 0)  -->
<!DOCTYPE svg PUBLIC "-//W3C//DTD SVG 1.1//EN" "http://www.w3.org/Graphics/SVG/1.1/DTD/svg11.dtd">
<svg version="1.1" xmlns="http://www.w3.org/2000/svg" xmlns:xlink="http://www.w3.org/1999/xlink" x="0px" y="0px"
	 width="85.521px" height="80px" viewBox="0 0 85.521 80" enable-background="new 0 0 85.521 80" xml:space="preserve">
<g id="Layer_1">
</g>
<g id="Layer_2">
	<path d="M85.353,30.216l-1.633-3.503c1-2.372,2.599-7.718-0.082-13.464c-2.68-5.749-7.802-7.961-10.262-8.718
		l-1.633-3.502c-0.199-0.43-0.562-0.761-1.004-0.922c-0.445-0.16-0.936-0.141-1.363,0.059L57.052,5.914
		c-0.892,0.416-1.277,1.477-0.862,2.367l0.911,1.954l-29.854,13.92c-0.891,0.416-1.277,1.477-0.861,2.367l0.609,1.307L1.028,39.936
		c-0.429,0.199-0.76,0.562-0.921,1.004c-0.162,0.444-0.141,0.935,0.06,1.362l7.561,16.213c0.302,0.648,0.944,1.03,1.615,1.03
		c0.252,0,0.509-0.055,0.752-0.168l25.963-12.106l0.609,1.306c0.199,0.43,0.562,0.761,1.005,0.922
		c0.196,0.072,0.403,0.107,0.609,0.107c0.258,0,0.515-0.056,0.753-0.168l3.855-1.798L25.752,77.327
		c-0.493,0.852-0.2,1.941,0.651,2.434C26.684,79.924,26.99,80,27.293,80c0.617,0,1.215-0.32,1.544-0.891l16.64-28.822v27.932
		c0,0.984,0.798,1.781,1.782,1.781s1.781-0.797,1.781-1.781V50.287l16.641,28.822C66.011,79.682,66.609,80,67.225,80
		c0.302,0,0.608-0.076,0.89-0.239c0.852-0.492,1.144-1.582,0.652-2.434L49.773,44.432l19.118-8.916l0.911,1.954
		c0.199,0.429,0.562,0.76,1.005,0.922c0.197,0.071,0.404,0.106,0.609,0.106c0.258,0,0.515-0.056,0.753-0.168l12.324-5.747
		C85.384,32.167,85.769,31.107,85.353,30.216z M10.205,55.395L4.149,42.41l24.35-11.354l6.056,12.985L10.205,55.395z M39.145,45.456
		l-8.779-18.824l28.238-13.169l8.779,18.825L39.145,45.456z M72.276,34.349l-0.911-1.952l0,0l-1.731-3.715L60.172,8.389l9.095-4.242
		l12.105,25.96L72.276,34.349z M74.838,7.666c2.201,1.066,4.995,3.04,6.648,6.586c1.644,3.523,1.361,6.934,0.766,9.312L74.838,7.666
		z"/>
</g>
</svg>
