<?xml version="1.0" encoding="utf-8"?>
<!-- Generator: Adobe Illustrator 16.0.0, SVG Export Plug-In . SVG Version: 6.00 Build 0)  -->
<!DOCTYPE svg PUBLIC "-//W3C//DTD SVG 1.1//EN" "http://www.w3.org/Graphics/SVG/1.1/DTD/svg11.dtd">
<svg version="1.1" xmlns="http://www.w3.org/2000/svg" xmlns:xlink="http://www.w3.org/1999/xlink" x="0px" y="0px"
	 width="86.666px" height="100px" viewBox="0 0 86.666 100" enable-background="new 0 0 86.666 100" xml:space="preserve">
<g id="Layer_1">
</g>
<g id="Layer_2">
	<polygon points="3.223,75.001 4.889,77.778 6.444,75.001 9.666,75.001 11.223,77.778 9.666,80.557 12.889,80.557 
		14.445,83.335 16.111,80.557 19.223,80.557 17.667,77.778 19.223,75.001 22.444,75.001 24.111,77.778 25.666,75.001 28.889,75.001 
		30.556,77.778 28.889,80.557 32.111,80.557 33.667,83.335 32.111,86.111 28.889,86.111 30.556,88.89 28.889,91.667 32.111,91.667 
		33.667,94.445 35.334,91.667 38.557,91.667 40.111,94.445 38.557,97.224 41.777,97.224 43.334,100 44.889,97.224 48.111,97.224 
		46.556,94.445 48.111,91.667 51.334,91.667 53,94.445 54.555,91.667 57.777,91.667 56.111,88.89 57.777,86.111 54.555,86.111 
		53,83.335 54.555,80.557 57.777,80.557 56.111,77.778 57.777,75.001 61,75.001 62.556,77.778 64.223,75.001 67.445,75.001 
		69,77.778 67.445,80.557 70.556,80.557 72.223,83.335 73.777,80.557 77,80.557 75.444,77.778 77,75.001 80.223,75.001 
		81.777,77.778 83.445,75.001 86.666,75.001 85,72.223 86.666,69.444 83.445,69.444 81.777,66.668 83.445,63.89 86.666,63.89 
		85,61.112 86.666,58.334 83.445,58.334 81.777,55.556 80.223,58.334 77,58.334 75.444,55.556 77,52.778 73.777,52.778 72.223,50 
		73.777,47.224 77,47.224 75.444,44.445 77,41.667 80.223,41.667 81.777,44.445 83.445,41.667 86.666,41.667 85,38.89 
		86.666,36.111 83.445,36.111 81.777,33.335 83.445,30.557 86.666,30.557 85,27.778 86.666,25.001 83.445,25.001 81.777,22.223 
		80.223,25.001 77,25.001 75.444,22.223 77,19.444 73.777,19.444 72.223,16.668 70.556,19.444 67.445,19.444 69,22.223 
		67.445,25.001 64.223,25.001 62.556,22.223 61,25.001 57.777,25.001 56.111,22.223 57.777,19.444 54.555,19.444 53,16.668 
		54.555,13.89 57.777,13.89 56.111,11.112 57.777,8.334 54.555,8.334 53,5.556 51.334,8.334 48.111,8.334 46.556,5.556 
		48.111,2.778 44.889,2.778 43.334,0 41.777,2.778 38.557,2.778 40.111,5.556 38.557,8.334 35.334,8.334 33.667,5.556 32.111,8.334 
		28.889,8.334 30.556,11.112 28.889,13.89 32.111,13.89 33.667,16.668 32.111,19.444 28.889,19.444 30.556,22.223 28.889,25.001 
		25.666,25.001 24.111,22.223 22.444,25.001 19.223,25.001 17.667,22.223 19.223,19.444 16.111,19.444 14.445,16.668 12.889,19.444 
		9.666,19.444 11.223,22.223 9.666,25.001 6.444,25.001 4.889,22.223 3.223,25.001 0,25.001 1.667,27.778 0,30.557 3.223,30.557 
		4.889,33.335 3.223,36.111 0,36.111 1.667,38.89 0,41.667 3.223,41.667 4.889,44.445 6.444,41.667 9.666,41.667 11.223,44.445 
		9.666,47.224 12.889,47.224 14.445,50 12.889,52.778 9.666,52.778 11.223,55.556 9.666,58.334 6.444,58.334 4.889,55.556 
		3.223,58.334 0,58.334 1.667,61.112 0,63.89 3.223,63.89 4.889,66.668 3.223,69.444 0,69.444 1.667,72.223 0,75.001 	"/>
</g>
</svg>
