<?xml version="1.0" encoding="utf-8"?>
<!-- Generator: Adobe Illustrator 16.0.0, SVG Export Plug-In . SVG Version: 6.00 Build 0)  -->
<!DOCTYPE svg PUBLIC "-//W3C//DTD SVG 1.1//EN" "http://www.w3.org/Graphics/SVG/1.1/DTD/svg11.dtd">
<svg version="1.1" xmlns="http://www.w3.org/2000/svg" xmlns:xlink="http://www.w3.org/1999/xlink" x="0px" y="0px"
	 width="95.039px" height="89.167px" viewBox="0 0 95.039 89.167" enable-background="new 0 0 95.039 89.167" xml:space="preserve">
<g id="Layer_1">
</g>
<g id="Layer_2">
	<g>
		<path d="M5.523,12.156H3.102V2.75H0V0.734h8.625V2.75H5.523V12.156z"/>
		<path d="M14.148,12.312c-1.406,0-2.505-0.388-3.297-1.164S9.664,9.273,9.664,7.852c0-1.464,0.366-2.595,1.098-3.395
			s1.743-1.199,3.035-1.199c1.234,0,2.195,0.352,2.883,1.055s1.031,1.675,1.031,2.914v1.156h-5.633
			c0.026,0.677,0.227,1.206,0.602,1.586s0.901,0.57,1.578,0.57c0.526,0,1.023-0.055,1.492-0.164s0.958-0.284,1.469-0.523v1.844
			c-0.417,0.208-0.862,0.363-1.336,0.465S14.831,12.312,14.148,12.312z M13.812,4.953c-0.505,0-0.901,0.16-1.188,0.48
			s-0.45,0.774-0.492,1.363h3.344c-0.011-0.589-0.164-1.043-0.461-1.363S14.317,4.953,13.812,4.953z"/>
		<path d="M23.195,12.312c-2.719,0-4.078-1.492-4.078-4.477c0-1.484,0.37-2.618,1.109-3.402s1.8-1.176,3.18-1.176
			c1.011,0,1.917,0.198,2.719,0.594l-0.703,1.844c-0.375-0.151-0.724-0.274-1.047-0.371S23.729,5.18,23.406,5.18
			c-1.239,0-1.859,0.88-1.859,2.641c0,1.708,0.62,2.562,1.859,2.562c0.458,0,0.883-0.062,1.273-0.184s0.781-0.313,1.172-0.574v2.039
			c-0.386,0.245-0.774,0.414-1.168,0.508S23.794,12.312,23.195,12.312z"/>
		<path d="M35.938,12.156h-2.383V7.055c0-1.261-0.469-1.891-1.406-1.891c-0.667,0-1.148,0.227-1.445,0.68
			s-0.445,1.188-0.445,2.203v4.109h-2.383V0h2.383v2.477c0,0.192-0.019,0.646-0.055,1.359l-0.055,0.703h0.125
			c0.531-0.854,1.375-1.281,2.531-1.281c1.026,0,1.805,0.276,2.336,0.828s0.797,1.344,0.797,2.375V12.156z"/>
		<path d="M46.453,12.156H44.07V7.055c0-0.63-0.112-1.103-0.336-1.418s-0.581-0.473-1.07-0.473
			c-0.667,0-1.148,0.223-1.445,0.668s-0.445,1.184-0.445,2.215v4.109h-2.383V3.422h1.82l0.32,1.117h0.133
			c0.266-0.422,0.632-0.741,1.098-0.957s0.996-0.324,1.59-0.324c1.016,0,1.786,0.274,2.312,0.824s0.789,1.343,0.789,2.379V12.156z"
			/>
		<path d="M56.844,7.773c0,1.422-0.375,2.534-1.125,3.336s-1.794,1.203-3.133,1.203c-0.839,0-1.578-0.184-2.219-0.551
			s-1.133-0.895-1.477-1.582s-0.516-1.489-0.516-2.406c0-1.427,0.372-2.536,1.117-3.328s1.792-1.188,3.141-1.188
			c0.839,0,1.578,0.183,2.219,0.547s1.133,0.888,1.477,1.57S56.844,6.856,56.844,7.773z M50.805,7.773
			c0,0.864,0.142,1.519,0.426,1.961s0.746,0.664,1.387,0.664c0.636,0,1.093-0.22,1.371-0.66s0.418-1.095,0.418-1.965
			c0-0.864-0.141-1.513-0.422-1.945S53.242,5.18,52.602,5.18c-0.636,0-1.094,0.215-1.375,0.645S50.805,6.903,50.805,7.773z"/>
		<path d="M61.195,12.156h-2.383V0h2.383V12.156z"/>
		<path d="M71.633,7.773c0,1.422-0.375,2.534-1.125,3.336s-1.794,1.203-3.133,1.203c-0.839,0-1.578-0.184-2.219-0.551
			s-1.133-0.895-1.477-1.582s-0.516-1.489-0.516-2.406c0-1.427,0.372-2.536,1.117-3.328s1.792-1.188,3.141-1.188
			c0.839,0,1.578,0.183,2.219,0.547s1.133,0.888,1.477,1.57S71.633,6.856,71.633,7.773z M65.594,7.773
			c0,0.864,0.142,1.519,0.426,1.961s0.746,0.664,1.387,0.664c0.636,0,1.093-0.22,1.371-0.66s0.418-1.095,0.418-1.965
			c0-0.864-0.141-1.513-0.422-1.945S68.031,5.18,67.391,5.18c-0.636,0-1.094,0.215-1.375,0.645S65.594,6.903,65.594,7.773z"/>
		<path d="M81.203,3.422v1.211l-1.367,0.352c0.25,0.391,0.375,0.828,0.375,1.312c0,0.938-0.327,1.668-0.98,2.191
			s-1.562,0.785-2.723,0.785l-0.43-0.023l-0.352-0.039c-0.245,0.188-0.367,0.396-0.367,0.625c0,0.344,0.438,0.516,1.312,0.516h1.484
			c0.958,0,1.688,0.206,2.191,0.617s0.754,1.016,0.754,1.812c0,1.021-0.426,1.812-1.277,2.375S77.75,16,76.156,16
			c-1.219,0-2.149-0.212-2.793-0.637s-0.965-1.02-0.965-1.785c0-0.526,0.164-0.966,0.492-1.32s0.81-0.606,1.445-0.758
			c-0.245-0.104-0.458-0.274-0.641-0.512s-0.273-0.488-0.273-0.754c0-0.333,0.097-0.61,0.289-0.832s0.472-0.438,0.836-0.652
			c-0.458-0.198-0.821-0.516-1.09-0.953s-0.402-0.953-0.402-1.547c0-0.953,0.31-1.69,0.93-2.211s1.505-0.781,2.656-0.781
			c0.245,0,0.535,0.022,0.871,0.066s0.551,0.077,0.645,0.098H81.203z M74.461,13.391c0,0.328,0.157,0.586,0.473,0.773
			s0.757,0.281,1.324,0.281c0.854,0,1.523-0.117,2.008-0.352s0.727-0.555,0.727-0.961c0-0.328-0.144-0.555-0.43-0.68
			s-0.729-0.188-1.328-0.188H76c-0.438,0-0.804,0.103-1.098,0.309S74.461,13.052,74.461,13.391z M75.328,6.281
			c0,0.474,0.108,0.849,0.324,1.125s0.546,0.414,0.988,0.414c0.448,0,0.776-0.138,0.984-0.414s0.312-0.651,0.312-1.125
			c0-1.052-0.433-1.578-1.297-1.578C75.766,4.703,75.328,5.229,75.328,6.281z"/>
		<path d="M82.539,1.164C82.539,0.388,82.972,0,83.836,0s1.297,0.388,1.297,1.164c0,0.37-0.108,0.657-0.324,0.863
			s-0.54,0.309-0.973,0.309C82.972,2.336,82.539,1.945,82.539,1.164z M85.023,12.156h-2.383V3.422h2.383V12.156z"/>
		<path d="M91.477,12.312c-1.406,0-2.505-0.388-3.297-1.164s-1.188-1.875-1.188-3.297c0-1.464,0.366-2.595,1.098-3.395
			s1.743-1.199,3.035-1.199c1.234,0,2.195,0.352,2.883,1.055s1.031,1.675,1.031,2.914v1.156h-5.633
			c0.026,0.677,0.227,1.206,0.602,1.586s0.901,0.57,1.578,0.57c0.526,0,1.023-0.055,1.492-0.164s0.958-0.284,1.469-0.523v1.844
			c-0.417,0.208-0.862,0.363-1.336,0.465S92.159,12.312,91.477,12.312z M91.141,4.953c-0.505,0-0.901,0.16-1.188,0.48
			s-0.45,0.774-0.492,1.363h3.344c-0.011-0.589-0.164-1.043-0.461-1.363S91.646,4.953,91.141,4.953z"/>
		<path d="M8.688,31.356V19.935h2.422v11.422H8.688z"/>
		<path d="M21.859,31.356h-2.383v-5.102c0-0.63-0.112-1.103-0.336-1.418s-0.581-0.473-1.07-0.473
			c-0.667,0-1.148,0.223-1.445,0.668s-0.445,1.184-0.445,2.215v4.109h-2.383v-8.734h1.82l0.32,1.117h0.133
			c0.266-0.422,0.632-0.741,1.098-0.957s0.996-0.324,1.59-0.324c1.016,0,1.786,0.274,2.312,0.824s0.789,1.343,0.789,2.379V31.356z"
			/>
		<path d="M27.078,31.513c-1.026,0-1.832-0.398-2.418-1.195s-0.879-1.901-0.879-3.312c0-1.433,0.298-2.548,0.895-3.348
			s1.418-1.199,2.465-1.199c1.099,0,1.938,0.427,2.516,1.281h0.078c-0.12-0.651-0.18-1.231-0.18-1.742V19.2h2.391v12.156h-1.828
			l-0.461-1.133h-0.102C29.013,31.083,28.188,31.513,27.078,31.513z M27.914,29.614c0.609,0,1.056-0.177,1.34-0.531
			s0.438-0.956,0.465-1.805v-0.258c0-0.938-0.145-1.609-0.434-2.016s-0.759-0.609-1.41-0.609c-0.531,0-0.944,0.226-1.238,0.676
			s-0.441,1.105-0.441,1.965s0.148,1.504,0.445,1.934S27.362,29.614,27.914,29.614z"/>
		<path d="M40.625,31.356l-0.32-1.117H40.18c-0.255,0.406-0.617,0.72-1.086,0.941s-1.003,0.332-1.602,0.332
			c-1.026,0-1.8-0.274-2.32-0.824s-0.781-1.34-0.781-2.371v-5.695h2.383v5.102c0,0.63,0.112,1.103,0.336,1.418
			s0.581,0.473,1.07,0.473c0.667,0,1.148-0.223,1.445-0.668s0.445-1.184,0.445-2.215v-4.109h2.383v8.734H40.625z"/>
		<path d="M51.047,28.763c0,0.896-0.312,1.578-0.934,2.047s-1.554,0.703-2.793,0.703c-0.636,0-1.177-0.043-1.625-0.129
			s-0.867-0.212-1.258-0.379v-1.969c0.442,0.208,0.941,0.383,1.496,0.523s1.043,0.211,1.465,0.211c0.864,0,1.297-0.25,1.297-0.75
			c0-0.188-0.058-0.34-0.172-0.457s-0.312-0.25-0.594-0.398s-0.656-0.321-1.125-0.52c-0.672-0.281-1.165-0.542-1.48-0.781
			s-0.544-0.515-0.688-0.824s-0.215-0.691-0.215-1.145c0-0.776,0.301-1.376,0.902-1.801s1.454-0.637,2.559-0.637
			c1.052,0,2.075,0.229,3.07,0.688l-0.719,1.719c-0.438-0.188-0.847-0.341-1.227-0.461s-0.769-0.18-1.164-0.18
			c-0.703,0-1.055,0.19-1.055,0.57c0,0.214,0.113,0.398,0.34,0.555s0.723,0.388,1.488,0.695c0.683,0.276,1.183,0.534,1.5,0.773
			s0.552,0.516,0.703,0.828S51.047,28.33,51.047,28.763z"/>
		<path d="M56.586,29.614c0.417,0,0.917-0.091,1.5-0.273v1.773c-0.594,0.266-1.323,0.398-2.188,0.398
			c-0.953,0-1.647-0.241-2.082-0.723s-0.652-1.204-0.652-2.168v-4.211h-1.141v-1.008l1.312-0.797l0.688-1.844h1.523v1.859h2.445
			v1.789h-2.445v4.211c0,0.339,0.095,0.589,0.285,0.75S56.273,29.614,56.586,29.614z"/>
		<path d="M64.727,22.458c0.323,0,0.591,0.023,0.805,0.07l-0.18,2.234c-0.192-0.052-0.427-0.078-0.703-0.078
			c-0.761,0-1.353,0.195-1.777,0.586s-0.637,0.938-0.637,1.641v4.445h-2.383v-8.734h1.805l0.352,1.469h0.117
			c0.271-0.489,0.637-0.884,1.098-1.184S64.185,22.458,64.727,22.458z"/>
		<path d="M67.016,20.364c0-0.776,0.433-1.164,1.297-1.164s1.297,0.388,1.297,1.164c0,0.37-0.108,0.657-0.324,0.863
			s-0.54,0.309-0.973,0.309C67.448,21.536,67.016,21.146,67.016,20.364z M69.5,31.356h-2.383v-8.734H69.5V31.356z"/>
		<path d="M75.953,31.513c-1.406,0-2.505-0.388-3.297-1.164s-1.188-1.875-1.188-3.297c0-1.464,0.366-2.595,1.098-3.395
			s1.743-1.199,3.035-1.199c1.234,0,2.195,0.352,2.883,1.055s1.031,1.675,1.031,2.914v1.156h-5.633
			c0.026,0.677,0.227,1.206,0.602,1.586s0.901,0.57,1.578,0.57c0.526,0,1.023-0.055,1.492-0.164s0.958-0.284,1.469-0.523v1.844
			c-0.417,0.208-0.862,0.363-1.336,0.465S76.636,31.513,75.953,31.513z M75.617,24.153c-0.505,0-0.901,0.16-1.188,0.48
			s-0.45,0.774-0.492,1.363h3.344c-0.011-0.589-0.164-1.043-0.461-1.363S76.122,24.153,75.617,24.153z"/>
		<path d="M87.547,28.763c0,0.896-0.312,1.578-0.934,2.047s-1.554,0.703-2.793,0.703c-0.636,0-1.177-0.043-1.625-0.129
			s-0.867-0.212-1.258-0.379v-1.969c0.442,0.208,0.941,0.383,1.496,0.523s1.043,0.211,1.465,0.211c0.864,0,1.297-0.25,1.297-0.75
			c0-0.188-0.058-0.34-0.172-0.457s-0.312-0.25-0.594-0.398s-0.656-0.321-1.125-0.52c-0.672-0.281-1.165-0.542-1.48-0.781
			s-0.544-0.515-0.688-0.824s-0.215-0.691-0.215-1.145c0-0.776,0.301-1.376,0.902-1.801s1.454-0.637,2.559-0.637
			c1.052,0,2.075,0.229,3.07,0.688l-0.719,1.719c-0.438-0.188-0.847-0.341-1.227-0.461s-0.769-0.18-1.164-0.18
			c-0.703,0-1.055,0.19-1.055,0.57c0,0.214,0.113,0.398,0.34,0.555s0.723,0.388,1.488,0.695c0.683,0.276,1.183,0.534,1.5,0.773
			s0.552,0.516,0.703,0.828S87.547,28.33,87.547,28.763z"/>
		<path d="M15.848,50.556H9.27V39.134h6.578v1.984h-4.156v2.508h3.867v1.984h-3.867v2.945h4.156V50.556z"/>
		<path d="M20.809,50.712c-1.026,0-1.832-0.398-2.418-1.195s-0.879-1.901-0.879-3.312c0-1.433,0.298-2.548,0.895-3.348
			s1.418-1.199,2.465-1.199c1.099,0,1.938,0.427,2.516,1.281h0.078c-0.12-0.651-0.18-1.231-0.18-1.742v-2.797h2.391v12.156h-1.828
			l-0.461-1.133h-0.102C22.743,50.282,21.918,50.712,20.809,50.712z M21.645,48.813c0.609,0,1.056-0.177,1.34-0.531
			s0.438-0.956,0.465-1.805V46.22c0-0.938-0.145-1.609-0.434-2.016s-0.759-0.609-1.41-0.609c-0.531,0-0.944,0.226-1.238,0.676
			s-0.441,1.105-0.441,1.965s0.148,1.504,0.445,1.934S21.093,48.813,21.645,48.813z"/>
		<path d="M34.355,50.556l-0.32-1.117H33.91c-0.255,0.406-0.617,0.72-1.086,0.941s-1.003,0.332-1.602,0.332
			c-1.026,0-1.8-0.274-2.32-0.824s-0.781-1.34-0.781-2.371v-5.695h2.383v5.102c0,0.63,0.112,1.103,0.336,1.418
			s0.581,0.473,1.07,0.473c0.667,0,1.148-0.223,1.445-0.668s0.445-1.184,0.445-2.215v-4.109h2.383v8.734H34.355z"/>
		<path d="M42.23,50.712c-2.719,0-4.078-1.492-4.078-4.477c0-1.484,0.37-2.618,1.109-3.402s1.8-1.176,3.18-1.176
			c1.011,0,1.917,0.198,2.719,0.594l-0.703,1.844c-0.375-0.151-0.724-0.274-1.047-0.371s-0.646-0.145-0.969-0.145
			c-1.239,0-1.859,0.88-1.859,2.641c0,1.708,0.62,2.562,1.859,2.562c0.458,0,0.883-0.062,1.273-0.184s0.781-0.313,1.172-0.574v2.039
			c-0.386,0.245-0.774,0.414-1.168,0.508S42.829,50.712,42.23,50.712z"/>
		<path d="M52.457,50.556l-0.461-1.188h-0.062c-0.401,0.505-0.813,0.855-1.238,1.051s-0.978,0.293-1.66,0.293
			c-0.839,0-1.499-0.239-1.98-0.719s-0.723-1.161-0.723-2.047c0-0.927,0.324-1.61,0.973-2.051s1.626-0.684,2.934-0.73l1.516-0.047
			v-0.383c0-0.886-0.453-1.328-1.359-1.328c-0.698,0-1.519,0.211-2.461,0.633l-0.789-1.609c1.005-0.526,2.12-0.789,3.344-0.789
			c1.172,0,2.07,0.255,2.695,0.766s0.938,1.286,0.938,2.328v5.82H52.457z M51.754,46.509l-0.922,0.031
			c-0.692,0.021-1.208,0.146-1.547,0.375s-0.508,0.578-0.508,1.047c0,0.672,0.386,1.008,1.156,1.008
			c0.552,0,0.993-0.159,1.324-0.477s0.496-0.739,0.496-1.266V46.509z"/>
		<path d="M60.254,48.813c0.417,0,0.917-0.091,1.5-0.273v1.773c-0.594,0.266-1.323,0.398-2.188,0.398
			c-0.953,0-1.647-0.241-2.082-0.723s-0.652-1.204-0.652-2.168V43.61h-1.141v-1.008l1.312-0.797l0.688-1.844h1.523v1.859h2.445
			v1.789h-2.445v4.211c0,0.339,0.095,0.589,0.285,0.75S59.941,48.813,60.254,48.813z"/>
		<path d="M63.418,39.563c0-0.776,0.433-1.164,1.297-1.164s1.297,0.388,1.297,1.164c0,0.37-0.108,0.657-0.324,0.863
			s-0.54,0.309-0.973,0.309C63.851,40.735,63.418,40.345,63.418,39.563z M65.902,50.556H63.52v-8.734h2.383V50.556z"/>
		<path d="M76.34,46.173c0,1.422-0.375,2.534-1.125,3.336s-1.794,1.203-3.133,1.203c-0.839,0-1.578-0.184-2.219-0.551
			s-1.133-0.895-1.477-1.582s-0.516-1.489-0.516-2.406c0-1.427,0.372-2.536,1.117-3.328s1.792-1.188,3.141-1.188
			c0.839,0,1.578,0.183,2.219,0.547s1.133,0.888,1.477,1.57S76.34,45.256,76.34,46.173z M70.301,46.173
			c0,0.864,0.142,1.519,0.426,1.961s0.746,0.664,1.387,0.664c0.636,0,1.093-0.22,1.371-0.66s0.418-1.095,0.418-1.965
			c0-0.864-0.141-1.513-0.422-1.945s-0.742-0.648-1.383-0.648c-0.636,0-1.094,0.215-1.375,0.645S70.301,45.303,70.301,46.173z"/>
		<path d="M86.371,50.556h-2.383v-5.102c0-0.63-0.112-1.103-0.336-1.418s-0.581-0.473-1.07-0.473
			c-0.667,0-1.148,0.223-1.445,0.668s-0.445,1.184-0.445,2.215v4.109h-2.383v-8.734h1.82l0.32,1.117h0.133
			c0.266-0.422,0.632-0.741,1.098-0.957s0.996-0.324,1.59-0.324c1.016,0,1.786,0.274,2.312,0.824s0.789,1.343,0.789,2.379V50.556z"
			/>
		<path d="M16.227,61.896c0,1.229-0.384,2.169-1.152,2.82s-1.86,0.977-3.277,0.977h-1.039v4.062H8.336V58.334h3.648
			c1.386,0,2.438,0.298,3.16,0.895S16.227,60.714,16.227,61.896z M10.758,63.709h0.797c0.745,0,1.302-0.147,1.672-0.441
			s0.555-0.723,0.555-1.285c0-0.567-0.155-0.987-0.465-1.258s-0.796-0.406-1.457-0.406h-1.102V63.709z"/>
		<path d="M22.148,69.912c-1.406,0-2.505-0.388-3.297-1.164s-1.188-1.875-1.188-3.297c0-1.464,0.366-2.595,1.098-3.395
			s1.743-1.199,3.035-1.199c1.234,0,2.195,0.352,2.883,1.055s1.031,1.675,1.031,2.914v1.156h-5.633
			c0.026,0.677,0.227,1.206,0.602,1.586s0.901,0.57,1.578,0.57c0.526,0,1.023-0.055,1.492-0.164s0.958-0.284,1.469-0.523v1.844
			c-0.417,0.208-0.862,0.363-1.336,0.465S22.831,69.912,22.148,69.912z M21.812,62.553c-0.505,0-0.901,0.16-1.188,0.48
			s-0.45,0.774-0.492,1.363h3.344c-0.011-0.589-0.164-1.043-0.461-1.363S22.317,62.553,21.812,62.553z M20.438,60.061V59.85
			c0.896-1.042,1.508-1.825,1.836-2.352h2.672v0.164c-0.271,0.271-0.733,0.673-1.387,1.207s-1.165,0.931-1.535,1.191H20.438z"/>
		<path d="M30.414,69.912c-1.026,0-1.832-0.398-2.418-1.195s-0.879-1.901-0.879-3.312c0-1.433,0.298-2.548,0.895-3.348
			s1.418-1.199,2.465-1.199c1.099,0,1.938,0.427,2.516,1.281h0.078c-0.12-0.651-0.18-1.231-0.18-1.742V57.6h2.391v12.156h-1.828
			l-0.461-1.133h-0.102C32.349,69.482,31.523,69.912,30.414,69.912z M31.25,68.014c0.609,0,1.056-0.177,1.34-0.531
			s0.438-0.956,0.465-1.805V65.42c0-0.938-0.145-1.609-0.434-2.016s-0.759-0.609-1.41-0.609c-0.531,0-0.944,0.226-1.238,0.676
			s-0.441,1.105-0.441,1.965s0.148,1.504,0.445,1.934S30.698,68.014,31.25,68.014z"/>
		<path d="M43.32,69.756l-0.461-1.188h-0.062c-0.401,0.505-0.813,0.855-1.238,1.051s-0.978,0.293-1.66,0.293
			c-0.839,0-1.499-0.239-1.98-0.719s-0.723-1.161-0.723-2.047c0-0.927,0.324-1.61,0.973-2.051s1.626-0.684,2.934-0.73l1.516-0.047
			v-0.383c0-0.886-0.453-1.328-1.359-1.328c-0.698,0-1.519,0.211-2.461,0.633l-0.789-1.609c1.005-0.526,2.12-0.789,3.344-0.789
			c1.172,0,2.07,0.255,2.695,0.766s0.938,1.286,0.938,2.328v5.82H43.32z M42.617,65.709l-0.922,0.031
			c-0.692,0.021-1.208,0.146-1.547,0.375s-0.508,0.578-0.508,1.047c0,0.672,0.386,1.008,1.156,1.008
			c0.552,0,0.993-0.159,1.324-0.477s0.496-0.739,0.496-1.266V65.709z"/>
		<path d="M55.039,61.021v1.211l-1.367,0.352c0.25,0.391,0.375,0.828,0.375,1.312c0,0.938-0.327,1.668-0.98,2.191
			s-1.562,0.785-2.723,0.785l-0.43-0.023l-0.352-0.039c-0.245,0.188-0.367,0.396-0.367,0.625c0,0.344,0.438,0.516,1.312,0.516h1.484
			c0.958,0,1.688,0.206,2.191,0.617s0.754,1.016,0.754,1.812c0,1.021-0.426,1.812-1.277,2.375S51.586,73.6,49.992,73.6
			c-1.219,0-2.149-0.212-2.793-0.637s-0.965-1.02-0.965-1.785c0-0.526,0.164-0.966,0.492-1.32s0.81-0.606,1.445-0.758
			c-0.245-0.104-0.458-0.274-0.641-0.512s-0.273-0.488-0.273-0.754c0-0.333,0.097-0.61,0.289-0.832s0.472-0.438,0.836-0.652
			c-0.458-0.198-0.821-0.516-1.09-0.953s-0.402-0.953-0.402-1.547c0-0.953,0.31-1.69,0.93-2.211s1.505-0.781,2.656-0.781
			c0.245,0,0.535,0.022,0.871,0.066s0.551,0.077,0.645,0.098H55.039z M48.297,70.99c0,0.328,0.157,0.586,0.473,0.773
			s0.757,0.281,1.324,0.281c0.854,0,1.523-0.117,2.008-0.352s0.727-0.555,0.727-0.961c0-0.328-0.144-0.555-0.43-0.68
			s-0.729-0.188-1.328-0.188h-1.234c-0.438,0-0.804,0.103-1.098,0.309S48.297,70.651,48.297,70.99z M49.164,63.881
			c0,0.474,0.108,0.849,0.324,1.125s0.546,0.414,0.988,0.414c0.448,0,0.776-0.138,0.984-0.414s0.312-0.651,0.312-1.125
			c0-1.052-0.433-1.578-1.297-1.578C49.602,62.303,49.164,62.829,49.164,63.881z"/>
		<path d="M64.414,65.373c0,1.422-0.375,2.534-1.125,3.336s-1.794,1.203-3.133,1.203c-0.839,0-1.578-0.184-2.219-0.551
			s-1.133-0.895-1.477-1.582s-0.516-1.489-0.516-2.406c0-1.427,0.372-2.536,1.117-3.328s1.792-1.188,3.141-1.188
			c0.839,0,1.578,0.183,2.219,0.547s1.133,0.888,1.477,1.57S64.414,64.456,64.414,65.373z M58.375,65.373
			c0,0.864,0.142,1.519,0.426,1.961s0.746,0.664,1.387,0.664c0.636,0,1.093-0.22,1.371-0.66s0.418-1.095,0.418-1.965
			c0-0.864-0.141-1.513-0.422-1.945s-0.742-0.648-1.383-0.648c-0.636,0-1.094,0.215-1.375,0.645S58.375,64.503,58.375,65.373z"/>
		<path d="M73.984,61.021v1.211l-1.367,0.352c0.25,0.391,0.375,0.828,0.375,1.312c0,0.938-0.327,1.668-0.98,2.191
			s-1.562,0.785-2.723,0.785l-0.43-0.023l-0.352-0.039c-0.245,0.188-0.367,0.396-0.367,0.625c0,0.344,0.438,0.516,1.312,0.516h1.484
			c0.958,0,1.688,0.206,2.191,0.617s0.754,1.016,0.754,1.812c0,1.021-0.426,1.812-1.277,2.375S70.531,73.6,68.938,73.6
			c-1.219,0-2.149-0.212-2.793-0.637s-0.965-1.02-0.965-1.785c0-0.526,0.164-0.966,0.492-1.32s0.81-0.606,1.445-0.758
			c-0.245-0.104-0.458-0.274-0.641-0.512s-0.273-0.488-0.273-0.754c0-0.333,0.097-0.61,0.289-0.832s0.472-0.438,0.836-0.652
			c-0.458-0.198-0.821-0.516-1.09-0.953s-0.402-0.953-0.402-1.547c0-0.953,0.31-1.69,0.93-2.211s1.505-0.781,2.656-0.781
			c0.245,0,0.535,0.022,0.871,0.066s0.551,0.077,0.645,0.098H73.984z M67.242,70.99c0,0.328,0.157,0.586,0.473,0.773
			s0.757,0.281,1.324,0.281c0.854,0,1.523-0.117,2.008-0.352s0.727-0.555,0.727-0.961c0-0.328-0.144-0.555-0.43-0.68
			s-0.729-0.188-1.328-0.188h-1.234c-0.438,0-0.804,0.103-1.098,0.309S67.242,70.651,67.242,70.99z M68.109,63.881
			c0,0.474,0.108,0.849,0.324,1.125s0.546,0.414,0.988,0.414c0.448,0,0.776-0.138,0.984-0.414s0.312-0.651,0.312-1.125
			c0-1.052-0.433-1.578-1.297-1.578C68.547,62.303,68.109,62.829,68.109,63.881z"/>
		<path d="M75.32,58.764c0-0.776,0.433-1.164,1.297-1.164s1.297,0.388,1.297,1.164c0,0.37-0.108,0.657-0.324,0.863
			s-0.54,0.309-0.973,0.309C75.753,59.936,75.32,59.545,75.32,58.764z M77.805,69.756h-2.383v-8.734h2.383V69.756z"/>
		<path d="M84.258,69.912c-1.406,0-2.505-0.388-3.297-1.164s-1.188-1.875-1.188-3.297c0-1.464,0.366-2.595,1.098-3.395
			s1.743-1.199,3.035-1.199c1.234,0,2.195,0.352,2.883,1.055s1.031,1.675,1.031,2.914v1.156h-5.633
			c0.026,0.677,0.227,1.206,0.602,1.586s0.901,0.57,1.578,0.57c0.526,0,1.023-0.055,1.492-0.164s0.958-0.284,1.469-0.523v1.844
			c-0.417,0.208-0.862,0.363-1.336,0.465S84.94,69.912,84.258,69.912z M83.922,62.553c-0.505,0-0.901,0.16-1.188,0.48
			s-0.45,0.774-0.492,1.363h3.344c-0.011-0.589-0.164-1.043-0.461-1.363S84.427,62.553,83.922,62.553z"/>
		<path d="M17.266,79.386c-0.911,0-1.617,0.343-2.117,1.027s-0.75,1.64-0.75,2.863c0,2.547,0.956,3.82,2.867,3.82
			c0.802,0,1.773-0.2,2.914-0.602v2.031c-0.938,0.391-1.984,0.586-3.141,0.586c-1.661,0-2.933-0.504-3.812-1.512
			s-1.32-2.454-1.32-4.34c0-1.188,0.216-2.228,0.648-3.121s1.054-1.578,1.863-2.055s1.759-0.715,2.848-0.715
			c1.109,0,2.224,0.269,3.344,0.805l-0.781,1.969c-0.427-0.203-0.856-0.38-1.289-0.531S17.683,79.386,17.266,79.386z"/>
		<path d="M28.609,88.956l-0.32-1.117h-0.125c-0.255,0.406-0.617,0.72-1.086,0.941s-1.003,0.332-1.602,0.332
			c-1.026,0-1.8-0.274-2.32-0.824s-0.781-1.34-0.781-2.371v-5.695h2.383v5.102c0,0.63,0.112,1.103,0.336,1.418
			s0.581,0.473,1.07,0.473c0.667,0,1.148-0.223,1.445-0.668s0.445-1.184,0.445-2.215v-4.109h2.383v8.734H28.609z"/>
		<path d="M35.32,88.956h-2.383V76.8h2.383V88.956z"/>
		<path d="M41.5,87.214c0.417,0,0.917-0.091,1.5-0.273v1.773c-0.594,0.266-1.323,0.398-2.188,0.398
			c-0.953,0-1.647-0.241-2.082-0.723s-0.652-1.204-0.652-2.168v-4.211h-1.141v-1.008l1.312-0.797l0.688-1.844h1.523v1.859h2.445
			v1.789h-2.445v4.211c0,0.339,0.095,0.589,0.285,0.75S41.188,87.214,41.5,87.214z"/>
		<path d="M50.953,88.956l-0.32-1.117h-0.125c-0.255,0.406-0.617,0.72-1.086,0.941s-1.003,0.332-1.602,0.332
			c-1.026,0-1.8-0.274-2.32-0.824s-0.781-1.34-0.781-2.371v-5.695h2.383v5.102c0,0.63,0.112,1.103,0.336,1.418
			s0.581,0.473,1.07,0.473c0.667,0,1.148-0.223,1.445-0.668s0.445-1.184,0.445-2.215v-4.109h2.383v8.734H50.953z"/>
		<path d="M60.156,80.058c0.323,0,0.591,0.023,0.805,0.07l-0.18,2.234c-0.192-0.052-0.427-0.078-0.703-0.078
			c-0.761,0-1.353,0.195-1.777,0.586s-0.637,0.938-0.637,1.641v4.445h-2.383v-8.734h1.805l0.352,1.469h0.117
			c0.271-0.489,0.637-0.884,1.098-1.184S59.614,80.058,60.156,80.058z"/>
		<path d="M66.5,89.112c-1.406,0-2.505-0.388-3.297-1.164s-1.188-1.875-1.188-3.297c0-1.464,0.366-2.595,1.098-3.395
			s1.743-1.199,3.035-1.199c1.234,0,2.195,0.352,2.883,1.055s1.031,1.675,1.031,2.914v1.156H64.43
			c0.026,0.677,0.227,1.206,0.602,1.586s0.901,0.57,1.578,0.57c0.526,0,1.023-0.055,1.492-0.164s0.958-0.284,1.469-0.523v1.844
			c-0.417,0.208-0.862,0.363-1.336,0.465S67.183,89.112,66.5,89.112z M66.164,81.753c-0.505,0-0.901,0.16-1.188,0.48
			s-0.45,0.774-0.492,1.363h3.344c-0.011-0.589-0.164-1.043-0.461-1.363S66.669,81.753,66.164,81.753z"/>
		<path d="M71.664,87.839c0-0.438,0.117-0.769,0.352-0.992s0.575-0.336,1.023-0.336c0.433,0,0.767,0.114,1.004,0.344
			s0.355,0.558,0.355,0.984c0,0.411-0.12,0.735-0.359,0.973s-0.573,0.355-1,0.355c-0.438,0-0.776-0.116-1.016-0.348
			S71.664,88.261,71.664,87.839z M76.219,87.839c0-0.438,0.117-0.769,0.352-0.992s0.578-0.336,1.031-0.336
			c0.433,0,0.767,0.114,1.004,0.344s0.355,0.558,0.355,0.984c0,0.411-0.12,0.735-0.359,0.973s-0.573,0.355-1,0.355
			c-0.442,0-0.784-0.116-1.023-0.348S76.219,88.261,76.219,87.839z M80.781,87.839c0-0.438,0.117-0.769,0.352-0.992
			s0.575-0.336,1.023-0.336c0.433,0,0.767,0.114,1.004,0.344s0.355,0.558,0.355,0.984c0,0.411-0.12,0.735-0.359,0.973
			s-0.573,0.355-1,0.355c-0.438,0-0.776-0.116-1.016-0.348S80.781,88.261,80.781,87.839z"/>
	</g>
</g>
</svg>
