<?xml version="1.0" encoding="utf-8"?>
<!-- Generator: Adobe Illustrator 16.0.0, SVG Export Plug-In . SVG Version: 6.00 Build 0)  -->
<!DOCTYPE svg PUBLIC "-//W3C//DTD SVG 1.1//EN" "http://www.w3.org/Graphics/SVG/1.1/DTD/svg11.dtd">
<svg version="1.1" id="Layer_1" xmlns="http://www.w3.org/2000/svg" xmlns:xlink="http://www.w3.org/1999/xlink" x="0px" y="0px"
	 width="95.039px" height="89.167px" viewBox="0 0 95.039 89.167" enable-background="new 0 0 95.039 89.167" xml:space="preserve">
<g id="Layer_1_1_">
</g>
<g>
	<g>
		<path fill-rule="evenodd" clip-rule="evenodd" d="M1.507,48.043c2.276,0.332,4.282,0.562,6.309,0.473
			c4.644-0.202,7.383-2.927,7.538-7.588c0.057-1.695-0.062-3.398-0.016-5.094c0.131-4.961,3.265-7.287,8.026-5.927
			c3.574,1.021,6.687,2.955,9.681,5.1c1.103,0.792,2.186,1.625,3.358,2.302c5.485,3.166,10.655,0.652,11.517-5.627
			c0.21-1.535,0.175-3.104-0.165-4.66c-1.294-5.931-5.22-7.581-10.487-7.381c-1.94,0.074-3.865,0.549-5.797,0.845
			c0.317-7.17,7.232-11.973,14.016-9.718c2.779,0.924,5.319,2.394,7.996,3.549c2.744,1.184,5.519,2.316,8.637,1.601
			c0.889-0.204,1.663-0.569,2.333-1.175c1.562-1.414,1.645-2.708,0.103-4.141c-2.059-1.913-4.562-3.169-7.021-4.47
			c-0.521-0.274-1.054-0.52-2.047-1.007c7.071-1.406,13.391-0.908,19.328,2.378c6.448,3.571,10.828,9.072,13.559,15.77
			c6.529,16.009,6.781,32.04-1.279,47.593c-5.079,9.799-13.424,14.945-24.679,14.526c-6.734-0.249-12.963-2.478-19.423-5.83
			c3.088-0.122,5.645,0.133,8.118-0.556c3.358-0.932,6.396-2.352,8.187-5.56c2.034-3.646,0.418-6.641-3.75-7.071
			c-3.194-0.331-6.187,0.6-9.194,1.428c-4.299,1.183-8.659,1.656-13.086,1.01c-2.775-0.407-5.094-1.672-6.919-4.229
			c2.865-0.539,5.453-1.148,7.45-3.206c1.913-1.972,2.66-4.125,2.006-6.848c-1.092-4.546-6.065-8.874-10.447-9.01
			c-2.042-0.064-3.7,0.582-5.035,2.155c-1.093,1.288-2.069,2.671-3.447,3.725c-3.926,3.008-7.318,3.174-11.399,0.409
			C4.024,50.825,2.716,49.682,1.507,48.043z M89.161,46.226c-0.118-7.528-1.986-14.656-5.875-21.222
			c-0.446-0.754-0.936-1.509-1.538-2.135c-0.634-0.663-1.479-0.683-2.223-0.122c-0.698,0.525-1.099,1.222-0.661,2.119
			c0.267,0.546,0.579,1.071,0.891,1.594c5.832,9.792,7.178,20.135,3.829,31.059c-1.041,3.398-2.581,6.552-4.541,9.508
			c-0.662,0.997-0.865,2.03,0.094,2.942c0.678,0.642,1.521,0.628,2.227,0.046c0.458-0.379,0.814-0.904,1.142-1.412
			C86.883,61.818,88.989,54.352,89.161,46.226z M80.942,45.581c-0.066-0.764-0.158-2.25-0.333-3.728
			c-0.574-4.861-2.274-9.326-4.881-13.447c-0.674-1.064-1.558-2.112-2.966-1.124c-1.187,0.831-0.901,1.957-0.252,3.056
			c6.304,10.663,6.25,21.306-0.15,31.906c-0.689,1.143-1.204,2.303,0.156,3.19c1.484,0.971,2.344-0.093,3.091-1.26
			C79.094,58.725,80.831,52.763,80.942,45.581z M72.357,46.236c0.01-4.486-1.674-10.177-3.908-13.28
			c-0.698-0.969-1.541-1.673-2.729-0.97c-1.248,0.739-1.169,1.793-0.47,2.97c4.446,7.497,4.473,14.999-0.037,22.493
			c-0.681,1.133-1.053,2.325,0.358,3.17c1.335,0.8,2.124-0.09,2.808-1.129C71.023,55.466,72.205,51.005,72.357,46.236z"/>
	</g>
</g>
</svg>
